999
FreeCAD v2022.111 28429 (Git)
  0
SECTION
  2
HEADER
  9
$ACADVER
  1
AC1014
  9
$ACADMAINTVER
 70
     9
  9
$DWGCODEPAGE
  3
ANSI_1252
  9
$TEXTSTYLE
  7
STANDARD
  9
$DIMSTYLE
  2
STANDARD
  9
$DIMTXSTY
  7
STANDARD
  9
$CMLSTYLE
  2
STANDARD
  9
$PEXTMAX
 10
50
 20
50
 30
50
  9
$PEXTMIN
 10
0
 20
0
 30
0
  9
$HANDSEED
  5
FFFF
  0
ENDSEC
  0
SECTION
  2
CLASSES
  0
CLASS
  1
ACDBDICTIONARYWDFLT
  2
AcDbDictionaryWithDefault
  3
ObjectDBX Classes
 90
        0
280
     0
281
     0
  0
CLASS
  1
XRECORD
  2
AcDbXrecord
  3
ObjectDBX Classes
 90
        0
280
     0
281
     0
  0
CLASS
  1
LWPOLYLINE
  2
AcDbPolyline
  3
ObjectDBX Classes
 90
        0
280
     0
281
     1
  0
ENDSEC
  0
SECTION
  2
TABLES
  0
TABLE
  2
VPORT
  5
20
330
0
100
AcDbSymbolTable
 70
     1
  0
VPORT
  5
21
330
20
100
AcDbSymbolTableRecord
100
AcDbViewportTableRecord
  2
*ACTIVE
 70
     0
  0
ENDTAB
  0
TABLE
  2
LTYPE
  5
22
330
0
100
AcDbSymbolTable
 70
     1
  0
LTYPE
  5
23
330
21
100
AcDbSymbolTableRecord
100
AcDbLinetypeTableRecord
  2
BYBLOCK
 70
     0
  3

 72
    65
 73
     0
 40
0.0
  0
LTYPE
  5
24
330
21
100
AcDbSymbolTableRecord
100
AcDbLinetypeTableRecord
  2
BYLAYER
 70
     0
  3

 72
    65
 73
     0
 40
0.0
  0
LTYPE
  5
25
330
21
100
AcDbSymbolTableRecord
100
AcDbLinetypeTableRecord
  2
CONTINUOUS
 70
     0
  3
Solid line
 72
    65
 73
     0
 40
0.0
  0
ENDTAB
  0
TABLE
  2
LAYER
  5
BCF
330
0
100
AcDbSymbolTable
 70
3
  0
LAYER
  5
BD0
330
BCF
100
AcDbSymbolTableRecord
100
AcDbLayerTableRecord
  2
0
 70
   0
 62
   7
  6
CONTINUOUS
  0
LAYER
  5
BD1
330
BCF
100
AcDbSymbolTableRecord
100
AcDbLayerTableRecord
  2
none
 70
    0
 62
    7
  6
CONTINUOUS
  0
LAYER
  5
BD2
330
BCF
100
AcDbSymbolTableRecord
100
AcDbLayerTableRecord
  2
Sketch
 70
    0
 62
    7
  6
CONTINUOUS
  0
ENDTAB
  0
TABLE
  2
STYLE
  5
70
330
0
100
AcDbSymbolTable
 70
     2
  0
STYLE
  5
71
330
70
100
AcDbSymbolTableRecord
100
AcDbTextStyleTableRecord
  2
STANDARD
 70
     0
 40
0.0
 41
1.0
 50
0.0
 71
     0
 42
2.5
  3
arial.ttf
  4

  0
STYLE
  5
72
330
70
100
AcDbSymbolTableRecord
100
AcDbTextStyleTableRecord
  2
ANNOTATIVE
 70
     0
 40
0.0
 41
1.0
 50
0.0
 71
     0
 42
2.5
  3
arial.ttf
  4

  0
ENDTAB
  0
TABLE
  2
VIEW
  5
73
330
0
100
AcDbSymbolTable
 70
     0
  0
ENDTAB
  0
TABLE
  2
UCS
  5
74
330
0
100
AcDbSymbolTable
 70
     0
  0
ENDTAB
  0
TABLE
  2
APPID
  5
75
330
0
100
AcDbSymbolTable
 70
     2
  0
APPID
  5
76
330
75
100
AcDbSymbolTableRecord
100
AcDbRegAppTableRecord
  2
ACAD
 70
     0
  0
APPID
  5
77
330
75
100
AcDbSymbolTableRecord
100
AcDbRegAppTableRecord
  2
ACADANNOTATIVE
 70
     0
  0
ENDTAB
  0
TABLE
  2
DIMSTYLE
  5
78
330
0
100
AcDbSymbolTable
 70
     2
  0
DIMSTYLE
105
79
330
78
100
AcDbSymbolTableRecord
100
AcDbDimStyleTableRecord
  2
STANDARD
 70
     0
  3

  4

  5

  6

  7

 40
0.0
 41
2.5
 42
0.625
 43
3.75
 44
1.25
 45
0.0
 46
0.0
 47
0.0
 48
0.0
140
2.5
141
2.5
142
0.0
143
0.03937007874016
144
1.0
145
0.0
146
1.0
147
0.625
 71
     0
 72
     0
 73
     0
 74
     0
 75
     0
 76
     0
 77
     1
 78
     8
170
     0
171
     3
172
     1
173
     0
174
     0
175
     0
176
     0
177
     0
178
     0
270
     2
271
     2
272
     2
273
     2
274
     3
340
71
275
     0
280
     0
281
     0
282
     0
283
     0
284
     8
285
     0
286
     0
287
     3
288
     0
  0
ENDTAB
  0
TABLE
  2
BLOCK_RECORD
  5
A01
330
0
100
AcDbSymbolTable
  70
5
  0
BLOCK_RECORD
  5
A02
330
A01
100
AcDbSymbolTableRecord
100
AcDbBlockTableRecord
  2
*MODEL_SPACE
  0
BLOCK_RECORD
  5
A03
330
A01
100
AcDbSymbolTableRecord
100
AcDbBlockTableRecord
  2
*PAPER_SPACE
  0
ENDTAB
  0
ENDSEC
  0
SECTION
  2
BLOCKS
  0
BLOCK
  5
A04
330
A02
100
AcDbEntity
  8
0
100
AcDbBlockBegin
  2
*MODEL_SPACE
 70
   0
 10
0
 20
0
 30
0
  3
*MODEL_SPACE
  1
 
  0
ENDBLK
  5
A05
330
A02
100
AcDbEntity
  8
0
100
AcDbBlockEnd
  0
BLOCK
  5
A06
330
A03
100
AcDbEntity
 67
1
  8
0
100
AcDbBlockBegin
  2
*PAPER_SPACE
 70
   0
 10
0
 20
0
 30
0
  3
*PAPER_SPACE
  1
 
  0
ENDBLK
  5
A07
330
A03
100
AcDbEntity
 67
    1
  8
0
100
AcDbBlockEnd
  0
ENDSEC
  0
SECTION
  2
ENTITIES
  0
LINE
  5
A08
330
A02
100
AcDbEntity
  8
Sketch
100
AcDbLine
 10
-17.1688
 20
44.1408
 30
0
 11
-17.1688
 21
47.6408
 31
0
  0
LINE
  5
A09
330
A02
100
AcDbEntity
  8
Sketch
100
AcDbLine
 10
-17.1688
 20
47.6408
 30
0
 11
-12.6688
 21
47.6408
 31
0
  0
ARC
  5
A0A
330
A02
100
AcDbEntity
  8
Sketch
100
AcDbCircle
 10
-12.6688
 20
50.6408
 30
0
 40
3
100
AcDbArc
 50
-90
 51
90
  0
LINE
  5
A0B
330
A02
100
AcDbEntity
  8
Sketch
100
AcDbLine
 10
-12.6688
 20
53.6408
 30
0
 11
-17.1688
 21
53.6408
 31
0
  0
LINE
  5
A0C
330
A02
100
AcDbEntity
  8
Sketch
100
AcDbLine
 10
-17.1688
 20
53.6408
 30
0
 11
-17.1688
 21
57.1408
 31
0
  0
LINE
  5
A0D
330
A02
100
AcDbEntity
  8
Sketch
100
AcDbLine
 10
-131.325
 20
-0.675
 30
0
 11
-131.325
 21
-13.375
 31
0
  0
ARC
  5
A0E
330
A02
100
AcDbEntity
  8
Sketch
100
AcDbCircle
 10
-128.65
 20
-13.375
 30
0
 40
2.675
100
AcDbArc
 50
180
 51
-90
  0
LINE
  5
A0F
330
A02
100
AcDbEntity
  8
Sketch
100
AcDbLine
 10
-128.65
 20
-16.05
 30
0
 11
-10.175
 21
-16.05
 31
0
  0
ARC
  5
A10
330
A02
100
AcDbEntity
  8
Sketch
100
AcDbCircle
 10
-10.175
 20
-13.375
 30
0
 40
2.675
100
AcDbArc
 50
-90
 51
0
  0
LINE
  5
A11
330
A02
100
AcDbEntity
  8
Sketch
100
AcDbLine
 10
-7.5
 20
-13.375
 30
0
 11
-7.5
 21
1.5
 31
0
  0
ARC
  5
A12
330
A02
100
AcDbEntity
  8
Sketch
100
AcDbCircle
 10
-6
 20
1.5
 30
0
 40
1.5
100
AcDbArc
 50
90
 51
180
  0
LINE
  5
A13
330
A02
100
AcDbEntity
  8
Sketch
100
AcDbLine
 10
-6
 20
3
 30
0
 11
-5.175
 21
3
 31
0
  0
ARC
  5
A14
330
A02
100
AcDbEntity
  8
Sketch
100
AcDbCircle
 10
-5.175
 20
5.675
 30
0
 40
2.675
100
AcDbArc
 50
-90
 51
-52.1208
  0
ARC
  5
A15
330
A02
100
AcDbEntity
  8
Sketch
100
AcDbCircle
 10
-3.83955
 20
3.95826
 30
0
 40
0.5
100
AcDbArc
 50
-52.1208
 51
78.8119
  0
ARC
  5
A16
330
A02
100
AcDbEntity
  8
Sketch
100
AcDbCircle
 10
-3.5
 20
5.675
 30
0
 40
1.25
100
AcDbArc
 50
101.188
 51
-101.188
  0
ARC
  5
A17
330
A02
100
AcDbEntity
  8
Sketch
100
AcDbCircle
 10
-3.83955
 20
7.39174
 30
0
 40
0.5
100
AcDbArc
 50
-78.8119
 51
52.1208
  0
ARC
  5
A18
330
A02
100
AcDbEntity
  8
Sketch
100
AcDbCircle
 10
-5.175
 20
5.675
 30
0
 40
2.675
100
AcDbArc
 50
52.1208
 51
90
  0
LINE
  5
A19
330
A02
100
AcDbEntity
  8
Sketch
100
AcDbLine
 10
-5.175
 20
8.35
 30
0
 11
-6
 21
8.35
 31
0
  0
ARC
  5
A1A
330
A02
100
AcDbEntity
  8
Sketch
100
AcDbCircle
 10
-6
 20
9.85
 30
0
 40
1.5
100
AcDbArc
 50
180
 51
-90
  0
LINE
  5
A1B
330
A02
100
AcDbEntity
  8
Sketch
100
AcDbLine
 10
-7.5
 20
9.85
 30
0
 11
-7.5
 21
72.35
 31
0
  0
ARC
  5
A1C
330
A02
100
AcDbEntity
  8
Sketch
100
AcDbCircle
 10
-6
 20
72.35
 30
0
 40
1.5
100
AcDbArc
 50
90
 51
180
  0
LINE
  5
A1D
330
A02
100
AcDbEntity
  8
Sketch
100
AcDbLine
 10
-6
 20
73.85
 30
0
 11
-5.175
 21
73.85
 31
0
  0
ARC
  5
A1E
330
A02
100
AcDbEntity
  8
Sketch
100
AcDbCircle
 10
-5.175
 20
76.525
 30
0
 40
2.675
100
AcDbArc
 50
-90
 51
-52.1208
  0
ARC
  5
A1F
330
A02
100
AcDbEntity
  8
Sketch
100
AcDbCircle
 10
-3.83955
 20
74.8083
 30
0
 40
0.5
100
AcDbArc
 50
-52.1208
 51
78.8119
  0
ARC
  5
A20
330
A02
100
AcDbEntity
  8
Sketch
100
AcDbCircle
 10
-3.5
 20
76.525
 30
0
 40
1.25
100
AcDbArc
 50
101.188
 51
-101.188
  0
ARC
  5
A21
330
A02
100
AcDbEntity
  8
Sketch
100
AcDbCircle
 10
-3.83955
 20
78.2417
 30
0
 40
0.5
100
AcDbArc
 50
-78.8119
 51
52.1208
  0
ARC
  5
A22
330
A02
100
AcDbEntity
  8
Sketch
100
AcDbCircle
 10
-5.175
 20
76.525
 30
0
 40
2.675
100
AcDbArc
 50
52.1208
 51
90
  0
LINE
  5
A23
330
A02
100
AcDbEntity
  8
Sketch
100
AcDbLine
 10
-5.175
 20
79.2
 30
0
 11
-252.713
 21
79.2
 31
0
  0
ARC
  5
A24
330
A02
100
AcDbEntity
  8
Sketch
100
AcDbCircle
 10
-252.713
 20
76.525
 30
0
 40
2.675
100
AcDbArc
 50
90
 51
127.879
  0
ARC
  5
A25
330
A02
100
AcDbEntity
  8
Sketch
100
AcDbCircle
 10
-254.048
 20
78.2417
 30
0
 40
0.5
100
AcDbArc
 50
127.879
 51
-101.188
  0
ARC
  5
A26
330
A02
100
AcDbEntity
  8
Sketch
100
AcDbCircle
 10
-254.387
 20
76.525
 30
0
 40
1.25
100
AcDbArc
 50
-78.8119
 51
78.8119
  0
ARC
  5
A27
330
A02
100
AcDbEntity
  8
Sketch
100
AcDbCircle
 10
-254.048
 20
74.8083
 30
0
 40
0.5
100
AcDbArc
 50
101.188
 51
-127.879
  0
ARC
  5
A28
330
A02
100
AcDbEntity
  8
Sketch
100
AcDbCircle
 10
-252.713
 20
76.525
 30
0
 40
2.675
100
AcDbArc
 50
-127.879
 51
-90
  0
LINE
  5
A29
330
A02
100
AcDbEntity
  8
Sketch
100
AcDbLine
 10
-252.713
 20
73.85
 30
0
 11
-251.888
 21
73.85
 31
0
  0
ARC
  5
A2A
330
A02
100
AcDbEntity
  8
Sketch
100
AcDbCircle
 10
-251.888
 20
72.35
 30
0
 40
1.5
100
AcDbArc
 50
0
 51
90
  0
LINE
  5
A2B
330
A02
100
AcDbEntity
  8
Sketch
100
AcDbLine
 10
-250.387
 20
72.35
 30
0
 11
-250.388
 21
9.85
 31
0
  0
ARC
  5
A2C
330
A02
100
AcDbEntity
  8
Sketch
100
AcDbCircle
 10
-251.888
 20
9.85
 30
0
 40
1.5
100
AcDbArc
 50
-90
 51
0
  0
LINE
  5
A2D
330
A02
100
AcDbEntity
  8
Sketch
100
AcDbLine
 10
-251.888
 20
8.35
 30
0
 11
-252.713
 21
8.35
 31
0
  0
ARC
  5
A2E
330
A02
100
AcDbEntity
  8
Sketch
100
AcDbCircle
 10
-252.713
 20
5.675
 30
0
 40
2.675
100
AcDbArc
 50
90
 51
127.879
  0
ARC
  5
A2F
330
A02
100
AcDbEntity
  8
Sketch
100
AcDbCircle
 10
-254.048
 20
7.39174
 30
0
 40
0.5
100
AcDbArc
 50
127.879
 51
-101.188
  0
ARC
  5
A30
330
A02
100
AcDbEntity
  8
Sketch
100
AcDbCircle
 10
-254.387
 20
5.675
 30
0
 40
1.25
100
AcDbArc
 50
-78.8119
 51
78.8119
  0
ARC
  5
A31
330
A02
100
AcDbEntity
  8
Sketch
100
AcDbCircle
 10
-254.048
 20
3.95826
 30
0
 40
0.5
100
AcDbArc
 50
101.188
 51
-127.879
  0
ARC
  5
A32
330
A02
100
AcDbEntity
  8
Sketch
100
AcDbCircle
 10
-252.713
 20
5.675
 30
0
 40
2.675
100
AcDbArc
 50
-127.879
 51
-90
  0
LINE
  5
A33
330
A02
100
AcDbEntity
  8
Sketch
100
AcDbLine
 10
-252.713
 20
3
 30
0
 11
-135
 21
3
 31
0
  0
ARC
  5
A34
330
A02
100
AcDbEntity
  8
Sketch
100
AcDbCircle
 10
-135
 20
-0.675
 30
0
 40
3.675
100
AcDbArc
 50
0
 51
90
  0
CIRCLE
  5
A35
330
A02
100
AcDbEntity
  8
Sketch
100
AcDbCircle
 10
-11.512
 20
-1.75
 40
1.75
  0
CIRCLE
  5
A36
330
A02
100
AcDbEntity
  8
Sketch
100
AcDbCircle
 10
-11.512
 20
-7.275
 40
1.75
  0
CIRCLE
  5
A37
330
A02
100
AcDbEntity
  8
Sketch
100
AcDbCircle
 10
-11.512
 20
-12.8
 40
1.75
  0
ARC
  5
A38
330
A02
100
AcDbEntity
  8
Sketch
100
AcDbCircle
 10
-20.05
 20
-0.025
 30
0
 40
0.49998
100
AcDbArc
 50
-1.39155e-14
 51
90
  0
LINE
  5
A39
330
A02
100
AcDbEntity
  8
Sketch
100
AcDbLine
 10
-20.05
 20
0.475
 30
0
 11
-33.05
 21
0.475
 31
0
  0
ARC
  5
A3A
330
A02
100
AcDbEntity
  8
Sketch
100
AcDbCircle
 10
-33.05
 20
-0.025
 30
0
 40
0.499977
100
AcDbArc
 50
90
 51
180
  0
LINE
  5
A3B
330
A02
100
AcDbEntity
  8
Sketch
100
AcDbLine
 10
-33.55
 20
-0.025
 30
0
 11
-33.55
 21
-13.025
 31
0
  0
ARC
  5
A3C
330
A02
100
AcDbEntity
  8
Sketch
100
AcDbCircle
 10
-33.05
 20
-13.025
 30
0
 40
0.499982
100
AcDbArc
 50
180
 51
-90
  0
LINE
  5
A3D
330
A02
100
AcDbEntity
  8
Sketch
100
AcDbLine
 10
-33.05
 20
-13.525
 30
0
 11
-20.05
 21
-13.525
 31
0
  0
ARC
  5
A3E
330
A02
100
AcDbEntity
  8
Sketch
100
AcDbCircle
 10
-20.05
 20
-13.025
 30
0
 40
0.499975
100
AcDbArc
 50
-90
 51
0
  0
LINE
  5
A3F
330
A02
100
AcDbEntity
  8
Sketch
100
AcDbLine
 10
-19.55
 20
-13.025
 30
0
 11
-19.55
 21
-0.025
 31
0
  0
ARC
  5
A40
330
A02
100
AcDbEntity
  8
Sketch
100
AcDbCircle
 10
-39.1
 20
-0.025
 30
0
 40
0.49998
100
AcDbArc
 50
-1.39155e-14
 51
90
  0
LINE
  5
A41
330
A02
100
AcDbEntity
  8
Sketch
100
AcDbLine
 10
-39.1
 20
0.475
 30
0
 11
-52.1
 21
0.475
 31
0
  0
ARC
  5
A42
330
A02
100
AcDbEntity
  8
Sketch
100
AcDbCircle
 10
-52.1
 20
-0.025
 30
0
 40
0.499984
100
AcDbArc
 50
90
 51
180
  0
LINE
  5
A43
330
A02
100
AcDbEntity
  8
Sketch
100
AcDbLine
 10
-52.6
 20
-0.025
 30
0
 11
-52.6
 21
-13.025
 31
0
  0
ARC
  5
A44
330
A02
100
AcDbEntity
  8
Sketch
100
AcDbCircle
 10
-52.1
 20
-13.025
 30
0
 40
0.499981
100
AcDbArc
 50
180
 51
-90
  0
LINE
  5
A45
330
A02
100
AcDbEntity
  8
Sketch
100
AcDbLine
 10
-52.1
 20
-13.525
 30
0
 11
-39.1
 21
-13.525
 31
0
  0
ARC
  5
A46
330
A02
100
AcDbEntity
  8
Sketch
100
AcDbCircle
 10
-39.1
 20
-13.025
 30
0
 40
0.499981
100
AcDbArc
 50
-90
 51
0
  0
LINE
  5
A47
330
A02
100
AcDbEntity
  8
Sketch
100
AcDbLine
 10
-38.6
 20
-13.025
 30
0
 11
-38.6
 21
-0.025
 31
0
  0
ARC
  5
A48
330
A02
100
AcDbEntity
  8
Sketch
100
AcDbCircle
 10
-58.15
 20
-0.025
 30
0
 40
0.49998
100
AcDbArc
 50
-1.39155e-14
 51
90
  0
LINE
  5
A49
330
A02
100
AcDbEntity
  8
Sketch
100
AcDbLine
 10
-58.15
 20
0.475
 30
0
 11
-71.15
 21
0.475
 31
0
  0
ARC
  5
A4A
330
A02
100
AcDbEntity
  8
Sketch
100
AcDbCircle
 10
-71.15
 20
-0.025
 30
0
 40
0.499982
100
AcDbArc
 50
90
 51
180
  0
LINE
  5
A4B
330
A02
100
AcDbEntity
  8
Sketch
100
AcDbLine
 10
-71.65
 20
-0.025
 30
0
 11
-71.65
 21
-13.025
 31
0
  0
ARC
  5
A4C
330
A02
100
AcDbEntity
  8
Sketch
100
AcDbCircle
 10
-71.15
 20
-13.025
 30
0
 40
0.49998
100
AcDbArc
 50
180
 51
-90
  0
LINE
  5
A4D
330
A02
100
AcDbEntity
  8
Sketch
100
AcDbLine
 10
-71.15
 20
-13.525
 30
0
 11
-58.15
 21
-13.525
 31
0
  0
ARC
  5
A4E
330
A02
100
AcDbEntity
  8
Sketch
100
AcDbCircle
 10
-58.15
 20
-13.025
 30
0
 40
0.499987
100
AcDbArc
 50
-90
 51
0
  0
LINE
  5
A4F
330
A02
100
AcDbEntity
  8
Sketch
100
AcDbLine
 10
-57.65
 20
-13.025
 30
0
 11
-57.65
 21
-0.025
 31
0
  0
ARC
  5
A50
330
A02
100
AcDbEntity
  8
Sketch
100
AcDbCircle
 10
-77.2
 20
-0.025
 30
0
 40
0.499979
100
AcDbArc
 50
-1.39155e-14
 51
90
  0
LINE
  5
A51
330
A02
100
AcDbEntity
  8
Sketch
100
AcDbLine
 10
-77.2
 20
0.475
 30
0
 11
-90.2
 21
0.475
 31
0
  0
ARC
  5
A52
330
A02
100
AcDbEntity
  8
Sketch
100
AcDbCircle
 10
-90.2
 20
-0.025
 30
0
 40
0.49998
100
AcDbArc
 50
90
 51
180
  0
LINE
  5
A53
330
A02
100
AcDbEntity
  8
Sketch
100
AcDbLine
 10
-90.7
 20
-0.025
 30
0
 11
-90.7
 21
-13.025
 31
0
  0
ARC
  5
A54
330
A02
100
AcDbEntity
  8
Sketch
100
AcDbCircle
 10
-90.2
 20
-13.025
 30
0
 40
0.49998
100
AcDbArc
 50
180
 51
-90
  0
LINE
  5
A55
330
A02
100
AcDbEntity
  8
Sketch
100
AcDbLine
 10
-90.2
 20
-13.525
 30
0
 11
-77.2
 21
-13.525
 31
0
  0
ARC
  5
A56
330
A02
100
AcDbEntity
  8
Sketch
100
AcDbCircle
 10
-77.2
 20
-13.025
 30
0
 40
0.499982
100
AcDbArc
 50
-90
 51
0
  0
LINE
  5
A57
330
A02
100
AcDbEntity
  8
Sketch
100
AcDbLine
 10
-76.7
 20
-13.025
 30
0
 11
-76.7
 21
-0.025
 31
0
  0
ARC
  5
A58
330
A02
100
AcDbEntity
  8
Sketch
100
AcDbCircle
 10
-96.25
 20
-0.025
 30
0
 40
0.499982
100
AcDbArc
 50
-1.39154e-14
 51
90
  0
LINE
  5
A59
330
A02
100
AcDbEntity
  8
Sketch
100
AcDbLine
 10
-96.25
 20
0.475
 30
0
 11
-109.25
 21
0.475
 31
0
  0
ARC
  5
A5A
330
A02
100
AcDbEntity
  8
Sketch
100
AcDbCircle
 10
-109.25
 20
-0.025
 30
0
 40
0.499981
100
AcDbArc
 50
90
 51
180
  0
LINE
  5
A5B
330
A02
100
AcDbEntity
  8
Sketch
100
AcDbLine
 10
-109.75
 20
-0.025
 30
0
 11
-109.75
 21
-13.025
 31
0
  0
ARC
  5
A5C
330
A02
100
AcDbEntity
  8
Sketch
100
AcDbCircle
 10
-109.25
 20
-13.025
 30
0
 40
0.499979
100
AcDbArc
 50
180
 51
-90
  0
LINE
  5
A5D
330
A02
100
AcDbEntity
  8
Sketch
100
AcDbLine
 10
-109.25
 20
-13.525
 30
0
 11
-96.25
 21
-13.525
 31
0
  0
ARC
  5
A5E
330
A02
100
AcDbEntity
  8
Sketch
100
AcDbCircle
 10
-96.25
 20
-13.025
 30
0
 40
0.499982
100
AcDbArc
 50
-90
 51
0
  0
LINE
  5
A5F
330
A02
100
AcDbEntity
  8
Sketch
100
AcDbLine
 10
-95.75
 20
-13.025
 30
0
 11
-95.75
 21
-0.025
 31
0
  0
ARC
  5
A60
330
A02
100
AcDbEntity
  8
Sketch
100
AcDbCircle
 10
-115.3
 20
-0.025
 30
0
 40
0.499982
100
AcDbArc
 50
-1.39154e-14
 51
90
  0
LINE
  5
A61
330
A02
100
AcDbEntity
  8
Sketch
100
AcDbLine
 10
-115.3
 20
0.475
 30
0
 11
-128.3
 21
0.475
 31
0
  0
ARC
  5
A62
330
A02
100
AcDbEntity
  8
Sketch
100
AcDbCircle
 10
-128.3
 20
-0.025
 30
0
 40
0.499981
100
AcDbArc
 50
90
 51
180
  0
LINE
  5
A63
330
A02
100
AcDbEntity
  8
Sketch
100
AcDbLine
 10
-128.8
 20
-0.025
 30
0
 11
-128.8
 21
-13.025
 31
0
  0
ARC
  5
A64
330
A02
100
AcDbEntity
  8
Sketch
100
AcDbCircle
 10
-128.3
 20
-13.025
 30
0
 40
0.49998
100
AcDbArc
 50
180
 51
-90
  0
LINE
  5
A65
330
A02
100
AcDbEntity
  8
Sketch
100
AcDbLine
 10
-128.3
 20
-13.525
 30
0
 11
-115.3
 21
-13.525
 31
0
  0
ARC
  5
A66
330
A02
100
AcDbEntity
  8
Sketch
100
AcDbCircle
 10
-115.3
 20
-13.025
 30
0
 40
0.49998
100
AcDbArc
 50
-90
 51
0
  0
LINE
  5
A67
330
A02
100
AcDbEntity
  8
Sketch
100
AcDbLine
 10
-114.8
 20
-13.025
 30
0
 11
-114.8
 21
-0.025
 31
0
  0
ARC
  5
A68
330
A02
100
AcDbEntity
  8
Sketch
100
AcDbCircle
 10
-10.525
 20
19.025
 30
0
 40
0.499981
100
AcDbArc
 50
0
 51
90
  0
LINE
  5
A69
330
A02
100
AcDbEntity
  8
Sketch
100
AcDbLine
 10
-10.525
 20
19.525
 30
0
 11
-23.525
 21
19.525
 31
0
  0
ARC
  5
A6A
330
A02
100
AcDbEntity
  8
Sketch
100
AcDbCircle
 10
-23.525
 20
19.025
 30
0
 40
0.499982
100
AcDbArc
 50
90
 51
180
  0
LINE
  5
A6B
330
A02
100
AcDbEntity
  8
Sketch
100
AcDbLine
 10
-24.025
 20
19.025
 30
0
 11
-24.025
 21
6.025
 31
0
  0
ARC
  5
A6C
330
A02
100
AcDbEntity
  8
Sketch
100
AcDbCircle
 10
-23.525
 20
6.025
 30
0
 40
0.499982
100
AcDbArc
 50
180
 51
-90
  0
LINE
  5
A6D
330
A02
100
AcDbEntity
  8
Sketch
100
AcDbLine
 10
-23.525
 20
5.525
 30
0
 11
-10.525
 21
5.525
 31
0
  0
ARC
  5
A6E
330
A02
100
AcDbEntity
  8
Sketch
100
AcDbCircle
 10
-10.525
 20
6.025
 30
0
 40
0.499981
100
AcDbArc
 50
-90
 51
0
  0
LINE
  5
A6F
330
A02
100
AcDbEntity
  8
Sketch
100
AcDbLine
 10
-10.025
 20
6.025
 30
0
 11
-10.025
 21
19.025
 31
0
  0
ARC
  5
A70
330
A02
100
AcDbEntity
  8
Sketch
100
AcDbCircle
 10
-29.575
 20
19.025
 30
0
 40
0.499981
100
AcDbArc
 50
0
 51
90
  0
LINE
  5
A71
330
A02
100
AcDbEntity
  8
Sketch
100
AcDbLine
 10
-29.575
 20
19.525
 30
0
 11
-42.575
 21
19.525
 31
0
  0
ARC
  5
A72
330
A02
100
AcDbEntity
  8
Sketch
100
AcDbCircle
 10
-42.575
 20
19.025
 30
0
 40
0.49998
100
AcDbArc
 50
90
 51
180
  0
LINE
  5
A73
330
A02
100
AcDbEntity
  8
Sketch
100
AcDbLine
 10
-43.075
 20
19.025
 30
0
 11
-43.075
 21
6.025
 31
0
  0
ARC
  5
A74
330
A02
100
AcDbEntity
  8
Sketch
100
AcDbCircle
 10
-42.575
 20
6.025
 30
0
 40
0.499982
100
AcDbArc
 50
180
 51
-90
  0
LINE
  5
A75
330
A02
100
AcDbEntity
  8
Sketch
100
AcDbLine
 10
-42.575
 20
5.525
 30
0
 11
-29.575
 21
5.525
 31
0
  0
ARC
  5
A76
330
A02
100
AcDbEntity
  8
Sketch
100
AcDbCircle
 10
-29.575
 20
6.025
 30
0
 40
0.499982
100
AcDbArc
 50
-90
 51
0
  0
LINE
  5
A77
330
A02
100
AcDbEntity
  8
Sketch
100
AcDbLine
 10
-29.075
 20
6.025
 30
0
 11
-29.075
 21
19.025
 31
0
  0
ARC
  5
A78
330
A02
100
AcDbEntity
  8
Sketch
100
AcDbCircle
 10
-48.625
 20
19.025
 30
0
 40
0.499984
100
AcDbArc
 50
0
 51
90
  0
LINE
  5
A79
330
A02
100
AcDbEntity
  8
Sketch
100
AcDbLine
 10
-48.625
 20
19.525
 30
0
 11
-61.625
 21
19.525
 31
0
  0
ARC
  5
A7A
330
A02
100
AcDbEntity
  8
Sketch
100
AcDbCircle
 10
-61.625
 20
19.025
 30
0
 40
0.499982
100
AcDbArc
 50
90
 51
180
  0
LINE
  5
A7B
330
A02
100
AcDbEntity
  8
Sketch
100
AcDbLine
 10
-62.125
 20
19.025
 30
0
 11
-62.125
 21
6.025
 31
0
  0
ARC
  5
A7C
330
A02
100
AcDbEntity
  8
Sketch
100
AcDbCircle
 10
-61.625
 20
6.025
 30
0
 40
0.49998
100
AcDbArc
 50
180
 51
-90
  0
LINE
  5
A7D
330
A02
100
AcDbEntity
  8
Sketch
100
AcDbLine
 10
-61.625
 20
5.525
 30
0
 11
-48.625
 21
5.525
 31
0
  0
ARC
  5
A7E
330
A02
100
AcDbEntity
  8
Sketch
100
AcDbCircle
 10
-48.625
 20
6.025
 30
0
 40
0.499979
100
AcDbArc
 50
-90
 51
0
  0
LINE
  5
A7F
330
A02
100
AcDbEntity
  8
Sketch
100
AcDbLine
 10
-48.125
 20
6.025
 30
0
 11
-48.125
 21
19.025
 31
0
  0
ARC
  5
A80
330
A02
100
AcDbEntity
  8
Sketch
100
AcDbCircle
 10
-67.675
 20
19.025
 30
0
 40
0.499982
100
AcDbArc
 50
0
 51
90
  0
LINE
  5
A81
330
A02
100
AcDbEntity
  8
Sketch
100
AcDbLine
 10
-67.675
 20
19.525
 30
0
 11
-80.675
 21
19.525
 31
0
  0
ARC
  5
A82
330
A02
100
AcDbEntity
  8
Sketch
100
AcDbCircle
 10
-80.675
 20
19.025
 30
0
 40
0.499985
100
AcDbArc
 50
90
 51
180
  0
LINE
  5
A83
330
A02
100
AcDbEntity
  8
Sketch
100
AcDbLine
 10
-81.175
 20
19.025
 30
0
 11
-81.175
 21
6.025
 31
0
  0
ARC
  5
A84
330
A02
100
AcDbEntity
  8
Sketch
100
AcDbCircle
 10
-80.675
 20
6.025
 30
0
 40
0.499981
100
AcDbArc
 50
180
 51
-90
  0
LINE
  5
A85
330
A02
100
AcDbEntity
  8
Sketch
100
AcDbLine
 10
-80.675
 20
5.525
 30
0
 11
-67.675
 21
5.525
 31
0
  0
ARC
  5
A86
330
A02
100
AcDbEntity
  8
Sketch
100
AcDbCircle
 10
-67.675
 20
6.025
 30
0
 40
0.499976
100
AcDbArc
 50
-90
 51
0
  0
LINE
  5
A87
330
A02
100
AcDbEntity
  8
Sketch
100
AcDbLine
 10
-67.175
 20
6.025
 30
0
 11
-67.175
 21
19.025
 31
0
  0
ARC
  5
A88
330
A02
100
AcDbEntity
  8
Sketch
100
AcDbCircle
 10
-86.725
 20
19.025
 30
0
 40
0.49998
100
AcDbArc
 50
0
 51
90
  0
LINE
  5
A89
330
A02
100
AcDbEntity
  8
Sketch
100
AcDbLine
 10
-86.725
 20
19.525
 30
0
 11
-99.725
 21
19.525
 31
0
  0
ARC
  5
A8A
330
A02
100
AcDbEntity
  8
Sketch
100
AcDbCircle
 10
-99.725
 20
19.025
 30
0
 40
0.499979
100
AcDbArc
 50
90
 51
180
  0
LINE
  5
A8B
330
A02
100
AcDbEntity
  8
Sketch
100
AcDbLine
 10
-100.225
 20
19.025
 30
0
 11
-100.225
 21
6.025
 31
0
  0
ARC
  5
A8C
330
A02
100
AcDbEntity
  8
Sketch
100
AcDbCircle
 10
-99.725
 20
6.025
 30
0
 40
0.499979
100
AcDbArc
 50
180
 51
-90
  0
LINE
  5
A8D
330
A02
100
AcDbEntity
  8
Sketch
100
AcDbLine
 10
-99.725
 20
5.525
 30
0
 11
-86.725
 21
5.525
 31
0
  0
ARC
  5
A8E
330
A02
100
AcDbEntity
  8
Sketch
100
AcDbCircle
 10
-86.725
 20
6.025
 30
0
 40
0.499984
100
AcDbArc
 50
-90
 51
0
  0
LINE
  5
A8F
330
A02
100
AcDbEntity
  8
Sketch
100
AcDbLine
 10
-86.225
 20
6.025
 30
0
 11
-86.225
 21
19.025
 31
0
  0
ARC
  5
A90
330
A02
100
AcDbEntity
  8
Sketch
100
AcDbCircle
 10
-105.775
 20
19.025
 30
0
 40
0.499984
100
AcDbArc
 50
0
 51
90
  0
LINE
  5
A91
330
A02
100
AcDbEntity
  8
Sketch
100
AcDbLine
 10
-105.775
 20
19.525
 30
0
 11
-118.775
 21
19.525
 31
0
  0
ARC
  5
A92
330
A02
100
AcDbEntity
  8
Sketch
100
AcDbCircle
 10
-118.775
 20
19.025
 30
0
 40
0.499985
100
AcDbArc
 50
90
 51
180
  0
LINE
  5
A93
330
A02
100
AcDbEntity
  8
Sketch
100
AcDbLine
 10
-119.275
 20
19.025
 30
0
 11
-119.275
 21
6.025
 31
0
  0
ARC
  5
A94
330
A02
100
AcDbEntity
  8
Sketch
100
AcDbCircle
 10
-118.775
 20
6.025
 30
0
 40
0.49998
100
AcDbArc
 50
180
 51
-90
  0
LINE
  5
A95
330
A02
100
AcDbEntity
  8
Sketch
100
AcDbLine
 10
-118.775
 20
5.525
 30
0
 11
-105.775
 21
5.525
 31
0
  0
ARC
  5
A96
330
A02
100
AcDbEntity
  8
Sketch
100
AcDbCircle
 10
-105.775
 20
6.025
 30
0
 40
0.499983
100
AcDbArc
 50
-90
 51
0
  0
LINE
  5
A97
330
A02
100
AcDbEntity
  8
Sketch
100
AcDbLine
 10
-105.275
 20
6.025
 30
0
 11
-105.275
 21
19.025
 31
0
  0
ARC
  5
A98
330
A02
100
AcDbEntity
  8
Sketch
100
AcDbCircle
 10
-124.825
 20
19.025
 30
0
 40
0.499983
100
AcDbArc
 50
0
 51
90
  0
LINE
  5
A99
330
A02
100
AcDbEntity
  8
Sketch
100
AcDbLine
 10
-124.825
 20
19.525
 30
0
 11
-137.825
 21
19.525
 31
0
  0
ARC
  5
A9A
330
A02
100
AcDbEntity
  8
Sketch
100
AcDbCircle
 10
-137.825
 20
19.025
 30
0
 40
0.49998
100
AcDbArc
 50
90
 51
180
  0
LINE
  5
A9B
330
A02
100
AcDbEntity
  8
Sketch
100
AcDbLine
 10
-138.325
 20
19.025
 30
0
 11
-138.325
 21
6.025
 31
0
  0
ARC
  5
A9C
330
A02
100
AcDbEntity
  8
Sketch
100
AcDbCircle
 10
-137.825
 20
6.025
 30
0
 40
0.499983
100
AcDbArc
 50
180
 51
-90
  0
LINE
  5
A9D
330
A02
100
AcDbEntity
  8
Sketch
100
AcDbLine
 10
-137.825
 20
5.525
 30
0
 11
-124.825
 21
5.525
 31
0
  0
ARC
  5
A9E
330
A02
100
AcDbEntity
  8
Sketch
100
AcDbCircle
 10
-124.825
 20
6.025
 30
0
 40
0.499978
100
AcDbArc
 50
-90
 51
0
  0
LINE
  5
A9F
330
A02
100
AcDbEntity
  8
Sketch
100
AcDbLine
 10
-124.325
 20
6.025
 30
0
 11
-124.325
 21
19.025
 31
0
  0
ARC
  5
AA0
330
A02
100
AcDbEntity
  8
Sketch
100
AcDbCircle
 10
-143.875
 20
19.025
 30
0
 40
0.499984
100
AcDbArc
 50
0
 51
90
  0
LINE
  5
AA1
330
A02
100
AcDbEntity
  8
Sketch
100
AcDbLine
 10
-143.875
 20
19.525
 30
0
 11
-156.875
 21
19.525
 31
0
  0
ARC
  5
AA2
330
A02
100
AcDbEntity
  8
Sketch
100
AcDbCircle
 10
-156.875
 20
19.025
 30
0
 40
0.499984
100
AcDbArc
 50
90
 51
180
  0
LINE
  5
AA3
330
A02
100
AcDbEntity
  8
Sketch
100
AcDbLine
 10
-157.375
 20
19.025
 30
0
 11
-157.375
 21
6.025
 31
0
  0
ARC
  5
AA4
330
A02
100
AcDbEntity
  8
Sketch
100
AcDbCircle
 10
-156.875
 20
6.025
 30
0
 40
0.499979
100
AcDbArc
 50
180
 51
-90
  0
LINE
  5
AA5
330
A02
100
AcDbEntity
  8
Sketch
100
AcDbLine
 10
-156.875
 20
5.525
 30
0
 11
-143.875
 21
5.525
 31
0
  0
ARC
  5
AA6
330
A02
100
AcDbEntity
  8
Sketch
100
AcDbCircle
 10
-143.875
 20
6.025
 30
0
 40
0.499982
100
AcDbArc
 50
-90
 51
0
  0
LINE
  5
AA7
330
A02
100
AcDbEntity
  8
Sketch
100
AcDbLine
 10
-143.375
 20
6.025
 30
0
 11
-143.375
 21
19.025
 31
0
  0
ARC
  5
AA8
330
A02
100
AcDbEntity
  8
Sketch
100
AcDbCircle
 10
-162.925
 20
19.025
 30
0
 40
0.499981
100
AcDbArc
 50
0
 51
90
  0
LINE
  5
AA9
330
A02
100
AcDbEntity
  8
Sketch
100
AcDbLine
 10
-162.925
 20
19.525
 30
0
 11
-175.925
 21
19.525
 31
0
  0
ARC
  5
AAA
330
A02
100
AcDbEntity
  8
Sketch
100
AcDbCircle
 10
-175.925
 20
19.025
 30
0
 40
0.499984
100
AcDbArc
 50
90
 51
180
  0
LINE
  5
AAB
330
A02
100
AcDbEntity
  8
Sketch
100
AcDbLine
 10
-176.425
 20
19.025
 30
0
 11
-176.425
 21
6.025
 31
0
  0
ARC
  5
AAC
330
A02
100
AcDbEntity
  8
Sketch
100
AcDbCircle
 10
-175.925
 20
6.025
 30
0
 40
0.499978
100
AcDbArc
 50
180
 51
-90
  0
LINE
  5
AAD
330
A02
100
AcDbEntity
  8
Sketch
100
AcDbLine
 10
-175.925
 20
5.525
 30
0
 11
-162.925
 21
5.525
 31
0
  0
ARC
  5
AAE
330
A02
100
AcDbEntity
  8
Sketch
100
AcDbCircle
 10
-162.925
 20
6.025
 30
0
 40
0.499984
100
AcDbArc
 50
-90
 51
0
  0
LINE
  5
AAF
330
A02
100
AcDbEntity
  8
Sketch
100
AcDbLine
 10
-162.425
 20
6.025
 30
0
 11
-162.425
 21
19.025
 31
0
  0
ARC
  5
AB0
330
A02
100
AcDbEntity
  8
Sketch
100
AcDbCircle
 10
-181.975
 20
19.025
 30
0
 40
0.499982
100
AcDbArc
 50
0
 51
90
  0
LINE
  5
AB1
330
A02
100
AcDbEntity
  8
Sketch
100
AcDbLine
 10
-181.975
 20
19.525
 30
0
 11
-194.975
 21
19.525
 31
0
  0
ARC
  5
AB2
330
A02
100
AcDbEntity
  8
Sketch
100
AcDbCircle
 10
-194.975
 20
19.025
 30
0
 40
0.499982
100
AcDbArc
 50
90
 51
180
  0
LINE
  5
AB3
330
A02
100
AcDbEntity
  8
Sketch
100
AcDbLine
 10
-195.475
 20
19.025
 30
0
 11
-195.475
 21
6.025
 31
0
  0
ARC
  5
AB4
330
A02
100
AcDbEntity
  8
Sketch
100
AcDbCircle
 10
-194.975
 20
6.025
 30
0
 40
0.499985
100
AcDbArc
 50
180
 51
-90
  0
LINE
  5
AB5
330
A02
100
AcDbEntity
  8
Sketch
100
AcDbLine
 10
-194.975
 20
5.525
 30
0
 11
-181.975
 21
5.525
 31
0
  0
ARC
  5
AB6
330
A02
100
AcDbEntity
  8
Sketch
100
AcDbCircle
 10
-181.975
 20
6.025
 30
0
 40
0.49998
100
AcDbArc
 50
-90
 51
0
  0
LINE
  5
AB7
330
A02
100
AcDbEntity
  8
Sketch
100
AcDbLine
 10
-181.475
 20
6.025
 30
0
 11
-181.475
 21
19.025
 31
0
  0
ARC
  5
AB8
330
A02
100
AcDbEntity
  8
Sketch
100
AcDbCircle
 10
-201.025
 20
19.025
 30
0
 40
0.499981
100
AcDbArc
 50
0
 51
90
  0
LINE
  5
AB9
330
A02
100
AcDbEntity
  8
Sketch
100
AcDbLine
 10
-201.025
 20
19.525
 30
0
 11
-214.025
 21
19.525
 31
0
  0
ARC
  5
ABA
330
A02
100
AcDbEntity
  8
Sketch
100
AcDbCircle
 10
-214.025
 20
19.025
 30
0
 40
0.499978
100
AcDbArc
 50
90
 51
180
  0
LINE
  5
ABB
330
A02
100
AcDbEntity
  8
Sketch
100
AcDbLine
 10
-214.525
 20
19.025
 30
0
 11
-214.525
 21
6.025
 31
0
  0
ARC
  5
ABC
330
A02
100
AcDbEntity
  8
Sketch
100
AcDbCircle
 10
-214.025
 20
6.025
 30
0
 40
0.499976
100
AcDbArc
 50
180
 51
-90
  0
LINE
  5
ABD
330
A02
100
AcDbEntity
  8
Sketch
100
AcDbLine
 10
-214.025
 20
5.525
 30
0
 11
-201.025
 21
5.525
 31
0
  0
ARC
  5
ABE
330
A02
100
AcDbEntity
  8
Sketch
100
AcDbCircle
 10
-201.025
 20
6.025
 30
0
 40
0.499982
100
AcDbArc
 50
-90
 51
0
  0
LINE
  5
ABF
330
A02
100
AcDbEntity
  8
Sketch
100
AcDbLine
 10
-200.525
 20
6.025
 30
0
 11
-200.525
 21
19.025
 31
0
  0
ARC
  5
AC0
330
A02
100
AcDbEntity
  8
Sketch
100
AcDbCircle
 10
-227.219
 20
19.025
 30
0
 40
0.49998
100
AcDbArc
 50
0
 51
90
  0
LINE
  5
AC1
330
A02
100
AcDbEntity
  8
Sketch
100
AcDbLine
 10
-227.219
 20
19.525
 30
0
 11
-240.219
 21
19.525
 31
0
  0
ARC
  5
AC2
330
A02
100
AcDbEntity
  8
Sketch
100
AcDbCircle
 10
-240.219
 20
19.025
 30
0
 40
0.499981
100
AcDbArc
 50
90
 51
180
  0
LINE
  5
AC3
330
A02
100
AcDbEntity
  8
Sketch
100
AcDbLine
 10
-240.719
 20
19.025
 30
0
 11
-240.719
 21
6.025
 31
0
  0
ARC
  5
AC4
330
A02
100
AcDbEntity
  8
Sketch
100
AcDbCircle
 10
-240.219
 20
6.025
 30
0
 40
0.499978
100
AcDbArc
 50
180
 51
-90
  0
LINE
  5
AC5
330
A02
100
AcDbEntity
  8
Sketch
100
AcDbLine
 10
-240.219
 20
5.525
 30
0
 11
-227.219
 21
5.525
 31
0
  0
ARC
  5
AC6
330
A02
100
AcDbEntity
  8
Sketch
100
AcDbCircle
 10
-227.219
 20
6.025
 30
0
 40
0.499987
100
AcDbArc
 50
-90
 51
0
  0
LINE
  5
AC7
330
A02
100
AcDbEntity
  8
Sketch
100
AcDbLine
 10
-226.719
 20
6.025
 30
0
 11
-226.719
 21
19.025
 31
0
  0
ARC
  5
AC8
330
A02
100
AcDbEntity
  8
Sketch
100
AcDbCircle
 10
-12.9062
 20
38.075
 30
0
 40
0.499979
100
AcDbArc
 50
0
 51
90
  0
LINE
  5
AC9
330
A02
100
AcDbEntity
  8
Sketch
100
AcDbLine
 10
-12.9062
 20
38.575
 30
0
 11
-25.9062
 21
38.575
 31
0
  0
ARC
  5
ACA
330
A02
100
AcDbEntity
  8
Sketch
100
AcDbCircle
 10
-25.9062
 20
38.075
 30
0
 40
0.499983
100
AcDbArc
 50
90
 51
180
  0
LINE
  5
ACB
330
A02
100
AcDbEntity
  8
Sketch
100
AcDbLine
 10
-26.4062
 20
38.075
 30
0
 11
-26.4063
 21
25.075
 31
0
  0
ARC
  5
ACC
330
A02
100
AcDbEntity
  8
Sketch
100
AcDbCircle
 10
-25.9063
 20
25.075
 30
0
 40
0.499984
100
AcDbArc
 50
180
 51
-90
  0
LINE
  5
ACD
330
A02
100
AcDbEntity
  8
Sketch
100
AcDbLine
 10
-25.9063
 20
24.575
 30
0
 11
-12.9063
 21
24.575
 31
0
  0
ARC
  5
ACE
330
A02
100
AcDbEntity
  8
Sketch
100
AcDbCircle
 10
-12.9063
 20
25.075
 30
0
 40
0.499985
100
AcDbArc
 50
-90
 51
0
  0
LINE
  5
ACF
330
A02
100
AcDbEntity
  8
Sketch
100
AcDbLine
 10
-12.4063
 20
25.075
 30
0
 11
-12.4062
 21
38.075
 31
0
  0
ARC
  5
AD0
330
A02
100
AcDbEntity
  8
Sketch
100
AcDbCircle
 10
-34.3375
 20
38.075
 30
0
 40
0.499983
100
AcDbArc
 50
0
 51
90
  0
LINE
  5
AD1
330
A02
100
AcDbEntity
  8
Sketch
100
AcDbLine
 10
-34.3375
 20
38.575
 30
0
 11
-47.3375
 21
38.575
 31
0
  0
ARC
  5
AD2
330
A02
100
AcDbEntity
  8
Sketch
100
AcDbCircle
 10
-47.3375
 20
38.075
 30
0
 40
0.499983
100
AcDbArc
 50
90
 51
180
  0
LINE
  5
AD3
330
A02
100
AcDbEntity
  8
Sketch
100
AcDbLine
 10
-47.8375
 20
38.075
 30
0
 11
-47.8375
 21
25.075
 31
0
  0
ARC
  5
AD4
330
A02
100
AcDbEntity
  8
Sketch
100
AcDbCircle
 10
-47.3375
 20
25.075
 30
0
 40
0.49998
100
AcDbArc
 50
180
 51
-90
  0
LINE
  5
AD5
330
A02
100
AcDbEntity
  8
Sketch
100
AcDbLine
 10
-47.3375
 20
24.575
 30
0
 11
-34.3375
 21
24.575
 31
0
  0
ARC
  5
AD6
330
A02
100
AcDbEntity
  8
Sketch
100
AcDbCircle
 10
-34.3375
 20
25.075
 30
0
 40
0.49998
100
AcDbArc
 50
-90
 51
0
  0
LINE
  5
AD7
330
A02
100
AcDbEntity
  8
Sketch
100
AcDbLine
 10
-33.8375
 20
25.075
 30
0
 11
-33.8375
 21
38.075
 31
0
  0
ARC
  5
AD8
330
A02
100
AcDbEntity
  8
Sketch
100
AcDbCircle
 10
-53.3875
 20
38.075
 30
0
 40
0.499979
100
AcDbArc
 50
0
 51
90
  0
LINE
  5
AD9
330
A02
100
AcDbEntity
  8
Sketch
100
AcDbLine
 10
-53.3875
 20
38.575
 30
0
 11
-66.3875
 21
38.575
 31
0
  0
ARC
  5
ADA
330
A02
100
AcDbEntity
  8
Sketch
100
AcDbCircle
 10
-66.3875
 20
38.075
 30
0
 40
0.499981
100
AcDbArc
 50
90
 51
180
  0
LINE
  5
ADB
330
A02
100
AcDbEntity
  8
Sketch
100
AcDbLine
 10
-66.8875
 20
38.075
 30
0
 11
-66.8875
 21
25.075
 31
0
  0
ARC
  5
ADC
330
A02
100
AcDbEntity
  8
Sketch
100
AcDbCircle
 10
-66.3875
 20
25.075
 30
0
 40
0.499983
100
AcDbArc
 50
180
 51
-90
  0
LINE
  5
ADD
330
A02
100
AcDbEntity
  8
Sketch
100
AcDbLine
 10
-66.3875
 20
24.575
 30
0
 11
-53.3875
 21
24.575
 31
0
  0
ARC
  5
ADE
330
A02
100
AcDbEntity
  8
Sketch
100
AcDbCircle
 10
-53.3875
 20
25.075
 30
0
 40
0.499982
100
AcDbArc
 50
-90
 51
0
  0
LINE
  5
ADF
330
A02
100
AcDbEntity
  8
Sketch
100
AcDbLine
 10
-52.8875
 20
25.075
 30
0
 11
-52.8875
 21
38.075
 31
0
  0
ARC
  5
AE0
330
A02
100
AcDbEntity
  8
Sketch
100
AcDbCircle
 10
-72.4375
 20
38.075
 30
0
 40
0.49998
100
AcDbArc
 50
0
 51
90
  0
LINE
  5
AE1
330
A02
100
AcDbEntity
  8
Sketch
100
AcDbLine
 10
-72.4375
 20
38.575
 30
0
 11
-85.4375
 21
38.575
 31
0
  0
ARC
  5
AE2
330
A02
100
AcDbEntity
  8
Sketch
100
AcDbCircle
 10
-85.4375
 20
38.075
 30
0
 40
0.499979
100
AcDbArc
 50
90
 51
180
  0
LINE
  5
AE3
330
A02
100
AcDbEntity
  8
Sketch
100
AcDbLine
 10
-85.9375
 20
38.075
 30
0
 11
-85.9375
 21
25.075
 31
0
  0
ARC
  5
AE4
330
A02
100
AcDbEntity
  8
Sketch
100
AcDbCircle
 10
-85.4375
 20
25.075
 30
0
 40
0.499986
100
AcDbArc
 50
180
 51
-90
  0
LINE
  5
AE5
330
A02
100
AcDbEntity
  8
Sketch
100
AcDbLine
 10
-85.4375
 20
24.575
 30
0
 11
-72.4375
 21
24.575
 31
0
  0
ARC
  5
AE6
330
A02
100
AcDbEntity
  8
Sketch
100
AcDbCircle
 10
-72.4375
 20
25.075
 30
0
 40
0.499985
100
AcDbArc
 50
-90
 51
0
  0
LINE
  5
AE7
330
A02
100
AcDbEntity
  8
Sketch
100
AcDbLine
 10
-71.9375
 20
25.075
 30
0
 11
-71.9375
 21
38.075
 31
0
  0
ARC
  5
AE8
330
A02
100
AcDbEntity
  8
Sketch
100
AcDbCircle
 10
-91.4875
 20
38.075
 30
0
 40
0.499986
100
AcDbArc
 50
0
 51
90
  0
LINE
  5
AE9
330
A02
100
AcDbEntity
  8
Sketch
100
AcDbLine
 10
-91.4875
 20
38.575
 30
0
 11
-104.487
 21
38.575
 31
0
  0
ARC
  5
AEA
330
A02
100
AcDbEntity
  8
Sketch
100
AcDbCircle
 10
-104.487
 20
38.075
 30
0
 40
0.499979
100
AcDbArc
 50
90
 51
180
  0
LINE
  5
AEB
330
A02
100
AcDbEntity
  8
Sketch
100
AcDbLine
 10
-104.987
 20
38.075
 30
0
 11
-104.987
 21
25.075
 31
0
  0
ARC
  5
AEC
330
A02
100
AcDbEntity
  8
Sketch
100
AcDbCircle
 10
-104.487
 20
25.075
 30
0
 40
0.499985
100
AcDbArc
 50
180
 51
-90
  0
LINE
  5
AED
330
A02
100
AcDbEntity
  8
Sketch
100
AcDbLine
 10
-104.487
 20
24.575
 30
0
 11
-91.4875
 21
24.575
 31
0
  0
ARC
  5
AEE
330
A02
100
AcDbEntity
  8
Sketch
100
AcDbCircle
 10
-91.4875
 20
25.075
 30
0
 40
0.499983
100
AcDbArc
 50
-90
 51
0
  0
LINE
  5
AEF
330
A02
100
AcDbEntity
  8
Sketch
100
AcDbLine
 10
-90.9875
 20
25.075
 30
0
 11
-90.9875
 21
38.075
 31
0
  0
ARC
  5
AF0
330
A02
100
AcDbEntity
  8
Sketch
100
AcDbCircle
 10
-110.537
 20
38.075
 30
0
 40
0.49998
100
AcDbArc
 50
0
 51
90
  0
LINE
  5
AF1
330
A02
100
AcDbEntity
  8
Sketch
100
AcDbLine
 10
-110.537
 20
38.575
 30
0
 11
-123.537
 21
38.575
 31
0
  0
ARC
  5
AF2
330
A02
100
AcDbEntity
  8
Sketch
100
AcDbCircle
 10
-123.537
 20
38.075
 30
0
 40
0.499984
100
AcDbArc
 50
90
 51
180
  0
LINE
  5
AF3
330
A02
100
AcDbEntity
  8
Sketch
100
AcDbLine
 10
-124.037
 20
38.075
 30
0
 11
-124.038
 21
25.075
 31
0
  0
ARC
  5
AF4
330
A02
100
AcDbEntity
  8
Sketch
100
AcDbCircle
 10
-123.538
 20
25.075
 30
0
 40
0.499983
100
AcDbArc
 50
180
 51
-90
  0
LINE
  5
AF5
330
A02
100
AcDbEntity
  8
Sketch
100
AcDbLine
 10
-123.538
 20
24.575
 30
0
 11
-110.538
 21
24.575
 31
0
  0
ARC
  5
AF6
330
A02
100
AcDbEntity
  8
Sketch
100
AcDbCircle
 10
-110.538
 20
25.075
 30
0
 40
0.499979
100
AcDbArc
 50
-90
 51
0
  0
LINE
  5
AF7
330
A02
100
AcDbEntity
  8
Sketch
100
AcDbLine
 10
-110.038
 20
25.075
 30
0
 11
-110.037
 21
38.075
 31
0
  0
ARC
  5
AF8
330
A02
100
AcDbEntity
  8
Sketch
100
AcDbCircle
 10
-129.587
 20
38.075
 30
0
 40
0.499981
100
AcDbArc
 50
0
 51
90
  0
LINE
  5
AF9
330
A02
100
AcDbEntity
  8
Sketch
100
AcDbLine
 10
-129.587
 20
38.575
 30
0
 11
-142.587
 21
38.575
 31
0
  0
ARC
  5
AFA
330
A02
100
AcDbEntity
  8
Sketch
100
AcDbCircle
 10
-142.587
 20
38.075
 30
0
 40
0.499982
100
AcDbArc
 50
90
 51
180
  0
LINE
  5
AFB
330
A02
100
AcDbEntity
  8
Sketch
100
AcDbLine
 10
-143.087
 20
38.075
 30
0
 11
-143.088
 21
25.075
 31
0
  0
ARC
  5
AFC
330
A02
100
AcDbEntity
  8
Sketch
100
AcDbCircle
 10
-142.588
 20
25.075
 30
0
 40
0.499978
100
AcDbArc
 50
180
 51
-90
  0
LINE
  5
AFD
330
A02
100
AcDbEntity
  8
Sketch
100
AcDbLine
 10
-142.588
 20
24.575
 30
0
 11
-129.588
 21
24.575
 31
0
  0
ARC
  5
AFE
330
A02
100
AcDbEntity
  8
Sketch
100
AcDbCircle
 10
-129.588
 20
25.075
 30
0
 40
0.499978
100
AcDbArc
 50
-90
 51
0
  0
LINE
  5
AFF
330
A02
100
AcDbEntity
  8
Sketch
100
AcDbLine
 10
-129.088
 20
25.075
 30
0
 11
-129.087
 21
38.075
 31
0
  0
ARC
  5
B00
330
A02
100
AcDbEntity
  8
Sketch
100
AcDbCircle
 10
-148.637
 20
38.075
 30
0
 40
0.499981
100
AcDbArc
 50
0
 51
90
  0
LINE
  5
B01
330
A02
100
AcDbEntity
  8
Sketch
100
AcDbLine
 10
-148.637
 20
38.575
 30
0
 11
-161.637
 21
38.575
 31
0
  0
ARC
  5
B02
330
A02
100
AcDbEntity
  8
Sketch
100
AcDbCircle
 10
-161.637
 20
38.075
 30
0
 40
0.499978
100
AcDbArc
 50
90
 51
180
  0
LINE
  5
B03
330
A02
100
AcDbEntity
  8
Sketch
100
AcDbLine
 10
-162.137
 20
38.075
 30
0
 11
-162.138
 21
25.075
 31
0
  0
ARC
  5
B04
330
A02
100
AcDbEntity
  8
Sketch
100
AcDbCircle
 10
-161.638
 20
25.075
 30
0
 40
0.499985
100
AcDbArc
 50
180
 51
-90
  0
LINE
  5
B05
330
A02
100
AcDbEntity
  8
Sketch
100
AcDbLine
 10
-161.638
 20
24.575
 30
0
 11
-148.638
 21
24.575
 31
0
  0
ARC
  5
B06
330
A02
100
AcDbEntity
  8
Sketch
100
AcDbCircle
 10
-148.638
 20
25.075
 30
0
 40
0.499981
100
AcDbArc
 50
-90
 51
0
  0
LINE
  5
B07
330
A02
100
AcDbEntity
  8
Sketch
100
AcDbLine
 10
-148.138
 20
25.075
 30
0
 11
-148.137
 21
38.075
 31
0
  0
ARC
  5
B08
330
A02
100
AcDbEntity
  8
Sketch
100
AcDbCircle
 10
-167.687
 20
38.075
 30
0
 40
0.499979
100
AcDbArc
 50
0
 51
90
  0
LINE
  5
B09
330
A02
100
AcDbEntity
  8
Sketch
100
AcDbLine
 10
-167.687
 20
38.575
 30
0
 11
-180.687
 21
38.575
 31
0
  0
ARC
  5
B0A
330
A02
100
AcDbEntity
  8
Sketch
100
AcDbCircle
 10
-180.687
 20
38.075
 30
0
 40
0.499984
100
AcDbArc
 50
90
 51
180
  0
LINE
  5
B0B
330
A02
100
AcDbEntity
  8
Sketch
100
AcDbLine
 10
-181.187
 20
38.075
 30
0
 11
-181.188
 21
25.075
 31
0
  0
ARC
  5
B0C
330
A02
100
AcDbEntity
  8
Sketch
100
AcDbCircle
 10
-180.688
 20
25.075
 30
0
 40
0.499982
100
AcDbArc
 50
180
 51
-90
  0
LINE
  5
B0D
330
A02
100
AcDbEntity
  8
Sketch
100
AcDbLine
 10
-180.688
 20
24.575
 30
0
 11
-167.688
 21
24.575
 31
0
  0
ARC
  5
B0E
330
A02
100
AcDbEntity
  8
Sketch
100
AcDbCircle
 10
-167.688
 20
25.075
 30
0
 40
0.499982
100
AcDbArc
 50
-90
 51
0
  0
LINE
  5
B0F
330
A02
100
AcDbEntity
  8
Sketch
100
AcDbLine
 10
-167.188
 20
25.075
 30
0
 11
-167.187
 21
38.075
 31
0
  0
ARC
  5
B10
330
A02
100
AcDbEntity
  8
Sketch
100
AcDbCircle
 10
-186.737
 20
38.075
 30
0
 40
0.499982
100
AcDbArc
 50
0
 51
90
  0
LINE
  5
B11
330
A02
100
AcDbEntity
  8
Sketch
100
AcDbLine
 10
-186.737
 20
38.575
 30
0
 11
-199.737
 21
38.575
 31
0
  0
ARC
  5
B12
330
A02
100
AcDbEntity
  8
Sketch
100
AcDbCircle
 10
-199.737
 20
38.075
 30
0
 40
0.499983
100
AcDbArc
 50
90
 51
180
  0
LINE
  5
B13
330
A02
100
AcDbEntity
  8
Sketch
100
AcDbLine
 10
-200.237
 20
38.075
 30
0
 11
-200.238
 21
25.075
 31
0
  0
ARC
  5
B14
330
A02
100
AcDbEntity
  8
Sketch
100
AcDbCircle
 10
-199.738
 20
25.075
 30
0
 40
0.499981
100
AcDbArc
 50
180
 51
-90
  0
LINE
  5
B15
330
A02
100
AcDbEntity
  8
Sketch
100
AcDbLine
 10
-199.738
 20
24.575
 30
0
 11
-186.738
 21
24.575
 31
0
  0
ARC
  5
B16
330
A02
100
AcDbEntity
  8
Sketch
100
AcDbCircle
 10
-186.738
 20
25.075
 30
0
 40
0.49998
100
AcDbArc
 50
-90
 51
0
  0
LINE
  5
B17
330
A02
100
AcDbEntity
  8
Sketch
100
AcDbLine
 10
-186.238
 20
25.075
 30
0
 11
-186.237
 21
38.075
 31
0
  0
ARC
  5
B18
330
A02
100
AcDbEntity
  8
Sketch
100
AcDbCircle
 10
-205.787
 20
38.075
 30
0
 40
0.49998
100
AcDbArc
 50
0
 51
90
  0
LINE
  5
B19
330
A02
100
AcDbEntity
  8
Sketch
100
AcDbLine
 10
-205.787
 20
38.575
 30
0
 11
-218.787
 21
38.575
 31
0
  0
ARC
  5
B1A
330
A02
100
AcDbEntity
  8
Sketch
100
AcDbCircle
 10
-218.787
 20
38.075
 30
0
 40
0.499978
100
AcDbArc
 50
90
 51
180
  0
LINE
  5
B1B
330
A02
100
AcDbEntity
  8
Sketch
100
AcDbLine
 10
-219.287
 20
38.075
 30
0
 11
-219.288
 21
25.075
 31
0
  0
ARC
  5
B1C
330
A02
100
AcDbEntity
  8
Sketch
100
AcDbCircle
 10
-218.788
 20
25.075
 30
0
 40
0.499982
100
AcDbArc
 50
180
 51
-90
  0
LINE
  5
B1D
330
A02
100
AcDbEntity
  8
Sketch
100
AcDbLine
 10
-218.788
 20
24.575
 30
0
 11
-205.788
 21
24.575
 31
0
  0
ARC
  5
B1E
330
A02
100
AcDbEntity
  8
Sketch
100
AcDbCircle
 10
-205.788
 20
25.075
 30
0
 40
0.49998
100
AcDbArc
 50
-90
 51
0
  0
LINE
  5
B1F
330
A02
100
AcDbEntity
  8
Sketch
100
AcDbLine
 10
-205.288
 20
25.075
 30
0
 11
-205.287
 21
38.075
 31
0
  0
ARC
  5
B20
330
A02
100
AcDbEntity
  8
Sketch
100
AcDbCircle
 10
-229.6
 20
38.075
 30
0
 40
0.499982
100
AcDbArc
 50
0
 51
90
  0
LINE
  5
B21
330
A02
100
AcDbEntity
  8
Sketch
100
AcDbLine
 10
-229.6
 20
38.575
 30
0
 11
-242.6
 21
38.575
 31
0
  0
ARC
  5
B22
330
A02
100
AcDbEntity
  8
Sketch
100
AcDbCircle
 10
-242.6
 20
38.075
 30
0
 40
0.499984
100
AcDbArc
 50
90
 51
180
  0
LINE
  5
B23
330
A02
100
AcDbEntity
  8
Sketch
100
AcDbLine
 10
-243.1
 20
38.075
 30
0
 11
-243.1
 21
25.075
 31
0
  0
ARC
  5
B24
330
A02
100
AcDbEntity
  8
Sketch
100
AcDbCircle
 10
-242.6
 20
25.075
 30
0
 40
0.499978
100
AcDbArc
 50
180
 51
-90
  0
LINE
  5
B25
330
A02
100
AcDbEntity
  8
Sketch
100
AcDbLine
 10
-242.6
 20
24.575
 30
0
 11
-229.6
 21
24.575
 31
0
  0
ARC
  5
B26
330
A02
100
AcDbEntity
  8
Sketch
100
AcDbCircle
 10
-229.6
 20
25.075
 30
0
 40
0.499979
100
AcDbArc
 50
-90
 51
0
  0
LINE
  5
B27
330
A02
100
AcDbEntity
  8
Sketch
100
AcDbLine
 10
-229.1
 20
25.075
 30
0
 11
-229.1
 21
38.075
 31
0
  0
ARC
  5
B28
330
A02
100
AcDbEntity
  8
Sketch
100
AcDbCircle
 10
-17.6688
 20
57.1408
 30
0
 40
0.5
100
AcDbArc
 50
0
 51
90
  0
LINE
  5
B29
330
A02
100
AcDbEntity
  8
Sketch
100
AcDbLine
 10
-17.6688
 20
57.6408
 30
0
 11
-30.6688
 21
57.6408
 31
0
  0
ARC
  5
B2A
330
A02
100
AcDbEntity
  8
Sketch
100
AcDbCircle
 10
-30.6688
 20
57.1408
 30
0
 40
0.5
100
AcDbArc
 50
90
 51
180
  0
LINE
  5
B2B
330
A02
100
AcDbEntity
  8
Sketch
100
AcDbLine
 10
-31.1688
 20
57.1408
 30
0
 11
-31.1688
 21
44.1408
 31
0
  0
ARC
  5
B2C
330
A02
100
AcDbEntity
  8
Sketch
100
AcDbCircle
 10
-30.6688
 20
44.1408
 30
0
 40
0.5
100
AcDbArc
 50
180
 51
-90
  0
LINE
  5
B2D
330
A02
100
AcDbEntity
  8
Sketch
100
AcDbLine
 10
-30.6688
 20
43.6408
 30
0
 11
-17.6688
 21
43.6408
 31
0
  0
ARC
  5
B2E
330
A02
100
AcDbEntity
  8
Sketch
100
AcDbCircle
 10
-17.6688
 20
44.1408
 30
0
 40
0.5
100
AcDbArc
 50
-90
 51
0
  0
ARC
  5
B2F
330
A02
100
AcDbEntity
  8
Sketch
100
AcDbCircle
 10
-43.8625
 20
57.125
 30
0
 40
0.499982
100
AcDbArc
 50
0
 51
90
  0
LINE
  5
B30
330
A02
100
AcDbEntity
  8
Sketch
100
AcDbLine
 10
-43.8625
 20
57.625
 30
0
 11
-56.8625
 21
57.625
 31
0
  0
ARC
  5
B31
330
A02
100
AcDbEntity
  8
Sketch
100
AcDbCircle
 10
-56.8625
 20
57.125
 30
0
 40
0.499979
100
AcDbArc
 50
90
 51
180
  0
LINE
  5
B32
330
A02
100
AcDbEntity
  8
Sketch
100
AcDbLine
 10
-57.3625
 20
57.125
 30
0
 11
-57.3625
 21
44.125
 31
0
  0
ARC
  5
B33
330
A02
100
AcDbEntity
  8
Sketch
100
AcDbCircle
 10
-56.8625
 20
44.125
 30
0
 40
0.499985
100
AcDbArc
 50
180
 51
-90
  0
LINE
  5
B34
330
A02
100
AcDbEntity
  8
Sketch
100
AcDbLine
 10
-56.8625
 20
43.625
 30
0
 11
-43.8625
 21
43.625
 31
0
  0
ARC
  5
B35
330
A02
100
AcDbEntity
  8
Sketch
100
AcDbCircle
 10
-43.8625
 20
44.125
 30
0
 40
0.499979
100
AcDbArc
 50
-90
 51
0
  0
LINE
  5
B36
330
A02
100
AcDbEntity
  8
Sketch
100
AcDbLine
 10
-43.3625
 20
44.125
 30
0
 11
-43.3625
 21
57.125
 31
0
  0
ARC
  5
B37
330
A02
100
AcDbEntity
  8
Sketch
100
AcDbCircle
 10
-62.9125
 20
57.125
 30
0
 40
0.499979
100
AcDbArc
 50
0
 51
90
  0
LINE
  5
B38
330
A02
100
AcDbEntity
  8
Sketch
100
AcDbLine
 10
-62.9125
 20
57.625
 30
0
 11
-75.9125
 21
57.625
 31
0
  0
ARC
  5
B39
330
A02
100
AcDbEntity
  8
Sketch
100
AcDbCircle
 10
-75.9125
 20
57.125
 30
0
 40
0.499982
100
AcDbArc
 50
90
 51
180
  0
LINE
  5
B3A
330
A02
100
AcDbEntity
  8
Sketch
100
AcDbLine
 10
-76.4125
 20
57.125
 30
0
 11
-76.4125
 21
44.125
 31
0
  0
ARC
  5
B3B
330
A02
100
AcDbEntity
  8
Sketch
100
AcDbCircle
 10
-75.9125
 20
44.125
 30
0
 40
0.499983
100
AcDbArc
 50
180
 51
-90
  0
LINE
  5
B3C
330
A02
100
AcDbEntity
  8
Sketch
100
AcDbLine
 10
-75.9125
 20
43.625
 30
0
 11
-62.9125
 21
43.625
 31
0
  0
ARC
  5
B3D
330
A02
100
AcDbEntity
  8
Sketch
100
AcDbCircle
 10
-62.9125
 20
44.125
 30
0
 40
0.499979
100
AcDbArc
 50
-90
 51
0
  0
LINE
  5
B3E
330
A02
100
AcDbEntity
  8
Sketch
100
AcDbLine
 10
-62.4125
 20
44.125
 30
0
 11
-62.4125
 21
57.125
 31
0
  0
ARC
  5
B3F
330
A02
100
AcDbEntity
  8
Sketch
100
AcDbCircle
 10
-81.9625
 20
57.125
 30
0
 40
0.499982
100
AcDbArc
 50
0
 51
90
  0
LINE
  5
B40
330
A02
100
AcDbEntity
  8
Sketch
100
AcDbLine
 10
-81.9625
 20
57.625
 30
0
 11
-94.9625
 21
57.625
 31
0
  0
ARC
  5
B41
330
A02
100
AcDbEntity
  8
Sketch
100
AcDbCircle
 10
-94.9625
 20
57.125
 30
0
 40
0.49998
100
AcDbArc
 50
90
 51
180
  0
LINE
  5
B42
330
A02
100
AcDbEntity
  8
Sketch
100
AcDbLine
 10
-95.4625
 20
57.125
 30
0
 11
-95.4625
 21
44.125
 31
0
  0
ARC
  5
B43
330
A02
100
AcDbEntity
  8
Sketch
100
AcDbCircle
 10
-94.9625
 20
44.125
 30
0
 40
0.499979
100
AcDbArc
 50
180
 51
-90
  0
LINE
  5
B44
330
A02
100
AcDbEntity
  8
Sketch
100
AcDbLine
 10
-94.9625
 20
43.625
 30
0
 11
-81.9625
 21
43.625
 31
0
  0
ARC
  5
B45
330
A02
100
AcDbEntity
  8
Sketch
100
AcDbCircle
 10
-81.9625
 20
44.125
 30
0
 40
0.499983
100
AcDbArc
 50
-90
 51
0
  0
LINE
  5
B46
330
A02
100
AcDbEntity
  8
Sketch
100
AcDbLine
 10
-81.4625
 20
44.125
 30
0
 11
-81.4625
 21
57.125
 31
0
  0
ARC
  5
B47
330
A02
100
AcDbEntity
  8
Sketch
100
AcDbCircle
 10
-101.012
 20
57.125
 30
0
 40
0.499981
100
AcDbArc
 50
0
 51
90
  0
LINE
  5
B48
330
A02
100
AcDbEntity
  8
Sketch
100
AcDbLine
 10
-101.012
 20
57.625
 30
0
 11
-114.012
 21
57.625
 31
0
  0
ARC
  5
B49
330
A02
100
AcDbEntity
  8
Sketch
100
AcDbCircle
 10
-114.012
 20
57.125
 30
0
 40
0.499982
100
AcDbArc
 50
90
 51
180
  0
LINE
  5
B4A
330
A02
100
AcDbEntity
  8
Sketch
100
AcDbLine
 10
-114.512
 20
57.125
 30
0
 11
-114.513
 21
44.125
 31
0
  0
ARC
  5
B4B
330
A02
100
AcDbEntity
  8
Sketch
100
AcDbCircle
 10
-114.013
 20
44.125
 30
0
 40
0.499981
100
AcDbArc
 50
180
 51
-90
  0
LINE
  5
B4C
330
A02
100
AcDbEntity
  8
Sketch
100
AcDbLine
 10
-114.013
 20
43.625
 30
0
 11
-101.012
 21
43.625
 31
0
  0
ARC
  5
B4D
330
A02
100
AcDbEntity
  8
Sketch
100
AcDbCircle
 10
-101.012
 20
44.125
 30
0
 40
0.499984
100
AcDbArc
 50
-90
 51
0
  0
LINE
  5
B4E
330
A02
100
AcDbEntity
  8
Sketch
100
AcDbLine
 10
-100.512
 20
44.125
 30
0
 11
-100.512
 21
57.125
 31
0
  0
ARC
  5
B4F
330
A02
100
AcDbEntity
  8
Sketch
100
AcDbCircle
 10
-120.062
 20
57.125
 30
0
 40
0.49998
100
AcDbArc
 50
0
 51
90
  0
LINE
  5
B50
330
A02
100
AcDbEntity
  8
Sketch
100
AcDbLine
 10
-120.062
 20
57.625
 30
0
 11
-133.062
 21
57.625
 31
0
  0
ARC
  5
B51
330
A02
100
AcDbEntity
  8
Sketch
100
AcDbCircle
 10
-133.062
 20
57.125
 30
0
 40
0.499984
100
AcDbArc
 50
90
 51
180
  0
LINE
  5
B52
330
A02
100
AcDbEntity
  8
Sketch
100
AcDbLine
 10
-133.562
 20
57.125
 30
0
 11
-133.563
 21
44.125
 31
0
  0
ARC
  5
B53
330
A02
100
AcDbEntity
  8
Sketch
100
AcDbCircle
 10
-133.063
 20
44.125
 30
0
 40
0.499982
100
AcDbArc
 50
180
 51
-90
  0
LINE
  5
B54
330
A02
100
AcDbEntity
  8
Sketch
100
AcDbLine
 10
-133.063
 20
43.625
 30
0
 11
-120.063
 21
43.625
 31
0
  0
ARC
  5
B55
330
A02
100
AcDbEntity
  8
Sketch
100
AcDbCircle
 10
-120.063
 20
44.125
 30
0
 40
0.49998
100
AcDbArc
 50
-90
 51
0
  0
LINE
  5
B56
330
A02
100
AcDbEntity
  8
Sketch
100
AcDbLine
 10
-119.563
 20
44.125
 30
0
 11
-119.562
 21
57.125
 31
0
  0
ARC
  5
B57
330
A02
100
AcDbEntity
  8
Sketch
100
AcDbCircle
 10
-139.112
 20
57.125
 30
0
 40
0.499983
100
AcDbArc
 50
0
 51
90
  0
LINE
  5
B58
330
A02
100
AcDbEntity
  8
Sketch
100
AcDbLine
 10
-139.112
 20
57.625
 30
0
 11
-152.112
 21
57.625
 31
0
  0
ARC
  5
B59
330
A02
100
AcDbEntity
  8
Sketch
100
AcDbCircle
 10
-152.112
 20
57.125
 30
0
 40
0.499982
100
AcDbArc
 50
90
 51
180
  0
LINE
  5
B5A
330
A02
100
AcDbEntity
  8
Sketch
100
AcDbLine
 10
-152.612
 20
57.125
 30
0
 11
-152.613
 21
44.125
 31
0
  0
ARC
  5
B5B
330
A02
100
AcDbEntity
  8
Sketch
100
AcDbCircle
 10
-152.113
 20
44.125
 30
0
 40
0.499982
100
AcDbArc
 50
180
 51
-90
  0
LINE
  5
B5C
330
A02
100
AcDbEntity
  8
Sketch
100
AcDbLine
 10
-152.113
 20
43.625
 30
0
 11
-139.113
 21
43.625
 31
0
  0
ARC
  5
B5D
330
A02
100
AcDbEntity
  8
Sketch
100
AcDbCircle
 10
-139.113
 20
44.125
 30
0
 40
0.499985
100
AcDbArc
 50
-90
 51
0
  0
LINE
  5
B5E
330
A02
100
AcDbEntity
  8
Sketch
100
AcDbLine
 10
-138.613
 20
44.125
 30
0
 11
-138.612
 21
57.125
 31
0
  0
ARC
  5
B5F
330
A02
100
AcDbEntity
  8
Sketch
100
AcDbCircle
 10
-158.162
 20
57.125
 30
0
 40
0.49998
100
AcDbArc
 50
0
 51
90
  0
LINE
  5
B60
330
A02
100
AcDbEntity
  8
Sketch
100
AcDbLine
 10
-158.162
 20
57.625
 30
0
 11
-171.162
 21
57.625
 31
0
  0
ARC
  5
B61
330
A02
100
AcDbEntity
  8
Sketch
100
AcDbCircle
 10
-171.162
 20
57.125
 30
0
 40
0.499982
100
AcDbArc
 50
90
 51
180
  0
LINE
  5
B62
330
A02
100
AcDbEntity
  8
Sketch
100
AcDbLine
 10
-171.662
 20
57.125
 30
0
 11
-171.663
 21
44.125
 31
0
  0
ARC
  5
B63
330
A02
100
AcDbEntity
  8
Sketch
100
AcDbCircle
 10
-171.163
 20
44.125
 30
0
 40
0.499983
100
AcDbArc
 50
180
 51
-90
  0
LINE
  5
B64
330
A02
100
AcDbEntity
  8
Sketch
100
AcDbLine
 10
-171.163
 20
43.625
 30
0
 11
-158.163
 21
43.625
 31
0
  0
ARC
  5
B65
330
A02
100
AcDbEntity
  8
Sketch
100
AcDbCircle
 10
-158.163
 20
44.125
 30
0
 40
0.499978
100
AcDbArc
 50
-90
 51
0
  0
LINE
  5
B66
330
A02
100
AcDbEntity
  8
Sketch
100
AcDbLine
 10
-157.663
 20
44.125
 30
0
 11
-157.662
 21
57.125
 31
0
  0
ARC
  5
B67
330
A02
100
AcDbEntity
  8
Sketch
100
AcDbCircle
 10
-177.212
 20
57.125
 30
0
 40
0.499982
100
AcDbArc
 50
0
 51
90
  0
LINE
  5
B68
330
A02
100
AcDbEntity
  8
Sketch
100
AcDbLine
 10
-177.212
 20
57.625
 30
0
 11
-190.212
 21
57.625
 31
0
  0
ARC
  5
B69
330
A02
100
AcDbEntity
  8
Sketch
100
AcDbCircle
 10
-190.212
 20
57.125
 30
0
 40
0.499981
100
AcDbArc
 50
90
 51
180
  0
LINE
  5
B6A
330
A02
100
AcDbEntity
  8
Sketch
100
AcDbLine
 10
-190.712
 20
57.125
 30
0
 11
-190.713
 21
44.125
 31
0
  0
ARC
  5
B6B
330
A02
100
AcDbEntity
  8
Sketch
100
AcDbCircle
 10
-190.213
 20
44.125
 30
0
 40
0.499983
100
AcDbArc
 50
180
 51
-90
  0
LINE
  5
B6C
330
A02
100
AcDbEntity
  8
Sketch
100
AcDbLine
 10
-190.213
 20
43.625
 30
0
 11
-177.213
 21
43.625
 31
0
  0
ARC
  5
B6D
330
A02
100
AcDbEntity
  8
Sketch
100
AcDbCircle
 10
-177.213
 20
44.125
 30
0
 40
0.499983
100
AcDbArc
 50
-90
 51
0
  0
LINE
  5
B6E
330
A02
100
AcDbEntity
  8
Sketch
100
AcDbLine
 10
-176.713
 20
44.125
 30
0
 11
-176.712
 21
57.125
 31
0
  0
ARC
  5
B6F
330
A02
100
AcDbEntity
  8
Sketch
100
AcDbCircle
 10
-196.262
 20
57.125
 30
0
 40
0.499983
100
AcDbArc
 50
0
 51
90
  0
LINE
  5
B70
330
A02
100
AcDbEntity
  8
Sketch
100
AcDbLine
 10
-196.262
 20
57.625
 30
0
 11
-209.262
 21
57.625
 31
0
  0
ARC
  5
B71
330
A02
100
AcDbEntity
  8
Sketch
100
AcDbCircle
 10
-209.262
 20
57.125
 30
0
 40
0.499981
100
AcDbArc
 50
90
 51
180
  0
LINE
  5
B72
330
A02
100
AcDbEntity
  8
Sketch
100
AcDbLine
 10
-209.762
 20
57.125
 30
0
 11
-209.763
 21
44.125
 31
0
  0
ARC
  5
B73
330
A02
100
AcDbEntity
  8
Sketch
100
AcDbCircle
 10
-209.263
 20
44.125
 30
0
 40
0.499983
100
AcDbArc
 50
180
 51
-90
  0
LINE
  5
B74
330
A02
100
AcDbEntity
  8
Sketch
100
AcDbLine
 10
-209.263
 20
43.625
 30
0
 11
-196.263
 21
43.625
 31
0
  0
ARC
  5
B75
330
A02
100
AcDbEntity
  8
Sketch
100
AcDbCircle
 10
-196.263
 20
44.125
 30
0
 40
0.499983
100
AcDbArc
 50
-90
 51
0
  0
LINE
  5
B76
330
A02
100
AcDbEntity
  8
Sketch
100
AcDbLine
 10
-195.763
 20
44.125
 30
0
 11
-195.762
 21
57.125
 31
0
  0
ARC
  5
B77
330
A02
100
AcDbEntity
  8
Sketch
100
AcDbCircle
 10
-215.312
 20
57.125
 30
0
 40
0.499982
100
AcDbArc
 50
0
 51
90
  0
LINE
  5
B78
330
A02
100
AcDbEntity
  8
Sketch
100
AcDbLine
 10
-215.312
 20
57.625
 30
0
 11
-228.312
 21
57.625
 31
0
  0
ARC
  5
B79
330
A02
100
AcDbEntity
  8
Sketch
100
AcDbCircle
 10
-228.312
 20
57.125
 30
0
 40
0.499982
100
AcDbArc
 50
90
 51
180
  0
LINE
  5
B7A
330
A02
100
AcDbEntity
  8
Sketch
100
AcDbLine
 10
-228.812
 20
57.125
 30
0
 11
-228.813
 21
44.125
 31
0
  0
ARC
  5
B7B
330
A02
100
AcDbEntity
  8
Sketch
100
AcDbCircle
 10
-228.313
 20
44.125
 30
0
 40
0.499982
100
AcDbArc
 50
180
 51
-90
  0
LINE
  5
B7C
330
A02
100
AcDbEntity
  8
Sketch
100
AcDbLine
 10
-228.313
 20
43.625
 30
0
 11
-215.313
 21
43.625
 31
0
  0
ARC
  5
B7D
330
A02
100
AcDbEntity
  8
Sketch
100
AcDbCircle
 10
-215.313
 20
44.125
 30
0
 40
0.499981
100
AcDbArc
 50
-90
 51
0
  0
LINE
  5
B7E
330
A02
100
AcDbEntity
  8
Sketch
100
AcDbLine
 10
-214.813
 20
44.125
 30
0
 11
-214.812
 21
57.125
 31
0
  0
ARC
  5
B7F
330
A02
100
AcDbEntity
  8
Sketch
100
AcDbCircle
 10
-234.362
 20
57.125
 30
0
 40
0.499984
100
AcDbArc
 50
0
 51
90
  0
LINE
  5
B80
330
A02
100
AcDbEntity
  8
Sketch
100
AcDbLine
 10
-234.362
 20
57.625
 30
0
 11
-247.362
 21
57.625
 31
0
  0
ARC
  5
B81
330
A02
100
AcDbEntity
  8
Sketch
100
AcDbCircle
 10
-247.362
 20
57.125
 30
0
 40
0.499981
100
AcDbArc
 50
90
 51
180
  0
LINE
  5
B82
330
A02
100
AcDbEntity
  8
Sketch
100
AcDbLine
 10
-247.862
 20
57.125
 30
0
 11
-247.863
 21
44.125
 31
0
  0
ARC
  5
B83
330
A02
100
AcDbEntity
  8
Sketch
100
AcDbCircle
 10
-247.363
 20
44.125
 30
0
 40
0.499981
100
AcDbArc
 50
180
 51
-90
  0
LINE
  5
B84
330
A02
100
AcDbEntity
  8
Sketch
100
AcDbLine
 10
-247.363
 20
43.625
 30
0
 11
-234.363
 21
43.625
 31
0
  0
ARC
  5
B85
330
A02
100
AcDbEntity
  8
Sketch
100
AcDbCircle
 10
-234.363
 20
44.125
 30
0
 40
0.499979
100
AcDbArc
 50
-90
 51
0
  0
LINE
  5
B86
330
A02
100
AcDbEntity
  8
Sketch
100
AcDbLine
 10
-233.863
 20
44.125
 30
0
 11
-233.862
 21
57.125
 31
0
  0
ARC
  5
B87
330
A02
100
AcDbEntity
  8
Sketch
100
AcDbCircle
 10
-12.9062
 20
76.175
 30
0
 40
0.499982
100
AcDbArc
 50
0
 51
90
  0
LINE
  5
B88
330
A02
100
AcDbEntity
  8
Sketch
100
AcDbLine
 10
-12.9062
 20
76.675
 30
0
 11
-25.9062
 21
76.675
 31
0
  0
ARC
  5
B89
330
A02
100
AcDbEntity
  8
Sketch
100
AcDbCircle
 10
-25.9062
 20
76.175
 30
0
 40
0.499977
100
AcDbArc
 50
90
 51
180
  0
LINE
  5
B8A
330
A02
100
AcDbEntity
  8
Sketch
100
AcDbLine
 10
-26.4062
 20
76.175
 30
0
 11
-26.4063
 21
63.175
 31
0
  0
ARC
  5
B8B
330
A02
100
AcDbEntity
  8
Sketch
100
AcDbCircle
 10
-25.9063
 20
63.175
 30
0
 40
0.499983
100
AcDbArc
 50
180
 51
-90
  0
LINE
  5
B8C
330
A02
100
AcDbEntity
  8
Sketch
100
AcDbLine
 10
-25.9063
 20
62.675
 30
0
 11
-12.9063
 21
62.675
 31
0
  0
ARC
  5
B8D
330
A02
100
AcDbEntity
  8
Sketch
100
AcDbCircle
 10
-12.9063
 20
63.175
 30
0
 40
0.499981
100
AcDbArc
 50
-90
 51
0
  0
LINE
  5
B8E
330
A02
100
AcDbEntity
  8
Sketch
100
AcDbLine
 10
-12.4063
 20
63.175
 30
0
 11
-12.4062
 21
76.175
 31
0
  0
ARC
  5
B8F
330
A02
100
AcDbEntity
  8
Sketch
100
AcDbCircle
 10
-34.3375
 20
76.175
 30
0
 40
0.499983
100
AcDbArc
 50
0
 51
90
  0
LINE
  5
B90
330
A02
100
AcDbEntity
  8
Sketch
100
AcDbLine
 10
-34.3375
 20
76.675
 30
0
 11
-47.3375
 21
76.675
 31
0
  0
ARC
  5
B91
330
A02
100
AcDbEntity
  8
Sketch
100
AcDbCircle
 10
-47.3375
 20
76.175
 30
0
 40
0.499982
100
AcDbArc
 50
90
 51
180
  0
LINE
  5
B92
330
A02
100
AcDbEntity
  8
Sketch
100
AcDbLine
 10
-47.8375
 20
76.175
 30
0
 11
-47.8375
 21
63.175
 31
0
  0
ARC
  5
B93
330
A02
100
AcDbEntity
  8
Sketch
100
AcDbCircle
 10
-47.3375
 20
63.175
 30
0
 40
0.49998
100
AcDbArc
 50
180
 51
-90
  0
LINE
  5
B94
330
A02
100
AcDbEntity
  8
Sketch
100
AcDbLine
 10
-47.3375
 20
62.675
 30
0
 11
-34.3375
 21
62.675
 31
0
  0
ARC
  5
B95
330
A02
100
AcDbEntity
  8
Sketch
100
AcDbCircle
 10
-34.3375
 20
63.175
 30
0
 40
0.499984
100
AcDbArc
 50
-90
 51
0
  0
LINE
  5
B96
330
A02
100
AcDbEntity
  8
Sketch
100
AcDbLine
 10
-33.8375
 20
63.175
 30
0
 11
-33.8375
 21
76.175
 31
0
  0
ARC
  5
B97
330
A02
100
AcDbEntity
  8
Sketch
100
AcDbCircle
 10
-55.7687
 20
76.175
 30
0
 40
0.49998
100
AcDbArc
 50
0
 51
90
  0
LINE
  5
B98
330
A02
100
AcDbEntity
  8
Sketch
100
AcDbLine
 10
-55.7687
 20
76.675
 30
0
 11
-68.7687
 21
76.675
 31
0
  0
ARC
  5
B99
330
A02
100
AcDbEntity
  8
Sketch
100
AcDbCircle
 10
-68.7687
 20
76.175
 30
0
 40
0.499983
100
AcDbArc
 50
90
 51
180
  0
LINE
  5
B9A
330
A02
100
AcDbEntity
  8
Sketch
100
AcDbLine
 10
-69.2687
 20
76.175
 30
0
 11
-69.2688
 21
63.175
 31
0
  0
ARC
  5
B9B
330
A02
100
AcDbEntity
  8
Sketch
100
AcDbCircle
 10
-68.7688
 20
63.175
 30
0
 40
0.499978
100
AcDbArc
 50
180
 51
-90
  0
LINE
  5
B9C
330
A02
100
AcDbEntity
  8
Sketch
100
AcDbLine
 10
-68.7688
 20
62.675
 30
0
 11
-55.7688
 21
62.675
 31
0
  0
ARC
  5
B9D
330
A02
100
AcDbEntity
  8
Sketch
100
AcDbCircle
 10
-55.7688
 20
63.175
 30
0
 40
0.499981
100
AcDbArc
 50
-90
 51
0
  0
LINE
  5
B9E
330
A02
100
AcDbEntity
  8
Sketch
100
AcDbLine
 10
-55.2688
 20
63.175
 30
0
 11
-55.2687
 21
76.175
 31
0
  0
ARC
  5
B9F
330
A02
100
AcDbEntity
  8
Sketch
100
AcDbCircle
 10
-127.206
 20
76.175
 30
0
 40
0.499982
100
AcDbArc
 50
0
 51
90
  0
LINE
  5
BA0
330
A02
100
AcDbEntity
  8
Sketch
100
AcDbLine
 10
-127.206
 20
76.675
 30
0
 11
-140.206
 21
76.675
 31
0
  0
ARC
  5
BA1
330
A02
100
AcDbEntity
  8
Sketch
100
AcDbCircle
 10
-140.206
 20
76.175
 30
0
 40
0.499982
100
AcDbArc
 50
90
 51
180
  0
LINE
  5
BA2
330
A02
100
AcDbEntity
  8
Sketch
100
AcDbLine
 10
-140.706
 20
76.175
 30
0
 11
-140.706
 21
63.175
 31
0
  0
ARC
  5
BA3
330
A02
100
AcDbEntity
  8
Sketch
100
AcDbCircle
 10
-140.206
 20
63.175
 30
0
 40
0.499985
100
AcDbArc
 50
180
 51
-90
  0
LINE
  5
BA4
330
A02
100
AcDbEntity
  8
Sketch
100
AcDbLine
 10
-140.206
 20
62.675
 30
0
 11
-127.206
 21
62.675
 31
0
  0
ARC
  5
BA5
330
A02
100
AcDbEntity
  8
Sketch
100
AcDbCircle
 10
-127.206
 20
63.175
 30
0
 40
0.499981
100
AcDbArc
 50
-90
 51
0
  0
LINE
  5
BA6
330
A02
100
AcDbEntity
  8
Sketch
100
AcDbLine
 10
-126.706
 20
63.175
 30
0
 11
-126.706
 21
76.175
 31
0
  0
ARC
  5
BA7
330
A02
100
AcDbEntity
  8
Sketch
100
AcDbCircle
 10
-186.706
 20
62.175
 30
0
 40
0.499985
100
AcDbArc
 50
180
 51
-90
  0
LINE
  5
BA8
330
A02
100
AcDbEntity
  8
Sketch
100
AcDbLine
 10
-186.706
 20
61.675
 30
0
 11
-180.706
 21
61.675
 31
0
  0
ARC
  5
BA9
330
A02
100
AcDbEntity
  8
Sketch
100
AcDbCircle
 10
-180.706
 20
62.175
 30
0
 40
0.499983
100
AcDbArc
 50
-90
 51
0
  0
LINE
  5
BAA
330
A02
100
AcDbEntity
  8
Sketch
100
AcDbLine
 10
-180.206
 20
62.175
 30
0
 11
-180.206
 21
76.175
 31
0
  0
ARC
  5
BAB
330
A02
100
AcDbEntity
  8
Sketch
100
AcDbCircle
 10
-180.706
 20
76.175
 30
0
 40
0.499979
100
AcDbArc
 50
0
 51
90
  0
LINE
  5
BAC
330
A02
100
AcDbEntity
  8
Sketch
100
AcDbLine
 10
-180.706
 20
76.675
 30
0
 11
-186.706
 21
76.675
 31
0
  0
ARC
  5
BAD
330
A02
100
AcDbEntity
  8
Sketch
100
AcDbCircle
 10
-186.706
 20
76.175
 30
0
 40
0.499978
100
AcDbArc
 50
90
 51
180
  0
LINE
  5
BAE
330
A02
100
AcDbEntity
  8
Sketch
100
AcDbLine
 10
-187.206
 20
76.175
 30
0
 11
-187.206
 21
62.175
 31
0
  0
ARC
  5
BAF
330
A02
100
AcDbEntity
  8
Sketch
100
AcDbCircle
 10
-86.7063
 20
62.175
 30
0
 40
0.499982
100
AcDbArc
 50
180
 51
-90
  0
LINE
  5
BB0
330
A02
100
AcDbEntity
  8
Sketch
100
AcDbLine
 10
-86.7063
 20
61.675
 30
0
 11
-80.7063
 21
61.675
 31
0
  0
ARC
  5
BB1
330
A02
100
AcDbEntity
  8
Sketch
100
AcDbCircle
 10
-80.7063
 20
62.175
 30
0
 40
0.49998
100
AcDbArc
 50
-90
 51
0
  0
LINE
  5
BB2
330
A02
100
AcDbEntity
  8
Sketch
100
AcDbLine
 10
-80.2063
 20
62.175
 30
0
 11
-80.2062
 21
76.175
 31
0
  0
ARC
  5
BB3
330
A02
100
AcDbEntity
  8
Sketch
100
AcDbCircle
 10
-80.7062
 20
76.175
 30
0
 40
0.499983
100
AcDbArc
 50
0
 51
90
  0
LINE
  5
BB4
330
A02
100
AcDbEntity
  8
Sketch
100
AcDbLine
 10
-80.7062
 20
76.675
 30
0
 11
-86.7062
 21
76.675
 31
0
  0
ARC
  5
BB5
330
A02
100
AcDbEntity
  8
Sketch
100
AcDbCircle
 10
-86.7062
 20
76.175
 30
0
 40
0.499978
100
AcDbArc
 50
90
 51
180
  0
LINE
  5
BB6
330
A02
100
AcDbEntity
  8
Sketch
100
AcDbLine
 10
-87.2062
 20
76.175
 30
0
 11
-87.2063
 21
62.175
 31
0
  0
ARC
  5
BB7
330
A02
100
AcDbEntity
  8
Sketch
100
AcDbCircle
 10
-196.262
 20
76.175
 30
0
 40
0.499981
100
AcDbArc
 50
0
 51
90
  0
LINE
  5
BB8
330
A02
100
AcDbEntity
  8
Sketch
100
AcDbLine
 10
-196.262
 20
76.675
 30
0
 11
-209.262
 21
76.675
 31
0
  0
ARC
  5
BB9
330
A02
100
AcDbEntity
  8
Sketch
100
AcDbCircle
 10
-209.262
 20
76.175
 30
0
 40
0.499983
100
AcDbArc
 50
90
 51
180
  0
LINE
  5
BBA
330
A02
100
AcDbEntity
  8
Sketch
100
AcDbLine
 10
-209.762
 20
76.175
 30
0
 11
-209.763
 21
63.175
 31
0
  0
ARC
  5
BBB
330
A02
100
AcDbEntity
  8
Sketch
100
AcDbCircle
 10
-209.263
 20
63.175
 30
0
 40
0.49998
100
AcDbArc
 50
180
 51
-90
  0
LINE
  5
BBC
330
A02
100
AcDbEntity
  8
Sketch
100
AcDbLine
 10
-209.263
 20
62.675
 30
0
 11
-196.263
 21
62.675
 31
0
  0
ARC
  5
BBD
330
A02
100
AcDbEntity
  8
Sketch
100
AcDbCircle
 10
-196.263
 20
63.175
 30
0
 40
0.49998
100
AcDbArc
 50
-90
 51
0
  0
LINE
  5
BBE
330
A02
100
AcDbEntity
  8
Sketch
100
AcDbLine
 10
-195.763
 20
63.175
 30
0
 11
-195.762
 21
76.175
 31
0
  0
ARC
  5
BBF
330
A02
100
AcDbEntity
  8
Sketch
100
AcDbCircle
 10
-215.312
 20
76.175
 30
0
 40
0.499979
100
AcDbArc
 50
0
 51
90
  0
LINE
  5
BC0
330
A02
100
AcDbEntity
  8
Sketch
100
AcDbLine
 10
-215.312
 20
76.675
 30
0
 11
-228.312
 21
76.675
 31
0
  0
ARC
  5
BC1
330
A02
100
AcDbEntity
  8
Sketch
100
AcDbCircle
 10
-228.312
 20
76.175
 30
0
 40
0.499979
100
AcDbArc
 50
90
 51
180
  0
LINE
  5
BC2
330
A02
100
AcDbEntity
  8
Sketch
100
AcDbLine
 10
-228.812
 20
76.175
 30
0
 11
-228.813
 21
63.175
 31
0
  0
ARC
  5
BC3
330
A02
100
AcDbEntity
  8
Sketch
100
AcDbCircle
 10
-228.313
 20
63.175
 30
0
 40
0.499981
100
AcDbArc
 50
180
 51
-90
  0
LINE
  5
BC4
330
A02
100
AcDbEntity
  8
Sketch
100
AcDbLine
 10
-228.313
 20
62.675
 30
0
 11
-215.313
 21
62.675
 31
0
  0
ARC
  5
BC5
330
A02
100
AcDbEntity
  8
Sketch
100
AcDbCircle
 10
-215.313
 20
63.175
 30
0
 40
0.499977
100
AcDbArc
 50
-90
 51
0
  0
LINE
  5
BC6
330
A02
100
AcDbEntity
  8
Sketch
100
AcDbLine
 10
-214.813
 20
63.175
 30
0
 11
-214.812
 21
76.175
 31
0
  0
ARC
  5
BC7
330
A02
100
AcDbEntity
  8
Sketch
100
AcDbCircle
 10
-234.362
 20
76.175
 30
0
 40
0.499982
100
AcDbArc
 50
0
 51
90
  0
LINE
  5
BC8
330
A02
100
AcDbEntity
  8
Sketch
100
AcDbLine
 10
-234.362
 20
76.675
 30
0
 11
-247.362
 21
76.675
 31
0
  0
ARC
  5
BC9
330
A02
100
AcDbEntity
  8
Sketch
100
AcDbCircle
 10
-247.362
 20
76.175
 30
0
 40
0.499983
100
AcDbArc
 50
90
 51
180
  0
LINE
  5
BCA
330
A02
100
AcDbEntity
  8
Sketch
100
AcDbLine
 10
-247.862
 20
76.175
 30
0
 11
-247.863
 21
63.175
 31
0
  0
ARC
  5
BCB
330
A02
100
AcDbEntity
  8
Sketch
100
AcDbCircle
 10
-247.363
 20
63.175
 30
0
 40
0.499981
100
AcDbArc
 50
180
 51
-90
  0
LINE
  5
BCC
330
A02
100
AcDbEntity
  8
Sketch
100
AcDbLine
 10
-247.363
 20
62.675
 30
0
 11
-234.363
 21
62.675
 31
0
  0
ARC
  5
BCD
330
A02
100
AcDbEntity
  8
Sketch
100
AcDbCircle
 10
-234.363
 20
63.175
 30
0
 40
0.49998
100
AcDbArc
 50
-90
 51
0
  0
LINE
  5
BCE
330
A02
100
AcDbEntity
  8
Sketch
100
AcDbLine
 10
-233.863
 20
63.175
 30
0
 11
-233.862
 21
76.175
 31
0
  0
ENDSEC
  0
SECTION
  2
OBJECTS
  0
DICTIONARY
  5
F000
330
0
100
AcDbDictionary
  3
ACAD_GROUP
350
F001
  0
DICTIONARY
  5
F001
330
F000
100
AcDbDictionary
  0
ENDSEC
  0
EOF