999
FreeCAD v2022.111 28429 (Git)
  0
SECTION
  2
HEADER
  9
$ACADVER
  1
AC1014
  9
$ACADMAINTVER
 70
     9
  9
$DWGCODEPAGE
  3
ANSI_1252
  9
$TEXTSTYLE
  7
STANDARD
  9
$DIMSTYLE
  2
STANDARD
  9
$DIMTXSTY
  7
STANDARD
  9
$CMLSTYLE
  2
STANDARD
  9
$PEXTMAX
 10
50
 20
50
 30
50
  9
$PEXTMIN
 10
0
 20
0
 30
0
  9
$HANDSEED
  5
FFFF
  0
ENDSEC
  0
SECTION
  2
CLASSES
  0
CLASS
  1
ACDBDICTIONARYWDFLT
  2
AcDbDictionaryWithDefault
  3
ObjectDBX Classes
 90
        0
280
     0
281
     0
  0
CLASS
  1
XRECORD
  2
AcDbXrecord
  3
ObjectDBX Classes
 90
        0
280
     0
281
     0
  0
CLASS
  1
LWPOLYLINE
  2
AcDbPolyline
  3
ObjectDBX Classes
 90
        0
280
     0
281
     1
  0
ENDSEC
  0
SECTION
  2
TABLES
  0
TABLE
  2
VPORT
  5
20
330
0
100
AcDbSymbolTable
 70
     1
  0
VPORT
  5
21
330
20
100
AcDbSymbolTableRecord
100
AcDbViewportTableRecord
  2
*ACTIVE
 70
     0
  0
ENDTAB
  0
TABLE
  2
LTYPE
  5
22
330
0
100
AcDbSymbolTable
 70
     1
  0
LTYPE
  5
23
330
21
100
AcDbSymbolTableRecord
100
AcDbLinetypeTableRecord
  2
BYBLOCK
 70
     0
  3

 72
    65
 73
     0
 40
0.0
  0
LTYPE
  5
24
330
21
100
AcDbSymbolTableRecord
100
AcDbLinetypeTableRecord
  2
BYLAYER
 70
     0
  3

 72
    65
 73
     0
 40
0.0
  0
LTYPE
  5
25
330
21
100
AcDbSymbolTableRecord
100
AcDbLinetypeTableRecord
  2
CONTINUOUS
 70
     0
  3
Solid line
 72
    65
 73
     0
 40
0.0
  0
ENDTAB
  0
TABLE
  2
LAYER
  5
BBE
330
0
100
AcDbSymbolTable
 70
3
  0
LAYER
  5
BBF
330
BBE
100
AcDbSymbolTableRecord
100
AcDbLayerTableRecord
  2
0
 70
   0
 62
   7
  6
CONTINUOUS
  0
LAYER
  5
BC0
330
BBE
100
AcDbSymbolTableRecord
100
AcDbLayerTableRecord
  2
none
 70
    0
 62
    7
  6
CONTINUOUS
  0
LAYER
  5
BC1
330
BBE
100
AcDbSymbolTableRecord
100
AcDbLayerTableRecord
  2
Sketch001
 70
    0
 62
    7
  6
CONTINUOUS
  0
ENDTAB
  0
TABLE
  2
STYLE
  5
70
330
0
100
AcDbSymbolTable
 70
     2
  0
STYLE
  5
71
330
70
100
AcDbSymbolTableRecord
100
AcDbTextStyleTableRecord
  2
STANDARD
 70
     0
 40
0.0
 41
1.0
 50
0.0
 71
     0
 42
2.5
  3
arial.ttf
  4

  0
STYLE
  5
72
330
70
100
AcDbSymbolTableRecord
100
AcDbTextStyleTableRecord
  2
ANNOTATIVE
 70
     0
 40
0.0
 41
1.0
 50
0.0
 71
     0
 42
2.5
  3
arial.ttf
  4

  0
ENDTAB
  0
TABLE
  2
VIEW
  5
73
330
0
100
AcDbSymbolTable
 70
     0
  0
ENDTAB
  0
TABLE
  2
UCS
  5
74
330
0
100
AcDbSymbolTable
 70
     0
  0
ENDTAB
  0
TABLE
  2
APPID
  5
75
330
0
100
AcDbSymbolTable
 70
     2
  0
APPID
  5
76
330
75
100
AcDbSymbolTableRecord
100
AcDbRegAppTableRecord
  2
ACAD
 70
     0
  0
APPID
  5
77
330
75
100
AcDbSymbolTableRecord
100
AcDbRegAppTableRecord
  2
ACADANNOTATIVE
 70
     0
  0
ENDTAB
  0
TABLE
  2
DIMSTYLE
  5
78
330
0
100
AcDbSymbolTable
 70
     2
  0
DIMSTYLE
105
79
330
78
100
AcDbSymbolTableRecord
100
AcDbDimStyleTableRecord
  2
STANDARD
 70
     0
  3

  4

  5

  6

  7

 40
0.0
 41
2.5
 42
0.625
 43
3.75
 44
1.25
 45
0.0
 46
0.0
 47
0.0
 48
0.0
140
2.5
141
2.5
142
0.0
143
0.03937007874016
144
1.0
145
0.0
146
1.0
147
0.625
 71
     0
 72
     0
 73
     0
 74
     0
 75
     0
 76
     0
 77
     1
 78
     8
170
     0
171
     3
172
     1
173
     0
174
     0
175
     0
176
     0
177
     0
178
     0
270
     2
271
     2
272
     2
273
     2
274
     3
340
71
275
     0
280
     0
281
     0
282
     0
283
     0
284
     8
285
     0
286
     0
287
     3
288
     0
  0
ENDTAB
  0
TABLE
  2
BLOCK_RECORD
  5
A01
330
0
100
AcDbSymbolTable
  70
5
  0
BLOCK_RECORD
  5
A02
330
A01
100
AcDbSymbolTableRecord
100
AcDbBlockTableRecord
  2
*MODEL_SPACE
  0
BLOCK_RECORD
  5
A03
330
A01
100
AcDbSymbolTableRecord
100
AcDbBlockTableRecord
  2
*PAPER_SPACE
  0
ENDTAB
  0
ENDSEC
  0
SECTION
  2
BLOCKS
  0
BLOCK
  5
A04
330
A02
100
AcDbEntity
  8
0
100
AcDbBlockBegin
  2
*MODEL_SPACE
 70
   0
 10
0
 20
0
 30
0
  3
*MODEL_SPACE
  1
 
  0
ENDBLK
  5
A05
330
A02
100
AcDbEntity
  8
0
100
AcDbBlockEnd
  0
BLOCK
  5
A06
330
A03
100
AcDbEntity
 67
1
  8
0
100
AcDbBlockBegin
  2
*PAPER_SPACE
 70
   0
 10
0
 20
0
 30
0
  3
*PAPER_SPACE
  1
 
  0
ENDBLK
  5
A07
330
A03
100
AcDbEntity
 67
    1
  8
0
100
AcDbBlockEnd
  0
ENDSEC
  0
SECTION
  2
ENTITIES
  0
CIRCLE
  5
A08
330
A02
100
AcDbEntity
  8
Sketch001
100
AcDbCircle
 10
4.012
 20
-8.775
 40
1.75
  0
CIRCLE
  5
A09
330
A02
100
AcDbEntity
  8
Sketch001
100
AcDbCircle
 10
4.012
 20
-3.25
 40
1.75
  0
LINE
  5
A0A
330
A02
100
AcDbEntity
  8
Sketch001
100
AcDbLine
 10
183.387
 20
-16.05
 30
0.000120787
 11
242.887
 21
-16.05
 31
0.000156252
  0
ARC
  5
A0B
330
A02
100
AcDbEntity
  8
Sketch001
100
AcDbCircle
 10
242.887
 20
-19.05
 30
0.000158398
 40
3
100
AcDbArc
 50
1.22133e-11
 51
90
  0
LINE
  5
A0C
330
A02
100
AcDbEntity
  8
Sketch001
100
AcDbLine
 10
245.887
 20
-19.05
 30
0.000160186
 11
245.887
 21
-54.15
 31
0.000185291
  0
ARC
  5
A0D
330
A02
100
AcDbEntity
  8
Sketch001
100
AcDbCircle
 10
245.887
 20
-57.15
 30
0.000187437
 40
3
100
AcDbArc
 50
-90
 51
90
  0
LINE
  5
A0E
330
A02
100
AcDbEntity
  8
Sketch001
100
AcDbLine
 10
245.887
 20
-60.15
 30
0.000189583
 11
245.887
 21
-95.25
 31
0.000214689
  0
ARC
  5
A0F
330
A02
100
AcDbEntity
  8
Sketch001
100
AcDbCircle
 10
242.887
 20
-95.25
 30
0.0002129
 40
3
100
AcDbArc
 50
-90
 51
1.22133e-11
  0
LINE
  5
A10
330
A02
100
AcDbEntity
  8
Sketch001
100
AcDbLine
 10
242.887
 20
-98.25
 30
0.000215046
 11
183.387
 21
-98.25
 31
0.000179581
  0
ARC
  5
A11
330
A02
100
AcDbEntity
  8
Sketch001
100
AcDbCircle
 10
180.387
 20
-98.25
 30
0.000177793
 40
3
100
AcDbArc
 50
-180
 51
1.22133e-11
  0
LINE
  5
A12
330
A02
100
AcDbEntity
  8
Sketch001
100
AcDbLine
 10
177.387
 20
-98.25
 30
0.000176005
 11
65.663
 21
-98.25
 31
0.000109412
  0
ARC
  5
A13
330
A02
100
AcDbEntity
  8
Sketch001
100
AcDbCircle
 10
62.663
 20
-98.25
 30
0.000107624
 40
3
100
AcDbArc
 50
-180
 51
1.22133e-11
  0
LINE
  5
A14
330
A02
100
AcDbEntity
  8
Sketch001
100
AcDbLine
 10
59.663
 20
-98.25
 30
0.000105836
 11
-1.9039e-11
 21
-98.25
 31
7.02739e-05
  0
ARC
  5
A15
330
A02
100
AcDbEntity
  8
Sketch001
100
AcDbCircle
 10
-1.83853e-11
 20
-95.25
 30
6.81281e-05
 40
3
100
AcDbArc
 50
-180
 51
-90
  0
LINE
  5
A16
330
A02
100
AcDbEntity
  8
Sketch001
100
AcDbLine
 10
-3
 20
-95.25
 30
6.634e-05
 11
-3
 21
-50.625
 31
3.44217e-05
  0
ARC
  5
A17
330
A02
100
AcDbEntity
  8
Sketch001
100
AcDbCircle
 10
-3
 20
-47.625
 30
3.22759e-05
 40
3
100
AcDbArc
 50
90
 51
-90
  0
LINE
  5
A18
330
A02
100
AcDbEntity
  8
Sketch001
100
AcDbLine
 10
-3
 20
-44.625
 30
3.01301e-05
 11
-3
 21
-2.92033e-12
 31
-1.78814e-06
  0
ARC
  5
A19
330
A02
100
AcDbEntity
  8
Sketch001
100
AcDbCircle
 10
1.9096e-12
 20
-2.2844e-12
 30
2.77214e-18
 40
3
100
AcDbArc
 50
90
 51
-180
  0
LINE
  5
A1A
330
A02
100
AcDbEntity
  8
Sketch001
100
AcDbLine
 10
2.54994e-12
 20
3
 30
-2.14577e-06
 11
59.663
 21
3
 31
3.34162e-05
  0
ARC
  5
A1B
330
A02
100
AcDbEntity
  8
Sketch001
100
AcDbCircle
 10
62.663
 20
3
 30
3.52043e-05
 40
3
100
AcDbArc
 50
1.21964e-11
 51
-180
  0
LINE
  5
A1C
330
A02
100
AcDbEntity
  8
Sketch001
100
AcDbLine
 10
65.663
 20
3
 30
3.69924e-05
 11
123.825
 21
3
 31
7.16597e-05
  0
ARC
  5
A1D
330
A02
100
AcDbEntity
  8
Sketch001
100
AcDbCircle
 10
123.825
 20
2.40643e-11
 30
7.38055e-05
 40
3
100
AcDbArc
 50
1.22006e-11
 51
90
  0
LINE
  5
A1E
330
A02
100
AcDbEntity
  8
Sketch001
100
AcDbLine
 10
126.825
 20
2.47031e-11
 30
7.55936e-05
 11
126.825
 21
-16.05
 31
8.70735e-05
  0
LINE
  5
A1F
330
A02
100
AcDbEntity
  8
Sketch001
100
AcDbLine
 10
126.825
 20
-16.05
 30
8.70735e-05
 11
177.387
 21
-16.05
 31
0.000117211
  0
ARC
  5
A20
330
A02
100
AcDbEntity
  8
Sketch001
100
AcDbCircle
 10
180.387
 20
-16.05
 30
0.000118999
 40
3
100
AcDbArc
 50
1.22133e-11
 51
-180
  0
CIRCLE
  5
A21
330
A02
100
AcDbEntity
  8
Sketch001
100
AcDbCircle
 10
4.012
 20
-14.3
 40
1.75
  0
ARC
  5
A22
330
A02
100
AcDbEntity
  8
Sketch001
100
AcDbCircle
 10
12.55
 20
-16.025
 30
1.89423e-05
 40
0.49998
100
AcDbArc
 50
180
 51
-90
  0
LINE
  5
A23
330
A02
100
AcDbEntity
  8
Sketch001
100
AcDbLine
 10
12.55
 20
-16.525
 30
1.93e-05
 11
25.55
 21
-16.525
 31
2.70486e-05
  0
ARC
  5
A24
330
A02
100
AcDbEntity
  8
Sketch001
100
AcDbCircle
 10
25.55
 20
-16.025
 30
2.6691e-05
 40
0.499977
100
AcDbArc
 50
-90
 51
0
  0
LINE
  5
A25
330
A02
100
AcDbEntity
  8
Sketch001
100
AcDbLine
 10
26.05
 20
-16.025
 30
2.6989e-05
 11
26.05
 21
-3.02501
 31
1.76907e-05
  0
ARC
  5
A26
330
A02
100
AcDbEntity
  8
Sketch001
100
AcDbCircle
 10
25.55
 20
-3.02501
 30
1.73927e-05
 40
0.499982
100
AcDbArc
 50
0
 51
90
  0
LINE
  5
A27
330
A02
100
AcDbEntity
  8
Sketch001
100
AcDbLine
 10
25.55
 20
-2.52502
 30
1.7035e-05
 11
12.55
 21
-2.52499
 31
9.2864e-06
  0
ARC
  5
A28
330
A02
100
AcDbEntity
  8
Sketch001
100
AcDbCircle
 10
12.55
 20
-3.02497
 30
9.64401e-06
 40
0.499975
100
AcDbArc
 50
90
 51
180
  0
LINE
  5
A29
330
A02
100
AcDbEntity
  8
Sketch001
100
AcDbLine
 10
12.05
 20
-3.02497
 30
9.34601e-06
 11
12.05
 21
-16.025
 31
1.86443e-05
  0
ARC
  5
A2A
330
A02
100
AcDbEntity
  8
Sketch001
100
AcDbCircle
 10
31.6
 20
-16.025
 30
3.0297e-05
 40
0.49998
100
AcDbArc
 50
180
 51
-90
  0
LINE
  5
A2B
330
A02
100
AcDbEntity
  8
Sketch001
100
AcDbLine
 10
31.6
 20
-16.525
 30
3.06546e-05
 11
44.6
 21
-16.525
 31
3.84033e-05
  0
ARC
  5
A2C
330
A02
100
AcDbEntity
  8
Sketch001
100
AcDbCircle
 10
44.6
 20
-16.025
 30
3.80457e-05
 40
0.499984
100
AcDbArc
 50
-90
 51
0
  0
LINE
  5
A2D
330
A02
100
AcDbEntity
  8
Sketch001
100
AcDbLine
 10
45.1
 20
-16.025
 30
3.83437e-05
 11
45.1
 21
-3.02501
 31
2.90454e-05
  0
ARC
  5
A2E
330
A02
100
AcDbEntity
  8
Sketch001
100
AcDbCircle
 10
44.6
 20
-3.02501
 30
2.87474e-05
 40
0.499981
100
AcDbArc
 50
0
 51
90
  0
LINE
  5
A2F
330
A02
100
AcDbEntity
  8
Sketch001
100
AcDbLine
 10
44.6
 20
-2.52503
 30
2.83897e-05
 11
31.6
 21
-2.52499
 31
2.06411e-05
  0
ARC
  5
A30
330
A02
100
AcDbEntity
  8
Sketch001
100
AcDbCircle
 10
31.6
 20
-3.02497
 30
2.09987e-05
 40
0.499981
100
AcDbArc
 50
90
 51
180
  0
LINE
  5
A31
330
A02
100
AcDbEntity
  8
Sketch001
100
AcDbLine
 10
31.1
 20
-3.02497
 30
2.07007e-05
 11
31.1
 21
-16.025
 31
2.9999e-05
  0
ARC
  5
A32
330
A02
100
AcDbEntity
  8
Sketch001
100
AcDbCircle
 10
50.65
 20
-16.025
 30
4.16517e-05
 40
0.49998
100
AcDbArc
 50
180
 51
-90
  0
LINE
  5
A33
330
A02
100
AcDbEntity
  8
Sketch001
100
AcDbLine
 10
50.65
 20
-16.525
 30
4.20093e-05
 11
63.65
 21
-16.525
 31
4.9758e-05
  0
ARC
  5
A34
330
A02
100
AcDbEntity
  8
Sketch001
100
AcDbCircle
 10
63.65
 20
-16.025
 30
4.94004e-05
 40
0.499982
100
AcDbArc
 50
-90
 51
0
  0
LINE
  5
A35
330
A02
100
AcDbEntity
  8
Sketch001
100
AcDbLine
 10
64.15
 20
-16.025
 30
4.96984e-05
 11
64.15
 21
-3.02501
 31
4.04e-05
  0
ARC
  5
A36
330
A02
100
AcDbEntity
  8
Sketch001
100
AcDbCircle
 10
63.65
 20
-3.02501
 30
4.0102e-05
 40
0.49998
100
AcDbArc
 50
0
 51
90
  0
LINE
  5
A37
330
A02
100
AcDbEntity
  8
Sketch001
100
AcDbLine
 10
63.65
 20
-2.52503
 30
3.97444e-05
 11
50.65
 21
-2.52499
 31
3.19958e-05
  0
ARC
  5
A38
330
A02
100
AcDbEntity
  8
Sketch001
100
AcDbCircle
 10
50.65
 20
-3.02497
 30
3.23534e-05
 40
0.499987
100
AcDbArc
 50
90
 51
180
  0
LINE
  5
A39
330
A02
100
AcDbEntity
  8
Sketch001
100
AcDbLine
 10
50.15
 20
-3.02497
 30
3.20554e-05
 11
50.15
 21
-16.025
 31
4.13537e-05
  0
ARC
  5
A3A
330
A02
100
AcDbEntity
  8
Sketch001
100
AcDbCircle
 10
69.7
 20
-16.025
 30
5.30064e-05
 40
0.499979
100
AcDbArc
 50
180
 51
-90
  0
LINE
  5
A3B
330
A02
100
AcDbEntity
  8
Sketch001
100
AcDbLine
 10
69.7
 20
-16.525
 30
5.3364e-05
 11
82.7
 21
-16.525
 31
6.11127e-05
  0
ARC
  5
A3C
330
A02
100
AcDbEntity
  8
Sketch001
100
AcDbCircle
 10
82.7
 20
-16.025
 30
6.0755e-05
 40
0.49998
100
AcDbArc
 50
-90
 51
0
  0
LINE
  5
A3D
330
A02
100
AcDbEntity
  8
Sketch001
100
AcDbLine
 10
83.2
 20
-16.025
 30
6.10531e-05
 11
83.2
 21
-3.02501
 31
5.17547e-05
  0
ARC
  5
A3E
330
A02
100
AcDbEntity
  8
Sketch001
100
AcDbCircle
 10
82.7
 20
-3.02501
 30
5.14567e-05
 40
0.49998
100
AcDbArc
 50
0
 51
90
  0
LINE
  5
A3F
330
A02
100
AcDbEntity
  8
Sketch001
100
AcDbLine
 10
82.7
 20
-2.52503
 30
5.10991e-05
 11
69.7
 21
-2.52499
 31
4.33505e-05
  0
ARC
  5
A40
330
A02
100
AcDbEntity
  8
Sketch001
100
AcDbCircle
 10
69.7
 20
-3.02497
 30
4.37081e-05
 40
0.499982
100
AcDbArc
 50
90
 51
180
  0
LINE
  5
A41
330
A02
100
AcDbEntity
  8
Sketch001
100
AcDbLine
 10
69.2
 20
-3.02497
 30
4.34101e-05
 11
69.2
 21
-16.025
 31
5.27084e-05
  0
ARC
  5
A42
330
A02
100
AcDbEntity
  8
Sketch001
100
AcDbCircle
 10
88.75
 20
-16.025
 30
6.43611e-05
 40
0.499982
100
AcDbArc
 50
180
 51
-90
  0
LINE
  5
A43
330
A02
100
AcDbEntity
  8
Sketch001
100
AcDbLine
 10
88.75
 20
-16.525
 30
6.47187e-05
 11
101.75
 21
-16.525
 31
7.24673e-05
  0
ARC
  5
A44
330
A02
100
AcDbEntity
  8
Sketch001
100
AcDbCircle
 10
101.75
 20
-16.025
 30
7.21097e-05
 40
0.499981
100
AcDbArc
 50
-90
 51
0
  0
LINE
  5
A45
330
A02
100
AcDbEntity
  8
Sketch001
100
AcDbLine
 10
102.25
 20
-16.025
 30
7.24077e-05
 11
102.25
 21
-3.02501
 31
6.31094e-05
  0
ARC
  5
A46
330
A02
100
AcDbEntity
  8
Sketch001
100
AcDbCircle
 10
101.75
 20
-3.02501
 30
6.28114e-05
 40
0.499979
100
AcDbArc
 50
0
 51
90
  0
LINE
  5
A47
330
A02
100
AcDbEntity
  8
Sketch001
100
AcDbLine
 10
101.75
 20
-2.52503
 30
6.24538e-05
 11
88.75
 21
-2.52499
 31
5.47052e-05
  0
ARC
  5
A48
330
A02
100
AcDbEntity
  8
Sketch001
100
AcDbCircle
 10
88.75
 20
-3.02497
 30
5.50628e-05
 40
0.499982
100
AcDbArc
 50
90
 51
180
  0
LINE
  5
A49
330
A02
100
AcDbEntity
  8
Sketch001
100
AcDbLine
 10
88.25
 20
-3.02497
 30
5.47648e-05
 11
88.25
 21
-16.025
 31
6.40631e-05
  0
ARC
  5
A4A
330
A02
100
AcDbEntity
  8
Sketch001
100
AcDbCircle
 10
107.8
 20
-16.025
 30
7.57158e-05
 40
0.499982
100
AcDbArc
 50
180
 51
-90
  0
LINE
  5
A4B
330
A02
100
AcDbEntity
  8
Sketch001
100
AcDbLine
 10
107.8
 20
-16.525
 30
7.60734e-05
 11
120.8
 21
-16.525
 31
8.3822e-05
  0
ARC
  5
A4C
330
A02
100
AcDbEntity
  8
Sketch001
100
AcDbCircle
 10
120.8
 20
-16.025
 30
8.34644e-05
 40
0.499981
100
AcDbArc
 50
-90
 51
0
  0
LINE
  5
A4D
330
A02
100
AcDbEntity
  8
Sketch001
100
AcDbLine
 10
121.3
 20
-16.025
 30
8.37624e-05
 11
121.3
 21
-3.02501
 31
7.44641e-05
  0
ARC
  5
A4E
330
A02
100
AcDbEntity
  8
Sketch001
100
AcDbCircle
 10
120.8
 20
-3.02501
 30
7.41661e-05
 40
0.49998
100
AcDbArc
 50
0
 51
90
  0
LINE
  5
A4F
330
A02
100
AcDbEntity
  8
Sketch001
100
AcDbLine
 10
120.8
 20
-2.52503
 30
7.38085e-05
 11
107.8
 21
-2.52499
 31
6.60598e-05
  0
ARC
  5
A50
330
A02
100
AcDbEntity
  8
Sketch001
100
AcDbCircle
 10
107.8
 20
-3.02497
 30
6.64175e-05
 40
0.49998
100
AcDbArc
 50
90
 51
180
  0
LINE
  5
A51
330
A02
100
AcDbEntity
  8
Sketch001
100
AcDbLine
 10
107.3
 20
-3.02497
 30
6.61194e-05
 11
107.3
 21
-16.025
 31
7.54178e-05
  0
ARC
  5
A52
330
A02
100
AcDbEntity
  8
Sketch001
100
AcDbCircle
 10
3.02497
 20
-35.075
 30
2.68906e-05
 40
0.499981
100
AcDbArc
 50
180
 51
-90
  0
LINE
  5
A53
330
A02
100
AcDbEntity
  8
Sketch001
100
AcDbLine
 10
3.02497
 20
-35.575
 30
2.72482e-05
 11
16.025
 21
-35.575
 31
3.49969e-05
  0
ARC
  5
A54
330
A02
100
AcDbEntity
  8
Sketch001
100
AcDbCircle
 10
16.025
 20
-35.075
 30
3.46393e-05
 40
0.499982
100
AcDbArc
 50
-90
 51
0
  0
LINE
  5
A55
330
A02
100
AcDbEntity
  8
Sketch001
100
AcDbLine
 10
16.525
 20
-35.075
 30
3.49373e-05
 11
16.525
 21
-22.075
 31
2.5639e-05
  0
ARC
  5
A56
330
A02
100
AcDbEntity
  8
Sketch001
100
AcDbCircle
 10
16.025
 20
-22.075
 30
2.53409e-05
 40
0.499982
100
AcDbArc
 50
0
 51
90
  0
LINE
  5
A57
330
A02
100
AcDbEntity
  8
Sketch001
100
AcDbLine
 10
16.025
 20
-21.575
 30
2.49833e-05
 11
3.02501
 21
-21.575
 31
1.72347e-05
  0
ARC
  5
A58
330
A02
100
AcDbEntity
  8
Sketch001
100
AcDbCircle
 10
3.02501
 20
-22.075
 30
1.75923e-05
 40
0.499981
100
AcDbArc
 50
90
 51
180
  0
LINE
  5
A59
330
A02
100
AcDbEntity
  8
Sketch001
100
AcDbLine
 10
2.52503
 20
-22.075
 30
1.72943e-05
 11
2.52499
 21
-35.075
 31
2.65926e-05
  0
ARC
  5
A5A
330
A02
100
AcDbEntity
  8
Sketch001
100
AcDbCircle
 10
22.075
 20
-35.075
 30
3.82453e-05
 40
0.499981
100
AcDbArc
 50
180
 51
-90
  0
LINE
  5
A5B
330
A02
100
AcDbEntity
  8
Sketch001
100
AcDbLine
 10
22.075
 20
-35.575
 30
3.86029e-05
 11
35.075
 21
-35.575
 31
4.63516e-05
  0
ARC
  5
A5C
330
A02
100
AcDbEntity
  8
Sketch001
100
AcDbCircle
 10
35.075
 20
-35.075
 30
4.59939e-05
 40
0.49998
100
AcDbArc
 50
-90
 51
0
  0
LINE
  5
A5D
330
A02
100
AcDbEntity
  8
Sketch001
100
AcDbLine
 10
35.575
 20
-35.075
 30
4.6292e-05
 11
35.575
 21
-22.075
 31
3.69936e-05
  0
ARC
  5
A5E
330
A02
100
AcDbEntity
  8
Sketch001
100
AcDbCircle
 10
35.075
 20
-22.075
 30
3.66956e-05
 40
0.499982
100
AcDbArc
 50
0
 51
90
  0
LINE
  5
A5F
330
A02
100
AcDbEntity
  8
Sketch001
100
AcDbLine
 10
35.075
 20
-21.575
 30
3.6338e-05
 11
22.075
 21
-21.575
 31
2.85894e-05
  0
ARC
  5
A60
330
A02
100
AcDbEntity
  8
Sketch001
100
AcDbCircle
 10
22.075
 20
-22.075
 30
2.8947e-05
 40
0.499982
100
AcDbArc
 50
90
 51
180
  0
LINE
  5
A61
330
A02
100
AcDbEntity
  8
Sketch001
100
AcDbLine
 10
21.575
 20
-22.075
 30
2.8649e-05
 11
21.575
 21
-35.075
 31
3.79473e-05
  0
ARC
  5
A62
330
A02
100
AcDbEntity
  8
Sketch001
100
AcDbCircle
 10
41.125
 20
-35.075
 30
4.96e-05
 40
0.499984
100
AcDbArc
 50
180
 51
-90
  0
LINE
  5
A63
330
A02
100
AcDbEntity
  8
Sketch001
100
AcDbLine
 10
41.125
 20
-35.575
 30
4.99576e-05
 11
54.125
 21
-35.575
 31
5.77062e-05
  0
ARC
  5
A64
330
A02
100
AcDbEntity
  8
Sketch001
100
AcDbCircle
 10
54.125
 20
-35.075
 30
5.73486e-05
 40
0.499982
100
AcDbArc
 50
-90
 51
0
  0
LINE
  5
A65
330
A02
100
AcDbEntity
  8
Sketch001
100
AcDbLine
 10
54.625
 20
-35.075
 30
5.76466e-05
 11
54.625
 21
-22.075
 31
4.83483e-05
  0
ARC
  5
A66
330
A02
100
AcDbEntity
  8
Sketch001
100
AcDbCircle
 10
54.125
 20
-22.075
 30
4.80503e-05
 40
0.49998
100
AcDbArc
 50
0
 51
90
  0
LINE
  5
A67
330
A02
100
AcDbEntity
  8
Sketch001
100
AcDbLine
 10
54.125
 20
-21.575
 30
4.76927e-05
 11
41.125
 21
-21.575
 31
3.99441e-05
  0
ARC
  5
A68
330
A02
100
AcDbEntity
  8
Sketch001
100
AcDbCircle
 10
41.125
 20
-22.075
 30
4.03017e-05
 40
0.499979
100
AcDbArc
 50
90
 51
180
  0
LINE
  5
A69
330
A02
100
AcDbEntity
  8
Sketch001
100
AcDbLine
 10
40.625
 20
-22.075
 30
4.00037e-05
 11
40.625
 21
-35.075
 31
4.9302e-05
  0
ARC
  5
A6A
330
A02
100
AcDbEntity
  8
Sketch001
100
AcDbCircle
 10
60.175
 20
-35.075
 30
6.09547e-05
 40
0.499982
100
AcDbArc
 50
180
 51
-90
  0
LINE
  5
A6B
330
A02
100
AcDbEntity
  8
Sketch001
100
AcDbLine
 10
60.175
 20
-35.575
 30
6.13123e-05
 11
73.175
 21
-35.575
 31
6.90609e-05
  0
ARC
  5
A6C
330
A02
100
AcDbEntity
  8
Sketch001
100
AcDbCircle
 10
73.175
 20
-35.075
 30
6.87033e-05
 40
0.499985
100
AcDbArc
 50
-90
 51
0
  0
LINE
  5
A6D
330
A02
100
AcDbEntity
  8
Sketch001
100
AcDbLine
 10
73.675
 20
-35.075
 30
6.90013e-05
 11
73.675
 21
-22.075
 31
5.9703e-05
  0
ARC
  5
A6E
330
A02
100
AcDbEntity
  8
Sketch001
100
AcDbCircle
 10
73.175
 20
-22.075
 30
5.9405e-05
 40
0.499981
100
AcDbArc
 50
0
 51
90
  0
LINE
  5
A6F
330
A02
100
AcDbEntity
  8
Sketch001
100
AcDbLine
 10
73.175
 20
-21.575
 30
5.90474e-05
 11
60.175
 21
-21.575
 31
5.12987e-05
  0
ARC
  5
A70
330
A02
100
AcDbEntity
  8
Sketch001
100
AcDbCircle
 10
60.175
 20
-22.075
 30
5.16564e-05
 40
0.499976
100
AcDbArc
 50
90
 51
180
  0
LINE
  5
A71
330
A02
100
AcDbEntity
  8
Sketch001
100
AcDbLine
 10
59.675
 20
-22.075
 30
5.13583e-05
 11
59.675
 21
-35.075
 31
6.06567e-05
  0
ARC
  5
A72
330
A02
100
AcDbEntity
  8
Sketch001
100
AcDbCircle
 10
79.225
 20
-35.075
 30
7.23094e-05
 40
0.49998
100
AcDbArc
 50
180
 51
-90
  0
LINE
  5
A73
330
A02
100
AcDbEntity
  8
Sketch001
100
AcDbLine
 10
79.225
 20
-35.575
 30
7.2667e-05
 11
92.225
 21
-35.575
 31
8.04156e-05
  0
ARC
  5
A74
330
A02
100
AcDbEntity
  8
Sketch001
100
AcDbCircle
 10
92.225
 20
-35.075
 30
8.0058e-05
 40
0.499979
100
AcDbArc
 50
-90
 51
0
  0
LINE
  5
A75
330
A02
100
AcDbEntity
  8
Sketch001
100
AcDbLine
 10
92.725
 20
-35.075
 30
8.0356e-05
 11
92.725
 21
-22.075
 31
7.10577e-05
  0
ARC
  5
A76
330
A02
100
AcDbEntity
  8
Sketch001
100
AcDbCircle
 10
92.225
 20
-22.075
 30
7.07597e-05
 40
0.499979
100
AcDbArc
 50
0
 51
90
  0
LINE
  5
A77
330
A02
100
AcDbEntity
  8
Sketch001
100
AcDbLine
 10
92.225
 20
-21.575
 30
7.04021e-05
 11
79.225
 21
-21.575
 31
6.26534e-05
  0
ARC
  5
A78
330
A02
100
AcDbEntity
  8
Sketch001
100
AcDbCircle
 10
79.225
 20
-22.075
 30
6.3011e-05
 40
0.499984
100
AcDbArc
 50
90
 51
180
  0
LINE
  5
A79
330
A02
100
AcDbEntity
  8
Sketch001
100
AcDbLine
 10
78.725
 20
-22.075
 30
6.2713e-05
 11
78.725
 21
-35.075
 31
7.20114e-05
  0
ARC
  5
A7A
330
A02
100
AcDbEntity
  8
Sketch001
100
AcDbCircle
 10
98.275
 20
-35.075
 30
8.36641e-05
 40
0.499984
100
AcDbArc
 50
180
 51
-90
  0
LINE
  5
A7B
330
A02
100
AcDbEntity
  8
Sketch001
100
AcDbLine
 10
98.275
 20
-35.575
 30
8.40217e-05
 11
111.275
 21
-35.575
 31
9.17703e-05
  0
ARC
  5
A7C
330
A02
100
AcDbEntity
  8
Sketch001
100
AcDbCircle
 10
111.275
 20
-35.075
 30
9.14127e-05
 40
0.499985
100
AcDbArc
 50
-90
 51
0
  0
LINE
  5
A7D
330
A02
100
AcDbEntity
  8
Sketch001
100
AcDbLine
 10
111.775
 20
-35.075
 30
9.17107e-05
 11
111.775
 21
-22.075
 31
8.24124e-05
  0
ARC
  5
A7E
330
A02
100
AcDbEntity
  8
Sketch001
100
AcDbCircle
 10
111.275
 20
-22.075
 30
8.21144e-05
 40
0.49998
100
AcDbArc
 50
0
 51
90
  0
LINE
  5
A7F
330
A02
100
AcDbEntity
  8
Sketch001
100
AcDbLine
 10
111.275
 20
-21.575
 30
8.17568e-05
 11
98.275
 21
-21.575
 31
7.40081e-05
  0
ARC
  5
A80
330
A02
100
AcDbEntity
  8
Sketch001
100
AcDbCircle
 10
98.275
 20
-22.075
 30
7.43657e-05
 40
0.499983
100
AcDbArc
 50
90
 51
180
  0
LINE
  5
A81
330
A02
100
AcDbEntity
  8
Sketch001
100
AcDbLine
 10
97.775
 20
-22.075
 30
7.40677e-05
 11
97.775
 21
-35.075
 31
8.3366e-05
  0
ARC
  5
A82
330
A02
100
AcDbEntity
  8
Sketch001
100
AcDbCircle
 10
117.325
 20
-35.075
 30
9.50187e-05
 40
0.499983
100
AcDbArc
 50
180
 51
-90
  0
LINE
  5
A83
330
A02
100
AcDbEntity
  8
Sketch001
100
AcDbLine
 10
117.325
 20
-35.575
 30
9.53764e-05
 11
130.325
 21
-35.575
 31
0.000103125
  0
ARC
  5
A84
330
A02
100
AcDbEntity
  8
Sketch001
100
AcDbCircle
 10
130.325
 20
-35.075
 30
0.000102767
 40
0.49998
100
AcDbArc
 50
-90
 51
0
  0
LINE
  5
A85
330
A02
100
AcDbEntity
  8
Sketch001
100
AcDbLine
 10
130.825
 20
-35.075
 30
0.000103065
 11
130.825
 21
-22.075
 31
9.37671e-05
  0
ARC
  5
A86
330
A02
100
AcDbEntity
  8
Sketch001
100
AcDbCircle
 10
130.325
 20
-22.075
 30
9.34691e-05
 40
0.499983
100
AcDbArc
 50
0
 51
90
  0
LINE
  5
A87
330
A02
100
AcDbEntity
  8
Sketch001
100
AcDbLine
 10
130.325
 20
-21.575
 30
9.31114e-05
 11
117.325
 21
-21.575
 31
8.53628e-05
  0
ARC
  5
A88
330
A02
100
AcDbEntity
  8
Sketch001
100
AcDbCircle
 10
117.325
 20
-22.075
 30
8.57204e-05
 40
0.499978
100
AcDbArc
 50
90
 51
180
  0
LINE
  5
A89
330
A02
100
AcDbEntity
  8
Sketch001
100
AcDbLine
 10
116.825
 20
-22.075
 30
8.54224e-05
 11
116.825
 21
-35.075
 31
9.47207e-05
  0
ARC
  5
A8A
330
A02
100
AcDbEntity
  8
Sketch001
100
AcDbCircle
 10
136.375
 20
-35.075
 30
0.000106373
 40
0.499984
100
AcDbArc
 50
180
 51
-90
  0
LINE
  5
A8B
330
A02
100
AcDbEntity
  8
Sketch001
100
AcDbLine
 10
136.375
 20
-35.575
 30
0.000106731
 11
149.375
 21
-35.575
 31
0.00011448
  0
ARC
  5
A8C
330
A02
100
AcDbEntity
  8
Sketch001
100
AcDbCircle
 10
149.375
 20
-35.075
 30
0.000114122
 40
0.499984
100
AcDbArc
 50
-90
 51
0
  0
LINE
  5
A8D
330
A02
100
AcDbEntity
  8
Sketch001
100
AcDbLine
 10
149.875
 20
-35.075
 30
0.00011442
 11
149.875
 21
-22.075
 31
0.000105122
  0
ARC
  5
A8E
330
A02
100
AcDbEntity
  8
Sketch001
100
AcDbCircle
 10
149.375
 20
-22.075
 30
0.000104824
 40
0.499979
100
AcDbArc
 50
0
 51
90
  0
LINE
  5
A8F
330
A02
100
AcDbEntity
  8
Sketch001
100
AcDbLine
 10
149.375
 20
-21.575
 30
0.000104466
 11
136.375
 21
-21.575
 31
9.67175e-05
  0
ARC
  5
A90
330
A02
100
AcDbEntity
  8
Sketch001
100
AcDbCircle
 10
136.375
 20
-22.075
 30
9.70751e-05
 40
0.499982
100
AcDbArc
 50
90
 51
180
  0
LINE
  5
A91
330
A02
100
AcDbEntity
  8
Sketch001
100
AcDbLine
 10
135.875
 20
-22.075
 30
9.67771e-05
 11
135.875
 21
-35.075
 31
0.000106075
  0
ARC
  5
A92
330
A02
100
AcDbEntity
  8
Sketch001
100
AcDbCircle
 10
155.425
 20
-35.075
 30
0.000117728
 40
0.499981
100
AcDbArc
 50
180
 51
-90
  0
LINE
  5
A93
330
A02
100
AcDbEntity
  8
Sketch001
100
AcDbLine
 10
155.425
 20
-35.575
 30
0.000118086
 11
168.425
 21
-35.575
 31
0.000125834
  0
ARC
  5
A94
330
A02
100
AcDbEntity
  8
Sketch001
100
AcDbCircle
 10
168.425
 20
-35.075
 30
0.000125477
 40
0.499984
100
AcDbArc
 50
-90
 51
0
  0
LINE
  5
A95
330
A02
100
AcDbEntity
  8
Sketch001
100
AcDbLine
 10
168.925
 20
-35.075
 30
0.000125775
 11
168.925
 21
-22.075
 31
0.000116476
  0
ARC
  5
A96
330
A02
100
AcDbEntity
  8
Sketch001
100
AcDbCircle
 10
168.425
 20
-22.075
 30
0.000116178
 40
0.499978
100
AcDbArc
 50
0
 51
90
  0
LINE
  5
A97
330
A02
100
AcDbEntity
  8
Sketch001
100
AcDbLine
 10
168.425
 20
-21.575
 30
0.000115821
 11
155.425
 21
-21.575
 31
0.000108072
  0
ARC
  5
A98
330
A02
100
AcDbEntity
  8
Sketch001
100
AcDbCircle
 10
155.425
 20
-22.075
 30
0.00010843
 40
0.499984
100
AcDbArc
 50
90
 51
180
  0
LINE
  5
A99
330
A02
100
AcDbEntity
  8
Sketch001
100
AcDbLine
 10
154.925
 20
-22.075
 30
0.000108132
 11
154.925
 21
-35.075
 31
0.00011743
  0
ARC
  5
A9A
330
A02
100
AcDbEntity
  8
Sketch001
100
AcDbCircle
 10
174.475
 20
-35.075
 30
0.000129083
 40
0.499982
100
AcDbArc
 50
180
 51
-90
  0
LINE
  5
A9B
330
A02
100
AcDbEntity
  8
Sketch001
100
AcDbLine
 10
174.475
 20
-35.575
 30
0.00012944
 11
187.475
 21
-35.575
 31
0.000137189
  0
ARC
  5
A9C
330
A02
100
AcDbEntity
  8
Sketch001
100
AcDbCircle
 10
187.475
 20
-35.075
 30
0.000136831
 40
0.499982
100
AcDbArc
 50
-90
 51
0
  0
LINE
  5
A9D
330
A02
100
AcDbEntity
  8
Sketch001
100
AcDbLine
 10
187.975
 20
-35.075
 30
0.000137129
 11
187.975
 21
-22.075
 31
0.000127831
  0
ARC
  5
A9E
330
A02
100
AcDbEntity
  8
Sketch001
100
AcDbCircle
 10
187.475
 20
-22.075
 30
0.000127533
 40
0.499985
100
AcDbArc
 50
0
 51
90
  0
LINE
  5
A9F
330
A02
100
AcDbEntity
  8
Sketch001
100
AcDbLine
 10
187.475
 20
-21.575
 30
0.000127176
 11
174.475
 21
-21.575
 31
0.000119427
  0
ARC
  5
AA0
330
A02
100
AcDbEntity
  8
Sketch001
100
AcDbCircle
 10
174.475
 20
-22.075
 30
0.000119784
 40
0.49998
100
AcDbArc
 50
90
 51
180
  0
LINE
  5
AA1
330
A02
100
AcDbEntity
  8
Sketch001
100
AcDbLine
 10
173.975
 20
-22.075
 30
0.000119486
 11
173.975
 21
-35.075
 31
0.000128785
  0
ARC
  5
AA2
330
A02
100
AcDbEntity
  8
Sketch001
100
AcDbCircle
 10
193.525
 20
-35.075
 30
0.000140437
 40
0.499981
100
AcDbArc
 50
180
 51
-90
  0
LINE
  5
AA3
330
A02
100
AcDbEntity
  8
Sketch001
100
AcDbLine
 10
193.525
 20
-35.575
 30
0.000140795
 11
206.525
 21
-35.575
 31
0.000148544
  0
ARC
  5
AA4
330
A02
100
AcDbEntity
  8
Sketch001
100
AcDbCircle
 10
206.525
 20
-35.075
 30
0.000148186
 40
0.499978
100
AcDbArc
 50
-90
 51
0
  0
LINE
  5
AA5
330
A02
100
AcDbEntity
  8
Sketch001
100
AcDbLine
 10
207.025
 20
-35.075
 30
0.000148484
 11
207.025
 21
-22.075
 31
0.000139186
  0
ARC
  5
AA6
330
A02
100
AcDbEntity
  8
Sketch001
100
AcDbCircle
 10
206.525
 20
-22.075
 30
0.000138888
 40
0.499976
100
AcDbArc
 50
0
 51
90
  0
LINE
  5
AA7
330
A02
100
AcDbEntity
  8
Sketch001
100
AcDbLine
 10
206.525
 20
-21.575
 30
0.00013853
 11
193.525
 21
-21.575
 31
0.000130782
  0
ARC
  5
AA8
330
A02
100
AcDbEntity
  8
Sketch001
100
AcDbCircle
 10
193.525
 20
-22.075
 30
0.000131139
 40
0.499982
100
AcDbArc
 50
90
 51
180
  0
LINE
  5
AA9
330
A02
100
AcDbEntity
  8
Sketch001
100
AcDbLine
 10
193.025
 20
-22.075
 30
0.000130841
 11
193.025
 21
-35.075
 31
0.000140139
  0
ARC
  5
AAA
330
A02
100
AcDbEntity
  8
Sketch001
100
AcDbCircle
 10
219.719
 20
-35.075
 30
0.00015605
 40
0.49998
100
AcDbArc
 50
180
 51
-90
  0
LINE
  5
AAB
330
A02
100
AcDbEntity
  8
Sketch001
100
AcDbLine
 10
219.719
 20
-35.575
 30
0.000156408
 11
232.719
 21
-35.575
 31
0.000164156
  0
ARC
  5
AAC
330
A02
100
AcDbEntity
  8
Sketch001
100
AcDbCircle
 10
232.719
 20
-35.075
 30
0.000163799
 40
0.499981
100
AcDbArc
 50
-90
 51
0
  0
LINE
  5
AAD
330
A02
100
AcDbEntity
  8
Sketch001
100
AcDbLine
 10
233.219
 20
-35.075
 30
0.000164097
 11
233.219
 21
-22.075
 31
0.000154799
  0
ARC
  5
AAE
330
A02
100
AcDbEntity
  8
Sketch001
100
AcDbCircle
 10
232.719
 20
-22.075
 30
0.000154501
 40
0.499978
100
AcDbArc
 50
0
 51
90
  0
LINE
  5
AAF
330
A02
100
AcDbEntity
  8
Sketch001
100
AcDbLine
 10
232.719
 20
-21.575
 30
0.000154143
 11
219.719
 21
-21.575
 31
0.000146394
  0
ARC
  5
AB0
330
A02
100
AcDbEntity
  8
Sketch001
100
AcDbCircle
 10
219.719
 20
-22.075
 30
0.000146752
 40
0.499987
100
AcDbArc
 50
90
 51
180
  0
LINE
  5
AB1
330
A02
100
AcDbEntity
  8
Sketch001
100
AcDbLine
 10
219.219
 20
-22.075
 30
0.000146454
 11
219.219
 21
-35.075
 31
0.000155752
  0
ARC
  5
AB2
330
A02
100
AcDbEntity
  8
Sketch001
100
AcDbCircle
 10
5.40622
 20
-54.125
 30
4.19356e-05
 40
0.499979
100
AcDbArc
 50
180
 51
-90
  0
LINE
  5
AB3
330
A02
100
AcDbEntity
  8
Sketch001
100
AcDbLine
 10
5.40622
 20
-54.625
 30
4.22932e-05
 11
18.4062
 21
-54.625
 31
5.00418e-05
  0
ARC
  5
AB4
330
A02
100
AcDbEntity
  8
Sketch001
100
AcDbCircle
 10
18.4062
 20
-54.125
 30
4.96842e-05
 40
0.499983
100
AcDbArc
 50
-90
 51
0
  0
LINE
  5
AB5
330
A02
100
AcDbEntity
  8
Sketch001
100
AcDbLine
 10
18.9062
 20
-54.125
 30
4.99822e-05
 11
18.9063
 21
-41.125
 31
4.06839e-05
  0
ARC
  5
AB6
330
A02
100
AcDbEntity
  8
Sketch001
100
AcDbCircle
 10
18.4063
 20
-41.125
 30
4.03859e-05
 40
0.499984
100
AcDbArc
 50
0
 51
90
  0
LINE
  5
AB7
330
A02
100
AcDbEntity
  8
Sketch001
100
AcDbLine
 10
18.4063
 20
-40.625
 30
4.00283e-05
 11
5.40626
 21
-40.625
 31
3.22796e-05
  0
ARC
  5
AB8
330
A02
100
AcDbEntity
  8
Sketch001
100
AcDbCircle
 10
5.40626
 20
-41.125
 30
3.26373e-05
 40
0.499985
100
AcDbArc
 50
90
 51
180
  0
LINE
  5
AB9
330
A02
100
AcDbEntity
  8
Sketch001
100
AcDbLine
 10
4.90627
 20
-41.125
 30
3.23392e-05
 11
4.90624
 21
-54.125
 31
4.16376e-05
  0
ARC
  5
ABA
330
A02
100
AcDbEntity
  8
Sketch001
100
AcDbCircle
 10
26.8375
 20
-54.125
 30
5.47096e-05
 40
0.499983
100
AcDbArc
 50
180
 51
-90
  0
LINE
  5
ABB
330
A02
100
AcDbEntity
  8
Sketch001
100
AcDbLine
 10
26.8375
 20
-54.625
 30
5.50672e-05
 11
39.8375
 21
-54.625
 31
6.28158e-05
  0
ARC
  5
ABC
330
A02
100
AcDbEntity
  8
Sketch001
100
AcDbCircle
 10
39.8375
 20
-54.125
 30
6.24582e-05
 40
0.499983
100
AcDbArc
 50
-90
 51
0
  0
LINE
  5
ABD
330
A02
100
AcDbEntity
  8
Sketch001
100
AcDbLine
 10
40.3375
 20
-54.125
 30
6.27562e-05
 11
40.3375
 21
-41.125
 31
5.34579e-05
  0
ARC
  5
ABE
330
A02
100
AcDbEntity
  8
Sketch001
100
AcDbCircle
 10
39.8375
 20
-41.125
 30
5.31599e-05
 40
0.49998
100
AcDbArc
 50
0
 51
90
  0
LINE
  5
ABF
330
A02
100
AcDbEntity
  8
Sketch001
100
AcDbLine
 10
39.8375
 20
-40.625
 30
5.28023e-05
 11
26.8375
 21
-40.625
 31
4.50537e-05
  0
ARC
  5
AC0
330
A02
100
AcDbEntity
  8
Sketch001
100
AcDbCircle
 10
26.8375
 20
-41.125
 30
4.54113e-05
 40
0.49998
100
AcDbArc
 50
90
 51
180
  0
LINE
  5
AC1
330
A02
100
AcDbEntity
  8
Sketch001
100
AcDbLine
 10
26.3375
 20
-41.125
 30
4.51133e-05
 11
26.3375
 21
-54.125
 31
5.44116e-05
  0
ARC
  5
AC2
330
A02
100
AcDbEntity
  8
Sketch001
100
AcDbCircle
 10
45.8875
 20
-54.125
 30
6.60643e-05
 40
0.499979
100
AcDbArc
 50
180
 51
-90
  0
LINE
  5
AC3
330
A02
100
AcDbEntity
  8
Sketch001
100
AcDbLine
 10
45.8875
 20
-54.625
 30
6.64219e-05
 11
58.8875
 21
-54.625
 31
7.41705e-05
  0
ARC
  5
AC4
330
A02
100
AcDbEntity
  8
Sketch001
100
AcDbCircle
 10
58.8875
 20
-54.125
 30
7.38129e-05
 40
0.499981
100
AcDbArc
 50
-90
 51
0
  0
LINE
  5
AC5
330
A02
100
AcDbEntity
  8
Sketch001
100
AcDbLine
 10
59.3875
 20
-54.125
 30
7.41109e-05
 11
59.3875
 21
-41.125
 31
6.48126e-05
  0
ARC
  5
AC6
330
A02
100
AcDbEntity
  8
Sketch001
100
AcDbCircle
 10
58.8875
 20
-41.125
 30
6.45146e-05
 40
0.499983
100
AcDbArc
 50
0
 51
90
  0
LINE
  5
AC7
330
A02
100
AcDbEntity
  8
Sketch001
100
AcDbLine
 10
58.8875
 20
-40.625
 30
6.4157e-05
 11
45.8875
 21
-40.625
 31
5.64083e-05
  0
ARC
  5
AC8
330
A02
100
AcDbEntity
  8
Sketch001
100
AcDbCircle
 10
45.8875
 20
-41.125
 30
5.6766e-05
 40
0.499982
100
AcDbArc
 50
90
 51
180
  0
LINE
  5
AC9
330
A02
100
AcDbEntity
  8
Sketch001
100
AcDbLine
 10
45.3875
 20
-41.125
 30
5.64679e-05
 11
45.3875
 21
-54.125
 31
6.57663e-05
  0
ARC
  5
ACA
330
A02
100
AcDbEntity
  8
Sketch001
100
AcDbCircle
 10
64.9375
 20
-54.125
 30
7.7419e-05
 40
0.49998
100
AcDbArc
 50
180
 51
-90
  0
LINE
  5
ACB
330
A02
100
AcDbEntity
  8
Sketch001
100
AcDbLine
 10
64.9375
 20
-54.625
 30
7.77766e-05
 11
77.9375
 21
-54.625
 31
8.55252e-05
  0
ARC
  5
ACC
330
A02
100
AcDbEntity
  8
Sketch001
100
AcDbCircle
 10
77.9375
 20
-54.125
 30
8.51676e-05
 40
0.499979
100
AcDbArc
 50
-90
 51
0
  0
LINE
  5
ACD
330
A02
100
AcDbEntity
  8
Sketch001
100
AcDbLine
 10
78.4375
 20
-54.125
 30
8.54656e-05
 11
78.4375
 21
-41.125
 31
7.61673e-05
  0
ARC
  5
ACE
330
A02
100
AcDbEntity
  8
Sketch001
100
AcDbCircle
 10
77.9375
 20
-41.125
 30
7.58693e-05
 40
0.499986
100
AcDbArc
 50
0
 51
90
  0
LINE
  5
ACF
330
A02
100
AcDbEntity
  8
Sketch001
100
AcDbLine
 10
77.9375
 20
-40.625
 30
7.55117e-05
 11
64.9375
 21
-40.625
 31
6.7763e-05
  0
ARC
  5
AD0
330
A02
100
AcDbEntity
  8
Sketch001
100
AcDbCircle
 10
64.9375
 20
-41.125
 30
6.81206e-05
 40
0.499985
100
AcDbArc
 50
90
 51
180
  0
LINE
  5
AD1
330
A02
100
AcDbEntity
  8
Sketch001
100
AcDbLine
 10
64.4375
 20
-41.125
 30
6.78226e-05
 11
64.4375
 21
-54.125
 31
7.7121e-05
  0
ARC
  5
AD2
330
A02
100
AcDbEntity
  8
Sketch001
100
AcDbCircle
 10
83.9875
 20
-54.125
 30
8.87737e-05
 40
0.499986
100
AcDbArc
 50
180
 51
-90
  0
LINE
  5
AD3
330
A02
100
AcDbEntity
  8
Sketch001
100
AcDbLine
 10
83.9875
 20
-54.625
 30
8.91313e-05
 11
96.9875
 21
-54.625
 31
9.68799e-05
  0
ARC
  5
AD4
330
A02
100
AcDbEntity
  8
Sketch001
100
AcDbCircle
 10
96.9875
 20
-54.125
 30
9.65223e-05
 40
0.499979
100
AcDbArc
 50
-90
 51
0
  0
LINE
  5
AD5
330
A02
100
AcDbEntity
  8
Sketch001
100
AcDbLine
 10
97.4875
 20
-54.125
 30
9.68203e-05
 11
97.4875
 21
-41.125
 31
8.7522e-05
  0
ARC
  5
AD6
330
A02
100
AcDbEntity
  8
Sketch001
100
AcDbCircle
 10
96.9875
 20
-41.125
 30
8.7224e-05
 40
0.499985
100
AcDbArc
 50
0
 51
90
  0
LINE
  5
AD7
330
A02
100
AcDbEntity
  8
Sketch001
100
AcDbLine
 10
96.9875
 20
-40.625
 30
8.68664e-05
 11
83.9875
 21
-40.625
 31
7.91177e-05
  0
ARC
  5
AD8
330
A02
100
AcDbEntity
  8
Sketch001
100
AcDbCircle
 10
83.9875
 20
-41.125
 30
7.94753e-05
 40
0.499983
100
AcDbArc
 50
90
 51
180
  0
LINE
  5
AD9
330
A02
100
AcDbEntity
  8
Sketch001
100
AcDbLine
 10
83.4875
 20
-41.125
 30
7.91773e-05
 11
83.4875
 21
-54.125
 31
8.84756e-05
  0
ARC
  5
ADA
330
A02
100
AcDbEntity
  8
Sketch001
100
AcDbCircle
 10
103.037
 20
-54.125
 30
0.000100128
 40
0.49998
100
AcDbArc
 50
180
 51
-90
  0
LINE
  5
ADB
330
A02
100
AcDbEntity
  8
Sketch001
100
AcDbLine
 10
103.037
 20
-54.625
 30
0.000100486
 11
116.037
 21
-54.625
 31
0.000108235
  0
ARC
  5
ADC
330
A02
100
AcDbEntity
  8
Sketch001
100
AcDbCircle
 10
116.037
 20
-54.125
 30
0.000107877
 40
0.499984
100
AcDbArc
 50
-90
 51
0
  0
LINE
  5
ADD
330
A02
100
AcDbEntity
  8
Sketch001
100
AcDbLine
 10
116.537
 20
-54.125
 30
0.000108175
 11
116.538
 21
-41.125
 31
9.88767e-05
  0
ARC
  5
ADE
330
A02
100
AcDbEntity
  8
Sketch001
100
AcDbCircle
 10
116.038
 20
-41.125
 30
9.85787e-05
 40
0.499983
100
AcDbArc
 50
0
 51
90
  0
LINE
  5
ADF
330
A02
100
AcDbEntity
  8
Sketch001
100
AcDbLine
 10
116.038
 20
-40.625
 30
9.82211e-05
 11
103.038
 21
-40.625
 31
9.04724e-05
  0
ARC
  5
AE0
330
A02
100
AcDbEntity
  8
Sketch001
100
AcDbCircle
 10
103.038
 20
-41.125
 30
9.083e-05
 40
0.499979
100
AcDbArc
 50
90
 51
180
  0
LINE
  5
AE1
330
A02
100
AcDbEntity
  8
Sketch001
100
AcDbLine
 10
102.538
 20
-41.125
 30
9.0532e-05
 11
102.537
 21
-54.125
 31
9.98303e-05
  0
ARC
  5
AE2
330
A02
100
AcDbEntity
  8
Sketch001
100
AcDbCircle
 10
122.087
 20
-54.125
 30
0.000111483
 40
0.499981
100
AcDbArc
 50
180
 51
-90
  0
LINE
  5
AE3
330
A02
100
AcDbEntity
  8
Sketch001
100
AcDbLine
 10
122.087
 20
-54.625
 30
0.000111841
 11
135.087
 21
-54.625
 31
0.000119589
  0
ARC
  5
AE4
330
A02
100
AcDbEntity
  8
Sketch001
100
AcDbCircle
 10
135.087
 20
-54.125
 30
0.000119232
 40
0.499982
100
AcDbArc
 50
-90
 51
0
  0
LINE
  5
AE5
330
A02
100
AcDbEntity
  8
Sketch001
100
AcDbLine
 10
135.587
 20
-54.125
 30
0.00011953
 11
135.588
 21
-41.125
 31
0.000110231
  0
ARC
  5
AE6
330
A02
100
AcDbEntity
  8
Sketch001
100
AcDbCircle
 10
135.088
 20
-41.125
 30
0.000109933
 40
0.499978
100
AcDbArc
 50
0
 51
90
  0
LINE
  5
AE7
330
A02
100
AcDbEntity
  8
Sketch001
100
AcDbLine
 10
135.088
 20
-40.625
 30
0.000109576
 11
122.088
 21
-40.625
 31
0.000101827
  0
ARC
  5
AE8
330
A02
100
AcDbEntity
  8
Sketch001
100
AcDbCircle
 10
122.088
 20
-41.125
 30
0.000102185
 40
0.499978
100
AcDbArc
 50
90
 51
180
  0
LINE
  5
AE9
330
A02
100
AcDbEntity
  8
Sketch001
100
AcDbLine
 10
121.588
 20
-41.125
 30
0.000101887
 11
121.587
 21
-54.125
 31
0.000111185
  0
ARC
  5
AEA
330
A02
100
AcDbEntity
  8
Sketch001
100
AcDbCircle
 10
141.137
 20
-54.125
 30
0.000122838
 40
0.499981
100
AcDbArc
 50
180
 51
-90
  0
LINE
  5
AEB
330
A02
100
AcDbEntity
  8
Sketch001
100
AcDbLine
 10
141.137
 20
-54.625
 30
0.000123195
 11
154.137
 21
-54.625
 31
0.000130944
  0
ARC
  5
AEC
330
A02
100
AcDbEntity
  8
Sketch001
100
AcDbCircle
 10
154.137
 20
-54.125
 30
0.000130586
 40
0.499978
100
AcDbArc
 50
-90
 51
0
  0
LINE
  5
AED
330
A02
100
AcDbEntity
  8
Sketch001
100
AcDbLine
 10
154.637
 20
-54.125
 30
0.000130884
 11
154.638
 21
-41.125
 31
0.000121586
  0
ARC
  5
AEE
330
A02
100
AcDbEntity
  8
Sketch001
100
AcDbCircle
 10
154.138
 20
-41.125
 30
0.000121288
 40
0.499985
100
AcDbArc
 50
0
 51
90
  0
LINE
  5
AEF
330
A02
100
AcDbEntity
  8
Sketch001
100
AcDbLine
 10
154.138
 20
-40.625
 30
0.00012093
 11
141.138
 21
-40.625
 31
0.000113182
  0
ARC
  5
AF0
330
A02
100
AcDbEntity
  8
Sketch001
100
AcDbCircle
 10
141.138
 20
-41.125
 30
0.000113539
 40
0.499981
100
AcDbArc
 50
90
 51
180
  0
LINE
  5
AF1
330
A02
100
AcDbEntity
  8
Sketch001
100
AcDbLine
 10
140.638
 20
-41.125
 30
0.000113241
 11
140.637
 21
-54.125
 31
0.00012254
  0
ARC
  5
AF2
330
A02
100
AcDbEntity
  8
Sketch001
100
AcDbCircle
 10
160.187
 20
-54.125
 30
0.000134192
 40
0.499979
100
AcDbArc
 50
180
 51
-90
  0
LINE
  5
AF3
330
A02
100
AcDbEntity
  8
Sketch001
100
AcDbLine
 10
160.187
 20
-54.625
 30
0.00013455
 11
173.187
 21
-54.625
 31
0.000142299
  0
ARC
  5
AF4
330
A02
100
AcDbEntity
  8
Sketch001
100
AcDbCircle
 10
173.187
 20
-54.125
 30
0.000141941
 40
0.499984
100
AcDbArc
 50
-90
 51
0
  0
LINE
  5
AF5
330
A02
100
AcDbEntity
  8
Sketch001
100
AcDbLine
 10
173.687
 20
-54.125
 30
0.000142239
 11
173.688
 21
-41.125
 31
0.000132941
  0
ARC
  5
AF6
330
A02
100
AcDbEntity
  8
Sketch001
100
AcDbCircle
 10
173.188
 20
-41.125
 30
0.000132643
 40
0.499982
100
AcDbArc
 50
0
 51
90
  0
LINE
  5
AF7
330
A02
100
AcDbEntity
  8
Sketch001
100
AcDbLine
 10
173.188
 20
-40.625
 30
0.000132285
 11
160.188
 21
-40.625
 31
0.000124536
  0
ARC
  5
AF8
330
A02
100
AcDbEntity
  8
Sketch001
100
AcDbCircle
 10
160.188
 20
-41.125
 30
0.000124894
 40
0.499982
100
AcDbArc
 50
90
 51
180
  0
LINE
  5
AF9
330
A02
100
AcDbEntity
  8
Sketch001
100
AcDbLine
 10
159.688
 20
-41.125
 30
0.000124596
 11
159.687
 21
-54.125
 31
0.000133894
  0
ARC
  5
AFA
330
A02
100
AcDbEntity
  8
Sketch001
100
AcDbCircle
 10
179.237
 20
-54.125
 30
0.000145547
 40
0.499982
100
AcDbArc
 50
180
 51
-90
  0
LINE
  5
AFB
330
A02
100
AcDbEntity
  8
Sketch001
100
AcDbLine
 10
179.237
 20
-54.625
 30
0.000145905
 11
192.237
 21
-54.625
 31
0.000153653
  0
ARC
  5
AFC
330
A02
100
AcDbEntity
  8
Sketch001
100
AcDbCircle
 10
192.237
 20
-54.125
 30
0.000153296
 40
0.499983
100
AcDbArc
 50
-90
 51
0
  0
LINE
  5
AFD
330
A02
100
AcDbEntity
  8
Sketch001
100
AcDbLine
 10
192.737
 20
-54.125
 30
0.000153594
 11
192.738
 21
-41.125
 31
0.000144295
  0
ARC
  5
AFE
330
A02
100
AcDbEntity
  8
Sketch001
100
AcDbCircle
 10
192.238
 20
-41.125
 30
0.000143997
 40
0.499981
100
AcDbArc
 50
0
 51
90
  0
LINE
  5
AFF
330
A02
100
AcDbEntity
  8
Sketch001
100
AcDbLine
 10
192.238
 20
-40.625
 30
0.00014364
 11
179.238
 21
-40.625
 31
0.000135891
  0
ARC
  5
B00
330
A02
100
AcDbEntity
  8
Sketch001
100
AcDbCircle
 10
179.238
 20
-41.125
 30
0.000136249
 40
0.49998
100
AcDbArc
 50
90
 51
180
  0
LINE
  5
B01
330
A02
100
AcDbEntity
  8
Sketch001
100
AcDbLine
 10
178.738
 20
-41.125
 30
0.000135951
 11
178.737
 21
-54.125
 31
0.000145249
  0
ARC
  5
B02
330
A02
100
AcDbEntity
  8
Sketch001
100
AcDbCircle
 10
198.287
 20
-54.125
 30
0.000156902
 40
0.49998
100
AcDbArc
 50
180
 51
-90
  0
LINE
  5
B03
330
A02
100
AcDbEntity
  8
Sketch001
100
AcDbLine
 10
198.287
 20
-54.625
 30
0.000157259
 11
211.287
 21
-54.625
 31
0.000165008
  0
ARC
  5
B04
330
A02
100
AcDbEntity
  8
Sketch001
100
AcDbCircle
 10
211.287
 20
-54.125
 30
0.00016465
 40
0.499978
100
AcDbArc
 50
-90
 51
0
  0
LINE
  5
B05
330
A02
100
AcDbEntity
  8
Sketch001
100
AcDbLine
 10
211.787
 20
-54.125
 30
0.000164948
 11
211.788
 21
-41.125
 31
0.00015565
  0
ARC
  5
B06
330
A02
100
AcDbEntity
  8
Sketch001
100
AcDbCircle
 10
211.288
 20
-41.125
 30
0.000155352
 40
0.499982
100
AcDbArc
 50
0
 51
90
  0
LINE
  5
B07
330
A02
100
AcDbEntity
  8
Sketch001
100
AcDbLine
 10
211.288
 20
-40.625
 30
0.000154994
 11
198.288
 21
-40.625
 31
0.000147246
  0
ARC
  5
B08
330
A02
100
AcDbEntity
  8
Sketch001
100
AcDbCircle
 10
198.288
 20
-41.125
 30
0.000147603
 40
0.49998
100
AcDbArc
 50
90
 51
180
  0
LINE
  5
B09
330
A02
100
AcDbEntity
  8
Sketch001
100
AcDbLine
 10
197.788
 20
-41.125
 30
0.000147305
 11
197.787
 21
-54.125
 31
0.000156604
  0
ARC
  5
B0A
330
A02
100
AcDbEntity
  8
Sketch001
100
AcDbCircle
 10
222.1
 20
-54.125
 30
0.000171095
 40
0.499982
100
AcDbArc
 50
180
 51
-90
  0
LINE
  5
B0B
330
A02
100
AcDbEntity
  8
Sketch001
100
AcDbLine
 10
222.1
 20
-54.625
 30
0.000171453
 11
235.1
 21
-54.625
 31
0.000179201
  0
ARC
  5
B0C
330
A02
100
AcDbEntity
  8
Sketch001
100
AcDbCircle
 10
235.1
 20
-54.125
 30
0.000178844
 40
0.499984
100
AcDbArc
 50
-90
 51
0
  0
LINE
  5
B0D
330
A02
100
AcDbEntity
  8
Sketch001
100
AcDbLine
 10
235.6
 20
-54.125
 30
0.000179142
 11
235.6
 21
-41.125
 31
0.000169843
  0
ARC
  5
B0E
330
A02
100
AcDbEntity
  8
Sketch001
100
AcDbCircle
 10
235.1
 20
-41.125
 30
0.000169545
 40
0.499978
100
AcDbArc
 50
0
 51
90
  0
LINE
  5
B0F
330
A02
100
AcDbEntity
  8
Sketch001
100
AcDbLine
 10
235.1
 20
-40.625
 30
0.000169188
 11
222.1
 21
-40.625
 31
0.000161439
  0
ARC
  5
B10
330
A02
100
AcDbEntity
  8
Sketch001
100
AcDbCircle
 10
222.1
 20
-41.125
 30
0.000161797
 40
0.499979
100
AcDbArc
 50
90
 51
180
  0
LINE
  5
B11
330
A02
100
AcDbEntity
  8
Sketch001
100
AcDbLine
 10
221.6
 20
-41.125
 30
0.000161499
 11
221.6
 21
-54.125
 31
0.000170797
  0
ARC
  5
B12
330
A02
100
AcDbEntity
  8
Sketch001
100
AcDbCircle
 10
10.1688
 20
-73.1908
 30
5.84112e-05
 40
0.5
100
AcDbArc
 50
180
 51
-90
  0
LINE
  5
B13
330
A02
100
AcDbEntity
  8
Sketch001
100
AcDbLine
 10
10.1688
 20
-73.6908
 30
5.87688e-05
 11
23.1688
 21
-73.6908
 31
6.65174e-05
  0
ARC
  5
B14
330
A02
100
AcDbEntity
  8
Sketch001
100
AcDbCircle
 10
23.1688
 20
-73.1908
 30
6.61598e-05
 40
0.5
100
AcDbArc
 50
-90
 51
-3.4151e-05
  0
LINE
  5
B15
330
A02
100
AcDbEntity
  8
Sketch001
100
AcDbLine
 10
23.6688
 20
-73.1908
 30
6.64578e-05
 11
23.6688
 21
-60.1908
 31
5.71595e-05
  0
ARC
  5
B16
330
A02
100
AcDbEntity
  8
Sketch001
100
AcDbCircle
 10
23.1688
 20
-60.1908
 30
5.68615e-05
 40
0.5
100
AcDbArc
 50
-3.4151e-05
 51
90
  0
LINE
  5
B17
330
A02
100
AcDbEntity
  8
Sketch001
100
AcDbLine
 10
23.1688
 20
-59.6908
 30
5.65039e-05
 11
10.1688
 21
-59.6908
 31
4.87552e-05
  0
ARC
  5
B18
330
A02
100
AcDbEntity
  8
Sketch001
100
AcDbCircle
 10
10.1688
 20
-60.1908
 30
4.91129e-05
 40
0.5
100
AcDbArc
 50
90
 51
180
  0
ARC
  5
B19
330
A02
100
AcDbEntity
  8
Sketch001
100
AcDbCircle
 10
36.3625
 20
-73.175
 30
7.40126e-05
 40
0.499982
100
AcDbArc
 50
180
 51
-90
  0
LINE
  5
B1A
330
A02
100
AcDbEntity
  8
Sketch001
100
AcDbLine
 10
36.3625
 20
-73.675
 30
7.43702e-05
 11
49.3625
 21
-73.675
 31
8.21188e-05
  0
ARC
  5
B1B
330
A02
100
AcDbEntity
  8
Sketch001
100
AcDbCircle
 10
49.3625
 20
-73.175
 30
8.17612e-05
 40
0.499979
100
AcDbArc
 50
-90
 51
0
  0
LINE
  5
B1C
330
A02
100
AcDbEntity
  8
Sketch001
100
AcDbLine
 10
49.8625
 20
-73.175
 30
8.20592e-05
 11
49.8625
 21
-60.175
 31
7.27609e-05
  0
ARC
  5
B1D
330
A02
100
AcDbEntity
  8
Sketch001
100
AcDbCircle
 10
49.3625
 20
-60.175
 30
7.24629e-05
 40
0.499985
100
AcDbArc
 50
0
 51
90
  0
LINE
  5
B1E
330
A02
100
AcDbEntity
  8
Sketch001
100
AcDbLine
 10
49.3625
 20
-59.675
 30
7.21053e-05
 11
36.3625
 21
-59.675
 31
6.43566e-05
  0
ARC
  5
B1F
330
A02
100
AcDbEntity
  8
Sketch001
100
AcDbCircle
 10
36.3625
 20
-60.175
 30
6.47142e-05
 40
0.499979
100
AcDbArc
 50
90
 51
180
  0
LINE
  5
B20
330
A02
100
AcDbEntity
  8
Sketch001
100
AcDbLine
 10
35.8625
 20
-60.175
 30
6.44162e-05
 11
35.8625
 21
-73.175
 31
7.37145e-05
  0
ARC
  5
B21
330
A02
100
AcDbEntity
  8
Sketch001
100
AcDbCircle
 10
55.4125
 20
-73.175
 30
8.53672e-05
 40
0.499979
100
AcDbArc
 50
180
 51
-90
  0
LINE
  5
B22
330
A02
100
AcDbEntity
  8
Sketch001
100
AcDbLine
 10
55.4125
 20
-73.675
 30
8.57249e-05
 11
68.4125
 21
-73.675
 31
9.34735e-05
  0
ARC
  5
B23
330
A02
100
AcDbEntity
  8
Sketch001
100
AcDbCircle
 10
68.4125
 20
-73.175
 30
9.31159e-05
 40
0.499982
100
AcDbArc
 50
-90
 51
0
  0
LINE
  5
B24
330
A02
100
AcDbEntity
  8
Sketch001
100
AcDbLine
 10
68.9125
 20
-73.175
 30
9.34139e-05
 11
68.9125
 21
-60.175
 31
8.41156e-05
  0
ARC
  5
B25
330
A02
100
AcDbEntity
  8
Sketch001
100
AcDbCircle
 10
68.4125
 20
-60.175
 30
8.38176e-05
 40
0.499983
100
AcDbArc
 50
0
 51
90
  0
LINE
  5
B26
330
A02
100
AcDbEntity
  8
Sketch001
100
AcDbLine
 10
68.4125
 20
-59.675
 30
8.346e-05
 11
55.4125
 21
-59.675
 31
7.57113e-05
  0
ARC
  5
B27
330
A02
100
AcDbEntity
  8
Sketch001
100
AcDbCircle
 10
55.4125
 20
-60.175
 30
7.60689e-05
 40
0.499979
100
AcDbArc
 50
90
 51
180
  0
LINE
  5
B28
330
A02
100
AcDbEntity
  8
Sketch001
100
AcDbLine
 10
54.9125
 20
-60.175
 30
7.57709e-05
 11
54.9125
 21
-73.175
 31
8.50692e-05
  0
ARC
  5
B29
330
A02
100
AcDbEntity
  8
Sketch001
100
AcDbCircle
 10
74.4625
 20
-73.175
 30
9.67219e-05
 40
0.499982
100
AcDbArc
 50
180
 51
-90
  0
LINE
  5
B2A
330
A02
100
AcDbEntity
  8
Sketch001
100
AcDbLine
 10
74.4625
 20
-73.675
 30
9.70795e-05
 11
87.4625
 21
-73.675
 31
0.000104828
  0
ARC
  5
B2B
330
A02
100
AcDbEntity
  8
Sketch001
100
AcDbCircle
 10
87.4625
 20
-73.175
 30
0.000104471
 40
0.49998
100
AcDbArc
 50
-90
 51
-1.62851e-12
  0
LINE
  5
B2C
330
A02
100
AcDbEntity
  8
Sketch001
100
AcDbLine
 10
87.9625
 20
-73.175
 30
0.000104769
 11
87.9625
 21
-60.175
 31
9.54703e-05
  0
ARC
  5
B2D
330
A02
100
AcDbEntity
  8
Sketch001
100
AcDbCircle
 10
87.4625
 20
-60.175
 30
9.51723e-05
 40
0.499979
100
AcDbArc
 50
0
 51
90
  0
LINE
  5
B2E
330
A02
100
AcDbEntity
  8
Sketch001
100
AcDbLine
 10
87.4625
 20
-59.675
 30
9.48146e-05
 11
74.4625
 21
-59.675
 31
8.7066e-05
  0
ARC
  5
B2F
330
A02
100
AcDbEntity
  8
Sketch001
100
AcDbCircle
 10
74.4625
 20
-60.175
 30
8.74236e-05
 40
0.499983
100
AcDbArc
 50
90
 51
180
  0
LINE
  5
B30
330
A02
100
AcDbEntity
  8
Sketch001
100
AcDbLine
 10
73.9625
 20
-60.175
 30
8.71256e-05
 11
73.9625
 21
-73.175
 31
9.64239e-05
  0
ARC
  5
B31
330
A02
100
AcDbEntity
  8
Sketch001
100
AcDbCircle
 10
93.5125
 20
-73.175
 30
0.000108077
 40
0.499981
100
AcDbArc
 50
180
 51
-90
  0
LINE
  5
B32
330
A02
100
AcDbEntity
  8
Sketch001
100
AcDbLine
 10
93.5125
 20
-73.675
 30
0.000108434
 11
106.512
 21
-73.675
 31
0.000116183
  0
ARC
  5
B33
330
A02
100
AcDbEntity
  8
Sketch001
100
AcDbCircle
 10
106.512
 20
-73.175
 30
0.000115825
 40
0.499982
100
AcDbArc
 50
-90
 51
-1.6285e-12
  0
LINE
  5
B34
330
A02
100
AcDbEntity
  8
Sketch001
100
AcDbLine
 10
107.012
 20
-73.175
 30
0.000116123
 11
107.013
 21
-60.175
 31
0.000106825
  0
ARC
  5
B35
330
A02
100
AcDbEntity
  8
Sketch001
100
AcDbCircle
 10
106.513
 20
-60.175
 30
0.000106527
 40
0.499981
100
AcDbArc
 50
0
 51
90
  0
LINE
  5
B36
330
A02
100
AcDbEntity
  8
Sketch001
100
AcDbLine
 10
106.513
 20
-59.675
 30
0.000106169
 11
93.5125
 21
-59.675
 31
9.84207e-05
  0
ARC
  5
B37
330
A02
100
AcDbEntity
  8
Sketch001
100
AcDbCircle
 10
93.5125
 20
-60.175
 30
9.87783e-05
 40
0.499984
100
AcDbArc
 50
90
 51
180
  0
LINE
  5
B38
330
A02
100
AcDbEntity
  8
Sketch001
100
AcDbLine
 10
93.0125
 20
-60.175
 30
9.84803e-05
 11
93.0125
 21
-73.175
 31
0.000107779
  0
ARC
  5
B39
330
A02
100
AcDbEntity
  8
Sketch001
100
AcDbCircle
 10
112.562
 20
-73.175
 30
0.000119431
 40
0.49998
100
AcDbArc
 50
180
 51
-90
  0
LINE
  5
B3A
330
A02
100
AcDbEntity
  8
Sketch001
100
AcDbLine
 10
112.562
 20
-73.675
 30
0.000119789
 11
125.562
 21
-73.675
 31
0.000127538
  0
ARC
  5
B3B
330
A02
100
AcDbEntity
  8
Sketch001
100
AcDbCircle
 10
125.562
 20
-73.175
 30
0.00012718
 40
0.499984
100
AcDbArc
 50
-90
 51
0
  0
LINE
  5
B3C
330
A02
100
AcDbEntity
  8
Sketch001
100
AcDbLine
 10
126.062
 20
-73.175
 30
0.000127478
 11
126.063
 21
-60.175
 31
0.00011818
  0
ARC
  5
B3D
330
A02
100
AcDbEntity
  8
Sketch001
100
AcDbCircle
 10
125.563
 20
-60.175
 30
0.000117882
 40
0.499982
100
AcDbArc
 50
0
 51
90
  0
LINE
  5
B3E
330
A02
100
AcDbEntity
  8
Sketch001
100
AcDbLine
 10
125.563
 20
-59.675
 30
0.000117524
 11
112.563
 21
-59.675
 31
0.000109775
  0
ARC
  5
B3F
330
A02
100
AcDbEntity
  8
Sketch001
100
AcDbCircle
 10
112.563
 20
-60.175
 30
0.000110133
 40
0.49998
100
AcDbArc
 50
90
 51
180
  0
LINE
  5
B40
330
A02
100
AcDbEntity
  8
Sketch001
100
AcDbLine
 10
112.063
 20
-60.175
 30
0.000109835
 11
112.062
 21
-73.175
 31
0.000119133
  0
ARC
  5
B41
330
A02
100
AcDbEntity
  8
Sketch001
100
AcDbCircle
 10
131.612
 20
-73.175
 30
0.000130786
 40
0.499983
100
AcDbArc
 50
180
 51
-90
  0
LINE
  5
B42
330
A02
100
AcDbEntity
  8
Sketch001
100
AcDbLine
 10
131.612
 20
-73.675
 30
0.000131144
 11
144.612
 21
-73.675
 31
0.000138892
  0
ARC
  5
B43
330
A02
100
AcDbEntity
  8
Sketch001
100
AcDbCircle
 10
144.612
 20
-73.175
 30
0.000138535
 40
0.499982
100
AcDbArc
 50
-90
 51
0
  0
LINE
  5
B44
330
A02
100
AcDbEntity
  8
Sketch001
100
AcDbLine
 10
145.112
 20
-73.175
 30
0.000138833
 11
145.113
 21
-60.175
 31
0.000129534
  0
ARC
  5
B45
330
A02
100
AcDbEntity
  8
Sketch001
100
AcDbCircle
 10
144.613
 20
-60.175
 30
0.000129236
 40
0.499982
100
AcDbArc
 50
0
 51
90
  0
LINE
  5
B46
330
A02
100
AcDbEntity
  8
Sketch001
100
AcDbLine
 10
144.613
 20
-59.675
 30
0.000128879
 11
131.613
 21
-59.675
 31
0.00012113
  0
ARC
  5
B47
330
A02
100
AcDbEntity
  8
Sketch001
100
AcDbCircle
 10
131.613
 20
-60.175
 30
0.000121488
 40
0.499985
100
AcDbArc
 50
90
 51
180
  0
LINE
  5
B48
330
A02
100
AcDbEntity
  8
Sketch001
100
AcDbLine
 10
131.113
 20
-60.175
 30
0.00012119
 11
131.112
 21
-73.175
 31
0.000130488
  0
ARC
  5
B49
330
A02
100
AcDbEntity
  8
Sketch001
100
AcDbCircle
 10
150.662
 20
-73.175
 30
0.000142141
 40
0.49998
100
AcDbArc
 50
180
 51
-90
  0
LINE
  5
B4A
330
A02
100
AcDbEntity
  8
Sketch001
100
AcDbLine
 10
150.662
 20
-73.675
 30
0.000142498
 11
163.662
 21
-73.675
 31
0.000150247
  0
ARC
  5
B4B
330
A02
100
AcDbEntity
  8
Sketch001
100
AcDbCircle
 10
163.662
 20
-73.175
 30
0.000149889
 40
0.499982
100
AcDbArc
 50
-90
 51
-1.6285e-12
  0
LINE
  5
B4C
330
A02
100
AcDbEntity
  8
Sketch001
100
AcDbLine
 10
164.162
 20
-73.175
 30
0.000150187
 11
164.163
 21
-60.175
 31
0.000140889
  0
ARC
  5
B4D
330
A02
100
AcDbEntity
  8
Sketch001
100
AcDbCircle
 10
163.663
 20
-60.175
 30
0.000140591
 40
0.499983
100
AcDbArc
 50
0
 51
90
  0
LINE
  5
B4E
330
A02
100
AcDbEntity
  8
Sketch001
100
AcDbLine
 10
163.663
 20
-59.675
 30
0.000140233
 11
150.663
 21
-59.675
 31
0.000132485
  0
ARC
  5
B4F
330
A02
100
AcDbEntity
  8
Sketch001
100
AcDbCircle
 10
150.663
 20
-60.175
 30
0.000132842
 40
0.499978
100
AcDbArc
 50
90
 51
180
  0
LINE
  5
B50
330
A02
100
AcDbEntity
  8
Sketch001
100
AcDbLine
 10
150.163
 20
-60.175
 30
0.000132544
 11
150.162
 21
-73.175
 31
0.000141843
  0
ARC
  5
B51
330
A02
100
AcDbEntity
  8
Sketch001
100
AcDbCircle
 10
169.712
 20
-73.175
 30
0.000153495
 40
0.499982
100
AcDbArc
 50
180
 51
-90
  0
LINE
  5
B52
330
A02
100
AcDbEntity
  8
Sketch001
100
AcDbLine
 10
169.712
 20
-73.675
 30
0.000153853
 11
182.712
 21
-73.675
 31
0.000161602
  0
ARC
  5
B53
330
A02
100
AcDbEntity
  8
Sketch001
100
AcDbCircle
 10
182.712
 20
-73.175
 30
0.000161244
 40
0.499981
100
AcDbArc
 50
-90
 51
-1.62851e-12
  0
LINE
  5
B54
330
A02
100
AcDbEntity
  8
Sketch001
100
AcDbLine
 10
183.212
 20
-73.175
 30
0.000161542
 11
183.213
 21
-60.175
 31
0.000152244
  0
ARC
  5
B55
330
A02
100
AcDbEntity
  8
Sketch001
100
AcDbCircle
 10
182.713
 20
-60.175
 30
0.000151946
 40
0.499983
100
AcDbArc
 50
0
 51
90
  0
LINE
  5
B56
330
A02
100
AcDbEntity
  8
Sketch001
100
AcDbLine
 10
182.713
 20
-59.675
 30
0.000151588
 11
169.713
 21
-59.675
 31
0.000143839
  0
ARC
  5
B57
330
A02
100
AcDbEntity
  8
Sketch001
100
AcDbCircle
 10
169.713
 20
-60.175
 30
0.000144197
 40
0.499983
100
AcDbArc
 50
90
 51
180
  0
LINE
  5
B58
330
A02
100
AcDbEntity
  8
Sketch001
100
AcDbLine
 10
169.213
 20
-60.175
 30
0.000143899
 11
169.212
 21
-73.175
 31
0.000153197
  0
ARC
  5
B59
330
A02
100
AcDbEntity
  8
Sketch001
100
AcDbCircle
 10
188.762
 20
-73.175
 30
0.00016485
 40
0.499983
100
AcDbArc
 50
180
 51
-90
  0
LINE
  5
B5A
330
A02
100
AcDbEntity
  8
Sketch001
100
AcDbLine
 10
188.762
 20
-73.675
 30
0.000165208
 11
201.762
 21
-73.675
 31
0.000172956
  0
ARC
  5
B5B
330
A02
100
AcDbEntity
  8
Sketch001
100
AcDbCircle
 10
201.762
 20
-73.175
 30
0.000172599
 40
0.499981
100
AcDbArc
 50
-90
 51
0
  0
LINE
  5
B5C
330
A02
100
AcDbEntity
  8
Sketch001
100
AcDbLine
 10
202.262
 20
-73.175
 30
0.000172897
 11
202.263
 21
-60.175
 31
0.000163598
  0
ARC
  5
B5D
330
A02
100
AcDbEntity
  8
Sketch001
100
AcDbCircle
 10
201.763
 20
-60.175
 30
0.0001633
 40
0.499983
100
AcDbArc
 50
0
 51
90
  0
LINE
  5
B5E
330
A02
100
AcDbEntity
  8
Sketch001
100
AcDbLine
 10
201.763
 20
-59.675
 30
0.000162943
 11
188.763
 21
-59.675
 31
0.000155194
  0
ARC
  5
B5F
330
A02
100
AcDbEntity
  8
Sketch001
100
AcDbCircle
 10
188.763
 20
-60.175
 30
0.000155552
 40
0.499983
100
AcDbArc
 50
90
 51
180
  0
LINE
  5
B60
330
A02
100
AcDbEntity
  8
Sketch001
100
AcDbLine
 10
188.263
 20
-60.175
 30
0.000155254
 11
188.262
 21
-73.175
 31
0.000164552
  0
ARC
  5
B61
330
A02
100
AcDbEntity
  8
Sketch001
100
AcDbCircle
 10
207.812
 20
-73.175
 30
0.000176205
 40
0.499982
100
AcDbArc
 50
180
 51
-90
  0
LINE
  5
B62
330
A02
100
AcDbEntity
  8
Sketch001
100
AcDbLine
 10
207.812
 20
-73.675
 30
0.000176562
 11
220.812
 21
-73.675
 31
0.000184311
  0
ARC
  5
B63
330
A02
100
AcDbEntity
  8
Sketch001
100
AcDbCircle
 10
220.812
 20
-73.175
 30
0.000183953
 40
0.499982
100
AcDbArc
 50
-90
 51
0
  0
LINE
  5
B64
330
A02
100
AcDbEntity
  8
Sketch001
100
AcDbLine
 10
221.312
 20
-73.175
 30
0.000184251
 11
221.313
 21
-60.175
 31
0.000174953
  0
ARC
  5
B65
330
A02
100
AcDbEntity
  8
Sketch001
100
AcDbCircle
 10
220.813
 20
-60.175
 30
0.000174655
 40
0.499982
100
AcDbArc
 50
0
 51
90
  0
LINE
  5
B66
330
A02
100
AcDbEntity
  8
Sketch001
100
AcDbLine
 10
220.813
 20
-59.675
 30
0.000174297
 11
207.813
 21
-59.675
 31
0.000166549
  0
ARC
  5
B67
330
A02
100
AcDbEntity
  8
Sketch001
100
AcDbCircle
 10
207.813
 20
-60.175
 30
0.000166906
 40
0.499981
100
AcDbArc
 50
90
 51
180
  0
LINE
  5
B68
330
A02
100
AcDbEntity
  8
Sketch001
100
AcDbLine
 10
207.313
 20
-60.175
 30
0.000166608
 11
207.312
 21
-73.175
 31
0.000175907
  0
ARC
  5
B69
330
A02
100
AcDbEntity
  8
Sketch001
100
AcDbCircle
 10
226.862
 20
-73.175
 30
0.000187559
 40
0.499984
100
AcDbArc
 50
180
 51
-90
  0
LINE
  5
B6A
330
A02
100
AcDbEntity
  8
Sketch001
100
AcDbLine
 10
226.862
 20
-73.675
 30
0.000187917
 11
239.862
 21
-73.675
 31
0.000195666
  0
ARC
  5
B6B
330
A02
100
AcDbEntity
  8
Sketch001
100
AcDbCircle
 10
239.862
 20
-73.175
 30
0.000195308
 40
0.499981
100
AcDbArc
 50
-90
 51
-1.62851e-12
  0
LINE
  5
B6C
330
A02
100
AcDbEntity
  8
Sketch001
100
AcDbLine
 10
240.362
 20
-73.175
 30
0.000195606
 11
240.363
 21
-60.175
 31
0.000186308
  0
ARC
  5
B6D
330
A02
100
AcDbEntity
  8
Sketch001
100
AcDbCircle
 10
239.863
 20
-60.175
 30
0.00018601
 40
0.499981
100
AcDbArc
 50
0
 51
90
  0
LINE
  5
B6E
330
A02
100
AcDbEntity
  8
Sketch001
100
AcDbLine
 10
239.863
 20
-59.675
 30
0.000185652
 11
226.863
 21
-59.675
 31
0.000177903
  0
ARC
  5
B6F
330
A02
100
AcDbEntity
  8
Sketch001
100
AcDbCircle
 10
226.863
 20
-60.175
 30
0.000178261
 40
0.499979
100
AcDbArc
 50
90
 51
180
  0
LINE
  5
B70
330
A02
100
AcDbEntity
  8
Sketch001
100
AcDbLine
 10
226.363
 20
-60.175
 30
0.000177963
 11
226.362
 21
-73.175
 31
0.000187261
  0
ARC
  5
B71
330
A02
100
AcDbEntity
  8
Sketch001
100
AcDbCircle
 10
5.40622
 20
-92.225
 30
6.91868e-05
 40
0.499982
100
AcDbArc
 50
180
 51
-90
  0
LINE
  5
B72
330
A02
100
AcDbEntity
  8
Sketch001
100
AcDbLine
 10
5.40622
 20
-92.725
 30
6.95444e-05
 11
18.4062
 21
-92.725
 31
7.72931e-05
  0
ARC
  5
B73
330
A02
100
AcDbEntity
  8
Sketch001
100
AcDbCircle
 10
18.4062
 20
-92.225
 30
7.69355e-05
 40
0.499977
100
AcDbArc
 50
-90
 51
0
  0
LINE
  5
B74
330
A02
100
AcDbEntity
  8
Sketch001
100
AcDbLine
 10
18.9062
 20
-92.225
 30
7.72335e-05
 11
18.9063
 21
-79.225
 31
6.79351e-05
  0
ARC
  5
B75
330
A02
100
AcDbEntity
  8
Sketch001
100
AcDbCircle
 10
18.4063
 20
-79.225
 30
6.76371e-05
 40
0.499983
100
AcDbArc
 50
0
 51
90
  0
LINE
  5
B76
330
A02
100
AcDbEntity
  8
Sketch001
100
AcDbLine
 10
18.4063
 20
-78.725
 30
6.72795e-05
 11
5.40626
 21
-78.725
 31
5.95309e-05
  0
ARC
  5
B77
330
A02
100
AcDbEntity
  8
Sketch001
100
AcDbCircle
 10
5.40626
 20
-79.225
 30
5.98885e-05
 40
0.499981
100
AcDbArc
 50
90
 51
180
  0
LINE
  5
B78
330
A02
100
AcDbEntity
  8
Sketch001
100
AcDbLine
 10
4.90628
 20
-79.225
 30
5.95905e-05
 11
4.90624
 21
-92.225
 31
6.88888e-05
  0
ARC
  5
B79
330
A02
100
AcDbEntity
  8
Sketch001
100
AcDbCircle
 10
26.8375
 20
-92.225
 30
8.19608e-05
 40
0.499983
100
AcDbArc
 50
180
 51
-90
  0
LINE
  5
B7A
330
A02
100
AcDbEntity
  8
Sketch001
100
AcDbLine
 10
26.8375
 20
-92.725
 30
8.23185e-05
 11
39.8375
 21
-92.725
 31
9.00671e-05
  0
ARC
  5
B7B
330
A02
100
AcDbEntity
  8
Sketch001
100
AcDbCircle
 10
39.8375
 20
-92.225
 30
8.97095e-05
 40
0.499982
100
AcDbArc
 50
-90
 51
-1.6285e-12
  0
LINE
  5
B7C
330
A02
100
AcDbEntity
  8
Sketch001
100
AcDbLine
 10
40.3375
 20
-92.225
 30
9.00075e-05
 11
40.3375
 21
-79.225
 31
8.07092e-05
  0
ARC
  5
B7D
330
A02
100
AcDbEntity
  8
Sketch001
100
AcDbCircle
 10
39.8375
 20
-79.225
 30
8.04112e-05
 40
0.49998
100
AcDbArc
 50
-1.62851e-12
 51
90
  0
LINE
  5
B7E
330
A02
100
AcDbEntity
  8
Sketch001
100
AcDbLine
 10
39.8375
 20
-78.725
 30
8.00535e-05
 11
26.8375
 21
-78.725
 31
7.23049e-05
  0
ARC
  5
B7F
330
A02
100
AcDbEntity
  8
Sketch001
100
AcDbCircle
 10
26.8375
 20
-79.225
 30
7.26625e-05
 40
0.499984
100
AcDbArc
 50
90
 51
180
  0
LINE
  5
B80
330
A02
100
AcDbEntity
  8
Sketch001
100
AcDbLine
 10
26.3375
 20
-79.225
 30
7.23645e-05
 11
26.3375
 21
-92.225
 31
8.16628e-05
  0
ARC
  5
B81
330
A02
100
AcDbEntity
  8
Sketch001
100
AcDbCircle
 10
48.2687
 20
-92.225
 30
9.47349e-05
 40
0.49998
100
AcDbArc
 50
180
 51
-90
  0
LINE
  5
B82
330
A02
100
AcDbEntity
  8
Sketch001
100
AcDbLine
 10
48.2687
 20
-92.725
 30
9.50925e-05
 11
61.2687
 21
-92.725
 31
0.000102841
  0
ARC
  5
B83
330
A02
100
AcDbEntity
  8
Sketch001
100
AcDbCircle
 10
61.2687
 20
-92.225
 30
0.000102483
 40
0.499983
100
AcDbArc
 50
-90
 51
0
  0
LINE
  5
B84
330
A02
100
AcDbEntity
  8
Sketch001
100
AcDbLine
 10
61.7687
 20
-92.225
 30
0.000102782
 11
61.7688
 21
-79.225
 31
9.34832e-05
  0
ARC
  5
B85
330
A02
100
AcDbEntity
  8
Sketch001
100
AcDbCircle
 10
61.2688
 20
-79.225
 30
9.31852e-05
 40
0.499978
100
AcDbArc
 50
0
 51
90
  0
LINE
  5
B86
330
A02
100
AcDbEntity
  8
Sketch001
100
AcDbLine
 10
61.2688
 20
-78.725
 30
9.28276e-05
 11
48.2688
 21
-78.725
 31
8.50789e-05
  0
ARC
  5
B87
330
A02
100
AcDbEntity
  8
Sketch001
100
AcDbCircle
 10
48.2688
 20
-79.225
 30
8.54365e-05
 40
0.499981
100
AcDbArc
 50
90
 51
180
  0
LINE
  5
B88
330
A02
100
AcDbEntity
  8
Sketch001
100
AcDbLine
 10
47.7688
 20
-79.225
 30
8.51385e-05
 11
47.7687
 21
-92.225
 31
9.44368e-05
  0
ARC
  5
B89
330
A02
100
AcDbEntity
  8
Sketch001
100
AcDbCircle
 10
119.706
 20
-92.225
 30
0.000137315
 40
0.499982
100
AcDbArc
 50
180
 51
-90
  0
LINE
  5
B8A
330
A02
100
AcDbEntity
  8
Sketch001
100
AcDbLine
 10
119.706
 20
-92.725
 30
0.000137673
 11
132.706
 21
-92.725
 31
0.000145421
  0
ARC
  5
B8B
330
A02
100
AcDbEntity
  8
Sketch001
100
AcDbCircle
 10
132.706
 20
-92.225
 30
0.000145064
 40
0.499982
100
AcDbArc
 50
-90
 51
-1.6285e-12
  0
LINE
  5
B8C
330
A02
100
AcDbEntity
  8
Sketch001
100
AcDbLine
 10
133.206
 20
-92.225
 30
0.000145362
 11
133.206
 21
-79.225
 31
0.000136063
  0
ARC
  5
B8D
330
A02
100
AcDbEntity
  8
Sketch001
100
AcDbCircle
 10
132.706
 20
-79.225
 30
0.000135765
 40
0.499985
100
AcDbArc
 50
-1.62849e-12
 51
90
  0
LINE
  5
B8E
330
A02
100
AcDbEntity
  8
Sketch001
100
AcDbLine
 10
132.706
 20
-78.725
 30
0.000135408
 11
119.706
 21
-78.725
 31
0.000127659
  0
ARC
  5
B8F
330
A02
100
AcDbEntity
  8
Sketch001
100
AcDbCircle
 10
119.706
 20
-79.225
 30
0.000128017
 40
0.499981
100
AcDbArc
 50
90
 51
180
  0
LINE
  5
B90
330
A02
100
AcDbEntity
  8
Sketch001
100
AcDbLine
 10
119.206
 20
-79.225
 30
0.000127719
 11
119.206
 21
-92.225
 31
0.000137017
  0
ARC
  5
B91
330
A02
100
AcDbEntity
  8
Sketch001
100
AcDbCircle
 10
179.206
 20
-78.225
 30
0.000162766
 40
0.499985
100
AcDbArc
 50
0
 51
90
  0
LINE
  5
B92
330
A02
100
AcDbEntity
  8
Sketch001
100
AcDbLine
 10
179.206
 20
-77.725
 30
0.000162409
 11
173.206
 21
-77.725
 31
0.000158832
  0
ARC
  5
B93
330
A02
100
AcDbEntity
  8
Sketch001
100
AcDbCircle
 10
173.206
 20
-78.225
 30
0.00015919
 40
0.499983
100
AcDbArc
 50
90
 51
180
  0
LINE
  5
B94
330
A02
100
AcDbEntity
  8
Sketch001
100
AcDbLine
 10
172.706
 20
-78.225
 30
0.000158892
 11
172.706
 21
-92.225
 31
0.000168905
  0
ARC
  5
B95
330
A02
100
AcDbEntity
  8
Sketch001
100
AcDbCircle
 10
173.206
 20
-92.225
 30
0.000169203
 40
0.499979
100
AcDbArc
 50
180
 51
-90
  0
LINE
  5
B96
330
A02
100
AcDbEntity
  8
Sketch001
100
AcDbLine
 10
173.206
 20
-92.725
 30
0.000169561
 11
179.206
 21
-92.725
 31
0.000173137
  0
ARC
  5
B97
330
A02
100
AcDbEntity
  8
Sketch001
100
AcDbCircle
 10
179.206
 20
-92.225
 30
0.00017278
 40
0.499978
100
AcDbArc
 50
-90
 51
0
  0
LINE
  5
B98
330
A02
100
AcDbEntity
  8
Sketch001
100
AcDbLine
 10
179.706
 20
-92.225
 30
0.000173078
 11
179.706
 21
-78.225
 31
0.000163064
  0
ARC
  5
B99
330
A02
100
AcDbEntity
  8
Sketch001
100
AcDbCircle
 10
79.2063
 20
-78.225
 30
0.000103162
 40
0.499982
100
AcDbArc
 50
0
 51
90
  0
LINE
  5
B9A
330
A02
100
AcDbEntity
  8
Sketch001
100
AcDbLine
 10
79.2063
 20
-77.725
 30
0.000102804
 11
73.2063
 21
-77.725
 31
9.92276e-05
  0
ARC
  5
B9B
330
A02
100
AcDbEntity
  8
Sketch001
100
AcDbCircle
 10
73.2063
 20
-78.225
 30
9.95852e-05
 40
0.49998
100
AcDbArc
 50
90
 51
180
  0
LINE
  5
B9C
330
A02
100
AcDbEntity
  8
Sketch001
100
AcDbLine
 10
72.7063
 20
-78.225
 30
9.92872e-05
 11
72.7062
 21
-92.225
 31
0.000109301
  0
ARC
  5
B9D
330
A02
100
AcDbEntity
  8
Sketch001
100
AcDbCircle
 10
73.2062
 20
-92.225
 30
0.000109599
 40
0.499983
100
AcDbArc
 50
180
 51
-90
  0
LINE
  5
B9E
330
A02
100
AcDbEntity
  8
Sketch001
100
AcDbLine
 10
73.2062
 20
-92.725
 30
0.000109956
 11
79.2062
 21
-92.725
 31
0.000113533
  0
ARC
  5
B9F
330
A02
100
AcDbEntity
  8
Sketch001
100
AcDbCircle
 10
79.2062
 20
-92.225
 30
0.000113175
 40
0.499978
100
AcDbArc
 50
-90
 51
0
  0
LINE
  5
BA0
330
A02
100
AcDbEntity
  8
Sketch001
100
AcDbLine
 10
79.7062
 20
-92.225
 30
0.000113473
 11
79.7063
 21
-78.225
 31
0.00010346
  0
ARC
  5
BA1
330
A02
100
AcDbEntity
  8
Sketch001
100
AcDbCircle
 10
188.762
 20
-92.225
 30
0.000178476
 40
0.499981
100
AcDbArc
 50
180
 51
-90
  0
LINE
  5
BA2
330
A02
100
AcDbEntity
  8
Sketch001
100
AcDbLine
 10
188.762
 20
-92.725
 30
0.000178833
 11
201.762
 21
-92.725
 31
0.000186582
  0
ARC
  5
BA3
330
A02
100
AcDbEntity
  8
Sketch001
100
AcDbCircle
 10
201.762
 20
-92.225
 30
0.000186224
 40
0.499983
100
AcDbArc
 50
-90
 51
0
  0
LINE
  5
BA4
330
A02
100
AcDbEntity
  8
Sketch001
100
AcDbLine
 10
202.262
 20
-92.225
 30
0.000186522
 11
202.263
 21
-79.225
 31
0.000177224
  0
ARC
  5
BA5
330
A02
100
AcDbEntity
  8
Sketch001
100
AcDbCircle
 10
201.763
 20
-79.225
 30
0.000176926
 40
0.49998
100
AcDbArc
 50
0
 51
90
  0
LINE
  5
BA6
330
A02
100
AcDbEntity
  8
Sketch001
100
AcDbLine
 10
201.763
 20
-78.725
 30
0.000176568
 11
188.763
 21
-78.725
 31
0.00016882
  0
ARC
  5
BA7
330
A02
100
AcDbEntity
  8
Sketch001
100
AcDbCircle
 10
188.763
 20
-79.225
 30
0.000169177
 40
0.49998
100
AcDbArc
 50
90
 51
180
  0
LINE
  5
BA8
330
A02
100
AcDbEntity
  8
Sketch001
100
AcDbLine
 10
188.263
 20
-79.225
 30
0.000168879
 11
188.262
 21
-92.225
 31
0.000178178
  0
ARC
  5
BA9
330
A02
100
AcDbEntity
  8
Sketch001
100
AcDbCircle
 10
207.812
 20
-92.225
 30
0.00018983
 40
0.499979
100
AcDbArc
 50
180
 51
-90
  0
LINE
  5
BAA
330
A02
100
AcDbEntity
  8
Sketch001
100
AcDbLine
 10
207.812
 20
-92.725
 30
0.000190188
 11
220.812
 21
-92.725
 31
0.000197937
  0
ARC
  5
BAB
330
A02
100
AcDbEntity
  8
Sketch001
100
AcDbCircle
 10
220.812
 20
-92.225
 30
0.000197579
 40
0.499979
100
AcDbArc
 50
-90
 51
0
  0
LINE
  5
BAC
330
A02
100
AcDbEntity
  8
Sketch001
100
AcDbLine
 10
221.312
 20
-92.225
 30
0.000197877
 11
221.313
 21
-79.225
 31
0.000188579
  0
ARC
  5
BAD
330
A02
100
AcDbEntity
  8
Sketch001
100
AcDbCircle
 10
220.813
 20
-79.225
 30
0.000188281
 40
0.499981
100
AcDbArc
 50
0
 51
90
  0
LINE
  5
BAE
330
A02
100
AcDbEntity
  8
Sketch001
100
AcDbLine
 10
220.813
 20
-78.725
 30
0.000187923
 11
207.813
 21
-78.725
 31
0.000180174
  0
ARC
  5
BAF
330
A02
100
AcDbEntity
  8
Sketch001
100
AcDbCircle
 10
207.813
 20
-79.225
 30
0.000180532
 40
0.499977
100
AcDbArc
 50
90
 51
180
  0
LINE
  5
BB0
330
A02
100
AcDbEntity
  8
Sketch001
100
AcDbLine
 10
207.313
 20
-79.225
 30
0.000180234
 11
207.312
 21
-92.225
 31
0.000189532
  0
ARC
  5
BB1
330
A02
100
AcDbEntity
  8
Sketch001
100
AcDbCircle
 10
226.862
 20
-92.225
 30
0.000201185
 40
0.499982
100
AcDbArc
 50
180
 51
-90
  0
LINE
  5
BB2
330
A02
100
AcDbEntity
  8
Sketch001
100
AcDbLine
 10
226.862
 20
-92.725
 30
0.000201543
 11
239.862
 21
-92.725
 31
0.000209291
  0
ARC
  5
BB3
330
A02
100
AcDbEntity
  8
Sketch001
100
AcDbCircle
 10
239.862
 20
-92.225
 30
0.000208934
 40
0.499983
100
AcDbArc
 50
-90
 51
-1.6285e-12
  0
LINE
  5
BB4
330
A02
100
AcDbEntity
  8
Sketch001
100
AcDbLine
 10
240.362
 20
-92.225
 30
0.000209232
 11
240.363
 21
-79.225
 31
0.000199933
  0
ARC
  5
BB5
330
A02
100
AcDbEntity
  8
Sketch001
100
AcDbCircle
 10
239.863
 20
-79.225
 30
0.000199635
 40
0.499981
100
AcDbArc
 50
-1.62851e-12
 51
90
  0
LINE
  5
BB6
330
A02
100
AcDbEntity
  8
Sketch001
100
AcDbLine
 10
239.863
 20
-78.725
 30
0.000199278
 11
226.863
 21
-78.725
 31
0.000191529
  0
ARC
  5
BB7
330
A02
100
AcDbEntity
  8
Sketch001
100
AcDbCircle
 10
226.863
 20
-79.225
 30
0.000191887
 40
0.49998
100
AcDbArc
 50
90
 51
180
  0
LINE
  5
BB8
330
A02
100
AcDbEntity
  8
Sketch001
100
AcDbLine
 10
226.363
 20
-79.225
 30
0.000191589
 11
226.362
 21
-92.225
 31
0.000200887
  0
LINE
  5
BB9
330
A02
100
AcDbEntity
  8
Sketch001
100
AcDbLine
 10
9.66876
 20
-60.1908
 30
4.88148e-05
 11
9.66876
 21
-63.6908
 31
5.13182e-05
  0
LINE
  5
BBA
330
A02
100
AcDbEntity
  8
Sketch001
100
AcDbLine
 10
5.16876
 20
-63.6908
 30
4.8636e-05
 11
9.66876
 21
-63.6908
 31
5.13182e-05
  0
ARC
  5
BBB
330
A02
100
AcDbEntity
  8
Sketch001
100
AcDbCircle
 10
5.16876
 20
-66.6908
 30
5.07818e-05
 40
3
100
AcDbArc
 50
90
 51
-90
  0
LINE
  5
BBC
330
A02
100
AcDbEntity
  8
Sketch001
100
AcDbLine
 10
5.16876
 20
-69.6908
 30
5.29276e-05
 11
9.66876
 21
-69.6908
 31
5.56098e-05
  0
LINE
  5
BBD
330
A02
100
AcDbEntity
  8
Sketch001
100
AcDbLine
 10
9.66876
 20
-69.6908
 30
5.56098e-05
 11
9.66876
 21
-73.1908
 31
5.81132e-05
  0
ENDSEC
  0
SECTION
  2
OBJECTS
  0
DICTIONARY
  5
F000
330
0
100
AcDbDictionary
  3
ACAD_GROUP
350
F001
  0
DICTIONARY
  5
F001
330
F000
100
AcDbDictionary
  0
ENDSEC
  0
EOF