M48
; DRILL file {KiCad (6.0.0)} date Thu Feb  3 02:59:53 2022
; FORMAT={-:-/ absolute / inch / decimal}
; #@! TF.CreationDate,2022-02-03T02:59:53-08:00
; #@! TF.GenerationSoftware,Kicad,Pcbnew,(6.0.0)
; #@! TF.FileFunction,Plated,1,2,PTH
FMAT,2
INCH
; #@! TA.AperFunction,Plated,PTH,ViaDrill
T1C0.0157
; #@! TA.AperFunction,Plated,PTH,ComponentDrill
T2C0.0236
; #@! TA.AperFunction,Plated,PTH,ComponentDrill
T3C0.0354
; #@! TA.AperFunction,Plated,PTH,ComponentDrill
T4C0.0394
%
G90
G05
T1
X1.005Y-1.9567
X1.0336Y-2.0417
X1.0336Y-2.6094
X1.0336Y-2.8062
X1.0622Y-1.9567
X1.2614Y-1.8926
X1.2614Y-1.9498
X1.2615Y-1.3117
X1.2615Y-1.5292
X1.2615Y-1.7467
X1.2682Y-3.9144
X1.3632Y-1.8848
X1.6722Y-2.0109
X1.7116Y-2.0109
X1.7402Y-1.9158
X1.7402Y-1.9577
X1.7836Y-2.0688
X1.7836Y-2.2583
X1.8858Y-1.3583
X1.8858Y-1.4311
X1.9331Y-1.7864
X1.9664Y-1.7083
X1.9711Y-2.7917
X1.9711Y-3.0083
X1.9711Y-4.2917
X1.9711Y-4.5083
X1.9711Y-4.6953
X1.9724Y-1.7864
X2.063Y-1.4449
X2.1102Y-1.3701
X2.1279Y-1.4449
X2.189Y-1.3907
X2.2699Y-1.815
X2.3461Y-3.5417
X2.3461Y-3.7583
X2.5035Y-1.815
X2.5336Y-2.0417
X2.5336Y-2.2583
X2.7164Y-1.7083
X2.7211Y-2.7917
X2.7211Y-3.0083
X2.8148Y-4.2917
X2.8148Y-4.5083
X2.8148Y-4.715
X2.9086Y-1.5083
X3.0961Y-3.5417
X3.0961Y-3.7583
X3.2836Y-2.0417
X3.2836Y-2.2583
X3.4711Y-2.7917
X3.4711Y-3.0083
X3.5625Y-2.0851
X3.6586Y-1.5083
X3.685Y-2.2077
X3.685Y-2.3504
X3.7569Y-1.9578
X3.7963Y-1.9163
X3.7963Y-1.9567
X3.8461Y-3.5417
X3.8461Y-3.7583
X3.8461Y-3.943
X3.9193Y-2.3504
X3.9335Y-1.9121
X3.9341Y-1.8711
X3.9606Y-2.3504
X4.002Y-2.3504
X4.0336Y-2.0417
X4.0336Y-2.2583
X4.0622Y-2.3504
X4.0622Y-2.4056
X4.2211Y-2.7917
X4.2211Y-3.0083
X4.2756Y-4.6053
X4.2756Y-4.7287
X4.2874Y-1.9114
X4.3148Y-4.2917
X4.3148Y-4.5083
X4.315Y-4.7287
X4.4086Y-1.5083
X4.4591Y-3.9956
X4.4888Y-3.9443
X4.5281Y-3.943
X4.5675Y-3.943
X4.5961Y-3.5417
X4.5961Y-3.7583
X4.7836Y-2.0417
X4.7836Y-2.2583
X4.7881Y-4.0002
X4.8514Y-3.1585
X4.9596Y-4.6053
X4.9596Y-4.7287
X4.9699Y-4.279
X4.9711Y-2.7917
X4.9711Y-3.0083
X5.0168Y-4.6053
X5.0807Y-3.9716
X5.1333Y-4.0242
X5.1334Y-3.9434
X5.1586Y-1.5083
X5.1653Y-4.1659
X5.1713Y-4.127
X5.1811Y-4.3012
X5.1821Y-4.2083
X5.2018Y-4.814
X5.2018Y-4.6053
X5.2018Y-4.7287
X5.2106Y-4.1259
X5.2333Y-3.8553
X5.2333Y-3.943
X5.2412Y-4.6053
X5.2412Y-4.7287
X5.2726Y-3.943
X5.2806Y-4.6053
X5.2806Y-4.7109
X5.3199Y-4.693
X5.3199Y-4.6053
X5.3461Y-3.5417
X5.348Y-3.943
X5.3593Y-4.6053
X5.3593Y-4.6625
X5.3986Y-4.6053
X5.3986Y-4.6625
X5.438Y-4.6053
X5.438Y-4.693
X5.4508Y-2.3504
X5.4774Y-4.6053
X5.4774Y-4.7109
X5.4852Y-3.8553
X5.4931Y-4.4547
X5.5167Y-4.6053
X5.5167Y-4.7287
X5.5336Y-2.2583
X5.5423Y-3.9154
X5.5561Y-4.6053
X5.5561Y-4.7287
X5.5561Y-4.81
X5.5728Y-4.3189
X5.5886Y-3.9154
X5.6191Y-4.3189
X5.6575Y-4.0246
X5.6822Y-4.0659
X5.6929Y-4.2087
X5.6929Y-4.25
X5.7108Y-3.8553
X5.7211Y-2.7917
X5.7211Y-3.0083
X5.751Y-4.2392
X5.8179Y-4.2539
X5.8681Y-4.0053
X5.8799Y-4.2392
X5.9144Y-4.0232
X5.9469Y-4.064
X5.9547Y-3.1861
X5.9833Y-3.8553
X5.9833Y-3.9144
X6.0226Y-3.8553
X6.0226Y-3.9144
X6.0278Y-3.1861
X6.0748Y-3.9431
X6.0961Y-3.5417
X6.0961Y-3.7583
X6.0984Y-4.6053
X6.0984Y-4.7287
X6.1Y-4.4
X6.2106Y-4.2917
X6.2836Y-2.2583
X6.3583Y-3.0994
X6.3583Y-3.1575
X6.4711Y-2.7917
X6.4711Y-3.0083
X6.8461Y-3.5417
X6.8461Y-3.7583
X6.8461Y-3.9144
X6.9498Y-2.3504
X7.0336Y-2.2583
X7.0622Y-2.3504
X7.0622Y-2.4056
X7.2211Y-2.7917
X7.2211Y-3.0083
X7.463Y-4.6053
X7.463Y-4.7287
X7.5023Y-4.2917
X7.5023Y-4.5083
X7.5024Y-4.7287
X7.5128Y-3.9144
X7.5417Y-4.7287
X7.5417Y-4.6053
X7.5961Y-3.5417
X7.5961Y-3.7583
X7.7836Y-2.2583
X7.9711Y-2.7917
X7.9711Y-3.0083
X8.3461Y-3.5417
X8.3461Y-3.7583
X8.3461Y-4.2917
X8.3461Y-4.5083
X8.3461Y-4.7109
X8.5336Y-2.2583
X8.7211Y-2.7917
X8.7211Y-3.0083
X9.0961Y-3.5417
X9.0961Y-3.7583
X9.0961Y-4.2917
X9.0961Y-4.5083
X9.0961Y-4.693
X9.5648Y-2.2583
X9.6586Y-2.7917
X9.6586Y-3.0083
X9.75Y-3.1866
X9.75Y-3.378
X9.75Y-3.8553
X9.75Y-3.9125
X9.8461Y-3.5417
X9.8461Y-3.7583
X9.8461Y-4.2917
X9.8461Y-4.5083
X9.8461Y-4.6644
T3
X1.045Y-1.2487
X1.045Y-1.4662
X1.045Y-1.6837
X1.145Y-1.2487
X1.145Y-1.4662
X1.145Y-1.6837
T4
X1.1037Y-3.75
X1.2037Y-3.75
X1.4186Y-2.625
X1.5186Y-2.625
X1.6186Y-2.625
X9.9375Y-3.2146
X9.9375Y-3.3146
X9.9375Y-3.4146
T2
G00X1.8899Y-1.0956
M15
G01X1.8899Y-1.1192
M16
G05
G00X1.8899Y-1.2503
M15
G01X1.8899Y-1.2936
M16
G05
G00X2.2301Y-1.0956
M15
G01X2.2301Y-1.1192
M16
G05
G00X2.2301Y-1.2503
M15
G01X2.2301Y-1.2936
M16
G05
T0
M30
