M48
; DRILL file {KiCad (6.0.0-rc1-249-g84cfa052a1)} date Thu Feb 17 11:23:13 2022
; FORMAT={-:-/ absolute / metric / decimal}
; #@! TF.CreationDate,2022-02-17T11:23:13-08:00
; #@! TF.GenerationSoftware,Kicad,Pcbnew,(6.0.0-rc1-249-g84cfa052a1)
; #@! TF.FileFunction,Plated,1,2,PTH
FMAT,2
METRIC
; #@! TA.AperFunction,Plated,PTH,ViaDrill
T1C0.400
; #@! TA.AperFunction,Plated,PTH,ComponentDrill
T2C0.600
; #@! TA.AperFunction,Plated,PTH,ComponentDrill
T3C0.900
; #@! TA.AperFunction,Plated,PTH,ComponentDrill
T4C1.000
%
G90
G05
T1
X25.526Y-49.7
X26.252Y-51.86
X26.252Y-66.279
X26.252Y-71.279
X26.979Y-49.7
X32.04Y-48.073
X32.04Y-49.526
X32.042Y-33.317
X32.042Y-38.842
X32.042Y-44.367
X32.212Y-99.427
X34.625Y-47.875
X42.475Y-51.077
X43.473Y-51.077
X44.2Y-48.661
X44.2Y-49.725
X45.302Y-52.547
X45.302Y-57.36
X47.9Y-34.5
X47.9Y-36.35
X49.1Y-45.374
X49.947Y-43.39
X50.065Y-70.91
X50.065Y-76.41
X50.065Y-109.01
X50.065Y-114.51
X50.065Y-119.26
X50.1Y-45.374
X52.4Y-36.7
X53.6Y-34.8
X54.047Y-36.7
X55.6Y-35.325
X55.917Y-30.125
X57.655Y-46.101
X59.59Y-89.96
X59.59Y-95.46
X59.662Y-29.425
X59.662Y-34.5
X63.0Y-29.925
X63.59Y-46.101
X63.725Y-30.625
X64.352Y-51.86
X64.352Y-57.36
X68.998Y-43.39
X69.115Y-70.91
X69.115Y-76.41
X71.496Y-109.01
X71.496Y-114.51
X71.496Y-119.76
X73.877Y-38.31
X78.64Y-89.96
X78.64Y-95.46
X83.402Y-51.86
X83.402Y-57.36
X88.165Y-70.91
X88.165Y-76.41
X92.927Y-38.31
X95.567Y-59.699
X96.425Y-48.675
X96.425Y-49.7
X97.69Y-89.96
X97.69Y-95.46
X97.69Y-100.153
X99.55Y-59.699
X99.91Y-48.568
X99.925Y-47.525
X100.6Y-59.699
X101.65Y-59.699
X102.453Y-51.86
X102.453Y-57.36
X107.215Y-70.91
X107.215Y-76.41
X108.9Y-48.55
X109.596Y-109.01
X109.596Y-114.51
X109.6Y-120.11
X111.977Y-38.31
X113.262Y-101.488
X114.015Y-100.185
X115.014Y-100.153
X116.013Y-100.153
X116.74Y-89.96
X116.74Y-95.46
X121.502Y-51.86
X121.502Y-57.36
X121.619Y-101.606
X123.227Y-80.227
X125.974Y-110.35
X126.235Y-108.688
X126.265Y-70.91
X126.265Y-76.41
X127.426Y-110.35
X129.05Y-100.88
X130.386Y-102.214
X130.389Y-100.161
X131.028Y-38.31
X131.198Y-105.813
X131.351Y-104.826
X131.6Y-109.25
X131.626Y-106.89
X132.35Y-104.799
X132.925Y-97.923
X132.925Y-100.153
X133.126Y-116.974
X133.126Y-120.11
X133.925Y-100.153
X134.126Y-116.974
X134.126Y-119.657
X135.125Y-119.203
X135.125Y-116.974
X135.79Y-89.96
X135.838Y-100.153
X136.125Y-116.974
X136.125Y-118.426
X137.125Y-116.974
X137.125Y-118.426
X137.49Y-97.197
X138.124Y-116.974
X138.124Y-119.203
X138.45Y-59.699
X139.125Y-116.974
X139.125Y-119.657
X139.325Y-97.925
X139.525Y-113.15
X140.125Y-116.974
X140.125Y-120.11
X140.552Y-57.36
X140.773Y-99.45
X141.55Y-109.7
X141.95Y-99.45
X142.843Y-109.687
X143.7Y-102.225
X144.31Y-108.96
X144.327Y-103.273
X144.6Y-106.901
X144.6Y-107.95
X145.315Y-70.91
X145.315Y-76.41
X146.075Y-107.675
X148.604Y-109.503
X149.05Y-101.736
X149.35Y-107.675
X150.225Y-102.189
X151.05Y-103.225
X151.249Y-80.928
X151.975Y-97.923
X151.975Y-99.427
X152.975Y-97.923
X152.975Y-99.425
X153.107Y-80.928
X154.301Y-100.154
X154.84Y-89.96
X154.84Y-95.46
X154.941Y-111.76
X157.75Y-109.01
X159.602Y-57.36
X161.5Y-78.724
X161.5Y-80.201
X164.365Y-70.91
X164.365Y-76.41
X173.89Y-89.96
X173.89Y-95.46
X173.89Y-99.425
X176.525Y-59.699
X178.653Y-57.36
X183.415Y-70.91
X183.415Y-76.41
X190.559Y-109.01
X190.559Y-114.51
X190.56Y-120.11
X190.825Y-99.427
X192.94Y-89.96
X192.94Y-95.46
X197.702Y-57.36
X202.465Y-70.91
X202.465Y-76.41
X211.99Y-89.96
X211.99Y-95.46
X211.99Y-109.01
X211.99Y-114.51
X211.99Y-119.657
X216.752Y-57.36
X221.515Y-70.91
X221.515Y-76.41
X231.04Y-89.96
X231.04Y-95.46
X231.04Y-109.01
X231.04Y-114.51
X231.04Y-119.203
X242.946Y-57.36
X245.327Y-70.91
X245.327Y-76.41
X247.65Y-80.94
X247.65Y-85.8
X247.65Y-97.923
X247.65Y-99.376
X250.09Y-89.96
X250.09Y-95.46
X250.09Y-109.01
X250.09Y-114.51
X250.09Y-118.477
T3
X26.543Y-31.717
X26.543Y-37.242
X26.543Y-42.767
X29.083Y-31.717
X29.083Y-37.242
X29.083Y-42.767
T4
X28.035Y-95.25
X30.575Y-95.25
X36.032Y-66.675
X38.572Y-66.675
X41.112Y-66.675
X252.412Y-81.65
X252.412Y-84.19
X252.412Y-86.73
T2
G00X48.004Y-27.827
M15
G01X48.004Y-28.427
M16
G05
G00X48.004Y-31.757
M15
G01X48.004Y-32.857
M16
G05
G00X56.644Y-27.827
M15
G01X56.644Y-28.427
M16
G05
G00X56.644Y-31.757
M15
G01X56.644Y-32.857
M16
G05
T0
M30
