G04 #@! TF.GenerationSoftware,KiCad,Pcbnew,(6.0.0)*
G04 #@! TF.CreationDate,2022-02-07T13:47:23-08:00*
G04 #@! TF.ProjectId,Memoria,4d656d6f-7269-4612-9e6b-696361645f70,rev?*
G04 #@! TF.SameCoordinates,Original*
G04 #@! TF.FileFunction,Legend,Bot*
G04 #@! TF.FilePolarity,Positive*
%FSLAX46Y46*%
G04 Gerber Fmt 4.6, Leading zero omitted, Abs format (unit mm)*
G04 Created by KiCad (PCBNEW (6.0.0)) date 2022-02-07 13:47:23*
%MOMM*%
%LPD*%
G01*
G04 APERTURE LIST*
G04 Aperture macros list*
%AMRoundRect*
0 Rectangle with rounded corners*
0 $1 Rounding radius*
0 $2 $3 $4 $5 $6 $7 $8 $9 X,Y pos of 4 corners*
0 Add a 4 corners polygon primitive as box body*
4,1,4,$2,$3,$4,$5,$6,$7,$8,$9,$2,$3,0*
0 Add four circle primitives for the rounded corners*
1,1,$1+$1,$2,$3*
1,1,$1+$1,$4,$5*
1,1,$1+$1,$6,$7*
1,1,$1+$1,$8,$9*
0 Add four rect primitives between the rounded corners*
20,1,$1+$1,$2,$3,$4,$5,0*
20,1,$1+$1,$4,$5,$6,$7,0*
20,1,$1+$1,$6,$7,$8,$9,0*
20,1,$1+$1,$8,$9,$2,$3,0*%
G04 Aperture macros list end*
%ADD10C,0.150000*%
%ADD11C,0.120000*%
%ADD12C,1.750000*%
%ADD13C,3.987800*%
%ADD14C,3.000000*%
%ADD15R,2.550000X2.500000*%
%ADD16R,1.700000X1.700000*%
%ADD17O,1.700000X1.700000*%
%ADD18R,1.800000X1.800000*%
%ADD19C,1.800000*%
%ADD20C,3.048000*%
%ADD21R,1.200000X0.900000*%
%ADD22R,0.900000X1.200000*%
%ADD23RoundRect,0.225000X-0.250000X0.225000X-0.250000X-0.225000X0.250000X-0.225000X0.250000X0.225000X0*%
%ADD24RoundRect,0.200000X-0.275000X0.200000X-0.275000X-0.200000X0.275000X-0.200000X0.275000X0.200000X0*%
%ADD25RoundRect,0.250000X0.450000X-0.262500X0.450000X0.262500X-0.450000X0.262500X-0.450000X-0.262500X0*%
%ADD26R,1.200000X1.400000*%
%ADD27RoundRect,0.225000X-0.225000X-0.250000X0.225000X-0.250000X0.225000X0.250000X-0.225000X0.250000X0*%
%ADD28RoundRect,0.200000X0.275000X-0.200000X0.275000X0.200000X-0.275000X0.200000X-0.275000X-0.200000X0*%
%ADD29RoundRect,0.250000X-0.262500X-0.450000X0.262500X-0.450000X0.262500X0.450000X-0.262500X0.450000X0*%
%ADD30RoundRect,0.225000X0.225000X0.250000X-0.225000X0.250000X-0.225000X-0.250000X0.225000X-0.250000X0*%
%ADD31C,0.650000*%
%ADD32R,0.600000X1.450000*%
%ADD33R,0.300000X1.450000*%
%ADD34O,1.000000X2.100000*%
%ADD35O,1.000000X1.600000*%
%ADD36RoundRect,0.062500X-0.062500X0.475000X-0.062500X-0.475000X0.062500X-0.475000X0.062500X0.475000X0*%
%ADD37RoundRect,0.062500X-0.475000X0.062500X-0.475000X-0.062500X0.475000X-0.062500X0.475000X0.062500X0*%
%ADD38R,5.200000X5.200000*%
%ADD39RoundRect,0.200000X0.200000X0.275000X-0.200000X0.275000X-0.200000X-0.275000X0.200000X-0.275000X0*%
%ADD40RoundRect,0.200000X-0.200000X-0.275000X0.200000X-0.275000X0.200000X0.275000X-0.200000X0.275000X0*%
%ADD41RoundRect,0.050000X0.350000X-0.500000X0.350000X0.500000X-0.350000X0.500000X-0.350000X-0.500000X0*%
%ADD42RoundRect,0.050000X0.350000X-0.300000X0.350000X0.300000X-0.350000X0.300000X-0.350000X-0.300000X0*%
%ADD43RoundRect,0.250000X-0.625000X0.375000X-0.625000X-0.375000X0.625000X-0.375000X0.625000X0.375000X0*%
G04 APERTURE END LIST*
D10*
X255315476Y-86182380D02*
X255791666Y-86182380D01*
X255839285Y-86658571D01*
X255791666Y-86610952D01*
X255696428Y-86563333D01*
X255458333Y-86563333D01*
X255363095Y-86610952D01*
X255315476Y-86658571D01*
X255267857Y-86753809D01*
X255267857Y-86991904D01*
X255315476Y-87087142D01*
X255363095Y-87134761D01*
X255458333Y-87182380D01*
X255696428Y-87182380D01*
X255791666Y-87134761D01*
X255839285Y-87087142D01*
X254982142Y-86182380D02*
X254648809Y-87182380D01*
X254315476Y-86182380D01*
X118609821Y-117247619D02*
X118562202Y-117200000D01*
X118466964Y-117152380D01*
X118228869Y-117152380D01*
X118133630Y-117200000D01*
X118086011Y-117247619D01*
X118038392Y-117342857D01*
X118038392Y-117438095D01*
X118086011Y-117580952D01*
X118657440Y-118152380D01*
X118038392Y-118152380D01*
X117609821Y-118057142D02*
X117562202Y-118104761D01*
X117609821Y-118152380D01*
X117657440Y-118104761D01*
X117609821Y-118057142D01*
X117609821Y-118152380D01*
X117228869Y-117152380D02*
X116562202Y-117152380D01*
X116990773Y-118152380D01*
X115705059Y-117152380D02*
X116181250Y-117152380D01*
X116228869Y-117628571D01*
X116181250Y-117580952D01*
X116086011Y-117533333D01*
X115847916Y-117533333D01*
X115752678Y-117580952D01*
X115705059Y-117628571D01*
X115657440Y-117723809D01*
X115657440Y-117961904D01*
X115705059Y-118057142D01*
X115752678Y-118104761D01*
X115847916Y-118152380D01*
X116086011Y-118152380D01*
X116181250Y-118104761D01*
X116228869Y-118057142D01*
X114800297Y-117485714D02*
X114800297Y-118152380D01*
X115228869Y-117485714D02*
X115228869Y-118009523D01*
X115181250Y-118104761D01*
X115086011Y-118152380D01*
X114943154Y-118152380D01*
X114847916Y-118104761D01*
X114800297Y-118057142D01*
X166234821Y-117247619D02*
X166187202Y-117200000D01*
X166091964Y-117152380D01*
X165853869Y-117152380D01*
X165758630Y-117200000D01*
X165711011Y-117247619D01*
X165663392Y-117342857D01*
X165663392Y-117438095D01*
X165711011Y-117580952D01*
X166282440Y-118152380D01*
X165663392Y-118152380D01*
X165234821Y-118057142D02*
X165187202Y-118104761D01*
X165234821Y-118152380D01*
X165282440Y-118104761D01*
X165234821Y-118057142D01*
X165234821Y-118152380D01*
X164806250Y-117247619D02*
X164758630Y-117200000D01*
X164663392Y-117152380D01*
X164425297Y-117152380D01*
X164330059Y-117200000D01*
X164282440Y-117247619D01*
X164234821Y-117342857D01*
X164234821Y-117438095D01*
X164282440Y-117580952D01*
X164853869Y-118152380D01*
X164234821Y-118152380D01*
X163330059Y-117152380D02*
X163806250Y-117152380D01*
X163853869Y-117628571D01*
X163806250Y-117580952D01*
X163711011Y-117533333D01*
X163472916Y-117533333D01*
X163377678Y-117580952D01*
X163330059Y-117628571D01*
X163282440Y-117723809D01*
X163282440Y-117961904D01*
X163330059Y-118057142D01*
X163377678Y-118104761D01*
X163472916Y-118152380D01*
X163711011Y-118152380D01*
X163806250Y-118104761D01*
X163853869Y-118057142D01*
X162425297Y-117485714D02*
X162425297Y-118152380D01*
X162853869Y-117485714D02*
X162853869Y-118009523D01*
X162806250Y-118104761D01*
X162711011Y-118152380D01*
X162568154Y-118152380D01*
X162472916Y-118104761D01*
X162425297Y-118057142D01*
X45845238Y-122452380D02*
X45845238Y-121452380D01*
X45845238Y-122404761D02*
X45940476Y-122452380D01*
X46130952Y-122452380D01*
X46226190Y-122404761D01*
X46273809Y-122357142D01*
X46321428Y-122261904D01*
X46321428Y-121976190D01*
X46273809Y-121880952D01*
X46226190Y-121833333D01*
X46130952Y-121785714D01*
X45940476Y-121785714D01*
X45845238Y-121833333D01*
X44988095Y-122404761D02*
X45083333Y-122452380D01*
X45273809Y-122452380D01*
X45369047Y-122404761D01*
X45416666Y-122309523D01*
X45416666Y-121928571D01*
X45369047Y-121833333D01*
X45273809Y-121785714D01*
X45083333Y-121785714D01*
X44988095Y-121833333D01*
X44940476Y-121928571D01*
X44940476Y-122023809D01*
X45416666Y-122119047D01*
X44559523Y-122404761D02*
X44464285Y-122452380D01*
X44273809Y-122452380D01*
X44178571Y-122404761D01*
X44130952Y-122309523D01*
X44130952Y-122261904D01*
X44178571Y-122166666D01*
X44273809Y-122119047D01*
X44416666Y-122119047D01*
X44511904Y-122071428D01*
X44559523Y-121976190D01*
X44559523Y-121928571D01*
X44511904Y-121833333D01*
X44416666Y-121785714D01*
X44273809Y-121785714D01*
X44178571Y-121833333D01*
X43702380Y-122452380D02*
X43702380Y-121785714D01*
X43702380Y-121452380D02*
X43750000Y-121500000D01*
X43702380Y-121547619D01*
X43654761Y-121500000D01*
X43702380Y-121452380D01*
X43702380Y-121547619D01*
X42797619Y-121785714D02*
X42797619Y-122595238D01*
X42845238Y-122690476D01*
X42892857Y-122738095D01*
X42988095Y-122785714D01*
X43130952Y-122785714D01*
X43226190Y-122738095D01*
X42797619Y-122404761D02*
X42892857Y-122452380D01*
X43083333Y-122452380D01*
X43178571Y-122404761D01*
X43226190Y-122357142D01*
X43273809Y-122261904D01*
X43273809Y-121976190D01*
X43226190Y-121880952D01*
X43178571Y-121833333D01*
X43083333Y-121785714D01*
X42892857Y-121785714D01*
X42797619Y-121833333D01*
X42321428Y-121785714D02*
X42321428Y-122452380D01*
X42321428Y-121880952D02*
X42273809Y-121833333D01*
X42178571Y-121785714D01*
X42035714Y-121785714D01*
X41940476Y-121833333D01*
X41892857Y-121928571D01*
X41892857Y-122452380D01*
X41035714Y-122404761D02*
X41130952Y-122452380D01*
X41321428Y-122452380D01*
X41416666Y-122404761D01*
X41464285Y-122309523D01*
X41464285Y-121928571D01*
X41416666Y-121833333D01*
X41321428Y-121785714D01*
X41130952Y-121785714D01*
X41035714Y-121833333D01*
X40988095Y-121928571D01*
X40988095Y-122023809D01*
X41464285Y-122119047D01*
X40130952Y-122452380D02*
X40130952Y-121452380D01*
X40130952Y-122404761D02*
X40226190Y-122452380D01*
X40416666Y-122452380D01*
X40511904Y-122404761D01*
X40559523Y-122357142D01*
X40607142Y-122261904D01*
X40607142Y-121976190D01*
X40559523Y-121880952D01*
X40511904Y-121833333D01*
X40416666Y-121785714D01*
X40226190Y-121785714D01*
X40130952Y-121833333D01*
X38892857Y-122452380D02*
X38892857Y-121452380D01*
X38892857Y-121833333D02*
X38797619Y-121785714D01*
X38607142Y-121785714D01*
X38511904Y-121833333D01*
X38464285Y-121880952D01*
X38416666Y-121976190D01*
X38416666Y-122261904D01*
X38464285Y-122357142D01*
X38511904Y-122404761D01*
X38607142Y-122452380D01*
X38797619Y-122452380D01*
X38892857Y-122404761D01*
X38083333Y-121785714D02*
X37845238Y-122452380D01*
X37607142Y-121785714D02*
X37845238Y-122452380D01*
X37940476Y-122690476D01*
X37988095Y-122738095D01*
X38083333Y-122785714D01*
X36464285Y-122452380D02*
X36464285Y-121452380D01*
X36130952Y-122166666D01*
X35797619Y-121452380D01*
X35797619Y-122452380D01*
X34892857Y-122452380D02*
X34892857Y-121928571D01*
X34940476Y-121833333D01*
X35035714Y-121785714D01*
X35226190Y-121785714D01*
X35321428Y-121833333D01*
X34892857Y-122404761D02*
X34988095Y-122452380D01*
X35226190Y-122452380D01*
X35321428Y-122404761D01*
X35369047Y-122309523D01*
X35369047Y-122214285D01*
X35321428Y-122119047D01*
X35226190Y-122071428D01*
X34988095Y-122071428D01*
X34892857Y-122023809D01*
X34511904Y-121785714D02*
X34273809Y-122452380D01*
X34035714Y-121785714D02*
X34273809Y-122452380D01*
X34369047Y-122690476D01*
X34416666Y-122738095D01*
X34511904Y-122785714D01*
X33226190Y-122452380D02*
X33226190Y-121928571D01*
X33273809Y-121833333D01*
X33369047Y-121785714D01*
X33559523Y-121785714D01*
X33654761Y-121833333D01*
X33226190Y-122404761D02*
X33321428Y-122452380D01*
X33559523Y-122452380D01*
X33654761Y-122404761D01*
X33702380Y-122309523D01*
X33702380Y-122214285D01*
X33654761Y-122119047D01*
X33559523Y-122071428D01*
X33321428Y-122071428D01*
X33226190Y-122023809D01*
X32750000Y-121785714D02*
X32750000Y-122452380D01*
X32750000Y-121880952D02*
X32702380Y-121833333D01*
X32607142Y-121785714D01*
X32464285Y-121785714D01*
X32369047Y-121833333D01*
X32321428Y-121928571D01*
X32321428Y-122452380D01*
X31702380Y-122452380D02*
X31797619Y-122404761D01*
X31845238Y-122357142D01*
X31892857Y-122261904D01*
X31892857Y-121976190D01*
X31845238Y-121880952D01*
X31797619Y-121833333D01*
X31702380Y-121785714D01*
X31559523Y-121785714D01*
X31464285Y-121833333D01*
X31416666Y-121880952D01*
X31369047Y-121976190D01*
X31369047Y-122261904D01*
X31416666Y-122357142D01*
X31464285Y-122404761D01*
X31559523Y-122452380D01*
X31702380Y-122452380D01*
X30226190Y-122404761D02*
X30083333Y-122452380D01*
X29845238Y-122452380D01*
X29750000Y-122404761D01*
X29702380Y-122357142D01*
X29654761Y-122261904D01*
X29654761Y-122166666D01*
X29702380Y-122071428D01*
X29750000Y-122023809D01*
X29845238Y-121976190D01*
X30035714Y-121928571D01*
X30130952Y-121880952D01*
X30178571Y-121833333D01*
X30226190Y-121738095D01*
X30226190Y-121642857D01*
X30178571Y-121547619D01*
X30130952Y-121500000D01*
X30035714Y-121452380D01*
X29797619Y-121452380D01*
X29654761Y-121500000D01*
X29226190Y-122452380D02*
X29226190Y-121452380D01*
X28797619Y-122452380D02*
X28797619Y-121928571D01*
X28845238Y-121833333D01*
X28940476Y-121785714D01*
X29083333Y-121785714D01*
X29178571Y-121833333D01*
X29226190Y-121880952D01*
X28321428Y-122452380D02*
X28321428Y-121785714D01*
X28321428Y-121452380D02*
X28369047Y-121500000D01*
X28321428Y-121547619D01*
X28273809Y-121500000D01*
X28321428Y-121452380D01*
X28321428Y-121547619D01*
X27845238Y-121785714D02*
X27845238Y-122452380D01*
X27845238Y-121880952D02*
X27797619Y-121833333D01*
X27702380Y-121785714D01*
X27559523Y-121785714D01*
X27464285Y-121833333D01*
X27416666Y-121928571D01*
X27416666Y-122452380D01*
X26940476Y-122452380D02*
X26940476Y-121452380D01*
X26845238Y-122071428D02*
X26559523Y-122452380D01*
X26559523Y-121785714D02*
X26940476Y-122166666D01*
X25702380Y-122452380D02*
X25702380Y-121928571D01*
X25750000Y-121833333D01*
X25845238Y-121785714D01*
X26035714Y-121785714D01*
X26130952Y-121833333D01*
X25702380Y-122404761D02*
X25797619Y-122452380D01*
X26035714Y-122452380D01*
X26130952Y-122404761D01*
X26178571Y-122309523D01*
X26178571Y-122214285D01*
X26130952Y-122119047D01*
X26035714Y-122071428D01*
X25797619Y-122071428D01*
X25702380Y-122023809D01*
X25226190Y-122452380D02*
X25226190Y-121785714D01*
X25226190Y-121452380D02*
X25273809Y-121500000D01*
X25226190Y-121547619D01*
X25178571Y-121500000D01*
X25226190Y-121452380D01*
X25226190Y-121547619D01*
X265321428Y-122452380D02*
X265321428Y-121785714D01*
X265321428Y-121976190D02*
X265273809Y-121880952D01*
X265226190Y-121833333D01*
X265130952Y-121785714D01*
X265035714Y-121785714D01*
X264321428Y-122404761D02*
X264416666Y-122452380D01*
X264607142Y-122452380D01*
X264702380Y-122404761D01*
X264750000Y-122309523D01*
X264750000Y-121928571D01*
X264702380Y-121833333D01*
X264607142Y-121785714D01*
X264416666Y-121785714D01*
X264321428Y-121833333D01*
X264273809Y-121928571D01*
X264273809Y-122023809D01*
X264750000Y-122119047D01*
X263940476Y-121785714D02*
X263702380Y-122452380D01*
X263464285Y-121785714D01*
X262559523Y-122452380D02*
X263130952Y-122452380D01*
X262845238Y-122452380D02*
X262845238Y-121452380D01*
X262940476Y-121595238D01*
X263035714Y-121690476D01*
X263130952Y-121738095D01*
X262130952Y-122357142D02*
X262083333Y-122404761D01*
X262130952Y-122452380D01*
X262178571Y-122404761D01*
X262130952Y-122357142D01*
X262130952Y-122452380D01*
X261464285Y-121452380D02*
X261369047Y-121452380D01*
X261273809Y-121500000D01*
X261226190Y-121547619D01*
X261178571Y-121642857D01*
X261130952Y-121833333D01*
X261130952Y-122071428D01*
X261178571Y-122261904D01*
X261226190Y-122357142D01*
X261273809Y-122404761D01*
X261369047Y-122452380D01*
X261464285Y-122452380D01*
X261559523Y-122404761D01*
X261607142Y-122357142D01*
X261654761Y-122261904D01*
X261702380Y-122071428D01*
X261702380Y-121833333D01*
X261654761Y-121642857D01*
X261607142Y-121547619D01*
X261559523Y-121500000D01*
X261464285Y-121452380D01*
X199000892Y-118152380D02*
X199572321Y-118152380D01*
X199286607Y-118152380D02*
X199286607Y-117152380D01*
X199381845Y-117295238D01*
X199477083Y-117390476D01*
X199572321Y-117438095D01*
X198572321Y-118057142D02*
X198524702Y-118104761D01*
X198572321Y-118152380D01*
X198619940Y-118104761D01*
X198572321Y-118057142D01*
X198572321Y-118152380D01*
X198143750Y-117247619D02*
X198096130Y-117200000D01*
X198000892Y-117152380D01*
X197762797Y-117152380D01*
X197667559Y-117200000D01*
X197619940Y-117247619D01*
X197572321Y-117342857D01*
X197572321Y-117438095D01*
X197619940Y-117580952D01*
X198191369Y-118152380D01*
X197572321Y-118152380D01*
X196667559Y-117152380D02*
X197143750Y-117152380D01*
X197191369Y-117628571D01*
X197143750Y-117580952D01*
X197048511Y-117533333D01*
X196810416Y-117533333D01*
X196715178Y-117580952D01*
X196667559Y-117628571D01*
X196619940Y-117723809D01*
X196619940Y-117961904D01*
X196667559Y-118057142D01*
X196715178Y-118104761D01*
X196810416Y-118152380D01*
X197048511Y-118152380D01*
X197143750Y-118104761D01*
X197191369Y-118057142D01*
X195762797Y-117485714D02*
X195762797Y-118152380D01*
X196191369Y-117485714D02*
X196191369Y-118009523D01*
X196143750Y-118104761D01*
X196048511Y-118152380D01*
X195905654Y-118152380D01*
X195810416Y-118104761D01*
X195762797Y-118057142D01*
X41979761Y-65152380D02*
X41979761Y-64152380D01*
X41979761Y-64628571D02*
X41408333Y-64628571D01*
X41408333Y-65152380D02*
X41408333Y-64152380D01*
X40503571Y-64485714D02*
X40503571Y-65152380D01*
X40932142Y-64485714D02*
X40932142Y-65009523D01*
X40884523Y-65104761D01*
X40789285Y-65152380D01*
X40646428Y-65152380D01*
X40551190Y-65104761D01*
X40503571Y-65057142D01*
X39884523Y-65152380D02*
X39979761Y-65104761D01*
X40027380Y-65009523D01*
X40027380Y-64152380D01*
X39360714Y-65152380D02*
X39455952Y-65104761D01*
X39503571Y-65009523D01*
X39503571Y-64152380D01*
X37741666Y-65152380D02*
X38217857Y-65152380D01*
X38217857Y-64152380D01*
X37408333Y-64628571D02*
X37075000Y-64628571D01*
X36932142Y-65152380D02*
X37408333Y-65152380D01*
X37408333Y-64152380D01*
X36932142Y-64152380D01*
X36503571Y-65152380D02*
X36503571Y-64152380D01*
X36265476Y-64152380D01*
X36122619Y-64200000D01*
X36027380Y-64295238D01*
X35979761Y-64390476D01*
X35932142Y-64580952D01*
X35932142Y-64723809D01*
X35979761Y-64914285D01*
X36027380Y-65009523D01*
X36122619Y-65104761D01*
X36265476Y-65152380D01*
X36503571Y-65152380D01*
X35551190Y-65104761D02*
X35455952Y-65152380D01*
X35265476Y-65152380D01*
X35170238Y-65104761D01*
X35122619Y-65009523D01*
X35122619Y-64961904D01*
X35170238Y-64866666D01*
X35265476Y-64819047D01*
X35408333Y-64819047D01*
X35503571Y-64771428D01*
X35551190Y-64676190D01*
X35551190Y-64628571D01*
X35503571Y-64533333D01*
X35408333Y-64485714D01*
X35265476Y-64485714D01*
X35170238Y-64533333D01*
X30543095Y-97852380D02*
X30876428Y-97376190D01*
X31114523Y-97852380D02*
X31114523Y-96852380D01*
X30733571Y-96852380D01*
X30638333Y-96900000D01*
X30590714Y-96947619D01*
X30543095Y-97042857D01*
X30543095Y-97185714D01*
X30590714Y-97280952D01*
X30638333Y-97328571D01*
X30733571Y-97376190D01*
X31114523Y-97376190D01*
X29733571Y-97804761D02*
X29828809Y-97852380D01*
X30019285Y-97852380D01*
X30114523Y-97804761D01*
X30162142Y-97709523D01*
X30162142Y-97328571D01*
X30114523Y-97233333D01*
X30019285Y-97185714D01*
X29828809Y-97185714D01*
X29733571Y-97233333D01*
X29685952Y-97328571D01*
X29685952Y-97423809D01*
X30162142Y-97519047D01*
X29305000Y-97804761D02*
X29209761Y-97852380D01*
X29019285Y-97852380D01*
X28924047Y-97804761D01*
X28876428Y-97709523D01*
X28876428Y-97661904D01*
X28924047Y-97566666D01*
X29019285Y-97519047D01*
X29162142Y-97519047D01*
X29257380Y-97471428D01*
X29305000Y-97376190D01*
X29305000Y-97328571D01*
X29257380Y-97233333D01*
X29162142Y-97185714D01*
X29019285Y-97185714D01*
X28924047Y-97233333D01*
X28066904Y-97804761D02*
X28162142Y-97852380D01*
X28352619Y-97852380D01*
X28447857Y-97804761D01*
X28495476Y-97709523D01*
X28495476Y-97328571D01*
X28447857Y-97233333D01*
X28352619Y-97185714D01*
X28162142Y-97185714D01*
X28066904Y-97233333D01*
X28019285Y-97328571D01*
X28019285Y-97423809D01*
X28495476Y-97519047D01*
X27733571Y-97185714D02*
X27352619Y-97185714D01*
X27590714Y-96852380D02*
X27590714Y-97709523D01*
X27543095Y-97804761D01*
X27447857Y-97852380D01*
X27352619Y-97852380D01*
X256411904Y-81150000D02*
X256507142Y-81102380D01*
X256650000Y-81102380D01*
X256792857Y-81150000D01*
X256888095Y-81245238D01*
X256935714Y-81340476D01*
X256983333Y-81530952D01*
X256983333Y-81673809D01*
X256935714Y-81864285D01*
X256888095Y-81959523D01*
X256792857Y-82054761D01*
X256650000Y-82102380D01*
X256554761Y-82102380D01*
X256411904Y-82054761D01*
X256364285Y-82007142D01*
X256364285Y-81673809D01*
X256554761Y-81673809D01*
X255935714Y-82102380D02*
X255935714Y-81102380D01*
X255364285Y-82102380D01*
X255364285Y-81102380D01*
X254888095Y-82102380D02*
X254888095Y-81102380D01*
X254650000Y-81102380D01*
X254507142Y-81150000D01*
X254411904Y-81245238D01*
X254364285Y-81340476D01*
X254316666Y-81530952D01*
X254316666Y-81673809D01*
X254364285Y-81864285D01*
X254411904Y-81959523D01*
X254507142Y-82054761D01*
X254650000Y-82102380D01*
X254888095Y-82102380D01*
X255838095Y-84642380D02*
X255838095Y-83642380D01*
X255600000Y-83642380D01*
X255457142Y-83690000D01*
X255361904Y-83785238D01*
X255314285Y-83880476D01*
X255266666Y-84070952D01*
X255266666Y-84213809D01*
X255314285Y-84404285D01*
X255361904Y-84499523D01*
X255457142Y-84594761D01*
X255600000Y-84642380D01*
X255838095Y-84642380D01*
X254314285Y-84642380D02*
X254885714Y-84642380D01*
X254600000Y-84642380D02*
X254600000Y-83642380D01*
X254695238Y-83785238D01*
X254790476Y-83880476D01*
X254885714Y-83928095D01*
X151270982Y-117152380D02*
X151461459Y-117152380D01*
X151556697Y-117200000D01*
X151604316Y-117247619D01*
X151699554Y-117390476D01*
X151747173Y-117580952D01*
X151747173Y-117961904D01*
X151699554Y-118057142D01*
X151651935Y-118104761D01*
X151556697Y-118152380D01*
X151366221Y-118152380D01*
X151270982Y-118104761D01*
X151223363Y-118057142D01*
X151175744Y-117961904D01*
X151175744Y-117723809D01*
X151223363Y-117628571D01*
X151270982Y-117580952D01*
X151366221Y-117533333D01*
X151556697Y-117533333D01*
X151651935Y-117580952D01*
X151699554Y-117628571D01*
X151747173Y-117723809D01*
X150747173Y-118057142D02*
X150699554Y-118104761D01*
X150747173Y-118152380D01*
X150794792Y-118104761D01*
X150747173Y-118057142D01*
X150747173Y-118152380D01*
X150318602Y-117247619D02*
X150270982Y-117200000D01*
X150175744Y-117152380D01*
X149937649Y-117152380D01*
X149842411Y-117200000D01*
X149794792Y-117247619D01*
X149747173Y-117342857D01*
X149747173Y-117438095D01*
X149794792Y-117580952D01*
X150366221Y-118152380D01*
X149747173Y-118152380D01*
X148842411Y-117152380D02*
X149318602Y-117152380D01*
X149366221Y-117628571D01*
X149318602Y-117580952D01*
X149223363Y-117533333D01*
X148985268Y-117533333D01*
X148890030Y-117580952D01*
X148842411Y-117628571D01*
X148794792Y-117723809D01*
X148794792Y-117961904D01*
X148842411Y-118057142D01*
X148890030Y-118104761D01*
X148985268Y-118152380D01*
X149223363Y-118152380D01*
X149318602Y-118104761D01*
X149366221Y-118057142D01*
X147937649Y-117485714D02*
X147937649Y-118152380D01*
X148366221Y-117485714D02*
X148366221Y-118009523D01*
X148318602Y-118104761D01*
X148223363Y-118152380D01*
X148080506Y-118152380D01*
X147985268Y-118104761D01*
X147937649Y-118057142D01*
X41445833Y-68578571D02*
X41779166Y-68578571D01*
X41779166Y-69102380D02*
X41779166Y-68102380D01*
X41302976Y-68102380D01*
X40493452Y-68435714D02*
X40493452Y-69102380D01*
X40731547Y-68054761D02*
X40969642Y-68769047D01*
X40350595Y-68769047D01*
D11*
X160650000Y-80050000D02*
X160650000Y-76150000D01*
X160650000Y-80050000D02*
X158650000Y-80050000D01*
X158650000Y-80050000D02*
X158650000Y-76150000D01*
X40920000Y-45101000D02*
X37020000Y-45101000D01*
X40920000Y-45101000D02*
X40920000Y-47101000D01*
X40920000Y-47101000D02*
X37020000Y-47101000D01*
X152125000Y-118300000D02*
X152125000Y-114400000D01*
X154125000Y-118300000D02*
X154125000Y-114400000D01*
X154125000Y-118300000D02*
X152125000Y-118300000D01*
X46800000Y-99250000D02*
X46800000Y-95350000D01*
X48800000Y-99250000D02*
X48800000Y-95350000D01*
X48800000Y-99250000D02*
X46800000Y-99250000D01*
X120550000Y-80050000D02*
X120550000Y-76150000D01*
X122550000Y-80050000D02*
X122550000Y-76150000D01*
X122550000Y-80050000D02*
X120550000Y-80050000D01*
X227400000Y-99250000D02*
X227400000Y-95350000D01*
X225400000Y-99250000D02*
X225400000Y-95350000D01*
X227400000Y-99250000D02*
X225400000Y-99250000D01*
X148840000Y-105559420D02*
X148840000Y-105840580D01*
X149860000Y-105559420D02*
X149860000Y-105840580D01*
X189300000Y-99250000D02*
X189300000Y-95350000D01*
X187300000Y-99250000D02*
X187300000Y-95350000D01*
X189300000Y-99250000D02*
X187300000Y-99250000D01*
X58672500Y-31262742D02*
X58672500Y-31737258D01*
X57627500Y-31262742D02*
X57627500Y-31737258D01*
X246450000Y-99250000D02*
X244450000Y-99250000D01*
X244450000Y-99250000D02*
X244450000Y-95350000D01*
X246450000Y-99250000D02*
X246450000Y-95350000D01*
X84450000Y-80050000D02*
X84450000Y-76150000D01*
X82450000Y-80050000D02*
X82450000Y-76150000D01*
X84450000Y-80050000D02*
X82450000Y-80050000D01*
X94335000Y-58239564D02*
X94335000Y-57785436D01*
X92865000Y-58239564D02*
X92865000Y-57785436D01*
X136850000Y-61000000D02*
X134850000Y-61000000D01*
X134850000Y-61000000D02*
X134850000Y-57100000D01*
X136850000Y-61000000D02*
X136850000Y-57100000D01*
X125100000Y-118300000D02*
X123100000Y-118300000D01*
X125100000Y-118300000D02*
X125100000Y-114400000D01*
X123100000Y-118300000D02*
X123100000Y-114400000D01*
X172750000Y-118300000D02*
X170750000Y-118300000D01*
X170750000Y-118300000D02*
X170750000Y-114400000D01*
X172750000Y-118300000D02*
X172750000Y-114400000D01*
X145275000Y-107074450D02*
X145275000Y-103074450D01*
X148575000Y-107074450D02*
X145275000Y-107074450D01*
X246450000Y-118300000D02*
X244450000Y-118300000D01*
X244450000Y-118300000D02*
X244450000Y-114400000D01*
X246450000Y-118300000D02*
X246450000Y-114400000D01*
X47010000Y-31359420D02*
X47010000Y-31640580D01*
X45990000Y-31359420D02*
X45990000Y-31640580D01*
X236850000Y-80050000D02*
X234850000Y-80050000D01*
X234850000Y-80050000D02*
X234850000Y-76150000D01*
X236850000Y-80050000D02*
X236850000Y-76150000D01*
X136402500Y-100859420D02*
X136402500Y-101140580D01*
X137422500Y-100859420D02*
X137422500Y-101140580D01*
X227400000Y-118300000D02*
X225400000Y-118300000D01*
X225400000Y-118300000D02*
X225400000Y-114400000D01*
X227400000Y-118300000D02*
X227400000Y-114400000D01*
X206000000Y-118300000D02*
X204000000Y-118300000D01*
X204000000Y-118300000D02*
X204000000Y-114400000D01*
X206000000Y-118300000D02*
X206000000Y-114400000D01*
X265500000Y-99250000D02*
X265500000Y-95350000D01*
X263500000Y-99250000D02*
X263500000Y-95350000D01*
X265500000Y-99250000D02*
X263500000Y-99250000D01*
X60650000Y-61000000D02*
X60650000Y-57100000D01*
X60650000Y-61000000D02*
X58650000Y-61000000D01*
X58650000Y-61000000D02*
X58650000Y-57100000D01*
X103500000Y-80050000D02*
X103500000Y-76150000D01*
X103500000Y-80050000D02*
X101500000Y-80050000D01*
X101500000Y-80050000D02*
X101500000Y-76150000D01*
X217800000Y-80050000D02*
X217800000Y-76150000D01*
X215800000Y-80050000D02*
X215800000Y-76150000D01*
X217800000Y-80050000D02*
X215800000Y-80050000D01*
X192000000Y-61000000D02*
X192000000Y-57100000D01*
X194000000Y-61000000D02*
X194000000Y-57100000D01*
X194000000Y-61000000D02*
X192000000Y-61000000D01*
X149200000Y-99250000D02*
X149200000Y-95350000D01*
X151200000Y-99250000D02*
X151200000Y-95350000D01*
X151200000Y-99250000D02*
X149200000Y-99250000D01*
X155900000Y-61000000D02*
X155900000Y-57100000D01*
X153900000Y-61000000D02*
X153900000Y-57100000D01*
X155900000Y-61000000D02*
X153900000Y-61000000D01*
X139809420Y-111290000D02*
X140090580Y-111290000D01*
X139809420Y-112310000D02*
X140090580Y-112310000D01*
X44000000Y-118300000D02*
X44000000Y-114400000D01*
X42000000Y-118300000D02*
X42000000Y-114400000D01*
X44000000Y-118300000D02*
X42000000Y-118300000D01*
X232100000Y-61000000D02*
X232100000Y-57100000D01*
X230100000Y-61000000D02*
X230100000Y-57100000D01*
X232100000Y-61000000D02*
X230100000Y-61000000D01*
X47022500Y-34737258D02*
X47022500Y-34262742D01*
X45977500Y-34737258D02*
X45977500Y-34262742D01*
X96750000Y-61000000D02*
X96750000Y-57100000D01*
X98750000Y-61000000D02*
X96750000Y-61000000D01*
X98750000Y-61000000D02*
X98750000Y-57100000D01*
X174950000Y-61000000D02*
X174950000Y-57100000D01*
X172950000Y-61000000D02*
X172950000Y-57100000D01*
X174950000Y-61000000D02*
X172950000Y-61000000D01*
X179700000Y-80050000D02*
X179700000Y-76150000D01*
X179700000Y-80050000D02*
X177700000Y-80050000D01*
X177700000Y-80050000D02*
X177700000Y-76150000D01*
X42000000Y-80050000D02*
X42000000Y-76150000D01*
X44000000Y-80050000D02*
X42000000Y-80050000D01*
X44000000Y-80050000D02*
X44000000Y-76150000D01*
X111100000Y-99250000D02*
X111100000Y-95350000D01*
X113100000Y-99250000D02*
X111100000Y-99250000D01*
X113100000Y-99250000D02*
X113100000Y-95350000D01*
X75000000Y-99250000D02*
X75000000Y-95350000D01*
X75000000Y-99250000D02*
X73000000Y-99250000D01*
X73000000Y-99250000D02*
X73000000Y-95350000D01*
X32157936Y-33809000D02*
X32612064Y-33809000D01*
X32157936Y-35279000D02*
X32612064Y-35279000D01*
X263500000Y-118300000D02*
X263500000Y-114400000D01*
X265500000Y-118300000D02*
X265500000Y-114400000D01*
X265500000Y-118300000D02*
X263500000Y-118300000D01*
X108250000Y-42000000D02*
X108250000Y-38100000D01*
X106250000Y-42000000D02*
X106250000Y-38100000D01*
X108250000Y-42000000D02*
X106250000Y-42000000D01*
X63400000Y-80050000D02*
X63400000Y-76150000D01*
X65400000Y-80050000D02*
X63400000Y-80050000D01*
X65400000Y-80050000D02*
X65400000Y-76150000D01*
X58340000Y-47100000D02*
X62240000Y-47100000D01*
X58340000Y-45100000D02*
X62240000Y-45100000D01*
X58340000Y-47100000D02*
X58340000Y-45100000D01*
X146350000Y-42000000D02*
X146350000Y-38100000D01*
X144350000Y-42000000D02*
X144350000Y-38100000D01*
X146350000Y-42000000D02*
X144350000Y-42000000D01*
X32157936Y-46836000D02*
X32612064Y-46836000D01*
X32157936Y-45366000D02*
X32612064Y-45366000D01*
X94050000Y-99250000D02*
X94050000Y-95350000D01*
X92050000Y-99250000D02*
X92050000Y-95350000D01*
X94050000Y-99250000D02*
X92050000Y-99250000D01*
X213050000Y-61000000D02*
X211050000Y-61000000D01*
X211050000Y-61000000D02*
X211050000Y-57100000D01*
X213050000Y-61000000D02*
X213050000Y-57100000D01*
X131390580Y-103040000D02*
X131109420Y-103040000D01*
X131390580Y-104060000D02*
X131109420Y-104060000D01*
X258412500Y-61000000D02*
X256412500Y-61000000D01*
X256412500Y-61000000D02*
X256412500Y-57100000D01*
X258412500Y-61000000D02*
X258412500Y-57100000D01*
X41600000Y-61000000D02*
X39600000Y-61000000D01*
X41600000Y-61000000D02*
X41600000Y-57100000D01*
X39600000Y-61000000D02*
X39600000Y-57100000D01*
X133740580Y-101190000D02*
X133459420Y-101190000D01*
X133740580Y-102210000D02*
X133459420Y-102210000D01*
X140460000Y-104065000D02*
X140460000Y-103340000D01*
X140460000Y-109835000D02*
X140460000Y-110560000D01*
X140460000Y-110560000D02*
X139735000Y-110560000D01*
X133240000Y-110560000D02*
X133965000Y-110560000D01*
X133240000Y-104065000D02*
X133240000Y-103340000D01*
X133240000Y-109835000D02*
X133240000Y-110560000D01*
X140460000Y-103340000D02*
X139735000Y-103340000D01*
X117800000Y-61000000D02*
X117800000Y-57100000D01*
X117800000Y-61000000D02*
X115800000Y-61000000D01*
X115800000Y-61000000D02*
X115800000Y-57100000D01*
X57627500Y-34737258D02*
X57627500Y-34262742D01*
X58672500Y-34737258D02*
X58672500Y-34262742D01*
X142687258Y-102877500D02*
X142212742Y-102877500D01*
X142687258Y-103922500D02*
X142212742Y-103922500D01*
X258750000Y-80050000D02*
X258750000Y-76150000D01*
X260750000Y-80050000D02*
X260750000Y-76150000D01*
X260750000Y-80050000D02*
X258750000Y-80050000D01*
X32157936Y-39397000D02*
X32612064Y-39397000D01*
X32157936Y-40867000D02*
X32612064Y-40867000D01*
X196750000Y-80050000D02*
X196750000Y-76150000D01*
X198750000Y-80050000D02*
X198750000Y-76150000D01*
X198750000Y-80050000D02*
X196750000Y-80050000D01*
X131390580Y-110860000D02*
X131109420Y-110860000D01*
X131390580Y-109840000D02*
X131109420Y-109840000D01*
X65400000Y-118300000D02*
X63400000Y-118300000D01*
X63400000Y-118300000D02*
X63400000Y-114400000D01*
X65400000Y-118300000D02*
X65400000Y-114400000D01*
X139600000Y-80050000D02*
X139600000Y-76150000D01*
X141600000Y-80050000D02*
X139600000Y-80050000D01*
X141600000Y-80050000D02*
X141600000Y-76150000D01*
X132762742Y-111287500D02*
X133237258Y-111287500D01*
X132762742Y-112332500D02*
X133237258Y-112332500D01*
X87000000Y-118300000D02*
X87000000Y-114400000D01*
X87000000Y-118300000D02*
X85000000Y-118300000D01*
X85000000Y-118300000D02*
X85000000Y-114400000D01*
X89250000Y-42000000D02*
X89250000Y-38100000D01*
X89250000Y-42000000D02*
X87250000Y-42000000D01*
X87250000Y-42000000D02*
X87250000Y-38100000D01*
X146784420Y-102760000D02*
X147065580Y-102760000D01*
X146784420Y-101740000D02*
X147065580Y-101740000D01*
X168250000Y-99250000D02*
X168250000Y-95350000D01*
X170250000Y-99250000D02*
X170250000Y-95350000D01*
X170250000Y-99250000D02*
X168250000Y-99250000D01*
X139140580Y-100760000D02*
X138859420Y-100760000D01*
X139140580Y-99740000D02*
X138859420Y-99740000D01*
X132150000Y-99250000D02*
X130150000Y-99250000D01*
X132150000Y-99250000D02*
X132150000Y-95350000D01*
X130150000Y-99250000D02*
X130150000Y-95350000D01*
X79700000Y-61000000D02*
X79700000Y-57100000D01*
X77700000Y-61000000D02*
X77700000Y-57100000D01*
X79700000Y-61000000D02*
X77700000Y-61000000D01*
D10*
X53124000Y-35150000D02*
X51524000Y-35150000D01*
X51124000Y-38350000D02*
X50824000Y-38350000D01*
X51524000Y-35150000D02*
X51524000Y-38350000D01*
X53124000Y-35150000D02*
X53124000Y-38350000D01*
X53124000Y-38350000D02*
X51524000Y-38350000D01*
D11*
X127300000Y-42000000D02*
X125300000Y-42000000D01*
X127300000Y-42000000D02*
X127300000Y-38100000D01*
X125300000Y-42000000D02*
X125300000Y-38100000D01*
X52414000Y-42577936D02*
X52414000Y-43782064D01*
X54234000Y-42577936D02*
X54234000Y-43782064D01*
X206350000Y-99250000D02*
X206350000Y-95350000D01*
X208350000Y-99250000D02*
X208350000Y-95350000D01*
X208350000Y-99250000D02*
X206350000Y-99250000D01*
%LPC*%
D12*
X95567500Y-57150000D03*
D13*
X90487500Y-57150000D03*
D12*
X85407500Y-57150000D03*
D14*
X93027500Y-52070000D03*
X86677500Y-54610000D03*
D15*
X83402500Y-54610000D03*
X96329500Y-52070000D03*
D12*
X109855000Y-95250000D03*
D13*
X104775000Y-95250000D03*
D12*
X99695000Y-95250000D03*
D14*
X100965000Y-92710000D03*
X107315000Y-90170000D03*
D15*
X97690000Y-92710000D03*
X110617000Y-90170000D03*
D14*
X234315000Y-92710000D03*
D12*
X233045000Y-95250000D03*
D14*
X240665000Y-90170000D03*
D12*
X243205000Y-95250000D03*
D13*
X238125000Y-95250000D03*
D15*
X231040000Y-92710000D03*
X243967000Y-90170000D03*
D12*
X252095000Y-95250000D03*
D14*
X253365000Y-92710000D03*
D12*
X262255000Y-95250000D03*
D13*
X257175000Y-95250000D03*
D14*
X259715000Y-90170000D03*
D15*
X250090000Y-92710000D03*
X263017000Y-90170000D03*
D12*
X30638750Y-76200000D03*
D14*
X38258750Y-71120000D03*
X31908750Y-73660000D03*
D12*
X40798750Y-76200000D03*
D13*
X35718750Y-76200000D03*
D15*
X28633750Y-73660000D03*
X41560750Y-71120000D03*
D14*
X74771250Y-111760000D03*
X81121250Y-109220000D03*
D13*
X78581250Y-114300000D03*
D12*
X83661250Y-114300000D03*
X73501250Y-114300000D03*
D15*
X71496250Y-111760000D03*
X84423250Y-109220000D03*
D12*
X228917500Y-57150000D03*
D14*
X220027500Y-54610000D03*
D13*
X223837500Y-57150000D03*
D12*
X218757500Y-57150000D03*
D14*
X226377500Y-52070000D03*
D15*
X216752500Y-54610000D03*
X229679500Y-52070000D03*
D14*
X196215000Y-92710000D03*
D12*
X194945000Y-95250000D03*
D13*
X200025000Y-95250000D03*
D12*
X205105000Y-95250000D03*
D14*
X202565000Y-90170000D03*
D15*
X192940000Y-92710000D03*
X205867000Y-90170000D03*
D12*
X152717500Y-57150000D03*
D14*
X150177500Y-52070000D03*
X143827500Y-54610000D03*
D13*
X147637500Y-57150000D03*
D12*
X142557500Y-57150000D03*
D15*
X140552500Y-54610000D03*
X153479500Y-52070000D03*
D12*
X157480000Y-76200000D03*
X147320000Y-76200000D03*
D14*
X148590000Y-73660000D03*
X154940000Y-71120000D03*
D13*
X152400000Y-76200000D03*
D15*
X145315000Y-73660000D03*
X158242000Y-71120000D03*
D13*
X119062500Y-38100000D03*
D12*
X124142500Y-38100000D03*
D14*
X115252500Y-35560000D03*
X121602500Y-33020000D03*
D12*
X113982500Y-38100000D03*
D15*
X111977500Y-35560000D03*
X124904500Y-33020000D03*
D13*
X100012500Y-38100000D03*
D14*
X102552500Y-33020000D03*
D12*
X94932500Y-38100000D03*
D14*
X96202500Y-35560000D03*
D12*
X105092500Y-38100000D03*
D15*
X92927500Y-35560000D03*
X105854500Y-33020000D03*
D14*
X120015000Y-92710000D03*
X126365000Y-90170000D03*
D13*
X123825000Y-95250000D03*
D12*
X118745000Y-95250000D03*
X128905000Y-95250000D03*
D15*
X116740000Y-92710000D03*
X129667000Y-90170000D03*
D14*
X46672500Y-40640000D03*
D13*
X42862500Y-38100000D03*
D12*
X37782500Y-38100000D03*
D14*
X40322500Y-43180000D03*
D12*
X47942500Y-38100000D03*
D15*
X49947500Y-40640000D03*
X37020500Y-43180000D03*
D12*
X185420000Y-76200000D03*
D14*
X193040000Y-71120000D03*
D12*
X195580000Y-76200000D03*
D14*
X186690000Y-73660000D03*
D13*
X190500000Y-76200000D03*
D15*
X183415000Y-73660000D03*
X196342000Y-71120000D03*
D12*
X233680000Y-76200000D03*
D14*
X224790000Y-73660000D03*
X231140000Y-71120000D03*
D12*
X223520000Y-76200000D03*
D13*
X228600000Y-76200000D03*
D15*
X221515000Y-73660000D03*
X234442000Y-71120000D03*
D12*
X133032500Y-38100000D03*
X143192500Y-38100000D03*
D14*
X140652500Y-33020000D03*
D13*
X138112500Y-38100000D03*
D14*
X134302500Y-35560000D03*
D15*
X131027500Y-35560000D03*
X143954500Y-33020000D03*
D14*
X59372500Y-43180000D03*
D12*
X66992500Y-38100000D03*
D14*
X65722500Y-40640000D03*
D13*
X61912500Y-38100000D03*
D12*
X56832500Y-38100000D03*
D15*
X68997500Y-40640000D03*
X56070500Y-43180000D03*
D12*
X81280000Y-76200000D03*
D14*
X72390000Y-73660000D03*
D12*
X71120000Y-76200000D03*
D13*
X76200000Y-76200000D03*
D14*
X78740000Y-71120000D03*
D15*
X69115000Y-73660000D03*
X82042000Y-71120000D03*
D12*
X180657500Y-57150000D03*
D14*
X181927500Y-54610000D03*
D12*
X190817500Y-57150000D03*
D13*
X185737500Y-57150000D03*
D14*
X188277500Y-52070000D03*
D15*
X178652500Y-54610000D03*
X191579500Y-52070000D03*
D16*
X252412500Y-81650000D03*
D17*
X252412500Y-84190000D03*
X252412500Y-86730000D03*
D18*
X26543000Y-31717000D03*
D19*
X29083000Y-31717000D03*
D13*
X180975000Y-95250000D03*
D12*
X175895000Y-95250000D03*
D14*
X183515000Y-90170000D03*
D12*
X186055000Y-95250000D03*
D14*
X177165000Y-92710000D03*
D15*
X173890000Y-92710000D03*
X186817000Y-90170000D03*
D14*
X36671250Y-92710000D03*
X43021250Y-90170000D03*
D13*
X40481250Y-95250000D03*
D12*
X45561250Y-95250000D03*
X35401250Y-95250000D03*
D15*
X33396250Y-92710000D03*
X46323250Y-90170000D03*
D14*
X59690000Y-71120000D03*
D12*
X52070000Y-76200000D03*
D14*
X53340000Y-73660000D03*
D12*
X62230000Y-76200000D03*
D13*
X57150000Y-76200000D03*
D15*
X50065000Y-73660000D03*
X62992000Y-71120000D03*
D12*
X66357500Y-57150000D03*
D14*
X67627500Y-54610000D03*
D12*
X76517500Y-57150000D03*
D13*
X71437500Y-57150000D03*
D14*
X73977500Y-52070000D03*
D15*
X64352500Y-54610000D03*
X77279500Y-52070000D03*
D12*
X90170000Y-76200000D03*
D14*
X91440000Y-73660000D03*
X97790000Y-71120000D03*
D13*
X95250000Y-76200000D03*
D12*
X100330000Y-76200000D03*
D15*
X88165000Y-73660000D03*
X101092000Y-71120000D03*
D12*
X262255000Y-114300000D03*
D14*
X253365000Y-111760000D03*
D12*
X252095000Y-114300000D03*
D14*
X259715000Y-109220000D03*
D13*
X257175000Y-114300000D03*
D15*
X250090000Y-111760000D03*
X263017000Y-109220000D03*
D18*
X26543000Y-37242000D03*
D19*
X29083000Y-37242000D03*
D14*
X167640000Y-73660000D03*
D13*
X171450000Y-76200000D03*
D12*
X176530000Y-76200000D03*
X166370000Y-76200000D03*
D14*
X173990000Y-71120000D03*
D15*
X164365000Y-73660000D03*
X177292000Y-71120000D03*
D16*
X41112500Y-66675000D03*
D17*
X38572500Y-66675000D03*
X36032500Y-66675000D03*
D13*
X52387500Y-57150000D03*
D12*
X47307500Y-57150000D03*
D14*
X54927500Y-52070000D03*
D12*
X57467500Y-57150000D03*
D14*
X48577500Y-54610000D03*
D15*
X45302500Y-54610000D03*
X58229500Y-52070000D03*
D14*
X62865000Y-92710000D03*
D12*
X71755000Y-95250000D03*
D14*
X69215000Y-90170000D03*
D13*
X66675000Y-95250000D03*
D12*
X61595000Y-95250000D03*
D15*
X59590000Y-92710000D03*
X72517000Y-90170000D03*
D12*
X38417500Y-57150000D03*
D14*
X35877500Y-52070000D03*
D12*
X28257500Y-57150000D03*
D13*
X33337500Y-57150000D03*
D14*
X29527500Y-54610000D03*
D15*
X26252500Y-54610000D03*
X39179500Y-52070000D03*
D12*
X224155000Y-95250000D03*
D14*
X221615000Y-90170000D03*
X215265000Y-92710000D03*
D13*
X219075000Y-95250000D03*
D12*
X213995000Y-95250000D03*
D15*
X211990000Y-92710000D03*
X224917000Y-90170000D03*
D12*
X214630000Y-76200000D03*
D14*
X212090000Y-71120000D03*
D13*
X209550000Y-76200000D03*
D12*
X204470000Y-76200000D03*
D14*
X205740000Y-73660000D03*
D15*
X202465000Y-73660000D03*
X215392000Y-71120000D03*
D12*
X156845000Y-95250000D03*
D13*
X161925000Y-95250000D03*
D14*
X164465000Y-90170000D03*
D12*
X167005000Y-95250000D03*
D14*
X158115000Y-92710000D03*
D15*
X154840000Y-92710000D03*
X167767000Y-90170000D03*
D12*
X109220000Y-76200000D03*
D13*
X114300000Y-76200000D03*
D12*
X119380000Y-76200000D03*
D14*
X110490000Y-73660000D03*
X116840000Y-71120000D03*
D15*
X107215000Y-73660000D03*
X120142000Y-71120000D03*
D13*
X142875000Y-95250000D03*
D14*
X139065000Y-92710000D03*
D12*
X147955000Y-95250000D03*
D14*
X145415000Y-90170000D03*
D12*
X137795000Y-95250000D03*
D15*
X135790000Y-92710000D03*
X148717000Y-90170000D03*
D12*
X209867500Y-57150000D03*
D14*
X200977500Y-54610000D03*
X207327500Y-52070000D03*
D13*
X204787500Y-57150000D03*
D12*
X199707500Y-57150000D03*
D15*
X197702500Y-54610000D03*
X210629500Y-52070000D03*
D18*
X26543000Y-42767000D03*
D19*
X29083000Y-42767000D03*
D12*
X114617500Y-57150000D03*
D14*
X105727500Y-54610000D03*
D12*
X104457500Y-57150000D03*
D14*
X112077500Y-52070000D03*
D13*
X109537500Y-57150000D03*
D15*
X102452500Y-54610000D03*
X115379500Y-52070000D03*
D14*
X124777500Y-54610000D03*
X131127500Y-52070000D03*
D13*
X128587500Y-57150000D03*
D12*
X133667500Y-57150000D03*
X123507500Y-57150000D03*
D15*
X121502500Y-54610000D03*
X134429500Y-52070000D03*
D14*
X246221250Y-54610000D03*
D12*
X244951250Y-57150000D03*
D14*
X252571250Y-52070000D03*
D13*
X250031250Y-57150000D03*
D12*
X255111250Y-57150000D03*
D15*
X242946250Y-54610000D03*
X255873250Y-52070000D03*
D16*
X30575000Y-95250000D03*
D17*
X28035000Y-95250000D03*
D12*
X243205000Y-114300000D03*
X233045000Y-114300000D03*
D13*
X238125000Y-114300000D03*
D14*
X240665000Y-109220000D03*
X234315000Y-111760000D03*
D15*
X231040000Y-111760000D03*
X243967000Y-109220000D03*
D12*
X40798750Y-114300000D03*
D14*
X38258750Y-109220000D03*
D13*
X35718750Y-114300000D03*
D14*
X31908750Y-111760000D03*
D12*
X30638750Y-114300000D03*
D15*
X28633750Y-111760000D03*
X41560750Y-109220000D03*
D12*
X62230000Y-114300000D03*
D14*
X59690000Y-109220000D03*
D12*
X52070000Y-114300000D03*
D13*
X57150000Y-114300000D03*
D14*
X53340000Y-111760000D03*
D15*
X50065000Y-111760000D03*
X62992000Y-109220000D03*
D12*
X224155000Y-114300000D03*
D13*
X219075000Y-114300000D03*
D14*
X221615000Y-109220000D03*
X215265000Y-111760000D03*
D12*
X213995000Y-114300000D03*
D15*
X211990000Y-111760000D03*
X224917000Y-109220000D03*
D14*
X160496250Y-111760000D03*
D13*
X152368250Y-106045000D03*
D20*
X152368250Y-121285000D03*
X176244250Y-121285000D03*
D12*
X169386250Y-114300000D03*
D13*
X176244250Y-106045000D03*
D12*
X159226250Y-114300000D03*
D13*
X164306250Y-114300000D03*
D14*
X166846250Y-109220000D03*
D15*
X157221250Y-111760000D03*
X170148250Y-109220000D03*
D14*
X83502500Y-33020000D03*
D13*
X80962500Y-38100000D03*
D12*
X75882500Y-38100000D03*
X86042500Y-38100000D03*
D14*
X77152500Y-35560000D03*
D15*
X73877500Y-35560000D03*
X86804500Y-33020000D03*
D12*
X128270000Y-76200000D03*
D13*
X133350000Y-76200000D03*
D14*
X135890000Y-71120000D03*
D12*
X138430000Y-76200000D03*
D14*
X129540000Y-73660000D03*
D15*
X126265000Y-73660000D03*
X139192000Y-71120000D03*
D13*
X85725000Y-95250000D03*
D14*
X88265000Y-90170000D03*
D12*
X90805000Y-95250000D03*
X80645000Y-95250000D03*
D14*
X81915000Y-92710000D03*
D15*
X78640000Y-92710000D03*
X91567000Y-90170000D03*
D12*
X257492500Y-76200000D03*
D14*
X254952500Y-71120000D03*
X248602500Y-73660000D03*
D13*
X252412500Y-76200000D03*
D12*
X247332500Y-76200000D03*
D15*
X245327500Y-73660000D03*
X258254500Y-71120000D03*
X122523250Y-109220000D03*
X109596250Y-111760000D03*
D13*
X104743250Y-106045000D03*
D12*
X121761250Y-114300000D03*
D20*
X128619250Y-121285000D03*
X104743250Y-121285000D03*
D14*
X119221250Y-109220000D03*
D12*
X111601250Y-114300000D03*
D13*
X128619250Y-106045000D03*
X116681250Y-114300000D03*
D14*
X112871250Y-111760000D03*
D12*
X202723750Y-114300000D03*
D14*
X193833750Y-111760000D03*
D13*
X197643750Y-114300000D03*
D14*
X200183750Y-109220000D03*
D12*
X192563750Y-114300000D03*
D15*
X190558750Y-111760000D03*
X203485750Y-109220000D03*
D20*
X100018850Y-121285000D03*
D14*
X152558750Y-109220000D03*
D20*
X200018650Y-121285000D03*
D13*
X100018850Y-106045000D03*
X150018750Y-114300000D03*
D14*
X146208750Y-111760000D03*
D12*
X155098750Y-114300000D03*
D13*
X200018650Y-106045000D03*
D12*
X144938750Y-114300000D03*
D15*
X142933750Y-111760000D03*
X155860750Y-109220000D03*
D13*
X166687500Y-57150000D03*
D14*
X162877500Y-54610000D03*
D12*
X161607500Y-57150000D03*
X171767500Y-57150000D03*
D14*
X169227500Y-52070000D03*
D15*
X159602500Y-54610000D03*
X172529500Y-52070000D03*
D21*
X159650000Y-79450000D03*
X159650000Y-76150000D03*
D22*
X40320000Y-46101000D03*
X37020000Y-46101000D03*
D21*
X153125000Y-117700000D03*
X153125000Y-114400000D03*
X47800000Y-98650000D03*
X47800000Y-95350000D03*
X121550000Y-79450000D03*
X121550000Y-76150000D03*
X226400000Y-98650000D03*
X226400000Y-95350000D03*
D23*
X149350000Y-104925000D03*
X149350000Y-106475000D03*
D21*
X188300000Y-98650000D03*
X188300000Y-95350000D03*
D24*
X58150000Y-30675000D03*
X58150000Y-32325000D03*
D21*
X245450000Y-98650000D03*
X245450000Y-95350000D03*
X83450000Y-79450000D03*
X83450000Y-76150000D03*
D25*
X93600000Y-58925000D03*
X93600000Y-57100000D03*
D21*
X135850000Y-60400000D03*
X135850000Y-57100000D03*
X124100000Y-117700000D03*
X124100000Y-114400000D03*
X171750000Y-117700000D03*
X171750000Y-114400000D03*
D26*
X146075000Y-106174450D03*
X146075000Y-103974450D03*
X147775000Y-103974450D03*
X147775000Y-106174450D03*
D21*
X245450000Y-117700000D03*
X245450000Y-114400000D03*
D23*
X46500000Y-30725000D03*
X46500000Y-32275000D03*
D21*
X235850000Y-79450000D03*
X235850000Y-76150000D03*
D23*
X136912500Y-100225000D03*
X136912500Y-101775000D03*
D21*
X226400000Y-117700000D03*
X226400000Y-114400000D03*
X205000000Y-117700000D03*
X205000000Y-114400000D03*
X264500000Y-98650000D03*
X264500000Y-95350000D03*
X59650000Y-60400000D03*
X59650000Y-57100000D03*
X102500000Y-79450000D03*
X102500000Y-76150000D03*
X216800000Y-79450000D03*
X216800000Y-76150000D03*
X193000000Y-60400000D03*
X193000000Y-57100000D03*
X150200000Y-98650000D03*
X150200000Y-95350000D03*
X154900000Y-60400000D03*
X154900000Y-57100000D03*
D27*
X139175000Y-111800000D03*
X140725000Y-111800000D03*
D21*
X43000000Y-117700000D03*
X43000000Y-114400000D03*
X231100000Y-60400000D03*
X231100000Y-57100000D03*
D28*
X46500000Y-35325000D03*
X46500000Y-33675000D03*
D21*
X97750000Y-60400000D03*
X97750000Y-57100000D03*
X173950000Y-60400000D03*
X173950000Y-57100000D03*
X178700000Y-79450000D03*
X178700000Y-76150000D03*
X43000000Y-79450000D03*
X43000000Y-76150000D03*
X112100000Y-98650000D03*
X112100000Y-95350000D03*
X74000000Y-98650000D03*
X74000000Y-95350000D03*
D29*
X31472500Y-34544000D03*
X33297500Y-34544000D03*
D21*
X264500000Y-117700000D03*
X264500000Y-114400000D03*
X107250000Y-41400000D03*
X107250000Y-38100000D03*
X64400000Y-79450000D03*
X64400000Y-76150000D03*
D22*
X58940000Y-46100000D03*
X62240000Y-46100000D03*
D21*
X145350000Y-41400000D03*
X145350000Y-38100000D03*
D29*
X31472500Y-46101000D03*
X33297500Y-46101000D03*
D21*
X93050000Y-98650000D03*
X93050000Y-95350000D03*
X212050000Y-60400000D03*
X212050000Y-57100000D03*
D30*
X132025000Y-103550000D03*
X130475000Y-103550000D03*
D31*
X49434000Y-31777000D03*
X55214000Y-31777000D03*
D32*
X49099000Y-33222000D03*
X49874000Y-33222000D03*
D33*
X50574000Y-33222000D03*
X51074000Y-33222000D03*
X51574000Y-33222000D03*
X52074000Y-33222000D03*
X52574000Y-33222000D03*
X53074000Y-33222000D03*
X53574000Y-33222000D03*
X54074000Y-33222000D03*
D32*
X54774000Y-33222000D03*
X55549000Y-33222000D03*
D34*
X48004000Y-32307000D03*
D35*
X48004000Y-28127000D03*
D34*
X56644000Y-32307000D03*
D35*
X56644000Y-28127000D03*
D21*
X257412500Y-60400000D03*
X257412500Y-57100000D03*
X40600000Y-60400000D03*
X40600000Y-57100000D03*
D30*
X134375000Y-101700000D03*
X132825000Y-101700000D03*
D36*
X134350000Y-103612500D03*
X134850000Y-103612500D03*
X135350000Y-103612500D03*
X135850000Y-103612500D03*
X136350000Y-103612500D03*
X136850000Y-103612500D03*
X137350000Y-103612500D03*
X137850000Y-103612500D03*
X138350000Y-103612500D03*
X138850000Y-103612500D03*
X139350000Y-103612500D03*
D37*
X140187500Y-104450000D03*
X140187500Y-104950000D03*
X140187500Y-105450000D03*
X140187500Y-105950000D03*
X140187500Y-106450000D03*
X140187500Y-106950000D03*
X140187500Y-107450000D03*
X140187500Y-107950000D03*
X140187500Y-108450000D03*
X140187500Y-108950000D03*
X140187500Y-109450000D03*
D36*
X139350000Y-110287500D03*
X138850000Y-110287500D03*
X138350000Y-110287500D03*
X137850000Y-110287500D03*
X137350000Y-110287500D03*
X136850000Y-110287500D03*
X136350000Y-110287500D03*
X135850000Y-110287500D03*
X135350000Y-110287500D03*
X134850000Y-110287500D03*
X134350000Y-110287500D03*
D37*
X133512500Y-109450000D03*
X133512500Y-108950000D03*
X133512500Y-108450000D03*
X133512500Y-107950000D03*
X133512500Y-107450000D03*
X133512500Y-106950000D03*
X133512500Y-106450000D03*
X133512500Y-105950000D03*
X133512500Y-105450000D03*
X133512500Y-104950000D03*
X133512500Y-104450000D03*
D38*
X136850000Y-106950000D03*
D21*
X116800000Y-60400000D03*
X116800000Y-57100000D03*
D28*
X58150000Y-35325000D03*
X58150000Y-33675000D03*
D39*
X143275000Y-103400000D03*
X141625000Y-103400000D03*
D21*
X259750000Y-79450000D03*
X259750000Y-76150000D03*
D29*
X31472500Y-40132000D03*
X33297500Y-40132000D03*
D21*
X197750000Y-79450000D03*
X197750000Y-76150000D03*
D30*
X132025000Y-110350000D03*
X130475000Y-110350000D03*
D21*
X64400000Y-117700000D03*
X64400000Y-114400000D03*
X140600000Y-79450000D03*
X140600000Y-76150000D03*
D40*
X132175000Y-111810000D03*
X133825000Y-111810000D03*
D21*
X86000000Y-117700000D03*
X86000000Y-114400000D03*
X88250000Y-41400000D03*
X88250000Y-38100000D03*
D27*
X146150000Y-102250000D03*
X147700000Y-102250000D03*
D21*
X169250000Y-98650000D03*
X169250000Y-95350000D03*
D30*
X139775000Y-100250000D03*
X138225000Y-100250000D03*
D21*
X131150000Y-98650000D03*
X131150000Y-95350000D03*
X78700000Y-60400000D03*
X78700000Y-57100000D03*
D41*
X51324000Y-37500000D03*
D42*
X51324000Y-35800000D03*
X53324000Y-35800000D03*
X53324000Y-37700000D03*
D21*
X126300000Y-41400000D03*
X126300000Y-38100000D03*
D43*
X53324000Y-41780000D03*
X53324000Y-44580000D03*
D21*
X207350000Y-98650000D03*
X207350000Y-95350000D03*
M02*
