%TF.GenerationSoftware,KiCad,Pcbnew,(6.0.0)*%
%TF.CreationDate,2022-02-03T02:59:53-08:00*%
%TF.ProjectId,Memoria,4d656d6f-7269-4612-9e6b-696361645f70,rev?*%
%TF.SameCoordinates,Original*%
%TF.FileFunction,Paste,Bot*%
%TF.FilePolarity,Positive*%
%FSLAX46Y46*%
G04 Gerber Fmt 4.6, Leading zero omitted, Abs format (unit mm)*
G04 Created by KiCad (PCBNEW (6.0.0)) date 2022-02-03 02:59:53*
%MOMM*%
%LPD*%
G01*
G04 APERTURE LIST*
G04 Aperture macros list*
%AMRoundRect*
0 Rectangle with rounded corners*
0 $1 Rounding radius*
0 $2 $3 $4 $5 $6 $7 $8 $9 X,Y pos of 4 corners*
0 Add a 4 corners polygon primitive as box body*
4,1,4,$2,$3,$4,$5,$6,$7,$8,$9,$2,$3,0*
0 Add four circle primitives for the rounded corners*
1,1,$1+$1,$2,$3*
1,1,$1+$1,$4,$5*
1,1,$1+$1,$6,$7*
1,1,$1+$1,$8,$9*
0 Add four rect primitives between the rounded corners*
20,1,$1+$1,$2,$3,$4,$5,0*
20,1,$1+$1,$4,$5,$6,$7,0*
20,1,$1+$1,$6,$7,$8,$9,0*
20,1,$1+$1,$8,$9,$2,$3,0*%
G04 Aperture macros list end*
%ADD10R,2.550000X2.500000*%
%ADD11R,1.200000X0.900000*%
%ADD12R,0.900000X1.200000*%
%ADD13RoundRect,0.225000X-0.250000X0.225000X-0.250000X-0.225000X0.250000X-0.225000X0.250000X0.225000X0*%
%ADD14RoundRect,0.200000X-0.275000X0.200000X-0.275000X-0.200000X0.275000X-0.200000X0.275000X0.200000X0*%
%ADD15R,1.200000X1.400000*%
%ADD16RoundRect,0.225000X-0.225000X-0.250000X0.225000X-0.250000X0.225000X0.250000X-0.225000X0.250000X0*%
%ADD17RoundRect,0.200000X0.275000X-0.200000X0.275000X0.200000X-0.275000X0.200000X-0.275000X-0.200000X0*%
%ADD18RoundRect,0.250000X-0.262500X-0.450000X0.262500X-0.450000X0.262500X0.450000X-0.262500X0.450000X0*%
%ADD19RoundRect,0.225000X0.225000X0.250000X-0.225000X0.250000X-0.225000X-0.250000X0.225000X-0.250000X0*%
%ADD20R,0.600000X1.450000*%
%ADD21R,0.300000X1.450000*%
%ADD22RoundRect,0.250000X-0.275000X0.275000X-0.275000X-0.275000X0.275000X-0.275000X0.275000X0.275000X0*%
%ADD23RoundRect,0.062500X-0.062500X0.475000X-0.062500X-0.475000X0.062500X-0.475000X0.062500X0.475000X0*%
%ADD24RoundRect,0.062500X-0.475000X0.062500X-0.475000X-0.062500X0.475000X-0.062500X0.475000X0.062500X0*%
%ADD25RoundRect,0.200000X0.200000X0.275000X-0.200000X0.275000X-0.200000X-0.275000X0.200000X-0.275000X0*%
%ADD26RoundRect,0.200000X-0.200000X-0.275000X0.200000X-0.275000X0.200000X0.275000X-0.200000X0.275000X0*%
%ADD27R,0.700000X0.600000*%
%ADD28R,0.700000X1.000000*%
%ADD29RoundRect,0.250000X-0.625000X0.375000X-0.625000X-0.375000X0.625000X-0.375000X0.625000X0.375000X0*%
G04 APERTURE END LIST*
D10*
%TO.C,MX3-3*%
X97690000Y-92710000D03*
X110617000Y-90170000D03*
%TD*%
%TO.C,MX3-10*%
X231040000Y-92710000D03*
X243967000Y-90170000D03*
%TD*%
%TO.C,MX3-11*%
X250090000Y-92710000D03*
X263017000Y-90170000D03*
%TD*%
%TO.C,MX2-0*%
X28633750Y-73660000D03*
X41560750Y-71120000D03*
%TD*%
%TO.C,MX4-2*%
X71496250Y-111760000D03*
X84423250Y-109220000D03*
%TD*%
%TO.C,MX1-10*%
X216752500Y-54610000D03*
X229679500Y-52070000D03*
%TD*%
%TO.C,MX3-8*%
X192940000Y-92710000D03*
X205867000Y-90170000D03*
%TD*%
%TO.C,MX1-6*%
X140552500Y-54610000D03*
X153479500Y-52070000D03*
%TD*%
%TO.C,MX2-6*%
X145315000Y-73660000D03*
X158242000Y-71120000D03*
%TD*%
%TO.C,MX0-4*%
X111977500Y-35560000D03*
X124904500Y-33020000D03*
%TD*%
%TO.C,MX0-3*%
X92927500Y-35560000D03*
X105854500Y-33020000D03*
%TD*%
%TO.C,MX3-4*%
X116740000Y-92710000D03*
X129667000Y-90170000D03*
%TD*%
%TO.C,MX0-0*%
X49947500Y-40640000D03*
X37020500Y-43180000D03*
%TD*%
%TO.C,MX2-8*%
X183415000Y-73660000D03*
X196342000Y-71120000D03*
%TD*%
%TO.C,MX2-10*%
X221515000Y-73660000D03*
X234442000Y-71120000D03*
%TD*%
%TO.C,MX0-5*%
X131027500Y-35560000D03*
X143954500Y-33020000D03*
%TD*%
%TO.C,MX0-1*%
X68997500Y-40640000D03*
X56070500Y-43180000D03*
%TD*%
%TO.C,MX2-2*%
X69115000Y-73660000D03*
X82042000Y-71120000D03*
%TD*%
%TO.C,MX1-8*%
X191579500Y-52070000D03*
X178652500Y-54610000D03*
%TD*%
%TO.C,MX3-7*%
X173890000Y-92710000D03*
X186817000Y-90170000D03*
%TD*%
%TO.C,MX3-0*%
X33396250Y-92710000D03*
X46323250Y-90170000D03*
%TD*%
%TO.C,MX2-1*%
X50065000Y-73660000D03*
X62992000Y-71120000D03*
%TD*%
%TO.C,MX1-2*%
X64352500Y-54610000D03*
X77279500Y-52070000D03*
%TD*%
%TO.C,MX2-3*%
X88165000Y-73660000D03*
X101092000Y-71120000D03*
%TD*%
%TO.C,MX4-11*%
X250090000Y-111760000D03*
X263017000Y-109220000D03*
%TD*%
%TO.C,MX2-7*%
X164365000Y-73660000D03*
X177292000Y-71120000D03*
%TD*%
%TO.C,MX1-1*%
X45302500Y-54610000D03*
X58229500Y-52070000D03*
%TD*%
%TO.C,MX3-1*%
X59590000Y-92710000D03*
X72517000Y-90170000D03*
%TD*%
%TO.C,MX1-0*%
X26252500Y-54610000D03*
X39179500Y-52070000D03*
%TD*%
%TO.C,MX3-9*%
X211990000Y-92710000D03*
X224917000Y-90170000D03*
%TD*%
%TO.C,MX2-9*%
X202465000Y-73660000D03*
X215392000Y-71120000D03*
%TD*%
%TO.C,MX3-6*%
X154840000Y-92710000D03*
X167767000Y-90170000D03*
%TD*%
%TO.C,MX2-4*%
X107215000Y-73660000D03*
X120142000Y-71120000D03*
%TD*%
%TO.C,MX3-5*%
X135790000Y-92710000D03*
X148717000Y-90170000D03*
%TD*%
%TO.C,MX1-9*%
X197702500Y-54610000D03*
X210629500Y-52070000D03*
%TD*%
%TO.C,MX1-4*%
X102452500Y-54610000D03*
X115379500Y-52070000D03*
%TD*%
%TO.C,MX1-5*%
X121502500Y-54610000D03*
X134429500Y-52070000D03*
%TD*%
%TO.C,MX1-11*%
X242946250Y-54610000D03*
X255873250Y-52070000D03*
%TD*%
%TO.C,MX4-10*%
X231040000Y-111760000D03*
X243967000Y-109220000D03*
%TD*%
%TO.C,MX4-0*%
X28633750Y-111760000D03*
X41560750Y-109220000D03*
%TD*%
%TO.C,MX4-1*%
X50065000Y-111760000D03*
X62992000Y-109220000D03*
%TD*%
%TO.C,MX4-9*%
X211990000Y-111760000D03*
X224917000Y-109220000D03*
%TD*%
%TO.C,MX4-6+Minisub1*%
X157221250Y-111760000D03*
X170148250Y-109220000D03*
%TD*%
%TO.C,MX0-2*%
X73877500Y-35560000D03*
X86804500Y-33020000D03*
%TD*%
%TO.C,MX2-5*%
X126265000Y-73660000D03*
X139192000Y-71120000D03*
%TD*%
%TO.C,MX3-2*%
X78640000Y-92710000D03*
X91567000Y-90170000D03*
%TD*%
%TO.C,MX2-11*%
X245327500Y-73660000D03*
X258254500Y-71120000D03*
%TD*%
%TO.C,MX4-4+Minisub1*%
X109596250Y-111760000D03*
X122523250Y-109220000D03*
%TD*%
%TO.C,MX4-8+Minisub1*%
X190558750Y-111760000D03*
X203485750Y-109220000D03*
%TD*%
%TO.C,MX1-3*%
X83402500Y-54610000D03*
X96329500Y-52070000D03*
%TD*%
%TO.C,MX4-5+Jetvan1*%
X142933750Y-111760000D03*
X155860750Y-109220000D03*
%TD*%
%TO.C,MX1-7*%
X159602500Y-54610000D03*
X172529500Y-52070000D03*
%TD*%
D11*
%TO.C,D2-6*%
X159650000Y-79450000D03*
X159650000Y-76150000D03*
%TD*%
D12*
%TO.C,D0-0*%
X40320000Y-46101000D03*
X37020000Y-46101000D03*
%TD*%
D11*
%TO.C,D4-5*%
X153125000Y-117700000D03*
X153125000Y-114400000D03*
%TD*%
%TO.C,D3-0*%
X47800000Y-98650000D03*
X47800000Y-95350000D03*
%TD*%
%TO.C,D2-4*%
X121550000Y-79450000D03*
X121550000Y-76150000D03*
%TD*%
%TO.C,D3-9*%
X226400000Y-98650000D03*
X226400000Y-95350000D03*
%TD*%
D13*
%TO.C,C8*%
X149350000Y-104925000D03*
X149350000Y-106475000D03*
%TD*%
D11*
%TO.C,D3-7*%
X188300000Y-98650000D03*
X188300000Y-95350000D03*
%TD*%
D14*
%TO.C,R5*%
X58150000Y-32325000D03*
X58150000Y-30675000D03*
%TD*%
D11*
%TO.C,D3-10*%
X245450000Y-98650000D03*
X245450000Y-95350000D03*
%TD*%
%TO.C,D2-2*%
X83450000Y-79450000D03*
X83450000Y-76150000D03*
%TD*%
%TO.C,D1-5*%
X135850000Y-60400000D03*
X135850000Y-57100000D03*
%TD*%
%TO.C,D4-4*%
X124100000Y-117700000D03*
X124100000Y-114400000D03*
%TD*%
%TO.C,D4-6*%
X171750000Y-117700000D03*
X171750000Y-114400000D03*
%TD*%
D15*
%TO.C,Y1*%
X146075000Y-106174450D03*
X146075000Y-103974450D03*
X147775000Y-103974450D03*
X147775000Y-106174450D03*
%TD*%
D11*
%TO.C,D4-10*%
X245450000Y-117700000D03*
X245450000Y-114400000D03*
%TD*%
D13*
%TO.C,C7*%
X46500000Y-32275000D03*
X46500000Y-30725000D03*
%TD*%
D11*
%TO.C,D2-10*%
X235850000Y-79450000D03*
X235850000Y-76150000D03*
%TD*%
D13*
%TO.C,C1*%
X136912500Y-100225000D03*
X136912500Y-101775000D03*
%TD*%
D11*
%TO.C,D4-9*%
X226400000Y-117700000D03*
X226400000Y-114400000D03*
%TD*%
%TO.C,D4-8*%
X205000000Y-117700000D03*
X205000000Y-114400000D03*
%TD*%
%TO.C,D3-11*%
X264500000Y-98650000D03*
X264500000Y-95350000D03*
%TD*%
%TO.C,D1-1*%
X59650000Y-60400000D03*
X59650000Y-57100000D03*
%TD*%
%TO.C,D2-3*%
X102500000Y-79450000D03*
X102500000Y-76150000D03*
%TD*%
%TO.C,D2-9*%
X216800000Y-79450000D03*
X216800000Y-76150000D03*
%TD*%
%TO.C,D1-8*%
X193000000Y-60400000D03*
X193000000Y-57100000D03*
%TD*%
%TO.C,D3-5*%
X150200000Y-98650000D03*
X150200000Y-95350000D03*
%TD*%
%TO.C,D1-6*%
X154900000Y-60400000D03*
X154900000Y-57100000D03*
%TD*%
D16*
%TO.C,C4*%
X139175000Y-111800000D03*
X140725000Y-111800000D03*
%TD*%
D11*
%TO.C,D4-0*%
X43000000Y-117700000D03*
X43000000Y-114400000D03*
%TD*%
%TO.C,D1-10*%
X231100000Y-60400000D03*
X231100000Y-57100000D03*
%TD*%
D17*
%TO.C,R2*%
X46500000Y-33675000D03*
X46500000Y-35325000D03*
%TD*%
D11*
%TO.C,D1-3*%
X97750000Y-60400000D03*
X97750000Y-57100000D03*
%TD*%
%TO.C,D1-7*%
X173950000Y-60400000D03*
X173950000Y-57100000D03*
%TD*%
%TO.C,D2-7*%
X178700000Y-79450000D03*
X178700000Y-76150000D03*
%TD*%
%TO.C,D2-0*%
X43000000Y-79450000D03*
X43000000Y-76150000D03*
%TD*%
%TO.C,D3-3*%
X112100000Y-98650000D03*
X112100000Y-95350000D03*
%TD*%
%TO.C,D3-1*%
X74000000Y-98650000D03*
X74000000Y-95350000D03*
%TD*%
D18*
%TO.C,R11*%
X31472500Y-34544000D03*
X33297500Y-34544000D03*
%TD*%
D11*
%TO.C,D4-11*%
X264500000Y-117700000D03*
X264500000Y-114400000D03*
%TD*%
%TO.C,D0-3*%
X107250000Y-41400000D03*
X107250000Y-38100000D03*
%TD*%
%TO.C,D2-1*%
X64400000Y-79450000D03*
X64400000Y-76150000D03*
%TD*%
D12*
%TO.C,D0-1*%
X58940000Y-46100000D03*
X62240000Y-46100000D03*
%TD*%
D11*
%TO.C,D0-5*%
X145350000Y-41400000D03*
X145350000Y-38100000D03*
%TD*%
D18*
%TO.C,R13*%
X31472500Y-46101000D03*
X33297500Y-46101000D03*
%TD*%
D11*
%TO.C,D3-2*%
X93050000Y-98650000D03*
X93050000Y-95350000D03*
%TD*%
%TO.C,D1-9*%
X212050000Y-60400000D03*
X212050000Y-57100000D03*
%TD*%
D19*
%TO.C,C5*%
X132025000Y-103550000D03*
X130475000Y-103550000D03*
%TD*%
D20*
%TO.C,USB1*%
X55549000Y-33222000D03*
X54774000Y-33222000D03*
D21*
X54074000Y-33222000D03*
X53574000Y-33222000D03*
X53074000Y-33222000D03*
X52574000Y-33222000D03*
X52074000Y-33222000D03*
X51574000Y-33222000D03*
X51074000Y-33222000D03*
X50574000Y-33222000D03*
D20*
X49874000Y-33222000D03*
X49099000Y-33222000D03*
%TD*%
D11*
%TO.C,D1-11*%
X257412500Y-60400000D03*
X257412500Y-57100000D03*
%TD*%
%TO.C,D1-0*%
X40600000Y-60400000D03*
X40600000Y-57100000D03*
%TD*%
D19*
%TO.C,C6*%
X134375000Y-101700000D03*
X132825000Y-101700000D03*
%TD*%
D22*
%TO.C,U2*%
X137500000Y-105000000D03*
X138800000Y-106300000D03*
X138800000Y-108900000D03*
X138800000Y-107600000D03*
X136200000Y-106300000D03*
X138800000Y-105000000D03*
X137500000Y-107600000D03*
X136200000Y-108900000D03*
X137500000Y-108900000D03*
X136200000Y-107600000D03*
X134900000Y-106300000D03*
X134900000Y-105000000D03*
X136200000Y-105000000D03*
X134900000Y-108900000D03*
X137500000Y-106300000D03*
X134900000Y-107600000D03*
D23*
X134350000Y-103612500D03*
X134850000Y-103612500D03*
X135350000Y-103612500D03*
X135850000Y-103612500D03*
X136350000Y-103612500D03*
X136850000Y-103612500D03*
X137350000Y-103612500D03*
X137850000Y-103612500D03*
X138350000Y-103612500D03*
X138850000Y-103612500D03*
X139350000Y-103612500D03*
D24*
X140187500Y-104450000D03*
X140187500Y-104950000D03*
X140187500Y-105450000D03*
X140187500Y-105950000D03*
X140187500Y-106450000D03*
X140187500Y-106950000D03*
X140187500Y-107450000D03*
X140187500Y-107950000D03*
X140187500Y-108450000D03*
X140187500Y-108950000D03*
X140187500Y-109450000D03*
D23*
X139350000Y-110287500D03*
X138850000Y-110287500D03*
X138350000Y-110287500D03*
X137850000Y-110287500D03*
X137350000Y-110287500D03*
X136850000Y-110287500D03*
X136350000Y-110287500D03*
X135850000Y-110287500D03*
X135350000Y-110287500D03*
X134850000Y-110287500D03*
X134350000Y-110287500D03*
D24*
X133512500Y-109450000D03*
X133512500Y-108950000D03*
X133512500Y-108450000D03*
X133512500Y-107950000D03*
X133512500Y-107450000D03*
X133512500Y-106950000D03*
X133512500Y-106450000D03*
X133512500Y-105950000D03*
X133512500Y-105450000D03*
X133512500Y-104950000D03*
X133512500Y-104450000D03*
%TD*%
D11*
%TO.C,D1-4*%
X116800000Y-60400000D03*
X116800000Y-57100000D03*
%TD*%
D17*
%TO.C,R3*%
X58150000Y-33675000D03*
X58150000Y-35325000D03*
%TD*%
D25*
%TO.C,R1*%
X143275000Y-103400000D03*
X141625000Y-103400000D03*
%TD*%
D11*
%TO.C,D2-11*%
X259750000Y-79450000D03*
X259750000Y-76150000D03*
%TD*%
D18*
%TO.C,R12*%
X31472500Y-40132000D03*
X33297500Y-40132000D03*
%TD*%
D11*
%TO.C,D2-8*%
X197750000Y-79450000D03*
X197750000Y-76150000D03*
%TD*%
D19*
%TO.C,C3*%
X132025000Y-110350000D03*
X130475000Y-110350000D03*
%TD*%
D11*
%TO.C,D4-1*%
X64400000Y-114400000D03*
X64400000Y-117700000D03*
%TD*%
%TO.C,D2-5*%
X140600000Y-79450000D03*
X140600000Y-76150000D03*
%TD*%
D26*
%TO.C,R4*%
X132175000Y-111810000D03*
X133825000Y-111810000D03*
%TD*%
D11*
%TO.C,D4-2*%
X86000000Y-117700000D03*
X86000000Y-114400000D03*
%TD*%
%TO.C,D0-2*%
X88250000Y-41400000D03*
X88250000Y-38100000D03*
%TD*%
D16*
%TO.C,C9*%
X146150000Y-102250000D03*
X147700000Y-102250000D03*
%TD*%
D11*
%TO.C,D3-6*%
X169250000Y-98650000D03*
X169250000Y-95350000D03*
%TD*%
D19*
%TO.C,C2*%
X139775000Y-100250000D03*
X138225000Y-100250000D03*
%TD*%
D11*
%TO.C,D3-4*%
X131150000Y-98650000D03*
X131150000Y-95350000D03*
%TD*%
%TO.C,D1-2*%
X78700000Y-60400000D03*
X78700000Y-57100000D03*
%TD*%
D27*
%TO.C,U1*%
X53324000Y-37700000D03*
X53324000Y-35800000D03*
X51324000Y-35800000D03*
D28*
X51324000Y-37500000D03*
%TD*%
D11*
%TO.C,D0-4*%
X126300000Y-41400000D03*
X126300000Y-38100000D03*
%TD*%
D29*
%TO.C,F1*%
X53324000Y-41780000D03*
X53324000Y-44580000D03*
%TD*%
D11*
%TO.C,D3-8*%
X207350000Y-98650000D03*
X207350000Y-95350000D03*
%TD*%
M02*
