M48
; DRILL file {KiCad (6.0.0)} date Fri Feb  4 02:04:47 2022
; FORMAT={-:-/ absolute / inch / decimal}
; #@! TF.CreationDate,2022-02-04T02:04:47-08:00
; #@! TF.GenerationSoftware,Kicad,Pcbnew,(6.0.0)
; #@! TF.FileFunction,NonPlated,1,2,NPTH
FMAT,2
INCH
; #@! TA.AperFunction,NonPlated,NPTH,ComponentDrill
T1C0.0256
; #@! TA.AperFunction,NonPlated,NPTH,ComponentDrill
T2C0.0689
; #@! TA.AperFunction,NonPlated,NPTH,ComponentDrill
T3C0.1181
; #@! TA.AperFunction,NonPlated,NPTH,ComponentDrill
T4C0.1200
; #@! TA.AperFunction,NonPlated,NPTH,ComponentDrill
T5C0.1570
%
G90
G05
T1
X1.9462Y-1.2511
X2.1738Y-1.2511
T2
X1.1125Y-2.25
X1.2063Y-3.0
X1.2063Y-4.5
X1.3938Y-3.75
X1.4875Y-1.5
X1.5125Y-2.25
X1.6062Y-3.0
X1.6062Y-4.5
X1.7937Y-3.75
X1.8625Y-2.25
X1.8875Y-1.5
X2.05Y-3.0
X2.05Y-4.5
X2.2375Y-1.5
X2.2625Y-2.25
X2.425Y-3.75
X2.45Y-3.0
X2.45Y-4.5
X2.6125Y-2.25
X2.6375Y-1.5
X2.8Y-3.0
X2.825Y-3.75
X2.8937Y-4.5
X2.9875Y-1.5
X3.0125Y-2.25
X3.175Y-3.75
X3.2Y-3.0
X3.2937Y-4.5
X3.3625Y-2.25
X3.3875Y-1.5
X3.55Y-3.0
X3.575Y-3.75
X3.7375Y-1.5
X3.7625Y-2.25
X3.925Y-3.75
X3.95Y-3.0
X4.1125Y-2.25
X4.1375Y-1.5
X4.3Y-3.0
X4.325Y-3.75
X4.3937Y-4.5
X4.4875Y-1.5
X4.5125Y-2.25
X4.675Y-3.75
X4.7Y-3.0
X4.7938Y-4.5
X4.8625Y-2.25
X4.8875Y-1.5
X5.05Y-3.0
X5.075Y-3.75
X5.2375Y-1.5
X5.2625Y-2.25
X5.425Y-3.75
X5.45Y-3.0
X5.6125Y-2.25
X5.6375Y-1.5
X5.7062Y-4.5
X5.8Y-3.0
X5.825Y-3.75
X6.0125Y-2.25
X6.1063Y-4.5
X6.175Y-3.75
X6.2Y-3.0
X6.2687Y-4.5
X6.3625Y-2.25
X6.55Y-3.0
X6.575Y-3.75
X6.6688Y-4.5
X6.7625Y-2.25
X6.925Y-3.75
X6.95Y-3.0
X7.1125Y-2.25
X7.3Y-3.0
X7.325Y-3.75
X7.5125Y-2.25
X7.5812Y-4.5
X7.675Y-3.75
X7.7Y-3.0
X7.8625Y-2.25
X7.9813Y-4.5
X8.05Y-3.0
X8.075Y-3.75
X8.2625Y-2.25
X8.425Y-3.75
X8.425Y-4.5
X8.45Y-3.0
X8.6125Y-2.25
X8.8Y-3.0
X8.825Y-3.75
X8.825Y-4.5
X9.0125Y-2.25
X9.175Y-3.75
X9.175Y-4.5
X9.2Y-3.0
X9.575Y-3.75
X9.575Y-4.5
X9.6437Y-2.25
X9.7375Y-3.0
X9.925Y-3.75
X9.925Y-4.5
X10.0437Y-2.25
X10.1375Y-3.0
X10.325Y-3.75
X10.325Y-4.5
T3
X1.1625Y-2.15
X1.2562Y-2.9
X1.2562Y-4.4
X1.4125Y-2.05
X1.4437Y-3.65
X1.5062Y-2.8
X1.5062Y-4.3
X1.5875Y-1.7
X1.6937Y-3.55
X1.8375Y-1.6
X1.9125Y-2.15
X2.1Y-2.9
X2.1Y-4.4
X2.1625Y-2.05
X2.3375Y-1.7
X2.35Y-2.8
X2.35Y-4.3
X2.475Y-3.65
X2.5875Y-1.6
X2.6625Y-2.15
X2.725Y-3.55
X2.85Y-2.9
X2.9125Y-2.05
X2.9438Y-4.4
X3.0375Y-1.4
X3.1Y-2.8
X3.1938Y-4.3
X3.225Y-3.65
X3.2875Y-1.3
X3.4125Y-2.15
X3.475Y-3.55
X3.6Y-2.9
X3.6625Y-2.05
X3.7875Y-1.4
X3.85Y-2.8
X3.975Y-3.65
X4.0375Y-1.3
X4.1625Y-2.15
X4.225Y-3.55
X4.35Y-2.9
X4.4125Y-2.05
X4.4437Y-4.4
X4.5375Y-1.4
X4.6Y-2.8
X4.6937Y-4.3
X4.725Y-3.65
X4.7875Y-1.3
X4.9125Y-2.15
X4.975Y-3.55
X5.1Y-2.9
X5.1625Y-2.05
X5.2875Y-1.4
X5.35Y-2.8
X5.475Y-3.65
X5.5375Y-1.3
X5.6625Y-2.15
X5.725Y-3.55
X5.7562Y-4.4
X5.85Y-2.9
X5.9125Y-2.05
X6.0062Y-4.3
X6.1Y-2.8
X6.225Y-3.65
X6.3187Y-4.4
X6.4125Y-2.15
X6.475Y-3.55
X6.5687Y-4.3
X6.6Y-2.9
X6.6625Y-2.05
X6.85Y-2.8
X6.975Y-3.65
X7.1625Y-2.15
X7.225Y-3.55
X7.35Y-2.9
X7.4125Y-2.05
X7.6Y-2.8
X7.6312Y-4.4
X7.725Y-3.65
X7.8812Y-4.3
X7.9125Y-2.15
X7.975Y-3.55
X8.1Y-2.9
X8.1625Y-2.05
X8.35Y-2.8
X8.475Y-3.65
X8.475Y-4.4
X8.6625Y-2.15
X8.725Y-3.55
X8.725Y-4.3
X8.85Y-2.9
X8.9125Y-2.05
X9.1Y-2.8
X9.225Y-3.65
X9.225Y-4.4
X9.475Y-3.55
X9.475Y-4.3
X9.6937Y-2.15
X9.7875Y-2.9
X9.9437Y-2.05
X9.975Y-3.65
X9.975Y-4.4
X10.0375Y-2.8
X10.225Y-3.55
X10.225Y-4.3
T4
X3.9377Y-4.775
X4.1238Y-4.775
X5.0637Y-4.775
X5.9988Y-4.775
X6.9387Y-4.775
X7.8747Y-4.775
T5
X1.3125Y-2.25
X1.4062Y-3.0
X1.4062Y-4.5
X1.5938Y-3.75
X1.6875Y-1.5
X2.0625Y-2.25
X2.25Y-3.0
X2.25Y-4.5
X2.4375Y-1.5
X2.625Y-3.75
X2.8125Y-2.25
X3.0Y-3.0
X3.0938Y-4.5
X3.1875Y-1.5
X3.375Y-3.75
X3.5625Y-2.25
X3.75Y-3.0
X3.9375Y-1.5
X3.9377Y-4.175
X4.1238Y-4.175
X4.125Y-3.75
X4.3125Y-2.25
X4.5Y-3.0
X4.5938Y-4.5
X4.6875Y-1.5
X4.875Y-3.75
X5.0625Y-2.25
X5.0637Y-4.175
X5.25Y-3.0
X5.4375Y-1.5
X5.625Y-3.75
X5.8125Y-2.25
X5.9062Y-4.5
X5.9988Y-4.175
X6.0Y-3.0
X6.375Y-3.75
X6.4688Y-4.5
X6.5625Y-2.25
X6.75Y-3.0
X6.9387Y-4.175
X7.125Y-3.75
X7.3125Y-2.25
X7.5Y-3.0
X7.7812Y-4.5
X7.8747Y-4.175
X7.875Y-3.75
X8.0625Y-2.25
X8.25Y-3.0
X8.625Y-3.75
X8.625Y-4.5
X8.8125Y-2.25
X9.0Y-3.0
X9.375Y-3.75
X9.375Y-4.5
X9.8438Y-2.25
X9.9375Y-3.0
X10.125Y-3.75
X10.125Y-4.5
T0
M30
