M48
; DRILL file {KiCad (6.0.0-rc1-249-g84cfa052a1)} date Sun Feb  6 05:40:32 2022
; FORMAT={-:-/ absolute / metric / decimal}
; #@! TF.CreationDate,2022-02-06T05:40:32-08:00
; #@! TF.GenerationSoftware,Kicad,Pcbnew,(6.0.0-rc1-249-g84cfa052a1)
; #@! TF.FileFunction,NonPlated,1,2,NPTH
FMAT,2
METRIC
; #@! TA.AperFunction,NonPlated,NPTH,ComponentDrill
T1C0.650
; #@! TA.AperFunction,NonPlated,NPTH,ComponentDrill
T2C1.750
; #@! TA.AperFunction,NonPlated,NPTH,ComponentDrill
T3C3.000
; #@! TA.AperFunction,NonPlated,NPTH,ComponentDrill
T4C3.048
; #@! TA.AperFunction,NonPlated,NPTH,ComponentDrill
T5C3.988
%
G90
G05
T1
X49.434Y-31.777
X55.214Y-31.777
T2
X28.258Y-57.15
X30.639Y-76.2
X30.639Y-114.3
X35.401Y-95.25
X37.782Y-38.1
X38.417Y-57.15
X40.799Y-76.2
X40.799Y-114.3
X45.561Y-95.25
X47.307Y-57.15
X47.942Y-38.1
X52.07Y-76.2
X52.07Y-114.3
X56.832Y-38.1
X57.467Y-57.15
X61.595Y-95.25
X62.23Y-76.2
X62.23Y-114.3
X66.358Y-57.15
X66.992Y-38.1
X71.12Y-76.2
X71.755Y-95.25
X73.501Y-114.3
X75.882Y-38.1
X76.517Y-57.15
X80.645Y-95.25
X81.28Y-76.2
X83.661Y-114.3
X85.407Y-57.15
X86.042Y-38.1
X90.17Y-76.2
X90.805Y-95.25
X94.932Y-38.1
X95.567Y-57.15
X99.695Y-95.25
X100.33Y-76.2
X104.457Y-57.15
X105.093Y-38.1
X109.22Y-76.2
X109.855Y-95.25
X111.601Y-114.3
X113.983Y-38.1
X114.617Y-57.15
X118.745Y-95.25
X119.38Y-76.2
X121.761Y-114.3
X123.507Y-57.15
X124.142Y-38.1
X128.27Y-76.2
X128.905Y-95.25
X133.032Y-38.1
X133.667Y-57.15
X137.795Y-95.25
X138.43Y-76.2
X142.558Y-57.15
X143.192Y-38.1
X144.939Y-114.3
X147.32Y-76.2
X147.955Y-95.25
X152.718Y-57.15
X155.099Y-114.3
X156.845Y-95.25
X157.48Y-76.2
X159.226Y-114.3
X161.607Y-57.15
X166.37Y-76.2
X167.005Y-95.25
X169.386Y-114.3
X171.767Y-57.15
X175.895Y-95.25
X176.53Y-76.2
X180.657Y-57.15
X185.42Y-76.2
X186.055Y-95.25
X190.817Y-57.15
X192.564Y-114.3
X194.945Y-95.25
X195.58Y-76.2
X199.707Y-57.15
X202.724Y-114.3
X204.47Y-76.2
X205.105Y-95.25
X209.867Y-57.15
X213.995Y-95.25
X213.995Y-114.3
X214.63Y-76.2
X218.757Y-57.15
X223.52Y-76.2
X224.155Y-95.25
X224.155Y-114.3
X228.917Y-57.15
X233.045Y-95.25
X233.045Y-114.3
X233.68Y-76.2
X243.205Y-95.25
X243.205Y-114.3
X244.951Y-57.15
X247.332Y-76.2
X252.095Y-95.25
X252.095Y-114.3
X255.111Y-57.15
X257.493Y-76.2
X262.255Y-95.25
X262.255Y-114.3
T3
X29.527Y-54.61
X31.909Y-73.66
X31.909Y-111.76
X35.877Y-52.07
X36.671Y-92.71
X38.259Y-71.12
X38.259Y-109.22
X40.322Y-43.18
X43.021Y-90.17
X46.672Y-40.64
X48.578Y-54.61
X53.34Y-73.66
X53.34Y-111.76
X54.927Y-52.07
X59.372Y-43.18
X59.69Y-71.12
X59.69Y-109.22
X62.865Y-92.71
X65.722Y-40.64
X67.627Y-54.61
X69.215Y-90.17
X72.39Y-73.66
X73.977Y-52.07
X74.771Y-111.76
X77.153Y-35.56
X78.74Y-71.12
X81.121Y-109.22
X81.915Y-92.71
X83.502Y-33.02
X86.677Y-54.61
X88.265Y-90.17
X91.44Y-73.66
X93.027Y-52.07
X96.203Y-35.56
X97.79Y-71.12
X100.965Y-92.71
X102.552Y-33.02
X105.727Y-54.61
X107.315Y-90.17
X110.49Y-73.66
X112.078Y-52.07
X112.871Y-111.76
X115.252Y-35.56
X116.84Y-71.12
X119.221Y-109.22
X120.015Y-92.71
X121.602Y-33.02
X124.777Y-54.61
X126.365Y-90.17
X129.54Y-73.66
X131.127Y-52.07
X134.302Y-35.56
X135.89Y-71.12
X139.065Y-92.71
X140.653Y-33.02
X143.827Y-54.61
X145.415Y-90.17
X146.209Y-111.76
X148.59Y-73.66
X150.177Y-52.07
X152.559Y-109.22
X154.94Y-71.12
X158.115Y-92.71
X160.496Y-111.76
X162.877Y-54.61
X164.465Y-90.17
X166.846Y-109.22
X167.64Y-73.66
X169.227Y-52.07
X173.99Y-71.12
X177.165Y-92.71
X181.927Y-54.61
X183.515Y-90.17
X186.69Y-73.66
X188.278Y-52.07
X193.04Y-71.12
X193.834Y-111.76
X196.215Y-92.71
X200.184Y-109.22
X200.977Y-54.61
X202.565Y-90.17
X205.74Y-73.66
X207.327Y-52.07
X212.09Y-71.12
X215.265Y-92.71
X215.265Y-111.76
X220.028Y-54.61
X221.615Y-90.17
X221.615Y-109.22
X224.79Y-73.66
X226.377Y-52.07
X231.14Y-71.12
X234.315Y-92.71
X234.315Y-111.76
X240.665Y-90.17
X240.665Y-109.22
X246.221Y-54.61
X248.602Y-73.66
X252.571Y-52.07
X253.365Y-92.71
X253.365Y-111.76
X254.952Y-71.12
X259.715Y-90.17
X259.715Y-109.22
T4
X100.019Y-121.285
X104.743Y-121.285
X128.619Y-121.285
X152.368Y-121.285
X176.244Y-121.285
X200.019Y-121.285
T5
X33.337Y-57.15
X35.719Y-76.2
X35.719Y-114.3
X40.481Y-95.25
X42.862Y-38.1
X52.387Y-57.15
X57.15Y-76.2
X57.15Y-114.3
X61.912Y-38.1
X66.675Y-95.25
X71.438Y-57.15
X76.2Y-76.2
X78.581Y-114.3
X80.962Y-38.1
X85.725Y-95.25
X90.487Y-57.15
X95.25Y-76.2
X100.012Y-38.1
X100.019Y-106.045
X104.743Y-106.045
X104.775Y-95.25
X109.537Y-57.15
X114.3Y-76.2
X116.681Y-114.3
X119.062Y-38.1
X123.825Y-95.25
X128.588Y-57.15
X128.619Y-106.045
X133.35Y-76.2
X138.112Y-38.1
X142.875Y-95.25
X147.637Y-57.15
X150.019Y-114.3
X152.368Y-106.045
X152.4Y-76.2
X161.925Y-95.25
X164.306Y-114.3
X166.688Y-57.15
X171.45Y-76.2
X176.244Y-106.045
X180.975Y-95.25
X185.737Y-57.15
X190.5Y-76.2
X197.644Y-114.3
X200.019Y-106.045
X200.025Y-95.25
X204.787Y-57.15
X209.55Y-76.2
X219.075Y-95.25
X219.075Y-114.3
X223.837Y-57.15
X228.6Y-76.2
X238.125Y-95.25
X238.125Y-114.3
X250.031Y-57.15
X252.412Y-76.2
X257.175Y-95.25
X257.175Y-114.3
T0
M30
