G04 #@! TF.GenerationSoftware,KiCad,Pcbnew,(6.0.0-rc1-249-g84cfa052a1)*
G04 #@! TF.CreationDate,2022-02-06T04:28:52-08:00*
G04 #@! TF.ProjectId,Memoria,4d656d6f-7269-4612-9e6b-696361645f70,rev?*
G04 #@! TF.SameCoordinates,Original*
G04 #@! TF.FileFunction,Legend,Top*
G04 #@! TF.FilePolarity,Positive*
%FSLAX46Y46*%
G04 Gerber Fmt 4.6, Leading zero omitted, Abs format (unit mm)*
G04 Created by KiCad (PCBNEW (6.0.0-rc1-249-g84cfa052a1)) date 2022-02-06 04:28:52*
%MOMM*%
%LPD*%
G01*
G04 APERTURE LIST*
%ADD10C,0.200000*%
%ADD11C,1.750000*%
%ADD12C,3.987800*%
%ADD13C,3.000000*%
%ADD14R,1.501140X0.899160*%
%ADD15R,1.700000X1.700000*%
%ADD16O,1.700000X1.700000*%
%ADD17R,1.800000X1.800000*%
%ADD18C,1.800000*%
%ADD19C,3.048000*%
%ADD20C,0.650000*%
%ADD21O,1.000000X2.100000*%
%ADD22O,1.000000X1.600000*%
G04 APERTURE END LIST*
D10*
X30018000Y-34217000D02*
X30318000Y-33967000D01*
X30018000Y-45267000D02*
X30318000Y-45017000D01*
G36*
X48794667Y-85809333D02*
G01*
X48710000Y-85894000D01*
X48625333Y-85809333D01*
X48710000Y-85724667D01*
X48794667Y-85809333D01*
G37*
G36*
X141341725Y-78333053D02*
G01*
X141575470Y-78118160D01*
X141619796Y-78005195D01*
X141669342Y-77824371D01*
X141859935Y-77481228D01*
X141927030Y-77377484D01*
X142149740Y-77057841D01*
X142225255Y-77010492D01*
X142185280Y-77220176D01*
X142175268Y-77258000D01*
X141989446Y-77746230D01*
X141818664Y-78067116D01*
X141664934Y-78395890D01*
X141655789Y-78583201D01*
X141652700Y-78824919D01*
X141605546Y-78925100D01*
X141450490Y-79031391D01*
X141242111Y-78856358D01*
X141106615Y-78614522D01*
X141162703Y-78528000D01*
X141250667Y-78528000D01*
X141335333Y-78612667D01*
X141420000Y-78528000D01*
X141335333Y-78443333D01*
X141250667Y-78528000D01*
X141162703Y-78528000D01*
X141236150Y-78414701D01*
X141341725Y-78333053D01*
G37*
G36*
X211161144Y-75833198D02*
G01*
X211156434Y-75818667D01*
X211354667Y-75818667D01*
X211439333Y-75903333D01*
X211524000Y-75818667D01*
X211439333Y-75734000D01*
X211354667Y-75818667D01*
X211156434Y-75818667D01*
X211059700Y-75520257D01*
X211073124Y-75480000D01*
X211354667Y-75480000D01*
X211439333Y-75564667D01*
X211524000Y-75480000D01*
X211439333Y-75395333D01*
X211354667Y-75480000D01*
X211073124Y-75480000D01*
X211141587Y-75274686D01*
X211442918Y-74972000D01*
X212032000Y-74972000D01*
X212116667Y-75056667D01*
X212201333Y-74972000D01*
X212116667Y-74887333D01*
X212032000Y-74972000D01*
X211442918Y-74972000D01*
X211451622Y-74963257D01*
X211454723Y-74960513D01*
X211879266Y-74633333D01*
X212032000Y-74633333D01*
X212116667Y-74718000D01*
X212201333Y-74633333D01*
X212116667Y-74548667D01*
X212032000Y-74633333D01*
X211879266Y-74633333D01*
X211887905Y-74626675D01*
X212297241Y-74385443D01*
X212339357Y-74367326D01*
X212837654Y-74248275D01*
X213430502Y-74215349D01*
X213987242Y-74264309D01*
X214377216Y-74390917D01*
X214434417Y-74435274D01*
X214703016Y-74601352D01*
X214827512Y-74608617D01*
X215121607Y-74670161D01*
X215456181Y-74933312D01*
X215724666Y-75294598D01*
X215818952Y-75571232D01*
X215941144Y-76067885D01*
X216063850Y-76355319D01*
X216162854Y-76767501D01*
X216169074Y-77352311D01*
X216095034Y-77961415D01*
X215953263Y-78446484D01*
X215876144Y-78578039D01*
X215596719Y-78721275D01*
X215457350Y-78703119D01*
X215283981Y-78711437D01*
X215300276Y-78839845D01*
X215256226Y-79068936D01*
X215062276Y-79342665D01*
X214820948Y-79549468D01*
X214634767Y-79577779D01*
X214627823Y-79571601D01*
X214423857Y-79552962D01*
X214093587Y-79618079D01*
X213700276Y-79698530D01*
X213471333Y-79702081D01*
X213189318Y-79635150D01*
X212845874Y-79557980D01*
X212300254Y-79308108D01*
X211751857Y-78854082D01*
X211321925Y-78306888D01*
X211194027Y-78045831D01*
X211098817Y-77430002D01*
X211186004Y-76916842D01*
X211218055Y-76693687D01*
X211848364Y-76693687D01*
X211985810Y-77187496D01*
X212230686Y-77725325D01*
X212537215Y-78228245D01*
X212859619Y-78617327D01*
X213152120Y-78813644D01*
X213302000Y-78801948D01*
X213618134Y-78710443D01*
X213725333Y-78701809D01*
X214031400Y-78798428D01*
X214103740Y-78866667D01*
X214206784Y-78881998D01*
X214230740Y-78739667D01*
X214339876Y-78488768D01*
X214461089Y-78443333D01*
X214822173Y-78283372D01*
X215131771Y-77840044D01*
X215356148Y-77168183D01*
X215405290Y-76908527D01*
X215471799Y-76335266D01*
X215436813Y-75983904D01*
X215289542Y-75750049D01*
X215285088Y-75745564D01*
X215060178Y-75587082D01*
X214952496Y-75693178D01*
X214776606Y-75889014D01*
X214709105Y-75903333D01*
X214604718Y-75780890D01*
X214627130Y-75665243D01*
X214582670Y-75361347D01*
X214282839Y-75063087D01*
X213805314Y-74837535D01*
X213611656Y-74788398D01*
X213230654Y-74768714D01*
X212874755Y-74916959D01*
X212474080Y-75232255D01*
X212130367Y-75561419D01*
X211942426Y-75796307D01*
X211930835Y-75858613D01*
X211939162Y-76058217D01*
X211864127Y-76322825D01*
X211848364Y-76693687D01*
X211218055Y-76693687D01*
X211274221Y-76302626D01*
X211161144Y-75833198D01*
G37*
G36*
X212032000Y-86317333D02*
G01*
X211947333Y-86402000D01*
X211862667Y-86317333D01*
X211947333Y-86232667D01*
X212032000Y-86317333D01*
G37*
G36*
X230150667Y-87841333D02*
G01*
X230066000Y-87926000D01*
X229981333Y-87841333D01*
X230066000Y-87756667D01*
X230150667Y-87841333D01*
G37*
G36*
X250421492Y-97345921D02*
G01*
X250301335Y-97114712D01*
X250301333Y-97113934D01*
X250211529Y-96915877D01*
X250158803Y-96900667D01*
X250026794Y-96754545D01*
X249867053Y-96388372D01*
X249813641Y-96224339D01*
X249699554Y-95703175D01*
X249711834Y-95602506D01*
X250232049Y-95602506D01*
X250323127Y-96105349D01*
X250497503Y-96549483D01*
X250657486Y-96758476D01*
X250903909Y-97038776D01*
X250978667Y-97218828D01*
X251102176Y-97325013D01*
X251232667Y-97300569D01*
X251449891Y-97312643D01*
X251486667Y-97400543D01*
X251576177Y-97527768D01*
X251631053Y-97508751D01*
X251861652Y-97529487D01*
X252096720Y-97662705D01*
X252436720Y-97877929D01*
X252628594Y-97851673D01*
X252733235Y-97662667D01*
X252937090Y-97437786D01*
X253049828Y-97408667D01*
X253297982Y-97284302D01*
X253586861Y-96985333D01*
X253873482Y-96686535D01*
X254116660Y-96562000D01*
X254116935Y-96562000D01*
X254362857Y-96405827D01*
X254567092Y-95989789D01*
X254633651Y-95732285D01*
X254806566Y-95431489D01*
X254880154Y-95372451D01*
X254989395Y-95226604D01*
X254879868Y-95126705D01*
X254753754Y-94885836D01*
X254774268Y-94760462D01*
X254727946Y-94499991D01*
X254616478Y-94420806D01*
X254404747Y-94190870D01*
X254365333Y-94003883D01*
X254286513Y-93738786D01*
X254186006Y-93683333D01*
X254092350Y-93790274D01*
X254127503Y-93878830D01*
X254147461Y-93994704D01*
X254052830Y-93953503D01*
X253872452Y-93691854D01*
X253857333Y-93588673D01*
X253722210Y-93388130D01*
X253379721Y-93330314D01*
X252924182Y-93404061D01*
X252449910Y-93598210D01*
X252170796Y-93788266D01*
X251843117Y-94082965D01*
X251744019Y-94288023D01*
X251840223Y-94528564D01*
X251934668Y-94676080D01*
X252225728Y-95120294D01*
X251813864Y-94842854D01*
X251531439Y-94563629D01*
X251448454Y-94308085D01*
X251388383Y-94112974D01*
X251173554Y-94106320D01*
X250913056Y-94264257D01*
X250762985Y-94458056D01*
X250524436Y-94782212D01*
X250374721Y-94910439D01*
X250243002Y-95163390D01*
X250232049Y-95602506D01*
X249711834Y-95602506D01*
X249744950Y-95331016D01*
X249821027Y-95166005D01*
X249999540Y-94778049D01*
X250070892Y-94542681D01*
X250241357Y-94254341D01*
X250367010Y-94157944D01*
X250706545Y-93914824D01*
X250873546Y-93764264D01*
X251247547Y-93553177D01*
X251474571Y-93514000D01*
X251756308Y-93450115D01*
X251825333Y-93356682D01*
X251973424Y-93229772D01*
X252346177Y-93069128D01*
X252836315Y-92908175D01*
X253336559Y-92780337D01*
X253739630Y-92719040D01*
X253861688Y-92722213D01*
X254167934Y-92862472D01*
X254489058Y-93135997D01*
X254728730Y-93441126D01*
X254790617Y-93676199D01*
X254782256Y-93693705D01*
X254807410Y-93817547D01*
X254891629Y-93814529D01*
X255063213Y-93926047D01*
X255197852Y-94274011D01*
X255281376Y-94756965D01*
X255299617Y-95273457D01*
X255238403Y-95722030D01*
X255179750Y-95877462D01*
X254960213Y-96235850D01*
X254788936Y-96428823D01*
X254627056Y-96652628D01*
X254619333Y-96704124D01*
X254502658Y-96905836D01*
X254212890Y-97211575D01*
X253840415Y-97543493D01*
X253475620Y-97823742D01*
X253208890Y-97974472D01*
X253141116Y-97977301D01*
X253014152Y-98004231D01*
X253010607Y-98033673D01*
X252864722Y-98149661D01*
X252506413Y-98196203D01*
X252054505Y-98174347D01*
X251627823Y-98085140D01*
X251469471Y-98020077D01*
X251138700Y-97832000D01*
X251317333Y-97832000D01*
X251402000Y-97916667D01*
X251486667Y-97832000D01*
X251402000Y-97747333D01*
X251317333Y-97832000D01*
X251138700Y-97832000D01*
X250800666Y-97639793D01*
X250421492Y-97345921D01*
G37*
G36*
X178528399Y-82641823D02*
G01*
X178704080Y-82820405D01*
X178925415Y-83062842D01*
X179048843Y-83119572D01*
X179259692Y-83200818D01*
X179474546Y-83354000D01*
X179859506Y-83626217D01*
X180227773Y-83840647D01*
X180575554Y-84114434D01*
X180771620Y-84444139D01*
X180765541Y-84724619D01*
X180689436Y-84803158D01*
X180567073Y-84744407D01*
X180536000Y-84560738D01*
X180385163Y-84236227D01*
X180155000Y-84107382D01*
X179707926Y-83895928D01*
X179477667Y-83731060D01*
X179252472Y-83575699D01*
X179181333Y-83591329D01*
X179055754Y-83596241D01*
X178746308Y-83453589D01*
X178673333Y-83411730D01*
X178279073Y-83094765D01*
X178171088Y-82800754D01*
X178323080Y-82599160D01*
X178528399Y-82641823D01*
G37*
G36*
X251148000Y-94276000D02*
G01*
X251063333Y-94360667D01*
X250978667Y-94276000D01*
X251063333Y-94191333D01*
X251148000Y-94276000D01*
G37*
G36*
X210732903Y-88622811D02*
G01*
X210767547Y-88541336D01*
X210813205Y-88434000D01*
X211608667Y-88434000D01*
X211622092Y-88590038D01*
X211683340Y-88603333D01*
X211855775Y-88480412D01*
X211862667Y-88434000D01*
X211804893Y-88269069D01*
X211787993Y-88264667D01*
X211643422Y-88383324D01*
X211608667Y-88434000D01*
X210813205Y-88434000D01*
X210941223Y-88133047D01*
X211015941Y-87838115D01*
X211016000Y-87833434D01*
X211152086Y-87595486D01*
X211165941Y-87587333D01*
X212032000Y-87587333D01*
X212093956Y-87726714D01*
X212144889Y-87700222D01*
X212165155Y-87499263D01*
X212144889Y-87474444D01*
X212044220Y-87497689D01*
X212032000Y-87587333D01*
X211165941Y-87587333D01*
X211270000Y-87526098D01*
X211480413Y-87296090D01*
X211524000Y-87090605D01*
X211555884Y-87011307D01*
X212113152Y-87011307D01*
X212127633Y-87097077D01*
X212274306Y-87237860D01*
X212401916Y-87069614D01*
X212428593Y-87003290D01*
X212420993Y-86831386D01*
X212278349Y-86851700D01*
X212113152Y-87011307D01*
X211555884Y-87011307D01*
X211660851Y-86750243D01*
X211875800Y-86564304D01*
X212117295Y-86329937D01*
X212121483Y-86289111D01*
X212596444Y-86289111D01*
X212619689Y-86389779D01*
X212709333Y-86402000D01*
X212848714Y-86340043D01*
X212822222Y-86289111D01*
X212621263Y-86268845D01*
X212596444Y-86289111D01*
X212121483Y-86289111D01*
X212136833Y-86139492D01*
X212156293Y-85978667D01*
X212540000Y-85978667D01*
X212624667Y-86063333D01*
X212709333Y-85978667D01*
X212624667Y-85894000D01*
X212540000Y-85978667D01*
X212156293Y-85978667D01*
X212171302Y-85854633D01*
X212254265Y-85771478D01*
X212470251Y-85528869D01*
X212666935Y-85174333D01*
X212890433Y-84842038D01*
X213129036Y-84708667D01*
X213307977Y-84747849D01*
X213401570Y-84925111D01*
X213448354Y-85330022D01*
X213456878Y-85470667D01*
X213540615Y-85866479D01*
X213615228Y-86028417D01*
X213643183Y-86335911D01*
X213572047Y-86467331D01*
X213469890Y-86711445D01*
X213501025Y-86798580D01*
X213463358Y-86891202D01*
X213320229Y-86910000D01*
X213122916Y-86984108D01*
X213130504Y-87075834D01*
X213142741Y-87343886D01*
X213063892Y-87557637D01*
X212899537Y-87977214D01*
X212815297Y-88311988D01*
X212694227Y-88757438D01*
X212497335Y-89295147D01*
X212454442Y-89396518D01*
X212202849Y-89975660D01*
X211958859Y-90539309D01*
X211933207Y-90598745D01*
X211770376Y-91042586D01*
X211694117Y-91381164D01*
X211693333Y-91403078D01*
X211603341Y-91624759D01*
X211530068Y-91651333D01*
X211461936Y-91806202D01*
X211426984Y-92216879D01*
X211421965Y-92802472D01*
X211443628Y-93482087D01*
X211488726Y-94174832D01*
X211554008Y-94799814D01*
X211636225Y-95276139D01*
X211681887Y-95431228D01*
X211811926Y-95818481D01*
X211862667Y-96054000D01*
X211922421Y-96303548D01*
X212060144Y-96677976D01*
X212233760Y-97113140D01*
X212316915Y-97383749D01*
X212349500Y-97578000D01*
X212508183Y-97727368D01*
X212634660Y-97747333D01*
X212813206Y-97669877D01*
X212800432Y-97588407D01*
X212829174Y-97373866D01*
X212917715Y-97292074D01*
X213147918Y-97048763D01*
X213370130Y-96694779D01*
X213571344Y-96397128D01*
X213731023Y-96311800D01*
X213735062Y-96314013D01*
X213804395Y-96249049D01*
X213780557Y-96077553D01*
X213827058Y-95782770D01*
X214027863Y-95675719D01*
X214271276Y-95499654D01*
X214426014Y-95082823D01*
X214471794Y-94828597D01*
X214595204Y-94286755D01*
X214766807Y-93846324D01*
X214827561Y-93748531D01*
X215021023Y-93385578D01*
X216534603Y-93385578D01*
X216570979Y-94359016D01*
X216856327Y-95205739D01*
X217045034Y-95499511D01*
X217306952Y-95874068D01*
X217448327Y-96136991D01*
X217456632Y-96176844D01*
X217601956Y-96294052D01*
X217969228Y-96422478D01*
X218443797Y-96535978D01*
X218911014Y-96608408D01*
X219256226Y-96613625D01*
X219313333Y-96600227D01*
X219655736Y-96513880D01*
X220121887Y-96432511D01*
X220574042Y-96279726D01*
X220850050Y-96030238D01*
X221037302Y-95805479D01*
X221153665Y-95786196D01*
X221350124Y-95736169D01*
X221666563Y-95509527D01*
X221730445Y-95452272D01*
X222050797Y-95178349D01*
X222259653Y-95041541D01*
X222276423Y-95038000D01*
X222371751Y-95010816D01*
X222536887Y-94896738D01*
X222834528Y-94646980D01*
X223259058Y-94273370D01*
X223612066Y-93997589D01*
X223874010Y-93857185D01*
X223904051Y-93852667D01*
X223997044Y-93748410D01*
X223970000Y-93683333D01*
X224010211Y-93539875D01*
X224139333Y-93514000D01*
X224319915Y-93429033D01*
X224290882Y-93315890D01*
X224282675Y-93188729D01*
X224450222Y-93225909D01*
X224683010Y-93222450D01*
X224732000Y-93038318D01*
X224861143Y-92709981D01*
X225160260Y-92376787D01*
X225496881Y-92174348D01*
X225590596Y-92159333D01*
X225698404Y-92062526D01*
X225679182Y-92015644D01*
X225717285Y-91803020D01*
X225923189Y-91514725D01*
X226165463Y-91205145D01*
X226256000Y-91000830D01*
X226397174Y-90837514D01*
X226599527Y-90754331D01*
X226855482Y-90591429D01*
X226895860Y-90438248D01*
X226988906Y-90259996D01*
X227150743Y-90236476D01*
X227367376Y-90176771D01*
X227350999Y-89940142D01*
X227333767Y-89681543D01*
X227407346Y-89619333D01*
X227560746Y-89478115D01*
X227782540Y-89116160D01*
X227930927Y-88815000D01*
X228195798Y-88255670D01*
X228449492Y-87757294D01*
X228543674Y-87587333D01*
X228701638Y-87217209D01*
X228782891Y-86837095D01*
X228778065Y-86550354D01*
X228677796Y-86460350D01*
X228644410Y-86475700D01*
X228465073Y-86430619D01*
X228395725Y-86316361D01*
X228164592Y-86100719D01*
X227988514Y-86063333D01*
X227638001Y-85983056D01*
X227517533Y-85904452D01*
X227244340Y-85764707D01*
X226848667Y-85664376D01*
X226493100Y-85599818D01*
X226340758Y-85556828D01*
X226340667Y-85556302D01*
X226205178Y-85477915D01*
X225913449Y-85473788D01*
X225637584Y-85535205D01*
X225553432Y-85596163D01*
X225377860Y-85692670D01*
X225179063Y-85575027D01*
X224871590Y-85449888D01*
X224573491Y-85549540D01*
X224302013Y-85651460D01*
X224224074Y-85535415D01*
X224224000Y-85527424D01*
X224167249Y-85408278D01*
X224034032Y-85508234D01*
X223735988Y-85628501D01*
X223610699Y-85608651D01*
X223406131Y-85627672D01*
X223377333Y-85706550D01*
X223232538Y-85847415D01*
X222954000Y-85894000D01*
X222635889Y-85959001D01*
X222530667Y-86084067D01*
X222448775Y-86173551D01*
X222276667Y-86063333D01*
X222076687Y-85946480D01*
X222022959Y-86106736D01*
X222022667Y-86137259D01*
X221945486Y-86328120D01*
X221853333Y-86317333D01*
X221697546Y-86336377D01*
X221684000Y-86402000D01*
X221580850Y-86512424D01*
X221514667Y-86486667D01*
X221373868Y-86530023D01*
X221345333Y-86674229D01*
X221300462Y-86872958D01*
X221245482Y-86866593D01*
X221075205Y-86909763D01*
X220765617Y-87136622D01*
X220627701Y-87261704D01*
X220250565Y-87571530D01*
X219937872Y-87743973D01*
X219870892Y-87756667D01*
X219705670Y-87831079D01*
X219718092Y-87895946D01*
X219650396Y-88075268D01*
X219387903Y-88402054D01*
X219050753Y-88744221D01*
X218654138Y-89131052D01*
X218381199Y-89423265D01*
X218297333Y-89543422D01*
X218170438Y-89787967D01*
X217800362Y-90231172D01*
X217322784Y-90733084D01*
X217027450Y-91077846D01*
X216900015Y-91322614D01*
X216917468Y-91381759D01*
X216946707Y-91577065D01*
X216869523Y-91986824D01*
X216754664Y-92365965D01*
X216534603Y-93385578D01*
X215021023Y-93385578D01*
X215023829Y-93380313D01*
X215074614Y-93153734D01*
X215200827Y-92817860D01*
X215334000Y-92667333D01*
X215551358Y-92332999D01*
X215588000Y-92138599D01*
X215657133Y-91874810D01*
X215743879Y-91820667D01*
X215884907Y-91674662D01*
X216009179Y-91322307D01*
X216011658Y-91311189D01*
X216143241Y-90973150D01*
X216307453Y-90915366D01*
X216307888Y-90915634D01*
X216422487Y-90908284D01*
X216391218Y-90766353D01*
X216423356Y-90459252D01*
X216625081Y-90143716D01*
X216833804Y-89834853D01*
X216856645Y-89617141D01*
X216860308Y-89462181D01*
X216912129Y-89450000D01*
X217079500Y-89309996D01*
X217269366Y-88970377D01*
X217280442Y-88944152D01*
X217462730Y-88625453D01*
X217626908Y-88524996D01*
X217639652Y-88530812D01*
X217768233Y-88481010D01*
X217789333Y-88359327D01*
X217871880Y-88127555D01*
X217947256Y-88095333D01*
X218051436Y-88010667D01*
X218636000Y-88010667D01*
X218720667Y-88095333D01*
X218805333Y-88010667D01*
X218720667Y-87926000D01*
X218636000Y-88010667D01*
X218051436Y-88010667D01*
X218119222Y-87955578D01*
X218212667Y-87756667D01*
X218353508Y-87587333D01*
X219144000Y-87587333D01*
X219205956Y-87726714D01*
X219256889Y-87700222D01*
X219277155Y-87499263D01*
X219256889Y-87474444D01*
X219156220Y-87497689D01*
X219144000Y-87587333D01*
X218353508Y-87587333D01*
X218444152Y-87478352D01*
X218657404Y-87418000D01*
X218883925Y-87350478D01*
X218884802Y-87333333D01*
X219482667Y-87333333D01*
X219567333Y-87418000D01*
X219652000Y-87333333D01*
X219567333Y-87248667D01*
X219482667Y-87333333D01*
X218884802Y-87333333D01*
X218889197Y-87247368D01*
X218907377Y-87006395D01*
X218915649Y-86994667D01*
X219652000Y-86994667D01*
X219736667Y-87079333D01*
X219821333Y-86994667D01*
X219990667Y-86994667D01*
X220075333Y-87079333D01*
X220160000Y-86994667D01*
X220075333Y-86910000D01*
X219990667Y-86994667D01*
X219821333Y-86994667D01*
X219736667Y-86910000D01*
X219652000Y-86994667D01*
X218915649Y-86994667D01*
X219034930Y-86825546D01*
X219255489Y-86673241D01*
X219371024Y-86784512D01*
X219439016Y-86811751D01*
X219451343Y-86729641D01*
X220370850Y-86729641D01*
X220394013Y-86740667D01*
X220548544Y-86621459D01*
X220583333Y-86571333D01*
X220626483Y-86413025D01*
X220603320Y-86402000D01*
X220448789Y-86521207D01*
X220414000Y-86571333D01*
X220370850Y-86729641D01*
X219451343Y-86729641D01*
X219469298Y-86610036D01*
X219643218Y-86221299D01*
X219948333Y-86017423D01*
X220384944Y-85755835D01*
X220674804Y-85496120D01*
X221095278Y-85243105D01*
X221563804Y-85182800D01*
X221969452Y-85144157D01*
X222182552Y-85048461D01*
X222192000Y-85020406D01*
X222296743Y-84935094D01*
X222361333Y-84962667D01*
X222517849Y-84960234D01*
X222530667Y-84907213D01*
X222674667Y-84763530D01*
X223011415Y-84680234D01*
X223398028Y-84672454D01*
X223691622Y-84755320D01*
X223723441Y-84780908D01*
X223940923Y-84849572D01*
X224108399Y-84697271D01*
X224351385Y-84557856D01*
X224780285Y-84450534D01*
X225290083Y-84384405D01*
X225775761Y-84368566D01*
X226132301Y-84412116D01*
X226256000Y-84511203D01*
X226390410Y-84608422D01*
X226592136Y-84589059D01*
X227021544Y-84577038D01*
X227227136Y-84632621D01*
X227564797Y-84755904D01*
X227695333Y-84786405D01*
X227830958Y-84935243D01*
X227828122Y-84995330D01*
X227928980Y-85111341D01*
X228134460Y-85092267D01*
X228442986Y-85117607D01*
X228562538Y-85328393D01*
X228781372Y-85606145D01*
X228997315Y-85680517D01*
X229432944Y-85857382D01*
X229830984Y-86252584D01*
X230021359Y-86599223D01*
X230243789Y-86871012D01*
X230605476Y-87109505D01*
X230939907Y-87317513D01*
X231084468Y-87501888D01*
X231084593Y-87504948D01*
X231170592Y-87796945D01*
X231200420Y-87849418D01*
X231229097Y-88126575D01*
X231197827Y-88188085D01*
X230916631Y-88375132D01*
X230583953Y-88229128D01*
X230317788Y-87922894D01*
X230074238Y-87640943D01*
X229838571Y-87449684D01*
X229683528Y-87390456D01*
X229681849Y-87504599D01*
X229727333Y-87587333D01*
X229746640Y-87867636D01*
X229705597Y-87961170D01*
X229560839Y-88359334D01*
X229467761Y-88917867D01*
X229452248Y-89365333D01*
X229468851Y-89698874D01*
X229498678Y-90252784D01*
X229535382Y-90909330D01*
X229536718Y-90932788D01*
X229551495Y-91544447D01*
X229525338Y-92013557D01*
X229463933Y-92247716D01*
X229455349Y-92255115D01*
X229310845Y-92514339D01*
X229436340Y-92900768D01*
X229612718Y-93140802D01*
X229859987Y-93528061D01*
X230099420Y-94058987D01*
X230157927Y-94225045D01*
X230455715Y-94937423D01*
X230776900Y-95313133D01*
X230985238Y-95376667D01*
X231159429Y-95489266D01*
X231166667Y-95532868D01*
X231320313Y-95692207D01*
X231724199Y-95866962D01*
X232292743Y-96028740D01*
X232940362Y-96149148D01*
X233075591Y-96166198D01*
X233572860Y-96257980D01*
X233939509Y-96386465D01*
X234000408Y-96425649D01*
X234172204Y-96491388D01*
X234217259Y-96286400D01*
X234245229Y-96077247D01*
X234358769Y-96184966D01*
X234384000Y-96223333D01*
X234520922Y-96361108D01*
X234550740Y-96265667D01*
X234696274Y-96101228D01*
X234938989Y-96054000D01*
X235375994Y-95956916D01*
X235700989Y-95790398D01*
X235973028Y-95629853D01*
X236077333Y-95623337D01*
X236214044Y-95627530D01*
X236554219Y-95518651D01*
X236674149Y-95470512D01*
X237140558Y-95332263D01*
X237517896Y-95313960D01*
X237563149Y-95325886D01*
X237745504Y-95351864D01*
X237725633Y-95288057D01*
X237800045Y-95158144D01*
X238087157Y-94946629D01*
X238489927Y-94708856D01*
X238911312Y-94500166D01*
X239254267Y-94375903D01*
X239349095Y-94362215D01*
X239569647Y-94253743D01*
X239742190Y-94106667D01*
X240092969Y-93894774D01*
X240304645Y-93852667D01*
X240610477Y-93741269D01*
X240702237Y-93620378D01*
X240897294Y-93416666D01*
X241295454Y-93155607D01*
X241567021Y-93012606D01*
X242009510Y-92770655D01*
X242290347Y-92563764D01*
X242342667Y-92482894D01*
X242471182Y-92332263D01*
X242506277Y-92328667D01*
X242727329Y-92213069D01*
X243147621Y-91887233D01*
X243729139Y-91382595D01*
X244400382Y-90762333D01*
X244631638Y-90573319D01*
X244713333Y-90557343D01*
X244813746Y-90539348D01*
X244950254Y-90430343D01*
X245118991Y-90221318D01*
X245125330Y-90147187D01*
X245199631Y-90011796D01*
X245463419Y-89768174D01*
X245499302Y-89739559D01*
X245873121Y-89384117D01*
X246284780Y-88906551D01*
X246411027Y-88739774D01*
X246736463Y-88355686D01*
X246953934Y-88238287D01*
X247005223Y-88274196D01*
X246987047Y-88449372D01*
X246784630Y-88767066D01*
X246381105Y-89247169D01*
X245759601Y-89909568D01*
X244903250Y-90774154D01*
X244788066Y-90888319D01*
X243984007Y-91663981D01*
X243354321Y-92228623D01*
X242916285Y-92567515D01*
X242700916Y-92667333D01*
X242514484Y-92802127D01*
X242450764Y-92921333D01*
X242224463Y-93146594D01*
X242093981Y-93175333D01*
X241865248Y-93265133D01*
X241834667Y-93344667D01*
X241697514Y-93494896D01*
X241580667Y-93514000D01*
X241355234Y-93599380D01*
X241326667Y-93671922D01*
X241187549Y-93846376D01*
X241008113Y-93930950D01*
X240645062Y-94116029D01*
X240304870Y-94365694D01*
X239929482Y-94609014D01*
X239621535Y-94699333D01*
X239333325Y-94795100D01*
X239257503Y-94895490D01*
X239056957Y-95071301D01*
X238794295Y-95152360D01*
X238381981Y-95321789D01*
X238173622Y-95506536D01*
X237998931Y-95686995D01*
X237945385Y-95673000D01*
X237841491Y-95683164D01*
X237601333Y-95884667D01*
X237249177Y-96139116D01*
X236966333Y-96228719D01*
X236599618Y-96331810D01*
X236341302Y-96482719D01*
X235920499Y-96672681D01*
X235536969Y-96731333D01*
X235194621Y-96788980D01*
X235061333Y-96918783D01*
X234938600Y-97033167D01*
X234812756Y-97010845D01*
X234536410Y-97018880D01*
X234456862Y-97089100D01*
X234232636Y-97191958D01*
X233817873Y-97222463D01*
X233727053Y-97217798D01*
X233258493Y-97220860D01*
X232924156Y-97287187D01*
X232896099Y-97301689D01*
X232583018Y-97353654D01*
X232308151Y-97302478D01*
X231863022Y-97218147D01*
X231606829Y-97221846D01*
X231193291Y-97188888D01*
X230929496Y-97100319D01*
X230504421Y-96918662D01*
X230273826Y-96835195D01*
X229960456Y-96603115D01*
X229864347Y-96438841D01*
X229669474Y-96123214D01*
X229339597Y-95753007D01*
X229299886Y-95715333D01*
X228883200Y-95235431D01*
X228545513Y-94678181D01*
X228314909Y-94120520D01*
X228219473Y-93639384D01*
X228287289Y-93311709D01*
X228392298Y-93229035D01*
X228542472Y-93087867D01*
X228447077Y-92908976D01*
X228339253Y-92625442D01*
X228368885Y-92504119D01*
X228356703Y-92254627D01*
X228242411Y-92089554D01*
X228097452Y-91798718D01*
X228083231Y-91300768D01*
X228112458Y-91022395D01*
X228167156Y-90533965D01*
X228147653Y-90312865D01*
X228026705Y-90291027D01*
X227849745Y-90366020D01*
X227597523Y-90576121D01*
X227563685Y-90757145D01*
X227548805Y-90951563D01*
X227486630Y-90974000D01*
X227306387Y-91111045D01*
X227133477Y-91397333D01*
X226902759Y-91710505D01*
X226672970Y-91820667D01*
X226494905Y-91901853D01*
X226510000Y-91990000D01*
X226476968Y-92139241D01*
X226377841Y-92159333D01*
X226139952Y-92297988D01*
X225947665Y-92583717D01*
X225737589Y-92880191D01*
X225539485Y-92964717D01*
X225369825Y-93046148D01*
X225367000Y-93133000D01*
X225303587Y-93327255D01*
X225240000Y-93344667D01*
X225089771Y-93481819D01*
X225070667Y-93598667D01*
X224929494Y-93805523D01*
X224732000Y-93852667D01*
X224466111Y-93905356D01*
X224413386Y-93979667D01*
X224371230Y-94403002D01*
X224048837Y-94691832D01*
X223970000Y-94730144D01*
X223659011Y-94920882D01*
X223546667Y-95074726D01*
X223426012Y-95284656D01*
X223132955Y-95597481D01*
X222770856Y-95919496D01*
X222443077Y-96157000D01*
X222279661Y-96223333D01*
X222062108Y-96351749D01*
X221892631Y-96562000D01*
X221643496Y-96828019D01*
X221464369Y-96900667D01*
X221188146Y-96973303D01*
X220754565Y-97155484D01*
X220583333Y-97239333D01*
X219887754Y-97486887D01*
X219137918Y-97584703D01*
X218441468Y-97533018D01*
X217906046Y-97332069D01*
X217783157Y-97233157D01*
X217493243Y-97011745D01*
X217299794Y-96973924D01*
X217089433Y-96930123D01*
X216770014Y-96703900D01*
X216435643Y-96383795D01*
X216180426Y-96058347D01*
X216096000Y-95841340D01*
X216005523Y-95574071D01*
X215928139Y-95517778D01*
X215795767Y-95327683D01*
X215700251Y-94941509D01*
X215695559Y-94904197D01*
X215621142Y-94503230D01*
X215527080Y-94253662D01*
X215448116Y-94216403D01*
X215418667Y-94418768D01*
X215298218Y-94738561D01*
X215080000Y-94992623D01*
X214805115Y-95425495D01*
X214741333Y-95817883D01*
X214675212Y-96234385D01*
X214439436Y-96429785D01*
X214380673Y-96447482D01*
X214116594Y-96616536D01*
X214119478Y-96800998D01*
X214093052Y-97117947D01*
X213961342Y-97317801D01*
X213790414Y-97580254D01*
X213790969Y-97716540D01*
X213751687Y-97935542D01*
X213497201Y-98223847D01*
X213120738Y-98510889D01*
X212715530Y-98726100D01*
X212374803Y-98798915D01*
X212362562Y-98797722D01*
X212102643Y-98719916D01*
X211872105Y-98515769D01*
X211630370Y-98128456D01*
X211336860Y-97501148D01*
X211189317Y-97154667D01*
X210993763Y-96704931D01*
X210836054Y-96367273D01*
X210749228Y-96043984D01*
X210681604Y-95524681D01*
X210659242Y-95181939D01*
X210625515Y-94631621D01*
X210578776Y-94209139D01*
X210548984Y-94068685D01*
X210492643Y-93966055D01*
X210398400Y-93972997D01*
X210223770Y-94127777D01*
X209926268Y-94468659D01*
X209463411Y-95033907D01*
X209425773Y-95080333D01*
X209042424Y-95507192D01*
X208708983Y-95798851D01*
X208530275Y-95884667D01*
X208364916Y-95963149D01*
X208379475Y-96034813D01*
X208353544Y-96246696D01*
X208141435Y-96441313D01*
X207882815Y-96509095D01*
X207808024Y-96483116D01*
X207703621Y-96501667D01*
X207734056Y-96637872D01*
X207717224Y-96848690D01*
X207478117Y-96900667D01*
X207182111Y-97009546D01*
X207121333Y-97174416D01*
X207017598Y-97371574D01*
X206782667Y-97359602D01*
X206500114Y-97372467D01*
X206444000Y-97503228D01*
X206309989Y-97735072D01*
X205996431Y-97992121D01*
X205636037Y-98168474D01*
X205597333Y-98178855D01*
X205258995Y-98293045D01*
X204767597Y-98492569D01*
X204274369Y-98714089D01*
X204043098Y-98829801D01*
X203679356Y-98980327D01*
X203416217Y-98929635D01*
X203281098Y-98838566D01*
X202942435Y-98629559D01*
X202749156Y-98678991D01*
X202634000Y-98932667D01*
X202399521Y-99214351D01*
X202012546Y-99243388D01*
X201718022Y-99115074D01*
X201393946Y-99023990D01*
X201272122Y-99043531D01*
X200914369Y-99045628D01*
X200476118Y-98885296D01*
X200081904Y-98630325D01*
X199856262Y-98348503D01*
X199840000Y-98263974D01*
X199740247Y-97988717D01*
X199434783Y-97916667D01*
X199044523Y-97787457D01*
X198886613Y-97451242D01*
X198942757Y-97126888D01*
X198965962Y-96935565D01*
X198856276Y-96965386D01*
X198532637Y-96996893D01*
X198206343Y-96802829D01*
X197999380Y-96472515D01*
X197977333Y-96321792D01*
X197846977Y-95953141D01*
X197633806Y-95834331D01*
X197371448Y-95705310D01*
X197322022Y-95602915D01*
X197293631Y-95334511D01*
X197251781Y-95207333D01*
X196990936Y-94484291D01*
X196821918Y-93864264D01*
X196762156Y-93422328D01*
X196798334Y-93254321D01*
X196847302Y-92977435D01*
X196793487Y-92839072D01*
X196709153Y-92554402D01*
X196733084Y-92456334D01*
X196718287Y-92220311D01*
X196644772Y-92101302D01*
X196511128Y-91760762D01*
X196520634Y-91329402D01*
X196641642Y-90912653D01*
X196842499Y-90615944D01*
X197091556Y-90544707D01*
X197110184Y-90550967D01*
X197287048Y-90593014D01*
X197183359Y-90452646D01*
X197173000Y-90442165D01*
X197032979Y-90140519D01*
X196963119Y-89675364D01*
X196961333Y-89590781D01*
X196931713Y-89174557D01*
X196823312Y-89030976D01*
X196707333Y-89050098D01*
X196482487Y-89252089D01*
X196453333Y-89363348D01*
X196305773Y-89517515D01*
X195943480Y-89682798D01*
X195487031Y-89822769D01*
X195057007Y-89901002D01*
X194773986Y-89881066D01*
X194761721Y-89874397D01*
X194567902Y-89918578D01*
X194461091Y-90050275D01*
X194226993Y-90212813D01*
X193836313Y-90284080D01*
X193403277Y-90270690D01*
X193042107Y-90179253D01*
X192867028Y-90016383D01*
X192867095Y-89958000D01*
X192867971Y-89796856D01*
X192707662Y-89914258D01*
X192706228Y-89915667D01*
X192421412Y-90077722D01*
X192104696Y-90122452D01*
X191899937Y-90039270D01*
X191881333Y-89976357D01*
X191738603Y-89824250D01*
X191489226Y-89726968D01*
X191056434Y-89537752D01*
X190737952Y-89317051D01*
X190386578Y-89026667D01*
X197130667Y-89026667D01*
X197215333Y-89111333D01*
X197300000Y-89026667D01*
X197215333Y-88942000D01*
X197130667Y-89026667D01*
X190386578Y-89026667D01*
X190326142Y-88976721D01*
X189944725Y-88679582D01*
X189639121Y-88363057D01*
X189510676Y-88057127D01*
X189510667Y-88055142D01*
X189440456Y-87802462D01*
X189361083Y-87756667D01*
X189188185Y-87603610D01*
X189026471Y-87209432D01*
X188893397Y-86671618D01*
X188806423Y-86087655D01*
X188783007Y-85555030D01*
X188840607Y-85171230D01*
X188883466Y-85089667D01*
X188955108Y-84908247D01*
X188832264Y-84886894D01*
X188612417Y-85014068D01*
X188491270Y-85136092D01*
X188285371Y-85314820D01*
X188202425Y-85319536D01*
X188044760Y-85368953D01*
X187797046Y-85575621D01*
X187503635Y-85784976D01*
X187303157Y-85805516D01*
X187159027Y-85842031D01*
X187140000Y-85940414D01*
X186996557Y-86136251D01*
X186626166Y-86404218D01*
X186118735Y-86696872D01*
X185564169Y-86966766D01*
X185052376Y-87166458D01*
X184673262Y-87248501D01*
X184660881Y-87248667D01*
X184354102Y-87302174D01*
X184261333Y-87396833D01*
X184114718Y-87529677D01*
X183757111Y-87655951D01*
X183711000Y-87666664D01*
X183395039Y-87765148D01*
X183325658Y-87850994D01*
X183346191Y-87862561D01*
X183433098Y-88063458D01*
X183426572Y-88494891D01*
X183344857Y-89067674D01*
X183206195Y-89692618D01*
X183028830Y-90280537D01*
X182831005Y-90742243D01*
X182723713Y-90905745D01*
X182616131Y-91101372D01*
X182652667Y-91143333D01*
X182667897Y-91247513D01*
X182568000Y-91397333D01*
X182458665Y-91602595D01*
X182504933Y-91653926D01*
X182521345Y-91724669D01*
X182419833Y-91804001D01*
X182243802Y-92071066D01*
X182187000Y-92399445D01*
X182070823Y-92819757D01*
X181875806Y-93013953D01*
X181654307Y-93270041D01*
X181671749Y-93459695D01*
X181693810Y-93648832D01*
X181582716Y-93617650D01*
X181453607Y-93610405D01*
X181479004Y-93737354D01*
X181428208Y-93991054D01*
X181296999Y-94083619D01*
X181110409Y-94244932D01*
X181119135Y-94345244D01*
X181071620Y-94550424D01*
X180835902Y-94874506D01*
X180725019Y-94992263D01*
X180394176Y-95385661D01*
X180190236Y-95744649D01*
X180171165Y-95810823D01*
X180010084Y-96080614D01*
X179856347Y-96138667D01*
X179609381Y-96271248D01*
X179320974Y-96598497D01*
X179266000Y-96681892D01*
X179003837Y-97045520D01*
X178788339Y-97250740D01*
X178758000Y-97263207D01*
X178535930Y-97395138D01*
X178190675Y-97677074D01*
X178080667Y-97777531D01*
X177721019Y-98077780D01*
X177446250Y-98243322D01*
X177396804Y-98254550D01*
X177147803Y-98326910D01*
X176731730Y-98507689D01*
X176556667Y-98594000D01*
X175947221Y-98850628D01*
X175513761Y-98921142D01*
X175299380Y-98801244D01*
X175284074Y-98721000D01*
X175239399Y-98612126D01*
X175135332Y-98740009D01*
X174913990Y-98885532D01*
X174454188Y-98964068D01*
X173719507Y-98979558D01*
X173109550Y-98959207D01*
X172724793Y-98902556D01*
X172618251Y-98760833D01*
X172638569Y-98678667D01*
X172642088Y-98460623D01*
X172572019Y-98424667D01*
X172414292Y-98555010D01*
X172408000Y-98604167D01*
X172269854Y-98704253D01*
X171939533Y-98705393D01*
X171543211Y-98624181D01*
X171207060Y-98477208D01*
X171155886Y-98439510D01*
X170919941Y-98330738D01*
X170841547Y-98354230D01*
X170724769Y-98296881D01*
X170633944Y-98098425D01*
X170468530Y-97846239D01*
X170145822Y-97841522D01*
X170110482Y-97850021D01*
X169786443Y-97868147D01*
X169698667Y-97765690D01*
X169572171Y-97586846D01*
X169517238Y-97578000D01*
X169239913Y-97464667D01*
X169003036Y-97212677D01*
X168918933Y-96954045D01*
X168938457Y-96897770D01*
X168953615Y-96752134D01*
X168906920Y-96747190D01*
X168556134Y-96750965D01*
X168406715Y-96639301D01*
X168427468Y-96563939D01*
X168400276Y-96467561D01*
X168269555Y-96496842D01*
X168000437Y-96452950D01*
X167892112Y-96283236D01*
X167750541Y-95981480D01*
X167679018Y-95884667D01*
X167424958Y-95537470D01*
X167182809Y-95018308D01*
X167020355Y-94489242D01*
X166989333Y-94235762D01*
X166954957Y-93842846D01*
X166878723Y-93629167D01*
X166791323Y-93385113D01*
X166727870Y-92933269D01*
X166696517Y-92404144D01*
X166705416Y-91928246D01*
X166755210Y-91651822D01*
X166834276Y-91323395D01*
X166891994Y-90834043D01*
X166899227Y-90720000D01*
X166968706Y-90099933D01*
X166978420Y-90053932D01*
X167553740Y-90053932D01*
X167582000Y-90121973D01*
X167659015Y-90286111D01*
X167714852Y-90742071D01*
X167745181Y-91443424D01*
X167749421Y-91918171D01*
X167766569Y-92862986D01*
X167822004Y-93493666D01*
X167918160Y-93832840D01*
X167961088Y-93886213D01*
X168133331Y-94186988D01*
X168174667Y-94447950D01*
X168281154Y-94793575D01*
X168446236Y-94936644D01*
X168633912Y-95146243D01*
X168620883Y-95293427D01*
X168649549Y-95510262D01*
X168783292Y-95546000D01*
X168979574Y-95677661D01*
X168989644Y-95927000D01*
X169035046Y-96241383D01*
X169317667Y-96362110D01*
X169615547Y-96490963D01*
X169698667Y-96644989D01*
X169845422Y-96836181D01*
X170200343Y-96983811D01*
X170218108Y-96987846D01*
X170612169Y-97139712D01*
X170830738Y-97344778D01*
X170830828Y-97345014D01*
X171043417Y-97510462D01*
X171200386Y-97500564D01*
X171537738Y-97512509D01*
X171959957Y-97663952D01*
X172337966Y-97811642D01*
X172588959Y-97824434D01*
X172594957Y-97821108D01*
X172738119Y-97847559D01*
X172746667Y-97898924D01*
X172894254Y-97995941D01*
X173265559Y-98003089D01*
X173330667Y-97995731D01*
X173749339Y-97989046D01*
X174004171Y-98071244D01*
X174017994Y-98088147D01*
X174261956Y-98248661D01*
X174511291Y-98106423D01*
X174524667Y-98086000D01*
X174758913Y-97953228D01*
X175028621Y-97916667D01*
X175420359Y-97850656D01*
X175953083Y-97683573D01*
X176206140Y-97583083D01*
X176659555Y-97398917D01*
X176961674Y-97295447D01*
X177028652Y-97286750D01*
X177175540Y-97218347D01*
X177481300Y-97001965D01*
X177554376Y-96945307D01*
X177908388Y-96719038D01*
X178159791Y-96649801D01*
X178185236Y-96658967D01*
X178313040Y-96608305D01*
X178334667Y-96483136D01*
X178476449Y-96229619D01*
X178759240Y-96053528D01*
X179062423Y-95892395D01*
X179155690Y-95761386D01*
X179207042Y-95440510D01*
X179409253Y-95145050D01*
X179622783Y-95038000D01*
X179836177Y-94935938D01*
X179858667Y-94860532D01*
X179944382Y-94635039D01*
X180168138Y-94221171D01*
X180453388Y-93753366D01*
X180772731Y-93214857D01*
X181008527Y-92743974D01*
X181100926Y-92477575D01*
X181221438Y-92140905D01*
X181327522Y-92018408D01*
X181611786Y-91685036D01*
X181823646Y-91182057D01*
X181890667Y-90751866D01*
X181994074Y-90339069D01*
X182156439Y-90117563D01*
X182342517Y-89773130D01*
X182332859Y-89555307D01*
X182320080Y-89195524D01*
X182383030Y-89035478D01*
X182519896Y-88748817D01*
X182605171Y-88377879D01*
X182606415Y-88349333D01*
X182737333Y-88349333D01*
X182822000Y-88434000D01*
X182906667Y-88349333D01*
X182822000Y-88264667D01*
X182737333Y-88349333D01*
X182606415Y-88349333D01*
X182619099Y-88058387D01*
X182544518Y-87926000D01*
X182400536Y-88052875D01*
X182398667Y-88076976D01*
X182246156Y-88233479D01*
X181854554Y-88380833D01*
X181322759Y-88488450D01*
X180959333Y-88522124D01*
X180404042Y-88610179D01*
X179976961Y-88743118D01*
X179437953Y-88923805D01*
X178979973Y-89032309D01*
X178494402Y-89154656D01*
X178138511Y-89295021D01*
X177800005Y-89384898D01*
X177631220Y-89349194D01*
X177343166Y-89254531D01*
X176940653Y-89204659D01*
X176556575Y-89204910D01*
X176323825Y-89260618D01*
X176302667Y-89295878D01*
X176144548Y-89341898D01*
X175714206Y-89368953D01*
X175077664Y-89374970D01*
X174313555Y-89358323D01*
X173385339Y-89314132D01*
X172747945Y-89253481D01*
X172353661Y-89169349D01*
X172154773Y-89054718D01*
X172141945Y-89038817D01*
X172124133Y-89026667D01*
X173762667Y-89026667D01*
X173847333Y-89111333D01*
X173932000Y-89026667D01*
X173847333Y-88942000D01*
X173762667Y-89026667D01*
X172124133Y-89026667D01*
X171828245Y-88824829D01*
X171633390Y-88788136D01*
X170944009Y-88718979D01*
X170299142Y-88485212D01*
X169570843Y-88039761D01*
X169539293Y-88017667D01*
X169060007Y-87689396D01*
X168785367Y-87541662D01*
X168646514Y-87555279D01*
X168574589Y-87711060D01*
X168565128Y-87746223D01*
X168448792Y-88025959D01*
X168366584Y-88095670D01*
X168281837Y-88243779D01*
X168223877Y-88601792D01*
X168222364Y-88622190D01*
X168135161Y-89074915D01*
X167989963Y-89383853D01*
X167888876Y-89577930D01*
X167932297Y-89619333D01*
X167925118Y-89702299D01*
X167741364Y-89867948D01*
X167553740Y-90053932D01*
X166978420Y-90053932D01*
X167097332Y-89490789D01*
X167258649Y-88982491D01*
X167426199Y-88664960D01*
X167521977Y-88603333D01*
X167630641Y-88480286D01*
X167607312Y-88354233D01*
X167630819Y-88034293D01*
X167727504Y-87888567D01*
X167854687Y-87621423D01*
X167930799Y-87202829D01*
X167950827Y-86752243D01*
X167909762Y-86389122D01*
X167802593Y-86232921D01*
X167796961Y-86232667D01*
X167763786Y-86190743D01*
X169190667Y-86190743D01*
X169294981Y-86541371D01*
X169548690Y-86891337D01*
X169862946Y-87155711D01*
X170148898Y-87249565D01*
X170253140Y-87206333D01*
X170401354Y-87271474D01*
X170708087Y-87486265D01*
X170783976Y-87545000D01*
X171167548Y-87799787D01*
X171471259Y-87923710D01*
X171499503Y-87926000D01*
X171704052Y-88062036D01*
X171730667Y-88180000D01*
X171822102Y-88405343D01*
X171900000Y-88434000D01*
X172060807Y-88302380D01*
X172069333Y-88242511D01*
X172209812Y-88129785D01*
X172641205Y-88160946D01*
X172704333Y-88172565D01*
X173203216Y-88252468D01*
X173596802Y-88289574D01*
X173635667Y-88289911D01*
X173887153Y-88343739D01*
X173932000Y-88407121D01*
X174080822Y-88469476D01*
X174449616Y-88496189D01*
X174921875Y-88490039D01*
X175381091Y-88453809D01*
X175710756Y-88390278D01*
X175772229Y-88363200D01*
X175997942Y-88380601D01*
X176054094Y-88442782D01*
X176288293Y-88562646D01*
X176377484Y-88545877D01*
X176693216Y-88556202D01*
X176826022Y-88616407D01*
X177137162Y-88756416D01*
X177303504Y-88627408D01*
X177367731Y-88434000D01*
X177580012Y-88186711D01*
X177944344Y-88087419D01*
X178297955Y-88159289D01*
X178430506Y-88282745D01*
X178596282Y-88367331D01*
X178652167Y-88322511D01*
X178876729Y-88189037D01*
X179340944Y-88010667D01*
X180197333Y-88010667D01*
X180282000Y-88095333D01*
X180366667Y-88010667D01*
X180282000Y-87926000D01*
X180197333Y-88010667D01*
X179340944Y-88010667D01*
X179351057Y-88006781D01*
X179994007Y-87799020D01*
X180724433Y-87589033D01*
X181461190Y-87400095D01*
X182123132Y-87255485D01*
X182629113Y-87178479D01*
X182645032Y-87177128D01*
X182818009Y-87006000D01*
X182928614Y-86575665D01*
X182962905Y-85962104D01*
X182942602Y-85555333D01*
X182901987Y-85007526D01*
X182879512Y-84555785D01*
X182877878Y-84454667D01*
X182837614Y-84017577D01*
X182735020Y-83531461D01*
X182600429Y-83098180D01*
X182464174Y-82819596D01*
X182377521Y-82774402D01*
X182237887Y-82741279D01*
X182229333Y-82686660D01*
X182198655Y-82458634D01*
X182059008Y-82274787D01*
X181738975Y-82070645D01*
X181298000Y-81845910D01*
X180816524Y-81596036D01*
X180472559Y-81393572D01*
X180366667Y-81310505D01*
X180158550Y-81231391D01*
X179744807Y-81180717D01*
X179604667Y-81174708D01*
X179032252Y-81152751D01*
X178329871Y-81115960D01*
X177963082Y-81093118D01*
X177378367Y-81076036D01*
X177050630Y-81132871D01*
X176903514Y-81277665D01*
X176899014Y-81288803D01*
X176935583Y-81582929D01*
X177197910Y-81792815D01*
X177379117Y-81827407D01*
X177452088Y-81956290D01*
X177417574Y-82107951D01*
X177376222Y-82290423D01*
X177526531Y-82206652D01*
X177556981Y-82181684D01*
X177778734Y-82081815D01*
X177958899Y-82270129D01*
X177984649Y-82316790D01*
X178073311Y-82651580D01*
X177996458Y-82761050D01*
X177840090Y-82748058D01*
X177826667Y-82686660D01*
X177690288Y-82526158D01*
X177581081Y-82507333D01*
X177293105Y-82375525D01*
X177191551Y-82250121D01*
X176876857Y-81993227D01*
X176313680Y-81822269D01*
X175921667Y-81776012D01*
X175669780Y-81702360D01*
X175625333Y-81635594D01*
X175484643Y-81554549D01*
X175108512Y-81598332D01*
X174565852Y-81743227D01*
X173925575Y-81965518D01*
X173256591Y-82241490D01*
X172627813Y-82547428D01*
X172148045Y-82832293D01*
X171691687Y-83121900D01*
X171340926Y-83311334D01*
X171214177Y-83354000D01*
X171061496Y-83485912D01*
X171053333Y-83546249D01*
X170938948Y-83783352D01*
X170660510Y-84102056D01*
X170630000Y-84130830D01*
X170341607Y-84447366D01*
X170207822Y-84691308D01*
X170206667Y-84705896D01*
X170071617Y-84921174D01*
X169963014Y-84982127D01*
X169754231Y-85201672D01*
X169610568Y-85570957D01*
X169490854Y-85888241D01*
X169351292Y-85972994D01*
X169346221Y-85970151D01*
X169219724Y-86024926D01*
X169190667Y-86190743D01*
X167763786Y-86190743D01*
X167699510Y-86109515D01*
X167723704Y-85989607D01*
X167716282Y-85746134D01*
X167689747Y-85724667D01*
X168682667Y-85724667D01*
X168744623Y-85864047D01*
X168795555Y-85837555D01*
X168815821Y-85636596D01*
X168795555Y-85611778D01*
X168694887Y-85635022D01*
X168682667Y-85724667D01*
X167689747Y-85724667D01*
X167646589Y-85689752D01*
X167553244Y-85518192D01*
X167627632Y-85236654D01*
X168852000Y-85236654D01*
X168956331Y-85328460D01*
X169021333Y-85301333D01*
X169184345Y-85077015D01*
X169190667Y-85027346D01*
X169086335Y-84935539D01*
X169021333Y-84962667D01*
X168858322Y-85186985D01*
X168852000Y-85236654D01*
X167627632Y-85236654D01*
X167634004Y-85212539D01*
X167833003Y-84887316D01*
X167971714Y-84765111D01*
X169416444Y-84765111D01*
X169439689Y-84865779D01*
X169529333Y-84878000D01*
X169668714Y-84816043D01*
X169656902Y-84793333D01*
X169868000Y-84793333D01*
X169952667Y-84878000D01*
X170037333Y-84793333D01*
X169952667Y-84708667D01*
X169868000Y-84793333D01*
X169656902Y-84793333D01*
X169642222Y-84765111D01*
X169441263Y-84744845D01*
X169416444Y-84765111D01*
X167971714Y-84765111D01*
X168094376Y-84657046D01*
X168164966Y-84627079D01*
X168444660Y-84439908D01*
X168450230Y-84426444D01*
X169585778Y-84426444D01*
X169609022Y-84527113D01*
X169698667Y-84539333D01*
X169838047Y-84477377D01*
X169811555Y-84426444D01*
X169610596Y-84406178D01*
X169585778Y-84426444D01*
X168450230Y-84426444D01*
X168513333Y-84273922D01*
X168644609Y-84056652D01*
X168749216Y-84031333D01*
X169010627Y-83894744D01*
X169082569Y-83777333D01*
X169311749Y-83570211D01*
X169534012Y-83523333D01*
X169779444Y-83455858D01*
X169765548Y-83325224D01*
X169756640Y-83201404D01*
X169962060Y-83249507D01*
X170166926Y-83300002D01*
X170161804Y-83252693D01*
X170174773Y-83080229D01*
X170395157Y-82873676D01*
X170712987Y-82717107D01*
X170908216Y-82682052D01*
X171205485Y-82539042D01*
X171288020Y-82411934D01*
X171455804Y-82236841D01*
X171560137Y-82252594D01*
X171717711Y-82255848D01*
X171730667Y-82205841D01*
X171871720Y-82025106D01*
X172193913Y-81847144D01*
X172545799Y-81738598D01*
X172759356Y-81753175D01*
X172906149Y-81729113D01*
X172916000Y-81673886D01*
X173060835Y-81511098D01*
X173381667Y-81383820D01*
X173761275Y-81244451D01*
X173771004Y-81237333D01*
X175625333Y-81237333D01*
X175710000Y-81322000D01*
X175794667Y-81237333D01*
X175710000Y-81152667D01*
X175625333Y-81237333D01*
X173771004Y-81237333D01*
X173958203Y-81100366D01*
X174000420Y-81079396D01*
X176027817Y-81079396D01*
X176111130Y-81210580D01*
X176214269Y-81461742D01*
X176179359Y-81558196D01*
X176202911Y-81608804D01*
X176354483Y-81565174D01*
X176549704Y-81419834D01*
X176455588Y-81217558D01*
X176203628Y-81015348D01*
X176091865Y-80983333D01*
X176027817Y-81079396D01*
X174000420Y-81079396D01*
X174190288Y-80985086D01*
X174592753Y-80945767D01*
X174593203Y-80945780D01*
X174956521Y-80911723D01*
X175116934Y-80808845D01*
X175117333Y-80802674D01*
X175263619Y-80688415D01*
X175587655Y-80644667D01*
X176085489Y-80550650D01*
X176423206Y-80388851D01*
X176741914Y-80244273D01*
X176890212Y-80297714D01*
X177125569Y-80375702D01*
X177409328Y-80303721D01*
X177731516Y-80228498D01*
X177829241Y-80351285D01*
X177829259Y-80352524D01*
X177873713Y-80459836D01*
X177972830Y-80337691D01*
X178251734Y-80191527D01*
X178774571Y-80208488D01*
X179594841Y-80343113D01*
X180189260Y-80480599D01*
X180507531Y-80608763D01*
X180536000Y-80635141D01*
X180740611Y-80740004D01*
X181147904Y-80868234D01*
X181298000Y-80906239D01*
X181867074Y-81138185D01*
X182137727Y-81437946D01*
X182419570Y-81801396D01*
X182688061Y-81984649D01*
X182985681Y-82237079D01*
X183076000Y-82485586D01*
X183206068Y-82808151D01*
X183358315Y-82918101D01*
X183540012Y-83056402D01*
X183442982Y-83224084D01*
X183257743Y-83508710D01*
X183350374Y-83673113D01*
X183480976Y-83692667D01*
X183711789Y-83839964D01*
X183834852Y-84287765D01*
X183851831Y-85044935D01*
X183823417Y-85513000D01*
X183795602Y-86060186D01*
X183806044Y-86442521D01*
X183847225Y-86571333D01*
X184061268Y-86501781D01*
X184404540Y-86342741D01*
X185074064Y-86009674D01*
X185760233Y-85680634D01*
X186389427Y-85389455D01*
X186888025Y-85169974D01*
X187182407Y-85056025D01*
X187223152Y-85047333D01*
X187427891Y-84929346D01*
X187544665Y-84802639D01*
X187836342Y-84561606D01*
X187977725Y-84506306D01*
X188216941Y-84366243D01*
X188603373Y-84050379D01*
X189029427Y-83650333D01*
X189473635Y-83240876D01*
X189851996Y-82951200D01*
X190075535Y-82846000D01*
X190262497Y-82992117D01*
X190406192Y-83337729D01*
X190469776Y-83743722D01*
X190416410Y-84070985D01*
X190405213Y-84090855D01*
X190287449Y-84534060D01*
X190332227Y-85115103D01*
X190387010Y-85322166D01*
X190413007Y-85675677D01*
X190337791Y-85845809D01*
X190302597Y-86073650D01*
X190434823Y-86226710D01*
X190653404Y-86504678D01*
X190696000Y-86656000D01*
X190814468Y-86936379D01*
X190939935Y-87070980D01*
X191102649Y-87354140D01*
X191091151Y-87515047D01*
X191113157Y-87724450D01*
X191202076Y-87756667D01*
X191463289Y-87848616D01*
X191850580Y-88075904D01*
X191939860Y-88137667D01*
X192237242Y-88330694D01*
X192537870Y-88460984D01*
X192914078Y-88539839D01*
X193438205Y-88578561D01*
X194182586Y-88588452D01*
X194802333Y-88584923D01*
X195053750Y-88505696D01*
X195098667Y-88419285D01*
X195238867Y-88246376D01*
X195533571Y-88090934D01*
X195958418Y-87876549D01*
X196442664Y-87562353D01*
X196522159Y-87503268D01*
X196890319Y-87265436D01*
X197145351Y-87178524D01*
X197187921Y-87193032D01*
X197289458Y-87172260D01*
X197300000Y-87093438D01*
X197413288Y-86857617D01*
X197700164Y-86503201D01*
X197874799Y-86323559D01*
X198252168Y-85898486D01*
X198521629Y-85489440D01*
X198574990Y-85364010D01*
X198784828Y-84956836D01*
X199104288Y-84555145D01*
X199419140Y-84151302D01*
X199606264Y-83756880D01*
X199780277Y-83459212D01*
X200061858Y-83257344D01*
X200336566Y-83206886D01*
X200481621Y-83331530D01*
X200683054Y-83506889D01*
X200785444Y-83523333D01*
X200974409Y-83670699D01*
X201025333Y-83946667D01*
X200968847Y-84264920D01*
X200860348Y-84370000D01*
X200675938Y-84509389D01*
X200457112Y-84840733D01*
X200273806Y-85233797D01*
X200195953Y-85558347D01*
X200198896Y-85601784D01*
X200124209Y-86053774D01*
X199803683Y-86638545D01*
X199548162Y-86976043D01*
X199306931Y-87356491D01*
X199228857Y-87667933D01*
X199238280Y-87709468D01*
X199221703Y-88025808D01*
X199090739Y-88297865D01*
X198933694Y-88639629D01*
X198929147Y-88849644D01*
X198881295Y-89114966D01*
X198748676Y-89272913D01*
X198566727Y-89625387D01*
X198585357Y-89874235D01*
X198599393Y-90211903D01*
X198518117Y-90361072D01*
X198437601Y-90574635D01*
X198415436Y-91005622D01*
X198432116Y-91293230D01*
X198445782Y-91822320D01*
X198383551Y-92166053D01*
X198333534Y-92233163D01*
X198290933Y-92453694D01*
X198428467Y-92932158D01*
X198575148Y-93287882D01*
X198800264Y-93847192D01*
X198952079Y-94320643D01*
X198993333Y-94551070D01*
X199068433Y-94814580D01*
X199162667Y-94868667D01*
X199317280Y-95003807D01*
X199332000Y-95096422D01*
X199448065Y-95372749D01*
X199670667Y-95630667D01*
X199926651Y-95956570D01*
X200009333Y-96208693D01*
X200152391Y-96402615D01*
X200515869Y-96660329D01*
X201001225Y-96931801D01*
X201509915Y-97166991D01*
X201943396Y-97315862D01*
X202203126Y-97328378D01*
X202208475Y-97325354D01*
X202419458Y-97347382D01*
X202449319Y-97383834D01*
X202663235Y-97446313D01*
X203097129Y-97409780D01*
X203265353Y-97377345D01*
X203784973Y-97278897D01*
X204201316Y-97223739D01*
X204285000Y-97219559D01*
X204536510Y-97151297D01*
X204581333Y-97076202D01*
X204714943Y-96915137D01*
X205042707Y-96673157D01*
X205455026Y-96419109D01*
X205842301Y-96221841D01*
X206052085Y-96152308D01*
X206295111Y-96020663D01*
X206638356Y-95734514D01*
X206710176Y-95664673D01*
X207116677Y-95360909D01*
X207519069Y-95210759D01*
X207571949Y-95207333D01*
X207970551Y-95061393D01*
X208124482Y-94826333D01*
X208340998Y-94469470D01*
X208697774Y-94050054D01*
X208811959Y-93937333D01*
X209242370Y-93476861D01*
X209694234Y-92912461D01*
X209852361Y-92690272D01*
X210109922Y-92267018D01*
X210272296Y-91852454D01*
X210369077Y-91335317D01*
X210429864Y-90604344D01*
X210436241Y-90495290D01*
X210503631Y-89759331D01*
X210571455Y-89332993D01*
X211357163Y-89332993D01*
X211370967Y-89573992D01*
X211442146Y-89535129D01*
X211582755Y-89280667D01*
X211730074Y-88956140D01*
X211760858Y-88798044D01*
X211609091Y-88786036D01*
X211446735Y-88986421D01*
X211358709Y-89286668D01*
X211357163Y-89332993D01*
X210571455Y-89332993D01*
X210609119Y-89096241D01*
X210732903Y-88622811D01*
G37*
G36*
X116974289Y-90982149D02*
G01*
X116987787Y-90326221D01*
X117108313Y-89666091D01*
X117145004Y-89550354D01*
X117275368Y-89075276D01*
X117310198Y-88712789D01*
X117296674Y-88644333D01*
X117316891Y-88344493D01*
X117465084Y-88025654D01*
X117620567Y-87640493D01*
X117614939Y-87358620D01*
X117644655Y-87071893D01*
X117780431Y-86977977D01*
X117993588Y-86722356D01*
X118052000Y-86311312D01*
X118116613Y-85853402D01*
X118272524Y-85528457D01*
X118277274Y-85523583D01*
X118435154Y-85233985D01*
X118432496Y-85088155D01*
X118475129Y-84897703D01*
X118545889Y-84878000D01*
X118693145Y-84735789D01*
X118729333Y-84527238D01*
X118844956Y-84114868D01*
X118976138Y-83929671D01*
X119137662Y-83619301D01*
X119127355Y-83433766D01*
X119160045Y-83220710D01*
X119303883Y-83184667D01*
X119539775Y-83055745D01*
X119576000Y-82928369D01*
X119650685Y-82559928D01*
X119725577Y-82378036D01*
X119901623Y-82012711D01*
X120101387Y-81576000D01*
X120412983Y-81029766D01*
X120765813Y-80640230D01*
X121013548Y-80506730D01*
X121157892Y-80334293D01*
X121182882Y-80177554D01*
X121331438Y-79914605D01*
X121552611Y-79830267D01*
X121906495Y-79617305D01*
X122100745Y-79260973D01*
X122298392Y-78893215D01*
X122534991Y-78841578D01*
X122537134Y-78842391D01*
X122747357Y-78817195D01*
X122793333Y-78607352D01*
X122901807Y-78325505D01*
X123047333Y-78252833D01*
X123389159Y-78206644D01*
X123470667Y-78189333D01*
X123774810Y-78128004D01*
X123789584Y-78125833D01*
X123948615Y-77965916D01*
X124027913Y-77765301D01*
X124186559Y-77521083D01*
X124414108Y-77540077D01*
X124617973Y-77571699D01*
X124590317Y-77458049D01*
X124583872Y-77331120D01*
X124731872Y-77362723D01*
X124955133Y-77342705D01*
X124994667Y-77195402D01*
X125138191Y-76965961D01*
X125491868Y-76705962D01*
X125940352Y-76478371D01*
X126368299Y-76346155D01*
X126564579Y-76338399D01*
X126851770Y-76239762D01*
X126857756Y-76230975D01*
X129946850Y-76230975D01*
X129970013Y-76242000D01*
X130124544Y-76122793D01*
X130159333Y-76072667D01*
X130202483Y-75914358D01*
X130179320Y-75903333D01*
X130024789Y-76022540D01*
X129990000Y-76072667D01*
X129946850Y-76230975D01*
X126857756Y-76230975D01*
X126932296Y-76121561D01*
X127061844Y-75957073D01*
X127282670Y-76074329D01*
X127505091Y-76173930D01*
X127567650Y-75976268D01*
X127554719Y-75861000D01*
X127679396Y-75747486D01*
X127873333Y-75708600D01*
X128264184Y-75678777D01*
X128423667Y-75666267D01*
X128698279Y-75551440D01*
X128737929Y-75509493D01*
X129056392Y-75323588D01*
X129578913Y-75253052D01*
X130202668Y-75283788D01*
X130824834Y-75401699D01*
X131342588Y-75592688D01*
X131653109Y-75842659D01*
X131686642Y-75913758D01*
X131886139Y-76215908D01*
X132016887Y-76301273D01*
X132178385Y-76520269D01*
X132178163Y-76994250D01*
X132169923Y-77389013D01*
X132245895Y-77589901D01*
X132270155Y-77596667D01*
X132356317Y-77732686D01*
X132343059Y-78054495D01*
X132254928Y-78432721D01*
X132116473Y-78737993D01*
X132037706Y-78821740D01*
X131980170Y-78929281D01*
X132106667Y-78951333D01*
X132247529Y-79011713D01*
X132191333Y-79080926D01*
X132020260Y-79320341D01*
X132009325Y-79374667D01*
X131926297Y-79725559D01*
X131758855Y-80137754D01*
X131566953Y-80485724D01*
X131410541Y-80643940D01*
X131402775Y-80644667D01*
X131311049Y-80746267D01*
X131331487Y-80792676D01*
X131294294Y-81006598D01*
X131101325Y-81399006D01*
X130808700Y-81884198D01*
X130472537Y-82376468D01*
X130148954Y-82790114D01*
X129894069Y-83039432D01*
X129841149Y-83068709D01*
X129604094Y-83255752D01*
X129566667Y-83367174D01*
X129454918Y-83572169D01*
X129158863Y-83941040D01*
X128737289Y-84401864D01*
X128635333Y-84506617D01*
X128195692Y-84969523D01*
X127867892Y-85345524D01*
X127710120Y-85567010D01*
X127704000Y-85588795D01*
X127567169Y-85710990D01*
X127461411Y-85724667D01*
X127222364Y-85866057D01*
X127107283Y-86076094D01*
X126991920Y-86323048D01*
X126921725Y-86353503D01*
X126764385Y-86409416D01*
X126468548Y-86654844D01*
X126105996Y-87013823D01*
X125748513Y-87410391D01*
X125467879Y-87768586D01*
X125335877Y-88012445D01*
X125333333Y-88034403D01*
X125191233Y-88284561D01*
X124994667Y-88384936D01*
X124720093Y-88521772D01*
X124656000Y-88629692D01*
X124538292Y-88837506D01*
X124231158Y-89187972D01*
X123803578Y-89617333D01*
X123324536Y-90061835D01*
X122863013Y-90457721D01*
X122487991Y-90741237D01*
X122268452Y-90848627D01*
X122256920Y-90847000D01*
X122133058Y-90943028D01*
X122116000Y-91058667D01*
X121979673Y-91280781D01*
X121852006Y-91312667D01*
X121680144Y-91400723D01*
X121710451Y-91510776D01*
X121718658Y-91637937D01*
X121551111Y-91600757D01*
X121324022Y-91602277D01*
X121269333Y-91825981D01*
X121145610Y-92107634D01*
X120957847Y-92159333D01*
X120663050Y-92299400D01*
X120453477Y-92582667D01*
X120226244Y-92895663D01*
X120002963Y-93006000D01*
X119775300Y-93096312D01*
X119745333Y-93175333D01*
X119649918Y-93324266D01*
X119618333Y-93324614D01*
X119242401Y-93353755D01*
X119112710Y-93608338D01*
X119114559Y-93683333D01*
X119195659Y-93959045D01*
X119283362Y-94022000D01*
X119355274Y-94125428D01*
X119332966Y-94173590D01*
X119378047Y-94352926D01*
X119492306Y-94422275D01*
X119702665Y-94652139D01*
X119745333Y-94853779D01*
X119887436Y-95175244D01*
X120245180Y-95483416D01*
X120253333Y-95488269D01*
X120593674Y-95727403D01*
X120758472Y-95918009D01*
X120761333Y-95935294D01*
X120880466Y-96148118D01*
X121176056Y-96479340D01*
X121555394Y-96841829D01*
X121925769Y-97148450D01*
X122194469Y-97312071D01*
X122235136Y-97320427D01*
X122499455Y-97443578D01*
X122658469Y-97598727D01*
X123063863Y-97881946D01*
X123684697Y-98068260D01*
X124406398Y-98136827D01*
X125114390Y-98066805D01*
X125165902Y-98054860D01*
X125657842Y-97913315D01*
X126011200Y-97772282D01*
X126086867Y-97723936D01*
X126386080Y-97594781D01*
X126540438Y-97578000D01*
X126907266Y-97464134D01*
X127061583Y-97349559D01*
X127368581Y-97147531D01*
X127830271Y-96944313D01*
X127920345Y-96913094D01*
X128320817Y-96749331D01*
X128537870Y-96599088D01*
X128550667Y-96567254D01*
X128692244Y-96423165D01*
X129045699Y-96231472D01*
X129185667Y-96171142D01*
X129680299Y-95910418D01*
X130075782Y-95603136D01*
X130121512Y-95552884D01*
X130392176Y-95323286D01*
X130587178Y-95294788D01*
X130740684Y-95294887D01*
X130752000Y-95247825D01*
X130854594Y-95018608D01*
X131103231Y-94703688D01*
X131409194Y-94393550D01*
X131683766Y-94178677D01*
X131833919Y-94144363D01*
X131885857Y-94122395D01*
X131843499Y-93974505D01*
X131831453Y-93731115D01*
X131921705Y-93683333D01*
X132129168Y-93551588D01*
X132386839Y-93229097D01*
X132420208Y-93175941D01*
X132650683Y-92870454D01*
X132821893Y-92770000D01*
X132841052Y-92780830D01*
X132943492Y-92761811D01*
X132953333Y-92687858D01*
X133060655Y-92437145D01*
X133324548Y-92086464D01*
X133380576Y-92024636D01*
X133735188Y-91643863D01*
X134024321Y-91332335D01*
X134042504Y-91312667D01*
X134287155Y-90969414D01*
X134489109Y-90593000D01*
X134680989Y-90263524D01*
X134843180Y-90127333D01*
X134978337Y-89995086D01*
X134985333Y-89935890D01*
X135078097Y-89704094D01*
X135318416Y-89300105D01*
X135576024Y-88922249D01*
X135985730Y-88301583D01*
X136373745Y-87633040D01*
X136537115Y-87312057D01*
X136804805Y-86844042D01*
X137077429Y-86522947D01*
X137203547Y-86446650D01*
X137429588Y-86245206D01*
X137435942Y-86038799D01*
X137500245Y-85679523D01*
X137702819Y-85377847D01*
X137949495Y-85055261D01*
X138033333Y-84821555D01*
X138118946Y-84522547D01*
X138160333Y-84468778D01*
X138297021Y-84252099D01*
X138301958Y-84228889D01*
X138411446Y-83886484D01*
X138590895Y-83650220D01*
X138732606Y-83621559D01*
X138849556Y-83621227D01*
X138843933Y-83578253D01*
X138864408Y-83310403D01*
X139000920Y-82953302D01*
X139075734Y-82824617D01*
X140160670Y-82824617D01*
X140291111Y-82846000D01*
X140528973Y-82708109D01*
X140570740Y-82549667D01*
X140516431Y-82376446D01*
X140441770Y-82422667D01*
X140199023Y-82686845D01*
X140162141Y-82719000D01*
X140160670Y-82824617D01*
X139075734Y-82824617D01*
X139190900Y-82626523D01*
X139371777Y-82449641D01*
X139433815Y-82450982D01*
X139526780Y-82452442D01*
X139473547Y-82339425D01*
X139475845Y-82085254D01*
X139610188Y-81656891D01*
X139612934Y-81650673D01*
X140912000Y-81650673D01*
X141034921Y-81823109D01*
X141081333Y-81830000D01*
X141246264Y-81772226D01*
X141250667Y-81755327D01*
X141132009Y-81610755D01*
X141081333Y-81576000D01*
X140925295Y-81589426D01*
X140912000Y-81650673D01*
X139612934Y-81650673D01*
X139758080Y-81322000D01*
X140404000Y-81322000D01*
X140465956Y-81461380D01*
X140516889Y-81434889D01*
X140537155Y-81233930D01*
X140516889Y-81209111D01*
X140416220Y-81232355D01*
X140404000Y-81322000D01*
X139758080Y-81322000D01*
X139826982Y-81165975D01*
X139978019Y-80898667D01*
X140573333Y-80898667D01*
X140658000Y-80983333D01*
X140742667Y-80898667D01*
X140658000Y-80814000D01*
X140573333Y-80898667D01*
X139978019Y-80898667D01*
X140076628Y-80724148D01*
X140282782Y-80475333D01*
X140912000Y-80475333D01*
X140973956Y-80614714D01*
X141024889Y-80588222D01*
X141045155Y-80387263D01*
X141024889Y-80362444D01*
X140924220Y-80385689D01*
X140912000Y-80475333D01*
X140282782Y-80475333D01*
X140309530Y-80443050D01*
X140319333Y-80435593D01*
X140392077Y-80319552D01*
X140319333Y-80303207D01*
X140299572Y-80215537D01*
X140463290Y-80057881D01*
X140655003Y-79818734D01*
X141081333Y-79818734D01*
X141118694Y-80063169D01*
X141276807Y-80014024D01*
X141333469Y-79968881D01*
X141501051Y-79730381D01*
X141492809Y-79609480D01*
X141288411Y-79458434D01*
X141122583Y-79591666D01*
X141081333Y-79818734D01*
X140655003Y-79818734D01*
X140664434Y-79806969D01*
X140664224Y-79638737D01*
X140694362Y-79435715D01*
X140815628Y-79355727D01*
X140995737Y-79196469D01*
X140985700Y-79102923D01*
X141017932Y-78960991D01*
X141076654Y-78951333D01*
X141291863Y-79086880D01*
X141358764Y-79205333D01*
X141508052Y-79431254D01*
X141688447Y-79359489D01*
X141924938Y-78976385D01*
X141978564Y-78866667D01*
X142199925Y-78486849D01*
X142396371Y-78284324D01*
X142433260Y-78274000D01*
X142566952Y-78149529D01*
X142563000Y-78083500D01*
X142609914Y-77863820D01*
X142810910Y-77837425D01*
X143044646Y-78000527D01*
X143111162Y-78100609D01*
X143208670Y-78448628D01*
X143097646Y-78857874D01*
X143037960Y-78983581D01*
X142855725Y-79436394D01*
X142774900Y-79810351D01*
X142774667Y-79824016D01*
X142698511Y-80084726D01*
X142605333Y-80136667D01*
X142478041Y-80281579D01*
X142436000Y-80560000D01*
X142378035Y-80878230D01*
X142266667Y-80983333D01*
X142129086Y-81125158D01*
X142097333Y-81322000D01*
X142026421Y-81597161D01*
X141928000Y-81660667D01*
X141801285Y-81805739D01*
X141758667Y-82089314D01*
X141672870Y-82448286D01*
X141515359Y-82611328D01*
X141343161Y-82801981D01*
X141351475Y-82911671D01*
X141314604Y-83150719D01*
X141145283Y-83597368D01*
X140877674Y-84164366D01*
X140810023Y-84294657D01*
X140501746Y-84948087D01*
X140268120Y-85573798D01*
X140155380Y-86046183D01*
X140152485Y-86080990D01*
X140088410Y-86557498D01*
X139981028Y-86905567D01*
X139968476Y-86927657D01*
X139814928Y-87298518D01*
X139769853Y-87493803D01*
X139615049Y-87889283D01*
X139457590Y-88111992D01*
X139305952Y-88388007D01*
X139369574Y-88507278D01*
X139473423Y-88722363D01*
X139372542Y-88977274D01*
X139134675Y-89110708D01*
X139115883Y-89111333D01*
X138921034Y-89235799D01*
X138893255Y-89492727D01*
X139034288Y-89694701D01*
X139063812Y-89889913D01*
X138952138Y-90264131D01*
X138883661Y-90416928D01*
X138711973Y-90870638D01*
X138660576Y-91227098D01*
X138673483Y-91290678D01*
X138676233Y-91451992D01*
X138594571Y-91430236D01*
X138485821Y-91474910D01*
X138501054Y-91742097D01*
X138499467Y-92144817D01*
X138408941Y-92371973D01*
X138308342Y-92638488D01*
X138209199Y-93136160D01*
X138132737Y-93758057D01*
X138131852Y-93768000D01*
X138061763Y-94497652D01*
X137984563Y-95207184D01*
X137926277Y-95673000D01*
X137896995Y-96109629D01*
X137941425Y-96365137D01*
X137979741Y-96392667D01*
X138192274Y-96274654D01*
X138526016Y-95981668D01*
X138893261Y-95605288D01*
X139206303Y-95237093D01*
X139377437Y-94968662D01*
X139388000Y-94922217D01*
X139531435Y-94744254D01*
X139792192Y-94634602D01*
X140115661Y-94442346D01*
X140291999Y-94017670D01*
X140307001Y-93943515D01*
X140438253Y-93510975D01*
X140612055Y-93236982D01*
X140632420Y-93222270D01*
X140838845Y-92983989D01*
X141052742Y-92580737D01*
X141069487Y-92540333D01*
X141255677Y-92173621D01*
X141421738Y-91993725D01*
X141440543Y-91990000D01*
X141561660Y-91848057D01*
X141589333Y-91652768D01*
X141722517Y-91301990D01*
X141928000Y-91104035D01*
X142195379Y-90830302D01*
X142266667Y-90617437D01*
X142366254Y-90296458D01*
X142605333Y-89911794D01*
X142842079Y-89556284D01*
X142943921Y-89295202D01*
X142944000Y-89290977D01*
X143079671Y-89070693D01*
X143198000Y-89003235D01*
X143421998Y-88840234D01*
X143452000Y-88760388D01*
X143560820Y-88559412D01*
X143833791Y-88229013D01*
X143960000Y-88095333D01*
X144277867Y-87702231D01*
X144454900Y-87351399D01*
X144468000Y-87268844D01*
X144539313Y-86909735D01*
X144712572Y-86481324D01*
X144926758Y-86105240D01*
X145120851Y-85903112D01*
X145157735Y-85894000D01*
X145287595Y-85752881D01*
X145314667Y-85573450D01*
X145432527Y-85257944D01*
X145568667Y-85155431D01*
X145793992Y-84924824D01*
X145822667Y-84790951D01*
X145920593Y-84524605D01*
X146154013Y-84206091D01*
X146432381Y-83932073D01*
X146665158Y-83799217D01*
X146736040Y-83815818D01*
X146806542Y-83744572D01*
X146838498Y-83432355D01*
X146838667Y-83402956D01*
X146923545Y-82959047D01*
X147110307Y-82662026D01*
X147306588Y-82422667D01*
X147685333Y-82422667D01*
X147770000Y-82507333D01*
X147854667Y-82422667D01*
X147770000Y-82338000D01*
X147685333Y-82422667D01*
X147306588Y-82422667D01*
X147389709Y-82321304D01*
X147529449Y-82048626D01*
X147736769Y-81750045D01*
X147935142Y-81660667D01*
X148146437Y-81518555D01*
X148193333Y-81314303D01*
X148308119Y-80962982D01*
X148587392Y-80574706D01*
X148616667Y-80544606D01*
X148900689Y-80215399D01*
X149037736Y-79967773D01*
X149040000Y-79947541D01*
X149177203Y-79648560D01*
X149488344Y-79385829D01*
X149786678Y-79290000D01*
X150014742Y-79144390D01*
X150165265Y-78828945D01*
X150384471Y-78374623D01*
X150740846Y-78020408D01*
X151152673Y-77804626D01*
X151538239Y-77765601D01*
X151815828Y-77941659D01*
X151862409Y-78032971D01*
X152092100Y-78300639D01*
X152346224Y-78444939D01*
X152614021Y-78634749D01*
X152758896Y-79006961D01*
X152804573Y-79320968D01*
X152818308Y-79818374D01*
X152760150Y-80185284D01*
X152724786Y-80255541D01*
X152643498Y-80569587D01*
X152678087Y-80805874D01*
X152711462Y-81078709D01*
X152649744Y-81152667D01*
X152544537Y-81300182D01*
X152484338Y-81655473D01*
X152484052Y-81660667D01*
X152454278Y-82210535D01*
X152424785Y-82749714D01*
X152338705Y-83170234D01*
X152170803Y-83414207D01*
X152151574Y-83423329D01*
X151990314Y-83623964D01*
X152024143Y-83969295D01*
X152039535Y-84383380D01*
X151817461Y-84657033D01*
X151605993Y-84854167D01*
X151672044Y-84997810D01*
X151750158Y-85051426D01*
X151902113Y-85181210D01*
X151773309Y-85214074D01*
X151620407Y-85328892D01*
X151650408Y-85643474D01*
X151669709Y-86096133D01*
X151586512Y-86389831D01*
X151464758Y-86746927D01*
X151355509Y-87278417D01*
X151320761Y-87529357D01*
X151186458Y-88157256D01*
X150932414Y-88557324D01*
X150821298Y-88651813D01*
X150550713Y-88908348D01*
X150513838Y-89187358D01*
X150594208Y-89463867D01*
X150685088Y-89882810D01*
X150571236Y-90186525D01*
X150487025Y-90288167D01*
X150299640Y-90582263D01*
X150372269Y-90871861D01*
X150415247Y-90944029D01*
X150542595Y-91264994D01*
X150417143Y-91539430D01*
X150406078Y-91552916D01*
X150287971Y-91762094D01*
X150331599Y-91815033D01*
X150627468Y-91679326D01*
X150972018Y-91368836D01*
X151244549Y-91002045D01*
X151310221Y-90854382D01*
X151550692Y-90541600D01*
X151840068Y-90394941D01*
X152155115Y-90226413D01*
X152257333Y-90031743D01*
X152369719Y-89744419D01*
X152643975Y-89387600D01*
X152680667Y-89349939D01*
X152962511Y-89042579D01*
X153101054Y-88841440D01*
X153104000Y-88826720D01*
X153226910Y-88627790D01*
X153517119Y-88345734D01*
X153856842Y-88080244D01*
X154128295Y-87931014D01*
X154171058Y-87923560D01*
X154356582Y-87784864D01*
X154626276Y-87428677D01*
X154847956Y-87061958D01*
X155194105Y-86520145D01*
X155462642Y-86295219D01*
X155567623Y-86297083D01*
X155769860Y-86260777D01*
X155813333Y-86048025D01*
X155882664Y-85811210D01*
X156008830Y-85825503D01*
X156125103Y-85845365D01*
X156086849Y-85756244D01*
X156121654Y-85530107D01*
X156347046Y-85183071D01*
X156484019Y-85027633D01*
X156800303Y-84649293D01*
X156981760Y-84340456D01*
X156998667Y-84266176D01*
X157132446Y-84017379D01*
X157337333Y-83862000D01*
X157606218Y-83636244D01*
X157676000Y-83472900D01*
X157800055Y-83233090D01*
X158098426Y-82947820D01*
X158099333Y-82947139D01*
X158399256Y-82668146D01*
X158527990Y-82442119D01*
X158528018Y-82441281D01*
X158630686Y-82217248D01*
X158868939Y-81883322D01*
X159149316Y-81554567D01*
X159378357Y-81346048D01*
X159437153Y-81322000D01*
X159635289Y-81207801D01*
X159932080Y-80940261D01*
X160216470Y-80631965D01*
X160377404Y-80395499D01*
X160385333Y-80360760D01*
X160511157Y-80172283D01*
X160816077Y-79891826D01*
X161191265Y-79605720D01*
X161527891Y-79400296D01*
X161655333Y-79353305D01*
X161948641Y-79267744D01*
X162121000Y-79203577D01*
X162363306Y-79174442D01*
X162417333Y-79244703D01*
X162554413Y-79424749D01*
X162842673Y-79598770D01*
X163107637Y-79759301D01*
X163208775Y-79991357D01*
X163189921Y-80414753D01*
X163177864Y-80514951D01*
X163047343Y-81437680D01*
X162926178Y-82033090D01*
X162811853Y-82312320D01*
X162766108Y-82338000D01*
X162703112Y-82482873D01*
X162717976Y-82832752D01*
X162719880Y-82846000D01*
X162718743Y-83231675D01*
X162595892Y-83354000D01*
X162476918Y-83456607D01*
X162502000Y-83523333D01*
X162522802Y-83805164D01*
X162486328Y-83887357D01*
X162387312Y-84184286D01*
X162317103Y-84627037D01*
X162316709Y-84631396D01*
X162224146Y-85079533D01*
X162033381Y-85689412D01*
X161829048Y-86222258D01*
X161621641Y-86777512D01*
X161504718Y-87218803D01*
X161502368Y-87444484D01*
X161481880Y-87673484D01*
X161380694Y-87769246D01*
X161162041Y-88050435D01*
X161118212Y-88215981D01*
X161048401Y-88587536D01*
X160920721Y-89061385D01*
X160918365Y-89069000D01*
X160830010Y-89435421D01*
X160836248Y-89615512D01*
X160846731Y-89619333D01*
X160824417Y-89724215D01*
X160650315Y-89945865D01*
X160447709Y-90342059D01*
X160457573Y-90596180D01*
X160458756Y-90912036D01*
X160364609Y-91435873D01*
X160195284Y-92057304D01*
X160184878Y-92089982D01*
X159994031Y-92751172D01*
X159856018Y-93355413D01*
X159801042Y-93768000D01*
X159751463Y-94205541D01*
X159655673Y-94487667D01*
X159625555Y-94672991D01*
X159701232Y-94699333D01*
X159808136Y-94838801D01*
X159777536Y-95122667D01*
X159757261Y-95460771D01*
X159868970Y-95546000D01*
X159995542Y-95636718D01*
X159975986Y-95692702D01*
X160006980Y-95916907D01*
X160267839Y-96171062D01*
X160664013Y-96387920D01*
X161100949Y-96500232D01*
X161112788Y-96501214D01*
X161671421Y-96452596D01*
X162148488Y-96297853D01*
X162505877Y-96149827D01*
X162708797Y-96121233D01*
X162714557Y-96125446D01*
X162656175Y-96250568D01*
X162363794Y-96419721D01*
X161931702Y-96593727D01*
X161454186Y-96733406D01*
X161106161Y-96793785D01*
X160544893Y-96751568D01*
X160063133Y-96550442D01*
X159761198Y-96244420D01*
X159708000Y-96040968D01*
X159639936Y-95916888D01*
X159588996Y-95947226D01*
X159467119Y-95906412D01*
X159338737Y-95635666D01*
X159230129Y-95242132D01*
X159167568Y-94832954D01*
X159177331Y-94515277D01*
X159215958Y-94426104D01*
X159287599Y-94191678D01*
X159224653Y-94121903D01*
X159155724Y-93915716D01*
X159120957Y-93459222D01*
X159126066Y-92839582D01*
X159132057Y-92709827D01*
X159187032Y-91768794D01*
X159242255Y-91112939D01*
X159305698Y-90688861D01*
X159385334Y-90443158D01*
X159488419Y-90322891D01*
X159608931Y-90083406D01*
X159609825Y-89884959D01*
X159648744Y-89474501D01*
X159751195Y-89207626D01*
X159950740Y-88619203D01*
X160067892Y-87759551D01*
X160078928Y-87587333D01*
X160173556Y-87245649D01*
X160223234Y-87164000D01*
X160324047Y-86905651D01*
X160430400Y-86444622D01*
X160473692Y-86188251D01*
X160573555Y-85696252D01*
X160691163Y-85360277D01*
X160746301Y-85287550D01*
X160823361Y-85086356D01*
X160801435Y-85035633D01*
X160791258Y-84769169D01*
X160838413Y-84666333D01*
X160966735Y-84424014D01*
X160983046Y-84370000D01*
X161076802Y-83826086D01*
X161210207Y-83310652D01*
X161349870Y-82939099D01*
X161428936Y-82828940D01*
X161545508Y-82608706D01*
X161631653Y-82186383D01*
X161645757Y-82043058D01*
X161710461Y-81551791D01*
X161806937Y-81191090D01*
X161832011Y-81140784D01*
X161796504Y-81101346D01*
X161556291Y-81242729D01*
X161348276Y-81394037D01*
X160866338Y-81833987D01*
X160445255Y-82334663D01*
X160368807Y-82449407D01*
X160027832Y-82902794D01*
X159658224Y-83259257D01*
X159604178Y-83297455D01*
X159308246Y-83567904D01*
X159200000Y-83800999D01*
X159058765Y-84032854D01*
X158779901Y-84199437D01*
X158473979Y-84405604D01*
X158463227Y-84628681D01*
X158429861Y-84889562D01*
X158248326Y-84985855D01*
X157978390Y-85172628D01*
X157640391Y-85552819D01*
X157451064Y-85822420D01*
X157137092Y-86246695D01*
X156854302Y-86518131D01*
X156731398Y-86571333D01*
X156526405Y-86710284D01*
X156487962Y-86867667D01*
X156364357Y-87199596D01*
X156022869Y-87701497D01*
X155501207Y-88321151D01*
X155224416Y-88617538D01*
X155012675Y-88959614D01*
X154966667Y-89167871D01*
X154842768Y-89409912D01*
X154712667Y-89450000D01*
X154491266Y-89586554D01*
X154458667Y-89717025D01*
X154347110Y-90003940D01*
X154071092Y-90376278D01*
X153993000Y-90459851D01*
X153636579Y-90855891D01*
X153367725Y-91208830D01*
X153341379Y-91251159D01*
X153042841Y-91577854D01*
X152769717Y-91762248D01*
X152431593Y-92047973D01*
X152133149Y-92476840D01*
X152116739Y-92509683D01*
X151806036Y-92936755D01*
X151414190Y-93225096D01*
X151387209Y-93236021D01*
X151023471Y-93461277D01*
X150845217Y-93715398D01*
X150659829Y-94022771D01*
X150291691Y-94130758D01*
X149702283Y-94043971D01*
X149246151Y-93906977D01*
X148278000Y-93582155D01*
X148265772Y-92320411D01*
X148284061Y-91554199D01*
X148374677Y-90984436D01*
X148564758Y-90471932D01*
X148665761Y-90268889D01*
X148878598Y-89790428D01*
X148976806Y-89421146D01*
X148964329Y-89295222D01*
X148969877Y-89129200D01*
X149040000Y-89111333D01*
X149158636Y-89017659D01*
X149138803Y-88964873D01*
X149121976Y-88730808D01*
X149172782Y-88278665D01*
X149248432Y-87864206D01*
X149416375Y-87249275D01*
X149572429Y-86994667D01*
X151072000Y-86994667D01*
X151156667Y-87079333D01*
X151241333Y-86994667D01*
X151156667Y-86910000D01*
X151072000Y-86994667D01*
X149572429Y-86994667D01*
X149600909Y-86948201D01*
X149709956Y-86907407D01*
X149859222Y-86859078D01*
X149780985Y-86780407D01*
X149687295Y-86547387D01*
X149760848Y-86198990D01*
X149959421Y-85885958D01*
X150052356Y-85811585D01*
X150143183Y-85632482D01*
X150021889Y-85428054D01*
X149889673Y-85200078D01*
X150013667Y-85090352D01*
X150178357Y-84885765D01*
X150225333Y-84619882D01*
X150289884Y-84266938D01*
X150394667Y-84116000D01*
X150508295Y-83891274D01*
X150563100Y-83479317D01*
X150564000Y-83417541D01*
X150617706Y-82902768D01*
X150747388Y-82481258D01*
X150752108Y-82472252D01*
X150838098Y-82176284D01*
X150911323Y-81688905D01*
X150966199Y-81103543D01*
X150997139Y-80513627D01*
X150998559Y-80012584D01*
X150964872Y-79693843D01*
X150922107Y-79628667D01*
X150769899Y-79752052D01*
X150485977Y-80071062D01*
X150224547Y-80397632D01*
X149859580Y-80864990D01*
X149552216Y-81246815D01*
X149421000Y-81401537D01*
X149239375Y-81691680D01*
X149209333Y-81817905D01*
X149087592Y-81991993D01*
X149040000Y-81999333D01*
X148877670Y-82129884D01*
X148870667Y-82181692D01*
X148759833Y-82405899D01*
X148482412Y-82747155D01*
X148362667Y-82872051D01*
X148042773Y-83265095D01*
X147866575Y-83623747D01*
X147854667Y-83705692D01*
X147797191Y-83973929D01*
X147722457Y-84031333D01*
X147578903Y-84172552D01*
X147407560Y-84516185D01*
X147393471Y-84552655D01*
X147150876Y-84946413D01*
X146840253Y-85167152D01*
X146835772Y-85168359D01*
X146571514Y-85326124D01*
X146569797Y-85641042D01*
X146544433Y-86010506D01*
X146243705Y-86335528D01*
X145946758Y-86611241D01*
X145822668Y-86831231D01*
X145822667Y-86831765D01*
X145753151Y-87130048D01*
X145590552Y-87502702D01*
X145403786Y-87812643D01*
X145273201Y-87924679D01*
X145140098Y-88067108D01*
X144935947Y-88430614D01*
X144796067Y-88730333D01*
X144499006Y-89380618D01*
X144153267Y-90095925D01*
X144009130Y-90381333D01*
X143709914Y-90963384D01*
X143430615Y-91508174D01*
X143314195Y-91736000D01*
X143110198Y-92106830D01*
X142964112Y-92322159D01*
X142957265Y-92328667D01*
X142741726Y-92608103D01*
X142459415Y-93096870D01*
X142192172Y-93643380D01*
X141955513Y-94042714D01*
X141707782Y-94284515D01*
X141682618Y-94296124D01*
X141501214Y-94450015D01*
X141508401Y-94536043D01*
X141476017Y-94736994D01*
X141420196Y-94783878D01*
X141233565Y-95000036D01*
X141010887Y-95383659D01*
X140988000Y-95430579D01*
X140597054Y-96206931D01*
X140306219Y-96686130D01*
X140101688Y-96889955D01*
X140056093Y-96900667D01*
X139912211Y-97037131D01*
X139896000Y-97143136D01*
X139768435Y-97394220D01*
X139454754Y-97697700D01*
X139388000Y-97747333D01*
X139061766Y-97954320D01*
X138888511Y-98014904D01*
X138880000Y-98001333D01*
X138760973Y-98016013D01*
X138466859Y-98189174D01*
X138388193Y-98243803D01*
X137947025Y-98515186D01*
X137604805Y-98572727D01*
X137213903Y-98434733D01*
X137142036Y-98398348D01*
X136740944Y-98195534D01*
X136509333Y-98082635D01*
X136296115Y-97831144D01*
X136249865Y-97620391D01*
X136140633Y-97200913D01*
X136029976Y-97019845D01*
X135910285Y-96763524D01*
X136001333Y-96646667D01*
X136092498Y-96467055D01*
X135987477Y-96291304D01*
X135869899Y-95930944D01*
X135883749Y-95377608D01*
X136015974Y-94744621D01*
X136229209Y-94192824D01*
X136382828Y-93768007D01*
X136404216Y-93440488D01*
X136397903Y-93420650D01*
X136414825Y-93208781D01*
X136501210Y-93175333D01*
X136619164Y-93072661D01*
X136594000Y-93006000D01*
X136596264Y-92849477D01*
X136649162Y-92836667D01*
X136755472Y-92683953D01*
X136862773Y-92289740D01*
X136925895Y-91900889D01*
X137038735Y-91287874D01*
X137215919Y-90910351D01*
X137450101Y-90698247D01*
X137726464Y-90451716D01*
X137728727Y-90199492D01*
X137691968Y-90122291D01*
X137606272Y-89760391D01*
X137680854Y-89432332D01*
X137881489Y-89281029D01*
X137893528Y-89280667D01*
X137982352Y-89149096D01*
X137953235Y-88956394D01*
X137994284Y-88591616D01*
X138194747Y-88390873D01*
X138427565Y-88183540D01*
X138463088Y-88073533D01*
X138467531Y-87882861D01*
X138566729Y-87488873D01*
X138636541Y-87273140D01*
X138767266Y-86803500D01*
X138805735Y-86464321D01*
X138788381Y-86390752D01*
X138812883Y-86242957D01*
X138870006Y-86232667D01*
X139032690Y-86097257D01*
X139049333Y-85999400D01*
X139168540Y-85695097D01*
X139275430Y-85578491D01*
X139461257Y-85306925D01*
X139656115Y-84851052D01*
X139715267Y-84668757D01*
X139881742Y-84154018D01*
X140038676Y-83743012D01*
X140078369Y-83658184D01*
X140136514Y-83369041D01*
X140074057Y-83274725D01*
X139910540Y-83332322D01*
X139812114Y-83520874D01*
X139655894Y-83795957D01*
X139535929Y-83862000D01*
X139441267Y-83964348D01*
X139463728Y-84016870D01*
X139464662Y-84205103D01*
X139431388Y-84228537D01*
X139261976Y-84409638D01*
X139041576Y-84766962D01*
X138827151Y-85187770D01*
X138675664Y-85559323D01*
X138644077Y-85768883D01*
X138649377Y-85776266D01*
X138631052Y-85952367D01*
X138434239Y-86187705D01*
X138171200Y-86367861D01*
X138035435Y-86402000D01*
X137916862Y-86497988D01*
X137937918Y-86553942D01*
X137988499Y-86912569D01*
X137857855Y-87405494D01*
X137588956Y-87913183D01*
X137341301Y-88213514D01*
X137026348Y-88609417D01*
X136860131Y-88987752D01*
X136852704Y-89054889D01*
X136791141Y-89371512D01*
X136704619Y-89478222D01*
X136552382Y-89645389D01*
X136298819Y-90024524D01*
X136037594Y-90466000D01*
X135742609Y-90943270D01*
X135491698Y-91265971D01*
X135351675Y-91360789D01*
X135256751Y-91463312D01*
X135275911Y-91655064D01*
X135235301Y-91982257D01*
X135089211Y-92090726D01*
X134852417Y-92300176D01*
X134816000Y-92431450D01*
X134718511Y-92644913D01*
X134646667Y-92667333D01*
X134492311Y-92802600D01*
X134477333Y-92896607D01*
X134369753Y-93164995D01*
X134105639Y-93525236D01*
X134054000Y-93582664D01*
X133772306Y-93949192D01*
X133633662Y-94252335D01*
X133630667Y-94284724D01*
X133510370Y-94509309D01*
X133129614Y-94556639D01*
X132998371Y-94543261D01*
X132865504Y-94636960D01*
X132891908Y-94783505D01*
X132859065Y-95096069D01*
X132638109Y-95440533D01*
X132333937Y-95678973D01*
X132183205Y-95715333D01*
X131950188Y-95852356D01*
X131866797Y-95993570D01*
X131727293Y-96175427D01*
X131648305Y-96160083D01*
X131516955Y-96218593D01*
X131343502Y-96509395D01*
X131321799Y-96559180D01*
X131123555Y-96909903D01*
X130933295Y-97069130D01*
X130922117Y-97070000D01*
X130685736Y-97176809D01*
X130342799Y-97439643D01*
X130278943Y-97497637D01*
X129801861Y-97833366D01*
X129228373Y-98099853D01*
X129143333Y-98127343D01*
X128623815Y-98331542D01*
X128199566Y-98579742D01*
X128137659Y-98631111D01*
X127828216Y-98849154D01*
X127629659Y-98905583D01*
X127360530Y-98949854D01*
X126957731Y-99094396D01*
X126942000Y-99101249D01*
X126539658Y-99261387D01*
X126269513Y-99340312D01*
X126264667Y-99340856D01*
X125997963Y-99431465D01*
X125718233Y-99572322D01*
X125356676Y-99702215D01*
X125018390Y-99586788D01*
X124993400Y-99571537D01*
X124701792Y-99441373D01*
X124531777Y-99540927D01*
X124510116Y-99573691D01*
X124212921Y-99787172D01*
X123764917Y-99886160D01*
X123342391Y-99843939D01*
X123206856Y-99771191D01*
X122930350Y-99657052D01*
X122814402Y-99681645D01*
X122571389Y-99667272D01*
X122425985Y-99569223D01*
X122159982Y-99344519D01*
X121743319Y-99018699D01*
X121523333Y-98853124D01*
X121048724Y-98489031D01*
X120639171Y-98155370D01*
X120517737Y-98048790D01*
X120189432Y-97819332D01*
X119967403Y-97747333D01*
X119770815Y-97611113D01*
X119745333Y-97493333D01*
X119649328Y-97268061D01*
X119567359Y-97239333D01*
X119391907Y-97098279D01*
X119187074Y-96750412D01*
X119149467Y-96665128D01*
X118768427Y-96124711D01*
X118396108Y-95911937D01*
X117990997Y-95662912D01*
X117896548Y-95292510D01*
X118044637Y-94882423D01*
X118116058Y-94673180D01*
X117959224Y-94627407D01*
X117748304Y-94654997D01*
X117258887Y-94781051D01*
X116756409Y-94968774D01*
X116315527Y-95133457D01*
X115975068Y-95207065D01*
X115962069Y-95207333D01*
X115661085Y-95312633D01*
X115588187Y-95390387D01*
X115355625Y-95497313D01*
X115093959Y-95477792D01*
X114653698Y-95524086D01*
X114403450Y-95724044D01*
X114103621Y-95949400D01*
X113877107Y-95982701D01*
X113616980Y-96005975D01*
X113557553Y-96065509D01*
X113332040Y-96166820D01*
X113001797Y-96165843D01*
X112546286Y-96170441D01*
X112252333Y-96252353D01*
X112012386Y-96309828D01*
X111956000Y-96155238D01*
X111833261Y-95977010D01*
X111436446Y-95912033D01*
X111321000Y-95911172D01*
X110753846Y-95864572D01*
X110244181Y-95744380D01*
X110220333Y-95735417D01*
X109892404Y-95628476D01*
X109754675Y-95624385D01*
X109754667Y-95624816D01*
X109625399Y-95606872D01*
X109313181Y-95466179D01*
X109301141Y-95459957D01*
X108930807Y-95321677D01*
X108689542Y-95322360D01*
X108472643Y-95299671D01*
X108420229Y-95240065D01*
X108167931Y-95083707D01*
X107676752Y-94954775D01*
X107087667Y-94882591D01*
X106919053Y-94742312D01*
X106918333Y-94657000D01*
X106815787Y-94502751D01*
X106570528Y-94487289D01*
X106182043Y-94446357D01*
X105739510Y-94292507D01*
X105366249Y-94082516D01*
X105185579Y-93873161D01*
X105182667Y-93848318D01*
X105042020Y-93710694D01*
X104870244Y-93683333D01*
X104520386Y-93558443D01*
X104185074Y-93268532D01*
X104003115Y-92940744D01*
X103997333Y-92883783D01*
X103861886Y-92672561D01*
X103743333Y-92606098D01*
X103518072Y-92379796D01*
X103489333Y-92249314D01*
X103353481Y-92021483D01*
X103230019Y-91990000D01*
X102958615Y-91851249D01*
X102859512Y-91693667D01*
X102628315Y-91332219D01*
X102498647Y-91210153D01*
X102334996Y-90916049D01*
X102355839Y-90744487D01*
X102349547Y-90508576D01*
X102209828Y-90466000D01*
X101961703Y-90325143D01*
X101809449Y-90078041D01*
X101584275Y-89677622D01*
X101400372Y-89472994D01*
X101223006Y-89194602D01*
X101226532Y-89027273D01*
X101166811Y-88780372D01*
X100973386Y-88616206D01*
X100688226Y-88338714D01*
X100441262Y-87901129D01*
X100418235Y-87841219D01*
X100249583Y-87456630D01*
X100104132Y-87256675D01*
X100081104Y-87248667D01*
X99913127Y-87102965D01*
X99696445Y-86734808D01*
X99474536Y-86247621D01*
X99290879Y-85744827D01*
X99188956Y-85329851D01*
X99193090Y-85136363D01*
X99179845Y-84779842D01*
X99059123Y-84641846D01*
X98707095Y-84283939D01*
X98437348Y-83844066D01*
X98317596Y-83446868D01*
X98333771Y-83306667D01*
X98307527Y-83080086D01*
X98046931Y-82986474D01*
X97721097Y-82819658D01*
X97507582Y-82390182D01*
X97492389Y-82338000D01*
X97318059Y-81891243D01*
X97112683Y-81585957D01*
X97089879Y-81566676D01*
X96901874Y-81272677D01*
X96827142Y-80931795D01*
X96739940Y-80597817D01*
X96589000Y-80475453D01*
X96391987Y-80342502D01*
X96376290Y-80263667D01*
X96350271Y-80097935D01*
X96254922Y-79850099D01*
X96062170Y-79461857D01*
X95743947Y-78874908D01*
X95476564Y-78394991D01*
X95220394Y-77882856D01*
X95055806Y-77448580D01*
X95022667Y-77272725D01*
X94899929Y-76905493D01*
X94764843Y-76746827D01*
X94589774Y-76413908D01*
X94607186Y-76217259D01*
X94579728Y-75902843D01*
X94429079Y-75794882D01*
X94231228Y-75585384D01*
X94250949Y-75289099D01*
X94240049Y-74916002D01*
X93964682Y-74558272D01*
X93907660Y-74507717D01*
X93624632Y-74178311D01*
X93279174Y-73657972D01*
X92923332Y-73041959D01*
X92609150Y-72425532D01*
X92388672Y-71903950D01*
X92313333Y-71589560D01*
X92235265Y-71361345D01*
X92167005Y-71331333D01*
X92029693Y-71186640D01*
X91839062Y-70816686D01*
X91721405Y-70527000D01*
X91520196Y-70030046D01*
X91342198Y-69663251D01*
X91275067Y-69561800D01*
X91135027Y-69251803D01*
X91128000Y-69175361D01*
X91066047Y-68877988D01*
X90913712Y-68438874D01*
X90881356Y-68359487D01*
X90730752Y-67970387D01*
X90666872Y-67746471D01*
X90669031Y-67729926D01*
X90602762Y-67582346D01*
X90395491Y-67260702D01*
X90303954Y-67129768D01*
X90021169Y-66595057D01*
X89998329Y-66100783D01*
X90002153Y-66080901D01*
X90021794Y-65699688D01*
X89850221Y-65516513D01*
X89793275Y-65495662D01*
X89578133Y-65292424D01*
X89345248Y-64887788D01*
X89150906Y-64410835D01*
X89051389Y-63990643D01*
X89061361Y-63817139D01*
X88999710Y-63588046D01*
X88857127Y-63389382D01*
X88670286Y-63048097D01*
X88517959Y-62544267D01*
X88489754Y-62394576D01*
X88388890Y-61957550D01*
X88270528Y-61704543D01*
X88227691Y-61679333D01*
X88100603Y-61540063D01*
X88080000Y-61396333D01*
X87974199Y-61036213D01*
X87849175Y-60846000D01*
X87658362Y-60537003D01*
X87426868Y-60044316D01*
X87301850Y-59732000D01*
X86985351Y-58885333D01*
X86875648Y-59559400D01*
X86823900Y-60039815D01*
X86832490Y-60390196D01*
X86845311Y-60440291D01*
X86835365Y-60756629D01*
X86784152Y-60866891D01*
X86684591Y-61170222D01*
X86615211Y-61644249D01*
X86606781Y-61764000D01*
X86555869Y-62387934D01*
X86481709Y-62992414D01*
X86475226Y-63034000D01*
X86390461Y-63621634D01*
X86311578Y-64254458D01*
X86306057Y-64304000D01*
X86226637Y-64842985D01*
X86098207Y-65536656D01*
X85985933Y-66066127D01*
X85871737Y-66658993D01*
X85815944Y-67136593D01*
X85827585Y-67378461D01*
X85795902Y-67578825D01*
X85709093Y-67606000D01*
X85577025Y-67742389D01*
X85606931Y-68018956D01*
X85633012Y-68364368D01*
X85560412Y-68524718D01*
X85458004Y-68731865D01*
X85353312Y-69166998D01*
X85293939Y-69548426D01*
X85202779Y-70079529D01*
X85091335Y-70460376D01*
X85017387Y-70578365D01*
X84930399Y-70778834D01*
X84951491Y-70830061D01*
X84948775Y-71074191D01*
X84810483Y-71448917D01*
X84808248Y-71453360D01*
X84634877Y-71926518D01*
X84497821Y-72520681D01*
X84473893Y-72680059D01*
X84367896Y-73179174D01*
X84215941Y-73539100D01*
X84154232Y-73611392D01*
X83961698Y-73907673D01*
X83884599Y-74203770D01*
X83736977Y-74626682D01*
X83461266Y-75031332D01*
X83230167Y-75348321D01*
X83273639Y-75507703D01*
X83296333Y-75517340D01*
X83492716Y-75686055D01*
X83436732Y-75859385D01*
X83270933Y-75903333D01*
X83094700Y-76051299D01*
X83033970Y-76504713D01*
X83033867Y-76531529D01*
X82921615Y-77141513D01*
X82707615Y-77423907D01*
X82479610Y-77689039D01*
X82440696Y-77866089D01*
X82414865Y-78162307D01*
X82256480Y-78617168D01*
X82019827Y-79106850D01*
X81759194Y-79507533D01*
X81683763Y-79592559D01*
X81424412Y-79927105D01*
X81193171Y-80339588D01*
X81045052Y-80714558D01*
X81035066Y-80936567D01*
X81040369Y-80942813D01*
X81051403Y-81151840D01*
X80889931Y-81427130D01*
X80652960Y-81629869D01*
X80538709Y-81660667D01*
X80320654Y-81796762D01*
X80290667Y-81919981D01*
X80154152Y-82205202D01*
X80047359Y-82272661D01*
X79882198Y-82480510D01*
X79896668Y-82607385D01*
X79885259Y-82960592D01*
X79697967Y-83453506D01*
X79390007Y-83978265D01*
X79016589Y-84427010D01*
X78921006Y-84513396D01*
X78564722Y-84923753D01*
X78345719Y-85377323D01*
X78339732Y-85402396D01*
X78191456Y-85751501D01*
X77991212Y-85894000D01*
X77784895Y-86033154D01*
X77745033Y-86190333D01*
X77633671Y-86546921D01*
X77377378Y-86909524D01*
X77074876Y-87162589D01*
X76873628Y-87210320D01*
X76711944Y-87304375D01*
X76698742Y-87629667D01*
X76683944Y-87972992D01*
X76489328Y-88097604D01*
X76360076Y-88108702D01*
X76142207Y-88147320D01*
X76184333Y-88207479D01*
X76375271Y-88430414D01*
X76396000Y-88548984D01*
X76500363Y-88930346D01*
X76771556Y-89449896D01*
X77146729Y-89996938D01*
X77369667Y-90263956D01*
X77634374Y-90635045D01*
X77750442Y-90953607D01*
X77750667Y-90963448D01*
X77860669Y-91241294D01*
X78141021Y-91639137D01*
X78343333Y-91870447D01*
X78687851Y-92299151D01*
X78901607Y-92687302D01*
X78936000Y-92837059D01*
X79004250Y-93112050D01*
X79098737Y-93175333D01*
X79334979Y-93289332D01*
X79607236Y-93552201D01*
X79813086Y-93845248D01*
X79851484Y-94047644D01*
X79904782Y-94171206D01*
X80026673Y-94191333D01*
X80261068Y-94301727D01*
X80296018Y-94403000D01*
X80425328Y-94705444D01*
X80746737Y-95111525D01*
X81177099Y-95527560D01*
X81534360Y-95798335D01*
X81849033Y-96064182D01*
X81983916Y-96296492D01*
X81984000Y-96300563D01*
X82117877Y-96483625D01*
X82451516Y-96734339D01*
X82882925Y-96994605D01*
X83310115Y-97206325D01*
X83631094Y-97311398D01*
X83732789Y-97296767D01*
X83920729Y-97304479D01*
X84172399Y-97471068D01*
X84341727Y-97689556D01*
X84354667Y-97752214D01*
X84219286Y-97822805D01*
X84016000Y-97796397D01*
X83746296Y-97793067D01*
X83677333Y-97877111D01*
X83534813Y-97936356D01*
X83152471Y-97861078D01*
X82973122Y-97803767D01*
X82275653Y-97540698D01*
X81858104Y-97319305D01*
X81669691Y-97108261D01*
X81645333Y-96984690D01*
X81532740Y-96820085D01*
X81381853Y-96843069D01*
X81073111Y-96810161D01*
X80801789Y-96626088D01*
X80473177Y-96319244D01*
X80029929Y-95932349D01*
X79872233Y-95800000D01*
X79322048Y-95313411D01*
X78736224Y-94745345D01*
X78167714Y-94153642D01*
X77669473Y-93596143D01*
X77294452Y-93130689D01*
X77095606Y-92815121D01*
X77077262Y-92747048D01*
X76950350Y-92523269D01*
X76734667Y-92328667D01*
X76473024Y-92069687D01*
X76396000Y-91892678D01*
X76289399Y-91650678D01*
X76027364Y-91304628D01*
X75972667Y-91244002D01*
X75686276Y-90827678D01*
X75550953Y-90419771D01*
X75549333Y-90382602D01*
X75486664Y-90028257D01*
X75382688Y-89874994D01*
X75195641Y-89931868D01*
X74874050Y-90157588D01*
X74511052Y-90470286D01*
X74199784Y-90788097D01*
X74033384Y-91029155D01*
X74025333Y-91068092D01*
X73915765Y-91260664D01*
X73622271Y-91620085D01*
X73197669Y-92092472D01*
X72694777Y-92623937D01*
X72166411Y-93160595D01*
X71665390Y-93648560D01*
X71244531Y-94033947D01*
X70956650Y-94262870D01*
X70858849Y-94298626D01*
X70698066Y-94337477D01*
X70509767Y-94541765D01*
X70153614Y-94880873D01*
X69859578Y-95044497D01*
X69523548Y-95309304D01*
X69453333Y-95623249D01*
X69347763Y-95988696D01*
X69036068Y-96152274D01*
X68683037Y-96334537D01*
X68529612Y-96538015D01*
X68318064Y-96830943D01*
X68057878Y-97019791D01*
X67442450Y-97327900D01*
X66831790Y-97609891D01*
X66370734Y-97798947D01*
X66363000Y-97801685D01*
X66110999Y-98032617D01*
X66065345Y-98207685D01*
X65926705Y-98472417D01*
X65607339Y-98717077D01*
X65248841Y-98856363D01*
X65026881Y-98833300D01*
X64901197Y-98884790D01*
X64881333Y-99003107D01*
X64740984Y-99196984D01*
X64392134Y-99449470D01*
X63943084Y-99699452D01*
X63502131Y-99885818D01*
X63205704Y-99948667D01*
X62980037Y-100076395D01*
X62900081Y-100182230D01*
X62641050Y-100430407D01*
X62190707Y-100715187D01*
X61679454Y-100967384D01*
X61237700Y-101117808D01*
X61106181Y-101134000D01*
X60896603Y-101210152D01*
X60918485Y-101330007D01*
X60912926Y-101458307D01*
X60676642Y-101431092D01*
X60307336Y-101464328D01*
X60015163Y-101742633D01*
X59622768Y-102068571D01*
X59251000Y-102186480D01*
X58912642Y-102264194D01*
X58785333Y-102384488D01*
X58709178Y-102462390D01*
X58679198Y-102438975D01*
X58473194Y-102436425D01*
X58112181Y-102571751D01*
X58068983Y-102593509D01*
X57601371Y-102793549D01*
X57201452Y-102902588D01*
X56773710Y-103002494D01*
X56351587Y-103146862D01*
X55835876Y-103313601D01*
X55420253Y-103401432D01*
X54972707Y-103490231D01*
X54704265Y-103575490D01*
X54386851Y-103661862D01*
X54280932Y-103662369D01*
X53978525Y-103671631D01*
X53959333Y-103676018D01*
X53584812Y-103719229D01*
X53002800Y-103736592D01*
X52343381Y-103729420D01*
X51736640Y-103699025D01*
X51325671Y-103649459D01*
X50838021Y-103509993D01*
X50236770Y-103286663D01*
X49661824Y-103036409D01*
X49253084Y-102816170D01*
X49218000Y-102791646D01*
X48701441Y-102377744D01*
X48272586Y-101973947D01*
X47986831Y-101639365D01*
X47899571Y-101433108D01*
X47919241Y-101405774D01*
X48127794Y-101443399D01*
X48277375Y-101624639D01*
X48486520Y-101855525D01*
X48879871Y-102185203D01*
X49359704Y-102542680D01*
X49828295Y-102856966D01*
X50187919Y-103057068D01*
X50297654Y-103092259D01*
X50513862Y-103143061D01*
X50921430Y-103255999D01*
X51055308Y-103294963D01*
X51687181Y-103397586D01*
X52517919Y-103419812D01*
X53418241Y-103364999D01*
X54258866Y-103236508D01*
X54382667Y-103208505D01*
X54852917Y-103115301D01*
X55206873Y-103077621D01*
X55229333Y-103078074D01*
X55560604Y-102978126D01*
X55716833Y-102863960D01*
X56025350Y-102716879D01*
X56191599Y-102731105D01*
X56524198Y-102717578D01*
X56635432Y-102653038D01*
X57146680Y-102234667D01*
X58108000Y-102234667D01*
X58192667Y-102319333D01*
X58277333Y-102234667D01*
X58192667Y-102150000D01*
X58108000Y-102234667D01*
X57146680Y-102234667D01*
X57157570Y-102225755D01*
X57496345Y-101989117D01*
X57717460Y-101904289D01*
X57867714Y-101924694D01*
X58077013Y-101916400D01*
X58108000Y-101843261D01*
X58238290Y-101670102D01*
X58555533Y-101411288D01*
X58949290Y-101143192D01*
X59309121Y-100942185D01*
X59499510Y-100880990D01*
X59705940Y-100781024D01*
X59967112Y-100583667D01*
X60276401Y-100362043D01*
X60462485Y-100287333D01*
X60645857Y-100152624D01*
X60709235Y-100033333D01*
X60935537Y-99808072D01*
X61066019Y-99779333D01*
X61293914Y-99646152D01*
X61325333Y-99525333D01*
X61461818Y-99303714D01*
X61591428Y-99271333D01*
X61936732Y-99148924D01*
X62235667Y-98870378D01*
X62341333Y-98606095D01*
X62483042Y-98458732D01*
X62680000Y-98424667D01*
X62954543Y-98322443D01*
X63018667Y-98179081D01*
X63164284Y-97881738D01*
X63513601Y-97704450D01*
X63899296Y-97707150D01*
X64124866Y-97713981D01*
X64186199Y-97511637D01*
X64171578Y-97304008D01*
X64176382Y-96954618D01*
X64340433Y-96833828D01*
X64491914Y-96828540D01*
X64748099Y-96787048D01*
X64778254Y-96701540D01*
X64805406Y-96567478D01*
X64844159Y-96562000D01*
X65019818Y-96425423D01*
X65181884Y-96154700D01*
X65457091Y-95785444D01*
X65867742Y-95452066D01*
X65886398Y-95440857D01*
X66233112Y-95175949D01*
X66402117Y-94928839D01*
X66405333Y-94900971D01*
X66546660Y-94671355D01*
X66728344Y-94583158D01*
X67036269Y-94362953D01*
X67139111Y-94163111D01*
X67361541Y-93848769D01*
X67578100Y-93735684D01*
X67859240Y-93601977D01*
X67929333Y-93494250D01*
X68074655Y-93382724D01*
X68362660Y-93344667D01*
X68650762Y-93290914D01*
X68691333Y-93175333D01*
X68689103Y-93018621D01*
X68738764Y-93006000D01*
X68897462Y-92867052D01*
X69119264Y-92516880D01*
X69214424Y-92330609D01*
X69454911Y-91919784D01*
X69680135Y-91679175D01*
X69749667Y-91653276D01*
X69946225Y-91528909D01*
X69961333Y-91456772D01*
X70078059Y-91229260D01*
X70364667Y-90887002D01*
X70725804Y-90525560D01*
X71066119Y-90240497D01*
X71287857Y-90127333D01*
X71450809Y-89985764D01*
X71538853Y-89771629D01*
X71670460Y-89530095D01*
X71787841Y-89512319D01*
X71960989Y-89450924D01*
X72134275Y-89190690D01*
X72325024Y-88882084D01*
X72477953Y-88772667D01*
X72639024Y-88631695D01*
X72719731Y-88434000D01*
X72905022Y-88158600D01*
X73078147Y-88095333D01*
X73302535Y-87954569D01*
X73348000Y-87766660D01*
X73418096Y-87447733D01*
X73501436Y-87343158D01*
X73595546Y-87115833D01*
X73506524Y-86769920D01*
X73278310Y-86438095D01*
X73172096Y-86348723D01*
X72941034Y-86047524D01*
X72767412Y-85583603D01*
X72750161Y-85502648D01*
X72579049Y-85012315D01*
X72319751Y-84702830D01*
X72301699Y-84692450D01*
X72040791Y-84383395D01*
X72023010Y-84127914D01*
X71972602Y-83703138D01*
X71853280Y-83473947D01*
X71687055Y-83114463D01*
X71618071Y-82694235D01*
X71568659Y-82364182D01*
X71468752Y-82264227D01*
X71461669Y-82267958D01*
X71383641Y-82227354D01*
X71409149Y-82122956D01*
X71339360Y-81883456D01*
X71061068Y-81691053D01*
X70755434Y-81480757D01*
X70658776Y-81279891D01*
X70634369Y-80907241D01*
X70511738Y-80412116D01*
X70341256Y-79976366D01*
X70262073Y-79847751D01*
X70183794Y-79558321D01*
X70219112Y-79453218D01*
X70187122Y-79228036D01*
X69978297Y-79011889D01*
X69710816Y-78690376D01*
X69703103Y-78305755D01*
X69671696Y-77859846D01*
X69425804Y-77577312D01*
X69117072Y-77138987D01*
X69028223Y-76693563D01*
X68932150Y-76161122D01*
X68750618Y-75711483D01*
X68741439Y-75696917D01*
X68524546Y-75240739D01*
X68386583Y-74772797D01*
X68248737Y-74276157D01*
X68031353Y-73685631D01*
X67952984Y-73502797D01*
X67601695Y-72655881D01*
X67389391Y-72000396D01*
X67328183Y-71577561D01*
X67355651Y-71469949D01*
X67326723Y-71247046D01*
X67204127Y-71108400D01*
X67028188Y-70823570D01*
X66891021Y-70352675D01*
X66862854Y-70175190D01*
X66745612Y-69646520D01*
X66563715Y-69226074D01*
X66504350Y-69145857D01*
X66287968Y-68769792D01*
X66236000Y-68515533D01*
X66161384Y-68157346D01*
X66077118Y-68020866D01*
X65931262Y-67738575D01*
X65857774Y-67436667D01*
X65723748Y-66939035D01*
X65593930Y-66644600D01*
X65474886Y-66252940D01*
X65496030Y-66000984D01*
X65462196Y-65670247D01*
X65243397Y-65344905D01*
X65001119Y-64940702D01*
X64772504Y-64309507D01*
X64589992Y-63562473D01*
X64486019Y-62810755D01*
X64480705Y-62731454D01*
X64367554Y-62362819D01*
X64221980Y-62198410D01*
X64015477Y-61962584D01*
X63829253Y-61585231D01*
X63703894Y-61185034D01*
X63679988Y-60880677D01*
X63740235Y-60789699D01*
X63734457Y-60651758D01*
X63528779Y-60364972D01*
X63360651Y-60184702D01*
X62992651Y-59740493D01*
X62877771Y-59365438D01*
X62891650Y-59219438D01*
X62866293Y-58815029D01*
X62737706Y-58608958D01*
X62581522Y-58278656D01*
X62610905Y-57845882D01*
X62651399Y-57449394D01*
X62554890Y-57291341D01*
X62456256Y-57276667D01*
X62199323Y-57135405D01*
X62087333Y-56938000D01*
X61914149Y-56641762D01*
X61738805Y-56657061D01*
X61644701Y-56975924D01*
X61644467Y-56980333D01*
X61608822Y-57480668D01*
X61550975Y-57748791D01*
X61444293Y-57891131D01*
X61410000Y-57917302D01*
X61305999Y-58144885D01*
X61230382Y-58588819D01*
X61210169Y-58878950D01*
X61149976Y-59403101D01*
X61031229Y-59790499D01*
X60956169Y-59894950D01*
X60807368Y-60180659D01*
X60785833Y-60532040D01*
X60689100Y-61061243D01*
X60402677Y-61463374D01*
X60065593Y-61987355D01*
X59960925Y-62441333D01*
X59949352Y-63147461D01*
X59928391Y-63579209D01*
X59890947Y-63800856D01*
X59829926Y-63876682D01*
X59802068Y-63880667D01*
X59640623Y-64026978D01*
X59428492Y-64400095D01*
X59208384Y-64901287D01*
X59023010Y-65431826D01*
X58915081Y-65892983D01*
X58908628Y-65945941D01*
X58823472Y-66415791D01*
X58699013Y-66759177D01*
X58695125Y-66765547D01*
X58550539Y-67075472D01*
X58526131Y-67182667D01*
X58415839Y-67597624D01*
X58145748Y-68245096D01*
X57993638Y-68565252D01*
X57847304Y-68972381D01*
X57834534Y-69262646D01*
X57844908Y-69284622D01*
X57841926Y-69544503D01*
X57694476Y-69844714D01*
X57491464Y-70258562D01*
X57430034Y-70564678D01*
X57343610Y-70932863D01*
X57131979Y-71392944D01*
X57087665Y-71468513D01*
X56888572Y-71859987D01*
X56821254Y-72131529D01*
X56831125Y-72166877D01*
X56783852Y-72368183D01*
X56558270Y-72688468D01*
X56496161Y-72758088D01*
X56218505Y-73095236D01*
X56079650Y-73337408D01*
X56076000Y-73361034D01*
X56014931Y-73611667D01*
X55873580Y-73987310D01*
X55695019Y-74446175D01*
X55611188Y-74803980D01*
X55587532Y-75002922D01*
X55429624Y-75210792D01*
X55229333Y-75310667D01*
X54953664Y-75543792D01*
X54890667Y-75894010D01*
X54805822Y-76319695D01*
X54638531Y-76579119D01*
X54469089Y-76814590D01*
X54474934Y-76931632D01*
X54464482Y-77183566D01*
X54286820Y-77498358D01*
X54040231Y-77728608D01*
X53918601Y-77766000D01*
X53713329Y-77907800D01*
X53680941Y-78286696D01*
X53685281Y-78316333D01*
X53577481Y-78439332D01*
X53536000Y-78443333D01*
X53404849Y-78587140D01*
X53366667Y-78832800D01*
X53289442Y-79223607D01*
X53177722Y-79411211D01*
X52954782Y-79704371D01*
X52782878Y-79995411D01*
X52563364Y-80275629D01*
X52379156Y-80348333D01*
X52228368Y-80456915D01*
X52181333Y-80703317D01*
X52113176Y-81103278D01*
X51945646Y-81557576D01*
X51734153Y-81948491D01*
X51534108Y-82158303D01*
X51491598Y-82168667D01*
X51340186Y-82298825D01*
X51334667Y-82345147D01*
X51223582Y-82605558D01*
X50947791Y-82983176D01*
X50593486Y-83382033D01*
X50246861Y-83706162D01*
X49994109Y-83859595D01*
X49972303Y-83862000D01*
X49844204Y-84004959D01*
X49810667Y-84226756D01*
X49677253Y-84570411D01*
X49321023Y-84998847D01*
X49133333Y-85171284D01*
X48678233Y-85642253D01*
X48465567Y-86050105D01*
X48456000Y-86134950D01*
X48335952Y-86528209D01*
X48051361Y-86885798D01*
X47715552Y-87073824D01*
X47656690Y-87079333D01*
X47486187Y-87223262D01*
X47369383Y-87506974D01*
X47191219Y-87913104D01*
X46913510Y-88274252D01*
X46621311Y-88500329D01*
X46417823Y-88514849D01*
X46291149Y-88571996D01*
X46254667Y-88778526D01*
X46113010Y-89123879D01*
X45916000Y-89231602D01*
X45640543Y-89421878D01*
X45577333Y-89601701D01*
X45448438Y-89905241D01*
X45215110Y-90132285D01*
X44823733Y-90418959D01*
X44388887Y-90760248D01*
X44386333Y-90762333D01*
X44024234Y-91018184D01*
X43754012Y-91141363D01*
X43732556Y-91143333D01*
X43554053Y-91268678D01*
X43545333Y-91322660D01*
X43438392Y-91416316D01*
X43349836Y-91381163D01*
X43233962Y-91361205D01*
X43275163Y-91455836D01*
X43313839Y-91757619D01*
X43280160Y-91838745D01*
X43130207Y-91930253D01*
X43052681Y-91845500D01*
X42894372Y-91817922D01*
X42722680Y-92014474D01*
X42610163Y-92247968D01*
X42698667Y-92244000D01*
X42793497Y-92239622D01*
X42682753Y-92460555D01*
X42385146Y-92788918D01*
X41992919Y-93080515D01*
X41663707Y-93318837D01*
X41514161Y-93513678D01*
X41513333Y-93523573D01*
X41376447Y-93666264D01*
X41265171Y-93683333D01*
X40999462Y-93794516D01*
X40625948Y-94073932D01*
X40477537Y-94210684D01*
X40006953Y-94605705D01*
X39516574Y-94923929D01*
X39413365Y-94975210D01*
X38647950Y-95367789D01*
X38153820Y-95739538D01*
X38008987Y-95903663D01*
X37712465Y-96153492D01*
X37274914Y-96388701D01*
X37244411Y-96401278D01*
X36710820Y-96667061D01*
X36183912Y-97002063D01*
X36163350Y-97017281D01*
X35728699Y-97276059D01*
X35338790Y-97405317D01*
X35288461Y-97408667D01*
X34979352Y-97480355D01*
X34880552Y-97579678D01*
X34686957Y-97753696D01*
X34485441Y-97827362D01*
X34137424Y-97909168D01*
X33599524Y-98038579D01*
X33185440Y-98139384D01*
X31917561Y-98311414D01*
X30643884Y-98238506D01*
X30489761Y-98210969D01*
X30033924Y-98025679D01*
X29486297Y-97670696D01*
X28975792Y-97233205D01*
X28854796Y-97105256D01*
X28586801Y-96756205D01*
X28558545Y-96606674D01*
X28735188Y-96657936D01*
X29081889Y-96911262D01*
X29282108Y-97089655D01*
X29906996Y-97620984D01*
X30455213Y-97926009D01*
X31053947Y-98048865D01*
X31830387Y-98033685D01*
X31969713Y-98022260D01*
X32707345Y-97956668D01*
X33171085Y-97907352D01*
X33424477Y-97861755D01*
X33531065Y-97807324D01*
X33554396Y-97731503D01*
X33554667Y-97709117D01*
X33657607Y-97629690D01*
X33706376Y-97651774D01*
X33947490Y-97645916D01*
X34322791Y-97503045D01*
X34341376Y-97493478D01*
X34737559Y-97315903D01*
X35016468Y-97240396D01*
X35018216Y-97240376D01*
X35238371Y-97102930D01*
X35315977Y-96967764D01*
X35525577Y-96780088D01*
X35672761Y-96793116D01*
X35889802Y-96793404D01*
X35925333Y-96720704D01*
X36063005Y-96529366D01*
X36221667Y-96446977D01*
X36558600Y-96280050D01*
X36983859Y-96012652D01*
X37026000Y-95983184D01*
X37518450Y-95661694D01*
X37995128Y-95389257D01*
X37999667Y-95386944D01*
X38326940Y-95176737D01*
X38465308Y-95000975D01*
X38465333Y-94999392D01*
X38567724Y-94919329D01*
X38613341Y-94940153D01*
X38805308Y-94885023D01*
X39065953Y-94625841D01*
X39076865Y-94611480D01*
X39236932Y-94445333D01*
X39650667Y-94445333D01*
X39735333Y-94530000D01*
X39820000Y-94445333D01*
X39735333Y-94360667D01*
X39650667Y-94445333D01*
X39236932Y-94445333D01*
X39363480Y-94313978D01*
X39606191Y-94191333D01*
X39801930Y-94057519D01*
X39820000Y-93967854D01*
X39932746Y-93742475D01*
X40227676Y-93392430D01*
X40639825Y-92976068D01*
X41104228Y-92551739D01*
X41555921Y-92177792D01*
X41929939Y-91912575D01*
X42161318Y-91814440D01*
X42197788Y-91832189D01*
X42346012Y-91930706D01*
X42447545Y-91791231D01*
X42453185Y-91514426D01*
X42416440Y-91384836D01*
X42384601Y-91181454D01*
X42500557Y-91210215D01*
X42677388Y-91239966D01*
X42698667Y-91188169D01*
X42805891Y-90995406D01*
X43083467Y-90645280D01*
X43167857Y-90550667D01*
X43545333Y-90550667D01*
X43630000Y-90635333D01*
X43714667Y-90550667D01*
X43630000Y-90466000D01*
X43545333Y-90550667D01*
X43167857Y-90550667D01*
X43376000Y-90317309D01*
X43742211Y-89891563D01*
X43988162Y-89542400D01*
X44053333Y-89384352D01*
X44170023Y-89117270D01*
X44457639Y-88781381D01*
X44822506Y-88458775D01*
X45170946Y-88231542D01*
X45409281Y-88181775D01*
X45419532Y-88187127D01*
X45551359Y-88221195D01*
X45518281Y-88136778D01*
X45469924Y-87873925D01*
X45552097Y-87611767D01*
X45707431Y-87495549D01*
X45764410Y-87513633D01*
X45886031Y-87454689D01*
X45916000Y-87276072D01*
X46033198Y-86915421D01*
X46321203Y-86494861D01*
X46684629Y-86123596D01*
X47028090Y-85910830D01*
X47123188Y-85894000D01*
X47331873Y-85790889D01*
X47324555Y-85573782D01*
X47399301Y-85205850D01*
X47776018Y-84704050D01*
X47848408Y-84627912D01*
X48234436Y-84146574D01*
X48439384Y-83713935D01*
X48456000Y-83593463D01*
X48548513Y-83260227D01*
X48710000Y-83163500D01*
X49085819Y-83129884D01*
X49175667Y-83121167D01*
X49353371Y-82959642D01*
X49405237Y-82746295D01*
X49475122Y-82363180D01*
X49627133Y-81873633D01*
X49819583Y-81382660D01*
X50010786Y-80995266D01*
X50159057Y-80816456D01*
X50172338Y-80814000D01*
X50303632Y-80677185D01*
X50318667Y-80569602D01*
X50445008Y-80284284D01*
X50631391Y-80103935D01*
X50888634Y-79801027D01*
X51119952Y-79339579D01*
X51152523Y-79247667D01*
X51340348Y-78843921D01*
X51549663Y-78625396D01*
X51601799Y-78612667D01*
X51804906Y-78473731D01*
X51842667Y-78313308D01*
X51933936Y-77993623D01*
X52162632Y-77552002D01*
X52264807Y-77392714D01*
X52506053Y-76966867D01*
X52613996Y-76629892D01*
X52608241Y-76549073D01*
X52657556Y-76198248D01*
X53009583Y-75787394D01*
X53411961Y-75488194D01*
X53721681Y-75210285D01*
X53740812Y-74992918D01*
X53626945Y-74589501D01*
X53723620Y-74111445D01*
X53935658Y-73786152D01*
X54053098Y-73617333D01*
X54382667Y-73617333D01*
X54467333Y-73702000D01*
X54552000Y-73617333D01*
X54467333Y-73532667D01*
X54382667Y-73617333D01*
X54053098Y-73617333D01*
X54157787Y-73466843D01*
X54213333Y-73266571D01*
X54298565Y-73048958D01*
X54364309Y-73024667D01*
X54522048Y-72855567D01*
X54688039Y-72348986D01*
X54832366Y-71670000D01*
X54947789Y-71328596D01*
X55069959Y-71190222D01*
X55193504Y-70997974D01*
X55229333Y-70732523D01*
X55332567Y-70152803D01*
X55653188Y-69410503D01*
X56039892Y-68733001D01*
X56260220Y-68325095D01*
X56356133Y-68045759D01*
X56346686Y-67989574D01*
X56351963Y-67792327D01*
X56490405Y-67439288D01*
X56503795Y-67412906D01*
X56774421Y-66888445D01*
X57011393Y-66430001D01*
X57183741Y-65841305D01*
X57178311Y-65414001D01*
X57153459Y-65056690D01*
X57217698Y-64897223D01*
X57223962Y-64896667D01*
X57334739Y-64746313D01*
X57458236Y-64367550D01*
X57572190Y-63868824D01*
X57654341Y-63358579D01*
X57682426Y-62945262D01*
X57659439Y-62775318D01*
X57699144Y-62512818D01*
X57801897Y-62437895D01*
X57971127Y-62219890D01*
X58021261Y-61886135D01*
X58100789Y-61420899D01*
X58260727Y-61118662D01*
X58425696Y-60865360D01*
X58344754Y-60708611D01*
X58277371Y-60663356D01*
X58147853Y-60525358D01*
X58123938Y-60276813D01*
X58203483Y-59826537D01*
X58252737Y-59615361D01*
X58389028Y-58989941D01*
X58493559Y-58407921D01*
X58524296Y-58178626D01*
X58601199Y-57736240D01*
X58705001Y-57438987D01*
X58853109Y-57090681D01*
X58956735Y-56659866D01*
X58994863Y-56274809D01*
X58946476Y-56063778D01*
X58931692Y-56055453D01*
X58868839Y-55869418D01*
X58894672Y-55435386D01*
X58943260Y-55135480D01*
X59050887Y-54450753D01*
X59127001Y-53754565D01*
X59141844Y-53527956D01*
X59238348Y-52923182D01*
X59434264Y-52362171D01*
X59486245Y-52264978D01*
X59666094Y-51896155D01*
X59709707Y-51661917D01*
X59698961Y-51642739D01*
X59656523Y-51409824D01*
X59759024Y-51099529D01*
X59936624Y-50879968D01*
X60025832Y-50855894D01*
X60578345Y-50768526D01*
X60988086Y-50414924D01*
X61122658Y-50110491D01*
X61244526Y-49778837D01*
X61456663Y-49615659D01*
X61871155Y-49547694D01*
X61997894Y-49538428D01*
X62652896Y-49574009D01*
X63005199Y-49743947D01*
X63348685Y-50047004D01*
X63652285Y-50293504D01*
X63954487Y-50629318D01*
X64083898Y-50926667D01*
X64206519Y-51340011D01*
X64355393Y-51665308D01*
X64497204Y-52123157D01*
X64498408Y-52465384D01*
X64566123Y-52932671D01*
X64723959Y-53138823D01*
X64988446Y-53557165D01*
X65141130Y-54140632D01*
X65153740Y-54726146D01*
X65057451Y-55062656D01*
X64956554Y-55342927D01*
X65052883Y-55414000D01*
X65264904Y-55561185D01*
X65451991Y-55915401D01*
X65568638Y-56345634D01*
X65569342Y-56720874D01*
X65537282Y-56808624D01*
X65470902Y-57046833D01*
X65644798Y-57107333D01*
X65854462Y-57212828D01*
X65869229Y-57319000D01*
X65913376Y-57614874D01*
X66053247Y-57941842D01*
X66211733Y-58384784D01*
X66308943Y-58944414D01*
X66315956Y-59042509D01*
X66370215Y-59560441D01*
X66459220Y-59969365D01*
X66481299Y-60028333D01*
X66548554Y-60397813D01*
X66520891Y-60559227D01*
X66538504Y-60871462D01*
X66658755Y-61119121D01*
X66832306Y-61477335D01*
X66865058Y-61688894D01*
X66889619Y-62089545D01*
X66990132Y-62620342D01*
X67131178Y-63132009D01*
X67277336Y-63475270D01*
X67294670Y-63499494D01*
X67366915Y-63622703D01*
X67445384Y-63838847D01*
X67540660Y-64192369D01*
X67663326Y-64727712D01*
X67823966Y-65489323D01*
X68033163Y-66521643D01*
X68131415Y-67013333D01*
X68263385Y-67568570D01*
X68400831Y-67980617D01*
X68495082Y-68139314D01*
X68610147Y-68368336D01*
X68678607Y-68783133D01*
X68681970Y-68842813D01*
X68750800Y-69311443D01*
X68883339Y-69648466D01*
X68895334Y-69664166D01*
X69028049Y-69958167D01*
X69154163Y-70449067D01*
X69204200Y-70738667D01*
X69323860Y-71292502D01*
X69489898Y-71736749D01*
X69575302Y-71870996D01*
X69733092Y-72161139D01*
X69723101Y-72321820D01*
X69735105Y-72545541D01*
X69856684Y-72995654D01*
X70063634Y-73587431D01*
X70141865Y-73787715D01*
X70373292Y-74415927D01*
X70529068Y-74938550D01*
X70583684Y-75266138D01*
X70576711Y-75312544D01*
X70630371Y-75555891D01*
X70745902Y-75634562D01*
X70932903Y-75866226D01*
X70945568Y-76114243D01*
X71004049Y-76501272D01*
X71145358Y-76697353D01*
X71309273Y-76907837D01*
X71225982Y-77182603D01*
X71187565Y-77247687D01*
X71062638Y-77508684D01*
X71163720Y-77592490D01*
X71258120Y-77596667D01*
X71444202Y-77648352D01*
X71428519Y-77709925D01*
X71431158Y-77909650D01*
X71545749Y-78090925D01*
X71802040Y-78536319D01*
X71898745Y-79017215D01*
X71809154Y-79390868D01*
X71792962Y-79412065D01*
X71705974Y-79564164D01*
X71886266Y-79529006D01*
X71914113Y-79518478D01*
X72134592Y-79483786D01*
X72122476Y-79658491D01*
X72156853Y-79952546D01*
X72374485Y-80323801D01*
X72403894Y-80359147D01*
X72659636Y-80774312D01*
X72756732Y-81171799D01*
X72755914Y-81187119D01*
X72833183Y-81600122D01*
X72967730Y-81812587D01*
X73126590Y-82156559D01*
X73130234Y-82459220D01*
X73127918Y-82756905D01*
X73263557Y-82784678D01*
X73490597Y-82849028D01*
X73693668Y-83128492D01*
X73809503Y-83501806D01*
X73793014Y-83799489D01*
X73794984Y-84231740D01*
X74109064Y-84533642D01*
X74237000Y-84588703D01*
X74477976Y-84847968D01*
X74533333Y-85190618D01*
X74619317Y-85625174D01*
X74796888Y-85901929D01*
X74993972Y-86033477D01*
X75015962Y-85917034D01*
X75008554Y-85880330D01*
X75085313Y-85697958D01*
X75253000Y-85689756D01*
X75479758Y-85634717D01*
X75549182Y-85322166D01*
X75549333Y-85297624D01*
X75649126Y-84770122D01*
X75903810Y-84235728D01*
X76246341Y-83794432D01*
X76609676Y-83546225D01*
X76738997Y-83523333D01*
X76849362Y-83391170D01*
X76812623Y-83163526D01*
X76778995Y-82836491D01*
X76843546Y-82696804D01*
X77007397Y-82492721D01*
X77250198Y-82103766D01*
X77357177Y-81913611D01*
X77678398Y-81444355D01*
X77980461Y-81274236D01*
X78059673Y-81274628D01*
X78304901Y-81232090D01*
X78307124Y-80981012D01*
X78282195Y-80452889D01*
X78447169Y-79989307D01*
X78755294Y-79717409D01*
X78774136Y-79710962D01*
X79026771Y-79527881D01*
X79016332Y-79276343D01*
X79012859Y-79011251D01*
X79190000Y-78951333D01*
X79387875Y-78850588D01*
X79369950Y-78646116D01*
X79381369Y-78315312D01*
X79523938Y-77840780D01*
X79612539Y-77638296D01*
X79816419Y-77185788D01*
X79937506Y-76858071D01*
X79952000Y-76784424D01*
X80065268Y-76566727D01*
X80272298Y-76343290D01*
X80491054Y-76007326D01*
X80512268Y-75746250D01*
X80572184Y-75408947D01*
X80850395Y-74963603D01*
X80931123Y-74866871D01*
X81274911Y-74413010D01*
X81511327Y-73988230D01*
X81606777Y-73669392D01*
X81527669Y-73533358D01*
X81514256Y-73532667D01*
X81433750Y-73386367D01*
X81454369Y-72998773D01*
X81561430Y-72446842D01*
X81740250Y-71807529D01*
X81959678Y-71198064D01*
X82166236Y-70588754D01*
X82297715Y-70009015D01*
X82322667Y-69744620D01*
X82353707Y-69328756D01*
X82428984Y-69080826D01*
X82434599Y-69074511D01*
X82529566Y-68822405D01*
X82607267Y-68328950D01*
X82653898Y-67691446D01*
X82659752Y-67487392D01*
X82734350Y-67144843D01*
X82836020Y-67010025D01*
X82927984Y-66802264D01*
X82903517Y-66740215D01*
X82909913Y-66487484D01*
X82997173Y-66339406D01*
X83102497Y-66014526D01*
X83017708Y-65776422D01*
X82914563Y-65480445D01*
X82933814Y-65357964D01*
X82983238Y-65158672D01*
X83037820Y-64703455D01*
X83088567Y-64074757D01*
X83107094Y-63769366D01*
X83157444Y-62877759D01*
X83213995Y-61917630D01*
X83265393Y-61081314D01*
X83270446Y-61002000D01*
X83307651Y-60211462D01*
X83324538Y-59401239D01*
X83318689Y-58800667D01*
X83316019Y-58687561D01*
X86927741Y-58687561D01*
X86928886Y-58797886D01*
X86958599Y-58800667D01*
X87099948Y-58684948D01*
X87254933Y-58504333D01*
X87401380Y-58303759D01*
X87313692Y-58345807D01*
X87191000Y-58440400D01*
X86927741Y-58687561D01*
X83316019Y-58687561D01*
X83304271Y-58189928D01*
X83303882Y-57656458D01*
X83310553Y-57446000D01*
X83320661Y-57099328D01*
X83327640Y-56509942D01*
X83330620Y-55773785D01*
X83330094Y-55291317D01*
X83335174Y-54487947D01*
X83364085Y-53951709D01*
X83428374Y-53611293D01*
X83539586Y-53395388D01*
X83656399Y-53275967D01*
X83886430Y-52973728D01*
X83840965Y-52605406D01*
X83832711Y-52583293D01*
X83714250Y-52260481D01*
X83717212Y-52068763D01*
X83875741Y-51849253D01*
X84027930Y-51674911D01*
X84395154Y-51374129D01*
X84873251Y-51133300D01*
X85357951Y-50986452D01*
X85744981Y-50967610D01*
X85910186Y-51060699D01*
X86080208Y-51178749D01*
X86371839Y-51058213D01*
X86379202Y-51053667D01*
X86783311Y-50861589D01*
X86964659Y-50924431D01*
X86952719Y-51146294D01*
X87026730Y-51435801D01*
X87314236Y-51689226D01*
X87692765Y-51827816D01*
X87975912Y-51804217D01*
X88243469Y-51859299D01*
X88567298Y-52116232D01*
X88856945Y-52471637D01*
X89021957Y-52822131D01*
X89019894Y-52997419D01*
X89050239Y-53291198D01*
X89253997Y-53659965D01*
X89261148Y-53669140D01*
X89483013Y-54057182D01*
X89444266Y-54379097D01*
X89432292Y-54402437D01*
X89361855Y-54685697D01*
X89463077Y-54774359D01*
X89571860Y-54920172D01*
X89479703Y-55158177D01*
X89402699Y-55598162D01*
X89574824Y-56028158D01*
X89933801Y-56305046D01*
X89985674Y-56320977D01*
X90237632Y-56490662D01*
X90234885Y-56758662D01*
X90229979Y-57033564D01*
X90316936Y-57107333D01*
X90419720Y-57241671D01*
X90401602Y-57446000D01*
X90396011Y-57715819D01*
X90476513Y-57784667D01*
X90556006Y-57892398D01*
X90519457Y-57979688D01*
X90542184Y-58216921D01*
X90710010Y-58402180D01*
X90962777Y-58786740D01*
X91054963Y-59328061D01*
X91112843Y-59790189D01*
X91216053Y-60092464D01*
X91253118Y-60133237D01*
X91371414Y-60362043D01*
X91430054Y-60767105D01*
X91430459Y-60781533D01*
X91542809Y-61292533D01*
X91798165Y-61801750D01*
X91821664Y-61834540D01*
X92081091Y-62262272D01*
X92219306Y-62637401D01*
X92224115Y-62675879D01*
X92352824Y-63092570D01*
X92459713Y-63260342D01*
X92670408Y-63761685D01*
X92602494Y-64352066D01*
X92571825Y-64431000D01*
X92548332Y-64674890D01*
X92708556Y-64727333D01*
X92918756Y-64764726D01*
X93068373Y-64921784D01*
X93190613Y-65265832D01*
X93318677Y-65864192D01*
X93348905Y-66025684D01*
X93506029Y-66652314D01*
X93714887Y-67208746D01*
X93852968Y-67458623D01*
X94084252Y-67910584D01*
X94176000Y-68331073D01*
X94279265Y-68746323D01*
X94444420Y-68972634D01*
X94641015Y-69339302D01*
X94644034Y-69664204D01*
X94654020Y-70027761D01*
X94765905Y-70206176D01*
X94927919Y-70399837D01*
X95115094Y-70803574D01*
X95189459Y-71017006D01*
X95365222Y-71512351D01*
X95531435Y-71884487D01*
X95581094Y-71965360D01*
X95673948Y-72283307D01*
X95658741Y-72600360D01*
X95666119Y-72945142D01*
X95806147Y-73024667D01*
X95984034Y-73180851D01*
X96123443Y-73596813D01*
X96145294Y-73716510D01*
X96268276Y-74171475D01*
X96440311Y-74463213D01*
X96495694Y-74500361D01*
X96662459Y-74698036D01*
X96651130Y-74812137D01*
X96693673Y-75090491D01*
X96814555Y-75237526D01*
X96979658Y-75561199D01*
X96962412Y-75757907D01*
X96943694Y-76013395D01*
X97011840Y-76072667D01*
X97185687Y-76214033D01*
X97417582Y-76565845D01*
X97651499Y-77019675D01*
X97831411Y-77467092D01*
X97901333Y-77794097D01*
X98016831Y-78189840D01*
X98155333Y-78382857D01*
X98332812Y-78723294D01*
X98409269Y-79193075D01*
X98409333Y-79206017D01*
X98476978Y-79654926D01*
X98706006Y-79868404D01*
X98737022Y-79879182D01*
X99003980Y-80106483D01*
X99272456Y-80569278D01*
X99358385Y-80779593D01*
X99577270Y-81304638D01*
X99796354Y-81725065D01*
X99881446Y-81847845D01*
X100025152Y-82187839D01*
X100007145Y-82389892D01*
X100046000Y-82667112D01*
X100249426Y-83085900D01*
X100550656Y-83540483D01*
X100882921Y-83925090D01*
X101075332Y-84082081D01*
X101229089Y-84335300D01*
X101288000Y-84717081D01*
X101337105Y-85070121D01*
X101454931Y-85216667D01*
X101672174Y-85357839D01*
X101948100Y-85712770D01*
X102221248Y-86178575D01*
X102430161Y-86652371D01*
X102511376Y-86985155D01*
X102628841Y-87371578D01*
X102822719Y-87541072D01*
X103052681Y-87718472D01*
X103359517Y-88100944D01*
X103581201Y-88446330D01*
X103867240Y-88899177D01*
X104099931Y-89202184D01*
X104202240Y-89280667D01*
X104321045Y-89418315D01*
X104336000Y-89534667D01*
X104417184Y-89760157D01*
X104486039Y-89788667D01*
X104641934Y-89926641D01*
X104848716Y-90256264D01*
X105041048Y-90651087D01*
X105153590Y-90984660D01*
X105159061Y-91091166D01*
X105199378Y-91401772D01*
X105382614Y-91655107D01*
X105604751Y-91713048D01*
X105840672Y-91777534D01*
X106187418Y-92038590D01*
X106379945Y-92231740D01*
X106749402Y-92588374D01*
X107061128Y-92805670D01*
X107162522Y-92836667D01*
X107420742Y-92973144D01*
X107491725Y-93089694D01*
X107656400Y-93258108D01*
X107751677Y-93242071D01*
X107965087Y-93279199D01*
X108135191Y-93443188D01*
X108466755Y-93696225D01*
X108807762Y-93805475D01*
X109490360Y-93958943D01*
X109935668Y-94191752D01*
X110093333Y-94475009D01*
X110138643Y-94665022D01*
X110296533Y-94563866D01*
X110665962Y-94386951D01*
X111109327Y-94394174D01*
X111387168Y-94536901D01*
X111643257Y-94644804D01*
X112107715Y-94731529D01*
X112672743Y-94789516D01*
X113230539Y-94811206D01*
X113673305Y-94789040D01*
X113893241Y-94715457D01*
X113895031Y-94712767D01*
X113970507Y-94632961D01*
X114136351Y-94524144D01*
X114436511Y-94364061D01*
X114914936Y-94130457D01*
X115615575Y-93801077D01*
X116544023Y-93371350D01*
X116801701Y-93253991D01*
X116973412Y-93141526D01*
X117070254Y-92972319D01*
X117103328Y-92684736D01*
X117083732Y-92217143D01*
X117043813Y-91754268D01*
X118343435Y-91754268D01*
X118434686Y-91894991D01*
X118632687Y-92018910D01*
X118892785Y-91934514D01*
X119094140Y-91801373D01*
X119446692Y-91579821D01*
X119682652Y-91482224D01*
X119688407Y-91482000D01*
X119880260Y-91354423D01*
X120048806Y-91136763D01*
X120271218Y-90909493D01*
X120428205Y-90892756D01*
X120577418Y-90862787D01*
X120592000Y-90786438D01*
X120647441Y-90652004D01*
X120684816Y-90671705D01*
X120765874Y-90688758D01*
X120927261Y-90607422D01*
X121212735Y-90395387D01*
X121666049Y-90020341D01*
X122281941Y-89492333D01*
X122689208Y-89172227D01*
X123012344Y-88973771D01*
X123114381Y-88942000D01*
X123310797Y-88801130D01*
X123477211Y-88501453D01*
X123681450Y-88182917D01*
X123915207Y-88164707D01*
X124108111Y-88175560D01*
X124090766Y-88021095D01*
X124162887Y-87756130D01*
X124537388Y-87439472D01*
X124579913Y-87412697D01*
X124949416Y-87139901D01*
X125152854Y-86903445D01*
X125166390Y-86853856D01*
X125274257Y-86630886D01*
X125551695Y-86253812D01*
X125859055Y-85894000D01*
X126280606Y-85395646D01*
X126635939Y-84918398D01*
X126792347Y-84666333D01*
X126888094Y-84539333D01*
X127824269Y-84539333D01*
X127825791Y-84819692D01*
X127967471Y-84855028D01*
X128142416Y-84631968D01*
X128162630Y-84581667D01*
X128332748Y-84275167D01*
X128425513Y-84181898D01*
X128430552Y-84049433D01*
X128302070Y-83972171D01*
X128115610Y-83952902D01*
X128128532Y-84033273D01*
X128124638Y-84188397D01*
X128072410Y-84200667D01*
X127906131Y-84341721D01*
X127824269Y-84539333D01*
X126888094Y-84539333D01*
X127040396Y-84337319D01*
X127295009Y-84200667D01*
X127472552Y-84125495D01*
X127460966Y-84049077D01*
X127508835Y-83871844D01*
X127637875Y-83793649D01*
X127828205Y-83600554D01*
X127826340Y-83536764D01*
X128765547Y-83536764D01*
X128777840Y-83759275D01*
X128917985Y-83686330D01*
X128984396Y-83621794D01*
X129187331Y-83333004D01*
X129228000Y-83186768D01*
X129327189Y-83070365D01*
X129385633Y-83092768D01*
X129603112Y-83071533D01*
X129649626Y-83018095D01*
X129611847Y-82871654D01*
X129486679Y-82846000D01*
X129194872Y-82983111D01*
X129120275Y-83099027D01*
X128977611Y-83282139D01*
X128906741Y-83280092D01*
X128802235Y-83358064D01*
X128765547Y-83536764D01*
X127826340Y-83536764D01*
X127824410Y-83470751D01*
X127877273Y-83214606D01*
X128119295Y-82887601D01*
X128145507Y-82861739D01*
X128378196Y-82589702D01*
X129566667Y-82589702D01*
X129697488Y-82674383D01*
X129736000Y-82676667D01*
X129892576Y-82542534D01*
X129905333Y-82460404D01*
X130012115Y-82212200D01*
X130281073Y-81840972D01*
X130421816Y-81678665D01*
X130714742Y-81327120D01*
X130862344Y-81087482D01*
X130863994Y-81038882D01*
X130699371Y-81082654D01*
X130421541Y-81327450D01*
X130100576Y-81689507D01*
X129806547Y-82085063D01*
X129609526Y-82430355D01*
X129566667Y-82589702D01*
X128378196Y-82589702D01*
X128425350Y-82534574D01*
X128550232Y-82274235D01*
X128550667Y-82264174D01*
X128685205Y-82039059D01*
X128962833Y-81835976D01*
X129336598Y-81512915D01*
X129568676Y-81147816D01*
X129825537Y-80674747D01*
X130074034Y-80345689D01*
X130369165Y-79959618D01*
X130712038Y-79412966D01*
X131043966Y-78812578D01*
X131306262Y-78265296D01*
X131440237Y-77877967D01*
X131444503Y-77850667D01*
X131382599Y-77349701D01*
X131136046Y-76864282D01*
X130784909Y-76537815D01*
X130689025Y-76497484D01*
X129851845Y-76359753D01*
X128906985Y-76390954D01*
X128036421Y-76584539D01*
X128010309Y-76593892D01*
X127536564Y-76742624D01*
X127205161Y-76802946D01*
X127121309Y-76788198D01*
X127032201Y-76819238D01*
X127026667Y-76874546D01*
X126883861Y-77049824D01*
X126538237Y-77225670D01*
X126518667Y-77232626D01*
X126166358Y-77407630D01*
X126011034Y-77588078D01*
X126010667Y-77595281D01*
X125880072Y-77732366D01*
X125762459Y-77731090D01*
X125450975Y-77821564D01*
X124933717Y-78173526D01*
X124215620Y-78783330D01*
X123728880Y-79234866D01*
X123375051Y-79532939D01*
X123122508Y-79676549D01*
X123062755Y-79672311D01*
X122971598Y-79711031D01*
X122957124Y-79812111D01*
X122841540Y-80050897D01*
X122546243Y-80432299D01*
X122195662Y-80811193D01*
X121741365Y-81314474D01*
X121356727Y-81822204D01*
X121177259Y-82123527D01*
X120969150Y-82487767D01*
X120795205Y-82671375D01*
X120773138Y-82676667D01*
X120620731Y-82819979D01*
X120481019Y-83151138D01*
X120409001Y-83521976D01*
X120411719Y-83650333D01*
X120326729Y-83845634D01*
X120260756Y-83862000D01*
X120126748Y-84006552D01*
X120084000Y-84275340D01*
X120020499Y-84634636D01*
X119911904Y-84795040D01*
X119806229Y-84985431D01*
X119824931Y-85039131D01*
X119789291Y-85251970D01*
X119588219Y-85585330D01*
X119562689Y-85618462D01*
X119355442Y-85968229D01*
X119318719Y-86224905D01*
X119325592Y-86238478D01*
X119321847Y-86494780D01*
X119167262Y-86826822D01*
X118965888Y-87251345D01*
X118898667Y-87581375D01*
X118831022Y-87859789D01*
X118734648Y-87926000D01*
X118641884Y-88050286D01*
X118668925Y-88182156D01*
X118668143Y-88527856D01*
X118607437Y-88647823D01*
X118535635Y-88908981D01*
X118491296Y-89408878D01*
X118482393Y-90048148D01*
X118485193Y-90171189D01*
X118485073Y-90804834D01*
X118450866Y-91297253D01*
X118389625Y-91559477D01*
X118373719Y-91577141D01*
X118343435Y-91754268D01*
X117043813Y-91754268D01*
X117022567Y-91507906D01*
X116974289Y-90982149D01*
G37*
G36*
X142097333Y-76326667D02*
G01*
X142012667Y-76411333D01*
X141928000Y-76326667D01*
X142012667Y-76242000D01*
X142097333Y-76326667D01*
G37*
X30018000Y-39742000D02*
X30318000Y-39492000D01*
%LPC*%
D11*
X109855000Y-95250000D03*
D12*
X104775000Y-95250000D03*
D11*
X99695000Y-95250000D03*
D13*
X100965000Y-92710000D03*
X107315000Y-90170000D03*
X234315000Y-92710000D03*
D11*
X233045000Y-95250000D03*
D13*
X240665000Y-90170000D03*
D11*
X243205000Y-95250000D03*
D12*
X238125000Y-95250000D03*
D11*
X252095000Y-95250000D03*
D13*
X253365000Y-92710000D03*
D11*
X262255000Y-95250000D03*
D12*
X257175000Y-95250000D03*
D13*
X259715000Y-90170000D03*
D14*
X25318640Y-30116800D03*
X25318640Y-33317200D03*
X30317360Y-33317200D03*
X30317360Y-30116800D03*
D11*
X30638750Y-76200000D03*
D13*
X38258750Y-71120000D03*
X31908750Y-73660000D03*
D11*
X40798750Y-76200000D03*
D12*
X35718750Y-76200000D03*
D13*
X74771250Y-111760000D03*
X81121250Y-109220000D03*
D12*
X78581250Y-114300000D03*
D11*
X83661250Y-114300000D03*
X73501250Y-114300000D03*
X228917500Y-57150000D03*
D13*
X220027500Y-54610000D03*
D12*
X223837500Y-57150000D03*
D11*
X218757500Y-57150000D03*
D13*
X226377500Y-52070000D03*
D14*
X25318640Y-41166800D03*
X25318640Y-44367200D03*
X30317360Y-44367200D03*
X30317360Y-41166800D03*
D13*
X196215000Y-92710000D03*
D11*
X194945000Y-95250000D03*
D12*
X200025000Y-95250000D03*
D11*
X205105000Y-95250000D03*
D13*
X202565000Y-90170000D03*
D11*
X152717500Y-57150000D03*
D13*
X150177500Y-52070000D03*
X143827500Y-54610000D03*
D12*
X147637500Y-57150000D03*
D11*
X142557500Y-57150000D03*
X157480000Y-76200000D03*
X147320000Y-76200000D03*
D13*
X148590000Y-73660000D03*
X154940000Y-71120000D03*
D12*
X152400000Y-76200000D03*
X119062500Y-38100000D03*
D11*
X124142500Y-38100000D03*
D13*
X115252500Y-35560000D03*
X121602500Y-33020000D03*
D11*
X113982500Y-38100000D03*
D12*
X100012500Y-38100000D03*
D13*
X102552500Y-33020000D03*
D11*
X94932500Y-38100000D03*
D13*
X96202500Y-35560000D03*
D11*
X105092500Y-38100000D03*
D13*
X120015000Y-92710000D03*
X126365000Y-90170000D03*
D12*
X123825000Y-95250000D03*
D11*
X118745000Y-95250000D03*
X128905000Y-95250000D03*
D13*
X46672500Y-40640000D03*
D12*
X42862500Y-38100000D03*
D11*
X37782500Y-38100000D03*
D13*
X40322500Y-43180000D03*
D11*
X47942500Y-38100000D03*
X185420000Y-76200000D03*
D13*
X193040000Y-71120000D03*
D11*
X195580000Y-76200000D03*
D13*
X186690000Y-73660000D03*
D12*
X190500000Y-76200000D03*
D11*
X233680000Y-76200000D03*
D13*
X224790000Y-73660000D03*
X231140000Y-71120000D03*
D11*
X223520000Y-76200000D03*
D12*
X228600000Y-76200000D03*
D11*
X133032500Y-38100000D03*
X143192500Y-38100000D03*
D13*
X140652500Y-33020000D03*
D12*
X138112500Y-38100000D03*
D13*
X134302500Y-35560000D03*
X59372500Y-43180000D03*
D11*
X66992500Y-38100000D03*
D13*
X65722500Y-40640000D03*
D12*
X61912500Y-38100000D03*
D11*
X56832500Y-38100000D03*
X81280000Y-76200000D03*
D13*
X72390000Y-73660000D03*
D11*
X71120000Y-76200000D03*
D12*
X76200000Y-76200000D03*
D13*
X78740000Y-71120000D03*
D11*
X180657500Y-57150000D03*
D13*
X181927500Y-54610000D03*
D11*
X190817500Y-57150000D03*
D12*
X185737500Y-57150000D03*
D13*
X188277500Y-52070000D03*
D15*
X252412500Y-81650000D03*
D16*
X252412500Y-84190000D03*
X252412500Y-86730000D03*
D17*
X26543000Y-31717000D03*
D18*
X29083000Y-31717000D03*
D12*
X180975000Y-95250000D03*
D11*
X175895000Y-95250000D03*
D13*
X183515000Y-90170000D03*
D11*
X186055000Y-95250000D03*
D13*
X177165000Y-92710000D03*
X36671250Y-92710000D03*
X43021250Y-90170000D03*
D12*
X40481250Y-95250000D03*
D11*
X45561250Y-95250000D03*
X35401250Y-95250000D03*
D13*
X59690000Y-71120000D03*
D11*
X52070000Y-76200000D03*
D13*
X53340000Y-73660000D03*
D11*
X62230000Y-76200000D03*
D12*
X57150000Y-76200000D03*
D11*
X66357500Y-57150000D03*
D13*
X67627500Y-54610000D03*
D11*
X76517500Y-57150000D03*
D12*
X71437500Y-57150000D03*
D13*
X73977500Y-52070000D03*
D11*
X90170000Y-76200000D03*
D13*
X91440000Y-73660000D03*
X97790000Y-71120000D03*
D12*
X95250000Y-76200000D03*
D11*
X100330000Y-76200000D03*
X262255000Y-114300000D03*
D13*
X253365000Y-111760000D03*
D11*
X252095000Y-114300000D03*
D13*
X259715000Y-109220000D03*
D12*
X257175000Y-114300000D03*
D17*
X26543000Y-37242000D03*
D18*
X29083000Y-37242000D03*
D13*
X167640000Y-73660000D03*
D12*
X171450000Y-76200000D03*
D11*
X176530000Y-76200000D03*
X166370000Y-76200000D03*
D13*
X173990000Y-71120000D03*
D15*
X41112500Y-66675000D03*
D16*
X38572500Y-66675000D03*
X36032500Y-66675000D03*
D12*
X52387500Y-57150000D03*
D11*
X47307500Y-57150000D03*
D13*
X54927500Y-52070000D03*
D11*
X57467500Y-57150000D03*
D13*
X48577500Y-54610000D03*
X62865000Y-92710000D03*
D11*
X71755000Y-95250000D03*
D13*
X69215000Y-90170000D03*
D12*
X66675000Y-95250000D03*
D11*
X61595000Y-95250000D03*
X38417500Y-57150000D03*
D13*
X35877500Y-52070000D03*
D11*
X28257500Y-57150000D03*
D12*
X33337500Y-57150000D03*
D13*
X29527500Y-54610000D03*
D11*
X224155000Y-95250000D03*
D13*
X221615000Y-90170000D03*
X215265000Y-92710000D03*
D12*
X219075000Y-95250000D03*
D11*
X213995000Y-95250000D03*
X214630000Y-76200000D03*
D13*
X212090000Y-71120000D03*
D12*
X209550000Y-76200000D03*
D11*
X204470000Y-76200000D03*
D13*
X205740000Y-73660000D03*
D11*
X156845000Y-95250000D03*
D12*
X161925000Y-95250000D03*
D13*
X164465000Y-90170000D03*
D11*
X167005000Y-95250000D03*
D13*
X158115000Y-92710000D03*
D11*
X109220000Y-76200000D03*
D12*
X114300000Y-76200000D03*
D11*
X119380000Y-76200000D03*
D13*
X110490000Y-73660000D03*
X116840000Y-71120000D03*
D12*
X142875000Y-95250000D03*
D13*
X139065000Y-92710000D03*
D11*
X147955000Y-95250000D03*
D13*
X145415000Y-90170000D03*
D11*
X137795000Y-95250000D03*
X209867500Y-57150000D03*
D13*
X200977500Y-54610000D03*
X207327500Y-52070000D03*
D12*
X204787500Y-57150000D03*
D11*
X199707500Y-57150000D03*
D14*
X25318640Y-35641800D03*
X25318640Y-38842200D03*
X30317360Y-38842200D03*
X30317360Y-35641800D03*
D17*
X26543000Y-42767000D03*
D18*
X29083000Y-42767000D03*
D11*
X114617500Y-57150000D03*
D13*
X105727500Y-54610000D03*
D11*
X104457500Y-57150000D03*
D13*
X112077500Y-52070000D03*
D12*
X109537500Y-57150000D03*
D13*
X124777500Y-54610000D03*
X131127500Y-52070000D03*
D12*
X128587500Y-57150000D03*
D11*
X133667500Y-57150000D03*
X123507500Y-57150000D03*
D13*
X246221250Y-54610000D03*
D11*
X244951250Y-57150000D03*
D13*
X252571250Y-52070000D03*
D12*
X250031250Y-57150000D03*
D11*
X255111250Y-57150000D03*
D15*
X30575000Y-95250000D03*
D16*
X28035000Y-95250000D03*
D11*
X243205000Y-114300000D03*
X233045000Y-114300000D03*
D12*
X238125000Y-114300000D03*
D13*
X240665000Y-109220000D03*
X234315000Y-111760000D03*
D11*
X40798750Y-114300000D03*
D13*
X38258750Y-109220000D03*
D12*
X35718750Y-114300000D03*
D13*
X31908750Y-111760000D03*
D11*
X30638750Y-114300000D03*
X62230000Y-114300000D03*
D13*
X59690000Y-109220000D03*
D11*
X52070000Y-114300000D03*
D12*
X57150000Y-114300000D03*
D13*
X53340000Y-111760000D03*
D11*
X224155000Y-114300000D03*
D12*
X219075000Y-114300000D03*
D13*
X221615000Y-109220000D03*
X215265000Y-111760000D03*
D11*
X213995000Y-114300000D03*
D13*
X160496250Y-111760000D03*
D12*
X152368250Y-106045000D03*
D19*
X152368250Y-121285000D03*
X176244250Y-121285000D03*
D11*
X169386250Y-114300000D03*
D12*
X176244250Y-106045000D03*
D11*
X159226250Y-114300000D03*
D12*
X164306250Y-114300000D03*
D13*
X166846250Y-109220000D03*
X83502500Y-33020000D03*
D12*
X80962500Y-38100000D03*
D11*
X75882500Y-38100000D03*
X86042500Y-38100000D03*
D13*
X77152500Y-35560000D03*
D11*
X128270000Y-76200000D03*
D12*
X133350000Y-76200000D03*
D13*
X135890000Y-71120000D03*
D11*
X138430000Y-76200000D03*
D13*
X129540000Y-73660000D03*
D12*
X85725000Y-95250000D03*
D13*
X88265000Y-90170000D03*
D11*
X90805000Y-95250000D03*
X80645000Y-95250000D03*
D13*
X81915000Y-92710000D03*
D11*
X257492500Y-76200000D03*
D13*
X254952500Y-71120000D03*
X248602500Y-73660000D03*
D12*
X252412500Y-76200000D03*
D11*
X247332500Y-76200000D03*
D13*
X112871250Y-111760000D03*
D12*
X116681250Y-114300000D03*
X128619250Y-106045000D03*
D11*
X111601250Y-114300000D03*
D13*
X119221250Y-109220000D03*
D19*
X104743250Y-121285000D03*
X128619250Y-121285000D03*
D11*
X121761250Y-114300000D03*
D12*
X104743250Y-106045000D03*
D11*
X202723750Y-114300000D03*
D13*
X193833750Y-111760000D03*
D12*
X197643750Y-114300000D03*
D13*
X200183750Y-109220000D03*
D11*
X192563750Y-114300000D03*
X95567500Y-57150000D03*
D12*
X90487500Y-57150000D03*
D11*
X85407500Y-57150000D03*
D13*
X93027500Y-52070000D03*
X86677500Y-54610000D03*
D19*
X100018850Y-121285000D03*
D13*
X152558750Y-109220000D03*
D19*
X200018650Y-121285000D03*
D12*
X100018850Y-106045000D03*
X150018750Y-114300000D03*
D13*
X146208750Y-111760000D03*
D11*
X155098750Y-114300000D03*
D12*
X200018650Y-106045000D03*
D11*
X144938750Y-114300000D03*
D12*
X166687500Y-57150000D03*
D13*
X162877500Y-54610000D03*
D11*
X161607500Y-57150000D03*
X171767500Y-57150000D03*
D13*
X169227500Y-52070000D03*
D20*
X49434000Y-31777000D03*
X55214000Y-31777000D03*
D21*
X48004000Y-32307000D03*
D22*
X48004000Y-28127000D03*
D21*
X56644000Y-32307000D03*
D22*
X56644000Y-28127000D03*
M02*
